<?xml version="1.0" standalone="no"?>
<!DOCTYPE svg PUBLIC "-//W3C//DTD SVG 1.1//EN" "http://www.w3.org/Graphics/SVG/1.1/DTD/svg11.dtd" >
<svg xmlns="http://www.w3.org/2000/svg" xmlns:xlink="http://www.w3.org/1999/xlink" version="1.1">
<metadata>
Created by FontForge 20170731 at Tue Sep  8 14:33:11 2020
 By Aleksey,,,
Copyright 2019 The Commissioner Project Authors (https://github.com/kosbarts/Commissioner)
</metadata>
<defs>
<font id="Commissioner-Light" horiz-adv-x="0" >
  <font-face 
    font-family="Commissioner Light"
    font-weight="300"
    font-stretch="normal"
    units-per-em="2000"
    panose-1="0 0 0 0 0 0 0 0 0 0"
    ascent="1600"
    descent="-400"
    x-height="991"
    cap-height="1426"
    bbox="-249 -568 2663 2307"
    underline-thickness="50"
    underline-position="-175"
    unicode-range="U+000D-FB02"
  />
<missing-glyph horiz-adv-x="1259" 
d="M89 -384v2020h1081v-2020h-1081zM167 -306h925v1864h-925v-1864zM647 396q-92 0 -145.5 45t-53.5 120q0 78 53.5 131.5t119.5 100.5q44 32 84 67t66 77.5t26 97.5q0 72 -50.5 110t-139.5 38q-38 0 -77 -7t-79.5 -21.5t-82.5 -36.5l-6 98q28 13 67.5 27t88.5 24t104 10
q125 0 202 -58t77 -170q0 -76 -33 -131.5t-82 -97.5t-97 -78q-56 -42 -99.5 -83.5t-43.5 -94.5q0 -57 37 -79.5t86 -22.5q32 0 58 6.5t43 13.5l6 -67q-14 -5 -35 -9t-45 -7t-49 -3zM611 19q-44 0 -70 26t-26 68q0 44 26 70t70 26q46 0 71.5 -26t25.5 -70q0 -42 -25.5 -68
t-71.5 -26z" />
    <glyph glyph-name="fi" unicode="fi" horiz-adv-x="1285" 
d="M246 0v214v225v100v128.5v139v152.5v170q0 102 27.5 171.5t76 111t112 60t136.5 18.5q33 0 65 -3t59 -9t47 -13l-13 -116q-31 12 -67.5 18t-76.5 6q-127 0 -184 -61.5t-57 -184.5v-76v-60l4 -35v-517v-225v-214h-129zM52 885v106h677v-106h-200h-196h-50h-231zM970 0v214
v225v100v161v146v145l128 4v-145.5v-147v-163.5v-100v-225v-214h-128zM1030 1240q-46 0 -75.5 27t-29.5 83q0 55 29.5 82.5t77.5 27.5t77 -28.5t29 -81.5q0 -56 -29 -83t-79 -27z" />
    <glyph glyph-name="fl" unicode="fl" horiz-adv-x="1281" 
d="M246 0v214v225v100v128.5v139v153v169.5q0 102 27.5 171.5t76 111t112 60t136.5 18.5q31 0 60.5 -3t54.5 -8t43 -11v-119q-31 12 -67.5 18t-76.5 6q-127 0 -184 -61.5t-57 -184.5v-76v-60l4 -35v-517v-225v-214h-129zM52 887v104h677v-104h-200h-196h-50h-231zM968 0v214
v225v549v245v230l129 19v-242.5v-251.5v-549v-225v-214h-129z" />
    <glyph glyph-name="f_f" unicode="ff" horiz-adv-x="1522" 
d="M985 0v214v225v100v128.5v139v153v169.5q0 102 27.5 171.5t76.5 111t112.5 60t135.5 18.5q33 0 64.5 -3t59 -9t47.5 -13l-12 -116q-32 12 -68.5 18t-76.5 6q-127 0 -184 -61.5t-57 -184.5v-76v-60l4 -35v-517v-225v-214h-129zM791 885v106h677v-106h-200h-196h-49h-232z
M246 0v214v225v100v128.5v139v153v169.5q0 102 27.5 171.5t76 111t112 60t136.5 18.5q33 0 65 -3t59 -9t47 -13l-13 -116q-31 12 -67.5 18t-76.5 6q-127 0 -184 -61.5t-57 -184.5v-76v-60l4 -35v-517v-225v-214h-129zM52 885v106h677v-106h-200h-196h-50h-231z" />
    <glyph glyph-name="f_f_i" unicode="ffi" horiz-adv-x="2024" 
d="M985 0v214v225v100v128.5v139v153v169.5q0 102 27.5 171.5t76.5 111t112.5 60t135.5 18.5q33 0 64.5 -3t59 -9t47.5 -13l-12 -116q-32 12 -68.5 18t-76.5 6q-127 0 -184 -61.5t-57 -184.5v-76v-60l4 -35v-517v-225v-214h-129zM791 885v106h677v-106h-200h-196h-49h-232z
M246 0v214v225v100v128.5v139v153v169.5q0 102 27.5 171.5t76 111t112 60t136.5 18.5q33 0 65 -3t59 -9t47 -13l-13 -116q-31 12 -67.5 18t-76.5 6q-127 0 -184 -61.5t-57 -184.5v-76v-60l4 -35v-517v-225v-214h-129zM52 885v106h677v-106h-200h-196h-50h-231zM1709 0v214
v225v100v161v146v145l128 4v-145.5v-147v-163.5v-100v-225v-214h-128zM1769 1240q-46 0 -75.5 27t-29.5 83q0 55 29.5 82.5t77.5 27.5t77 -28.5t29 -81.5q0 -56 -29 -83t-79 -27z" />
    <glyph glyph-name="f_f_l" unicode="ffl" horiz-adv-x="2020" 
d="M246 0v214v225v100v128.5v139v153v169.5q0 102 27.5 171.5t76 111t112 60t136.5 18.5q33 0 65 -3t59 -9t47 -13l-13 -116q-31 12 -67.5 18t-76.5 6q-127 0 -184 -61.5t-57 -184.5v-76v-60l4 -35v-517v-225v-214h-129zM52 885v106h677v-106h-200h-196h-50h-231zM985 0v214
v225v100v128.5v139v153v169.5q0 102 27.5 171.5t76.5 111t112.5 60t135.5 18.5q31 0 60.5 -3t54.5 -8t44 -11v-119q-32 12 -68.5 18t-76.5 6q-127 0 -184 -61.5t-57 -184.5v-76v-60l4 -35v-517v-225v-214h-129zM791 885v106h677v-106h-200h-196h-49h-232zM1707 0v214v225
v549v245v230l129 19v-242.5v-251.5v-549v-225v-214h-129z" />
    <glyph glyph-name=".notdef" horiz-adv-x="1259" 
d="M89 -384v2020h1081v-2020h-1081zM167 -306h925v1864h-925v-1864zM647 396q-92 0 -145.5 45t-53.5 120q0 78 53.5 131.5t119.5 100.5q44 32 84 67t66 77.5t26 97.5q0 72 -50.5 110t-139.5 38q-38 0 -77 -7t-79.5 -21.5t-82.5 -36.5l-6 98q28 13 67.5 27t88.5 24t104 10
q125 0 202 -58t77 -170q0 -76 -33 -131.5t-82 -97.5t-97 -78q-56 -42 -99.5 -83.5t-43.5 -94.5q0 -57 37 -79.5t86 -22.5q32 0 58 6.5t43 13.5l6 -67q-14 -5 -35 -9t-45 -7t-49 -3zM611 19q-44 0 -70 26t-26 68q0 44 26 70t70 26q46 0 71.5 -26t25.5 -70q0 -42 -25.5 -68
t-71.5 -26z" />
    <glyph glyph-name=".null" 
 />
    <glyph glyph-name="nonmarkingreturn" horiz-adv-x="666" 
 />
    <glyph glyph-name="NULL" 
 />
    <glyph glyph-name="NULL" 
 />
    <glyph glyph-name="CR" unicode="&#xd;" horiz-adv-x="383" 
 />
    <glyph glyph-name="space" unicode=" " horiz-adv-x="383" 
 />
    <glyph glyph-name="exclam" unicode="!" horiz-adv-x="457" 
d="M177 486q-2 249 -10.5 493t-18.5 485l165 6q-9 -242 -18 -488t-11 -494zM228 -21q-35 0 -62 15t-41 41t-14 61q0 54 32 84.5t86 30.5q36 0 62.5 -14t40.5 -39.5t14 -61.5q0 -52 -31 -84.5t-87 -32.5z" />
    <glyph glyph-name="quotedbl" unicode="&#x22;" horiz-adv-x="708" 
d="M122 894q-2 150 -10.5 297.5t-18.5 293.5l157 3q-9 -145 -17.5 -293.5t-10.5 -298.5zM440 894q-2 150 -10.5 297.5t-18.5 293.5l157 3q-9 -145 -17.5 -293.5t-10.5 -298.5z" />
    <glyph glyph-name="numbersign" unicode="#" horiz-adv-x="1357" 
d="M36 319v104h177.5h160.5h494h160.5h176.5v-104h-176.5h-160.5h-494h-160.5h-177.5zM246 0q22 103 41.5 199t45.5 222l94 456q18 88 32.5 159.5t28.5 138.5t29 138h108q-14 -70 -28 -137t-28.5 -139.5t-32.5 -160.5l-94 -455q-26 -126 -45.5 -221.5t-41.5 -199.5h-109z
M152 884v104h177.5h160.5h494h160h177v-104h-177h-160h-494h-160.5h-177.5zM717 0q22 103 41.5 199t45.5 222l93 456q19 88 33.5 160t28.5 138.5t28 137.5h109q-14 -70 -28 -137t-28.5 -139.5t-33.5 -160.5l-94 -455q-25 -126 -44.5 -221.5t-41.5 -199.5h-109z" />
    <glyph glyph-name="dollar" unicode="$" horiz-adv-x="1117" 
d="M577 -20q-85 0 -170.5 16t-156.5 40.5t-115 50.5l14 123q64 -35 132 -60t141 -39t151 -14q93 0 168 26.5t119.5 85t44.5 156.5q0 78 -45 127.5t-129.5 86t-201.5 73.5q-131 42 -223 89.5t-140.5 116t-48.5 172.5q0 103 49.5 185t146 130t238.5 48q60 0 118.5 -9t111 -24
t96 -33.5t72.5 -37.5l-15 -126q-58 39 -122.5 63.5t-129.5 36.5t-122 12q-82 0 -154 -25.5t-117 -79t-45 -140.5q0 -70 37 -115.5t116 -81t205 -76.5q163 -53 257 -107.5t133 -122.5t39 -162q0 -108 -48 -195t-148.5 -138.5t-257.5 -51.5zM516 -274v172.5v164v160.5v161v564
v161v160.5v164.5v172h107v-172v-164.5v-160.5v-161v-564v-161v-160.5v-164v-172.5h-107z" />
    <glyph glyph-name="percent" unicode="%" horiz-adv-x="1729" 
d="M394 0q63 110 123 216t138 242l282 496q53 95 97.5 173t85.5 150t85 149h124q-43 -77 -84 -149t-85.5 -150t-98.5 -173l-282 -496q-77 -136 -137 -242t-123 -216h-125zM438 747q-106 0 -188.5 43.5t-129.5 122t-47 184.5q0 102 47 181.5t130 126t190 46.5
q106 0 188 -46.5t128.5 -126t46.5 -181.5q0 -106 -46.5 -184.5t-129 -122t-189.5 -43.5zM438 845q122 0 190 66.5t68 185.5q0 76 -31 133.5t-88 90t-137 32.5q-120 0 -189.5 -71t-69.5 -185q0 -119 69.5 -185.5t187.5 -66.5zM1287 -21q-106 0 -188.5 43.5t-129.5 122.5
t-47 185q0 101 47 180.5t130 126.5t190 47q106 0 188 -47t128.5 -126.5t46.5 -180.5q0 -106 -46.5 -185t-129 -122.5t-189.5 -43.5zM1287 77q122 0 190 67t68 185q0 76 -31 134t-88 90t-137 32q-120 0 -189.5 -71t-69.5 -185q0 -118 69.5 -185t187.5 -67z" />
    <glyph glyph-name="ampersand" unicode="&#x26;" horiz-adv-x="1451" 
d="M1246 0l-136 136t-138 136l-468 466q-97 96 -153 185t-56 199q0 102 45.5 176t121.5 114t169 40q92 0 167 -37.5t119.5 -106.5t44.5 -167q0 -83 -30 -144.5t-80.5 -106.5t-109.5 -77t-117 -55l-62 83q76 32 139 70.5t100 93.5t37 134q0 93 -57.5 149.5t-145.5 56.5
q-97 0 -153.5 -63.5t-56.5 -158.5q0 -81 43.5 -151.5t136.5 -163.5l462 -461q88 -87 174.5 -174t172.5 -173h-169zM543 -20q-146 0 -243 52.5t-145.5 140.5t-48.5 194q0 122 55 209.5t140 148.5t173 101l58 -88q-85 -39 -152.5 -90t-106.5 -117.5t-39 -153.5
q0 -85 37.5 -148.5t109.5 -98.5t175 -35q76 0 140 25t122.5 77t117.5 135l82 -74l7 -29h-25q-62 -79 -129 -134.5t-146.5 -85t-181.5 -29.5zM1085 318l-84 76q60 95 116.5 183.5t113.5 179.5l110 -67q-64 -94 -127 -185.5t-129 -186.5z" />
    <glyph glyph-name="quotesingle" unicode="'" horiz-adv-x="391" 
d="M122 894q-2 150 -10.5 297.5t-18.5 293.5l157 3q-9 -145 -17.5 -293.5t-10.5 -298.5z" />
    <glyph glyph-name="parenleft" unicode="(" horiz-adv-x="756" 
d="M570 -236q-96 73 -177 161t-141 196t-93 238.5t-33 288.5t33 289t93 238.5t141 195.5t177 160l98 -47q-107 -85 -200.5 -200.5t-151.5 -272t-58 -363.5t58 -363.5t151.5 -272.5t200.5 -201z" />
    <glyph glyph-name="parenright" unicode=")" horiz-adv-x="756" 
d="M186 -236l-99 47q108 85 201.5 201t151 272t57.5 364q0 206 -57.5 362.5t-151 272.5t-201.5 201l99 47q96 -72 177 -160.5t141 -196t93 -238.5t33 -288q0 -159 -33 -289.5t-93 -238.5t-141 -195.5t-177 -160.5z" />
    <glyph glyph-name="asterisk" unicode="*" horiz-adv-x="936" 
d="M827 755q-94 64 -187.5 126.5t-188.5 124.5q-99 57 -197.5 113.5t-197.5 111.5l53 87q95 -63 188.5 -126t188.5 -127q98 -55 196.5 -111t196.5 -112zM109 755l-53 87q99 56 197.5 112.5t197.5 112.5q95 63 188.5 125.5t187.5 125.5l52 -87q-99 -55 -197 -111.5
t-196 -111.5l-188 -126t-189 -127zM417 583q4 114 8.5 227.5t8.5 227.5q-4 112 -8.5 225.5t-8.5 226.5h102q-5 -113 -9 -226.5t-8 -225.5q4 -114 8 -227.5t9 -227.5h-102z" />
    <glyph glyph-name="plus" unicode="+" horiz-adv-x="1171" 
d="M526 122v178v160v270v160.5v177.5h119v-177.5v-160.5v-270v-160v-178h-119zM129 536v118h177.5h159.5h238h160.5h176.5v-118h-176.5h-160.5h-238h-159.5h-177.5z" />
    <glyph glyph-name="comma" unicode="," horiz-adv-x="449" 
d="M72 -314q39 56 62 110.5t32.5 114t9.5 129.5v87v88l70 5q47 -4 68.5 -36t21.5 -81q0 -59 -15 -118t-41 -114t-60 -101.5t-71 -81.5z" />
    <glyph glyph-name="hyphen" unicode="-" horiz-adv-x="844" 
d="M129 535v117h154.5h138.5h139h153v-117h-153h-139h-138.5h-154.5z" />
    <glyph glyph-name="period" unicode="." horiz-adv-x="457" 
d="M228 -21q-35 0 -62 15t-41 41t-14 61q0 54 32 84.5t86 30.5q36 0 62.5 -14t40.5 -39.5t14 -61.5q0 -52 -31 -84.5t-87 -32.5z" />
    <glyph glyph-name="slash" unicode="/" horiz-adv-x="885" 
d="M66 0l94.5 216t104.5 240l217 496q62 142 109.5 250.5t97.5 223.5h130q-33 -77 -65 -150t-67 -152t-77 -176l-214 -492q-60 -136 -106 -241t-94 -215h-130z" />
    <glyph glyph-name="zero" unicode="0" horiz-adv-x="1299" 
d="M654 -20q-137 0 -238.5 52.5t-167.5 147.5t-98.5 224.5t-32.5 283.5q0 213 61 372t179.5 247.5t291.5 88.5q133 0 232 -51t166 -144.5t100.5 -223.5t33.5 -289q0 -217 -61 -376t-178.5 -245.5t-287.5 -86.5zM650 99q141 0 227.5 77.5t126.5 210.5t40 301q0 179 -42 311
t-129.5 204.5t-222.5 72.5q-138 0 -225.5 -76.5t-128.5 -209t-41 -302.5q0 -171 40 -304t127 -209t228 -76z" />
    <glyph glyph-name="one" unicode="1" horiz-adv-x="842" 
d="M103 1002l-34 111q121 66 240.5 131.5t239.5 131.5l-3 -128q-111 -62 -221.5 -123t-221.5 -123zM483 0v214v225v438v216.5v217.5l66 65l66 -6v-230v-245v-456v-225v-214h-132z" />
    <glyph glyph-name="two" unicode="2" horiz-adv-x="1101" 
d="M100 0v98q63 56 126.5 111.5t126.5 110.5q148 130 254 243.5t162 219.5t56 213q0 139 -75 209t-228 70q-48 0 -99 -9t-103.5 -25.5t-105 -42.5t-104.5 -61l-16 136q44 25 96.5 47.5t111 39t118.5 26.5t120 10q135 0 229 -47.5t143 -134t49 -205.5q0 -116 -54.5 -230.5
t-160 -235t-260.5 -254.5l-229 -199l-23 29h287h234.5h234.5v-119h-890z" />
    <glyph glyph-name="three" unicode="3" horiz-adv-x="1135" 
d="M551 -20q-62 0 -124.5 8.5t-122.5 23.5t-113.5 35.5t-97.5 43.5l15 130q55 -30 110.5 -53t110.5 -38t108.5 -22.5t103.5 -7.5q184 0 267 76.5t83 194.5q0 141 -114 216t-316 75h-59h-59v113h56h56q137 0 222.5 36t125.5 97.5t40 138.5q0 117 -84 172.5t-212 55.5
q-47 0 -97.5 -9.5t-102.5 -27t-104 -44t-102 -61.5l-17 133q43 27 94.5 50.5t108.5 41.5t116 28t118 10q122 0 216.5 -40.5t147.5 -114.5t53 -176q0 -86 -36.5 -154t-97 -112.5t-132.5 -61.5v-15q54 -9 109.5 -35t102 -70t74.5 -107t28 -147q0 -107 -52 -194t-157.5 -138
t-265.5 -51z" />
    <glyph glyph-name="four" unicode="4" horiz-adv-x="1192" 
d="M737 0v178v197l3 28v467v215.5v215.5l103 34q-58 -83 -113 -162t-112 -158l-244 -346q-49 -70 -97 -138.5t-98 -137.5l-5 50h598h27h112.5h122h106.5v-119h-106.5h-122h-112.5h-735v93q43 61 95 135t105 149.5t99 139.5l179 254q49 69 97.5 138t96.5 137h132v-243.5
v-238.5v-513v-197v-178h-131z" />
    <glyph glyph-name="five" unicode="5" horiz-adv-x="1145" 
d="M546 -20q-61 0 -123 8.5t-121 23.5t-112 36t-97 44l15 129q55 -30 110 -53t109.5 -38t107.5 -22.5t103 -7.5q182 0 272.5 89.5t90.5 249.5q0 118 -46.5 188.5t-124.5 102t-173 31.5q-83 0 -157 -20.5t-159 -79.5l-61 6v210v257v236h772v-118h-243.5h-243.5h-205l49 47
q0 -99 -0.5 -198t-1.5 -197v-99h16q58 34 128.5 53.5t148.5 19.5q120 0 219 -47.5t158 -144t59 -243.5q0 -139 -56 -243t-165.5 -162t-268.5 -58z" />
    <glyph glyph-name="six" unicode="6" horiz-adv-x="1208" 
d="M631 -20q-165 0 -279.5 77.5t-174.5 227.5t-60 368q0 178 35 316.5t102 233.5t166 144t228 49q52 0 102.5 -7.5t98 -21t91 -32t80.5 -40.5l-18 -129q-40 28 -83 48.5t-87.5 33.5t-89 19.5t-88.5 6.5q-141 0 -230.5 -71.5t-132.5 -211t-43 -342.5q0 -181 43.5 -303.5
t128 -184t207.5 -61.5q119 0 194.5 50t111 129t35.5 168q0 88 -35 160.5t-108 115.5t-188 43q-47 0 -95 -9t-98 -30t-100.5 -57.5t-102.5 -92.5q-12 28 -15.5 50.5t0 44t14.5 47.5l27 -2q42 40 88 71t96 52t103.5 31.5t110.5 10.5q135 0 232.5 -55t150 -152t52.5 -223
q0 -122 -52.5 -230t-157 -175t-259.5 -67z" />
    <glyph glyph-name="seven" unicode="7" horiz-adv-x="1044" 
d="M230 0q63 138 127.5 276.5t125.5 272.5l195 423q37 78 72.5 155.5t71.5 155.5l26 -32h-287h-254.5h-256.5v119h911v-93q-57 -125 -112.5 -246.5t-114.5 -250.5l-129 -283q-56 -122 -113 -247t-115 -250h-147z" />
    <glyph glyph-name="eight" unicode="8" horiz-adv-x="1208" 
d="M604 -20q-168 0 -278 54t-164 145.5t-54 204.5t46.5 187.5t113 115t125.5 53.5v15q-60 16 -114 56.5t-88.5 102.5t-34.5 144q0 101 55.5 177t156 118.5t236.5 42.5t236.5 -42.5t155.5 -118.5t55 -177q0 -82 -34 -144t-88.5 -102.5t-115.5 -56.5v-15q60 -13 126.5 -54
t113 -115t46.5 -187t-54 -204.5t-163.5 -145.5t-277.5 -54zM604 101q128 0 208.5 38t117.5 104t37 150q0 98 -48 163t-130.5 96.5t-185.5 31.5q-101 0 -183.5 -31.5t-130.5 -96.5t-48 -163q0 -84 37.5 -150t117.5 -104t208 -38zM604 794q152 0 234.5 70.5t82.5 180.5
q0 113 -86.5 172.5t-230.5 59.5t-230.5 -59.5t-86.5 -172.5q0 -73 37 -130t107.5 -89t172.5 -32z" />
    <glyph glyph-name="nine" unicode="9" horiz-adv-x="1208" 
d="M560 -20q-52 0 -102.5 7t-98 20.5t-91 32.5t-80.5 41l18 128q40 -27 83 -47.5t87.5 -34t89.5 -20t88 -6.5q141 0 230.5 71.5t132.5 211t43 342.5q0 181 -43.5 303.5t-128 184t-207.5 61.5q-119 0 -194.5 -50t-110.5 -129t-35 -168q0 -88 34.5 -160t107.5 -115.5
t188 -43.5q47 0 95 9t98 30t101 57.5t102 92.5q12 -28 15.5 -50.5t0 -44t-14.5 -47.5l-27 2q-42 -40 -88 -71t-95.5 -52t-103 -31.5t-111.5 -10.5q-134 0 -232 55.5t-150.5 152t-52.5 222.5q0 122 52.5 230t157 175.5t259.5 67.5q165 0 279.5 -77.5t174.5 -227.5t60 -368
q0 -179 -35 -317.5t-102 -233t-166 -143.5t-228 -49z" />
    <glyph glyph-name="colon" unicode=":" horiz-adv-x="457" 
d="M228 781q-35 0 -62 15t-41 41t-14 61q0 54 32 84.5t86 30.5q36 0 62.5 -14t40.5 -39.5t14 -61.5q0 -52 -31 -84.5t-87 -32.5zM228 -21q-35 0 -62 15t-41 41t-14 61q0 54 32 84.5t86 30.5q36 0 62.5 -14t40.5 -39.5t14 -61.5q0 -52 -31 -84.5t-87 -32.5z" />
    <glyph glyph-name="semicolon" unicode=";" horiz-adv-x="457" 
d="M228 781q-35 0 -62 15t-41 41t-14 61q0 54 32 84.5t86 30.5q36 0 62.5 -14t40.5 -39.5t14 -61.5q0 -52 -31 -84.5t-87 -32.5zM80 -314q39 56 62 110.5t32.5 114t9.5 129.5v87v88l70 5q47 -4 68.5 -36t21.5 -81q0 -59 -15 -118t-41 -114t-60 -101.5t-71 -81.5z" />
    <glyph glyph-name="less" unicode="&#x3c;" horiz-adv-x="1131" 
d="M1001 156q-90 39 -176.5 76.5t-162.5 70.5l-197 85q-74 33 -159.5 69.5t-176.5 75.5v121q91 39 177 76t159 68l197 86q76 33 162.5 70t176.5 76v-125q-111 -49 -226 -98.5t-229 -100.5l-242 -105v-15l241 -106q115 -49 230 -99t226 -99v-126z" />
    <glyph glyph-name="equal" unicode="=" horiz-adv-x="1131" 
d="M133 317v118h177h160h191h160h177v-118h-177h-160h-191h-160h-177zM133 755v118h177h160h191h160h177v-118h-177h-160h-191h-160h-177z" />
    <glyph glyph-name="greater" unicode="&#x3e;" horiz-adv-x="1131" 
d="M129 156v126q111 49 227 99t229 99l242 106v15l-242 105q-114 50 -229.5 100t-226.5 99v125q91 -39 177 -76t162 -70l198 -86q73 -31 159.5 -68t175.5 -76v-121q-89 -39 -175.5 -75.5t-159.5 -69.5l-198 -85q-76 -33 -162 -70.5t-177 -76.5z" />
    <glyph glyph-name="question" unicode="?" horiz-adv-x="843" 
d="M428 434q-112 0 -176.5 54.5t-64.5 144.5q0 63 29.5 111.5t77 89t100.5 79.5t101.5 81t80 93t31.5 116q0 88 -60.5 133t-167.5 45q-47 0 -94 -8.5t-96 -26t-99 -42.5l-8 121q25 11 59 23.5t74.5 24t86 18.5t95.5 7q101 0 177 -31t118 -93t42 -153t-39 -158.5t-98 -118.5
t-117 -94q-69 -50 -121 -99.5t-52 -112.5q0 -70 44 -97t103 -27q39 0 70.5 8.5t51.5 16.5l7 -81q-17 -6 -42.5 -11.5t-54.5 -9t-58 -3.5zM387 -21q-36 0 -62 15t-41 41t-15 61q0 54 32.5 84.5t85.5 30.5q37 0 63 -14t40.5 -39.5t14.5 -61.5q0 -52 -31.5 -84.5t-86.5 -32.5z
" />
    <glyph glyph-name="at" unicode="@" horiz-adv-x="1760" 
d="M944 -257q-234 0 -404.5 78.5t-274.5 212.5t-139.5 302.5t1.5 348.5q34 169 111 292.5t185 204.5t239 119.5t274 38.5q183 0 327.5 -66.5t239.5 -184t131 -271t2 -327.5q-19 -98 -58.5 -167.5t-89.5 -113.5t-102 -64.5t-95 -20.5q-77 0 -125.5 22.5t-75.5 57.5t-37 72
h-12q-52 -69 -126.5 -101t-139.5 -32q-118 0 -189.5 65t-95 170.5t1.5 225.5q23 111 76.5 193.5t130.5 128t170 45.5q58 0 107.5 -16.5t89 -44t67.5 -60.5h13l24 102l102 7q-24 -116 -50 -241t-53 -250l-8 -41q-22 -111 12 -159.5t107 -48.5q45 0 86.5 21t76 59.5t60 92
t37.5 117.5q31 153 2 286.5t-110.5 234.5t-207.5 158.5t-290 57.5q-176 0 -321.5 -63t-246.5 -191.5t-143 -324.5q-35 -161 -5.5 -310t121 -266.5t243.5 -186t362 -68.5q79 0 171.5 14t192 50t200.5 104v-109q-80 -54 -174.5 -87.5t-194 -49.5t-195.5 -16zM802 247
q66 0 130.5 37.5t111.5 119.5l74 352q-41 49 -96.5 79.5t-132.5 30.5q-118 0 -189 -79t-97 -198q-20 -95 -4.5 -172.5t66 -123.5t137.5 -46z" />
    <glyph glyph-name="A" unicode="A" horiz-adv-x="1365" 
d="M63 0q43 116 90 242.5t90 241.5l181 489q49 131 88.5 238t79.5 215h188q40 -110 79 -216t87 -238l180 -491q43 -118 89 -242.5t87 -238.5h-146q-46 128 -94.5 263.5t-91.5 256.5l-277 774h-16l-279 -767q-45 -125 -94.5 -261.5t-96.5 -265.5h-144zM306 375l10 114h746
l8 -114h-764z" />
    <glyph glyph-name="B" unicode="B" horiz-adv-x="1282" 
d="M626 0h-181h-146h-102v231v242v477v244.5v231.5h241.5h269.5q118 0 202.5 -23t139 -67t80 -106.5t25.5 -141.5q0 -91 -32 -159t-88.5 -113.5t-126.5 -68.5v-16q70 -14 135.5 -51.5t108 -107.5t42.5 -182q0 -82 -28 -153t-93 -124.5t-174.5 -83t-272.5 -29.5zM335 120h301
q150 0 241 34t131.5 96t40.5 149q0 144 -101 205.5t-281 61.5h-363v115h366q121 0 196 39.5t109.5 103.5t34.5 138q0 129 -79 186.5t-234 57.5h-362v-182.5v-196.5v-432v-194.5v-180.5z" />
    <glyph glyph-name="C" unicode="C" horiz-adv-x="1371" 
d="M832 -21q-168 0 -302.5 56t-228.5 155.5t-144 234t-50 291.5q0 216 89 382t246.5 259.5t362.5 93.5q71 0 138 -10t126.5 -28t109.5 -38t86 -40l-14 -138q-77 45 -151 73t-145.5 41t-140.5 13q-164 0 -290.5 -74.5t-198.5 -211t-72 -323.5q0 -126 37 -236.5t111.5 -194.5
t185 -131.5t255.5 -47.5q52 0 103.5 6.5t102.5 20t100 36.5t94 55l14 -137q-42 -27 -92.5 -47.5t-105 -33.5t-112 -19.5t-114.5 -6.5z" />
    <glyph glyph-name="D" unicode="D" horiz-adv-x="1475" 
d="M197 0v231v242v477v244.5v231.5h170.5h155.5h156q166 0 294 -47.5t216 -139.5t133.5 -222.5t45.5 -297.5q0 -151 -40.5 -281.5t-127 -228.5t-227 -153.5t-342.5 -55.5h-153h-137.5h-143.5zM338 120h295q218 0 347 79t185.5 215t56.5 308q0 133 -33.5 240.5t-102.5 184.5
t-176 118t-254 41h-318v-182v-197v-431v-195v-181z" />
    <glyph glyph-name="E" unicode="E" horiz-adv-x="1185" 
d="M197 0v231v242v477v244.5v231.5h869v-123h-219h-275h-313l76 104v-232v-244v-438v-241v-231l-70 102h319h254h229v-123h-870zM305 664v119h282h241.5h195.5v-119h-200.5h-238.5h-280z" />
    <glyph glyph-name="F" unicode="F" horiz-adv-x="1146" 
d="M197 0v231v242v477v244.5v231.5h851v-123h-218.5h-275.5h-279l61 104v-231.5v-245.5v-457v-242v-231h-139zM303 657v120h265h242.5h195.5v-120h-201h-238h-264z" />
    <glyph glyph-name="G" unicode="G" horiz-adv-x="1468" 
d="M864 -20q-186 0 -327 56t-237 156t-144.5 234.5t-48.5 290.5q0 214 88.5 380t248.5 260t374 94q75 0 145.5 -10.5t132.5 -28t114 -38t89 -40.5l-15 -137q-82 45 -160 73t-152.5 41t-146.5 13q-127 0 -231.5 -41.5t-181.5 -121t-118.5 -192t-41.5 -253.5q0 -129 36.5 -240
t112 -195t193 -131t278.5 -47q55 0 111 5.5t111.5 17.5t109 31.5t103.5 46.5l17 -137q-35 -15 -85 -30.5t-110.5 -28.5t-127.5 -20.5t-137 -7.5zM1189 65v182.5v155.5v163v143h135v-143v-163v-155v-181z" />
    <glyph glyph-name="H" unicode="H" horiz-adv-x="1499" 
d="M1161 0v231v242v477v244.5v231.5h141v-231.5v-244.5v-477v-242v-231h-141zM197 0v231v242v477v244.5v231.5h141v-231.5v-244.5v-477v-242v-231h-141zM282 661v124h941v-124h-941z" />
    <glyph glyph-name="I" unicode="I" horiz-adv-x="540" 
d="M199 0v231v242v477v244.5v231.5h142v-231.5v-244.5v-477v-242v-231h-142z" />
    <glyph glyph-name="J" unicode="J" horiz-adv-x="567" 
d="M37 -317q59 63 101.5 127t65.5 140.5t24 178.5v393v428v244.5v231.5h140v-231.5v-244.5v-377v-235.5v-223.5q0 -80 -14.5 -145.5t-40 -117t-57.5 -93t-67 -75.5h-152z" />
    <glyph glyph-name="K" unicode="K" horiz-adv-x="1327" 
d="M1080 0q-103 106 -193 198t-176 180l-293 300h-100v118h100l253 252l176 176l202 202h177q-115 -114 -224 -222t-217 -216l-274 -272l-2 61l305 -315q71 -73 152 -157t158.5 -164t136.5 -141h-181zM197 0v231v242v477v244.5v231.5h140v-231.5v-244.5v-477v-242v-231h-140
z" />
    <glyph glyph-name="L" unicode="L" horiz-adv-x="1140" 
d="M197 0v231v242v477v244.5v231.5h141v-231.5v-244.5v-456v-242v-231l-56 106h257h207h166.5h156.5v-127h-872z" />
    <glyph glyph-name="M" unicode="M" horiz-adv-x="1912" 
d="M143 0q15 117 29 230.5t30 246.5l59 469q17 131 30.5 243t29.5 237h141q67 -160 128.5 -310t122.5 -298l241 -586h12l240 586l122 298t127 310h141q15 -123 28.5 -235.5t29.5 -244.5l58 -473q16 -130 29.5 -241.5t27.5 -231.5h-134q-25 201 -46.5 381.5t-40.5 337.5
l-55 450h-11l-196 -485q-72 -177 -143.5 -354t-133.5 -330h-97q-39 96 -86 210.5t-96.5 235.5t-97.5 235l-200 488h-11l-54 -450q-19 -156 -41 -337.5t-46 -381.5h-137z" />
    <glyph glyph-name="N" unicode="N" horiz-adv-x="1510" 
d="M197 0v231v242v477v244.5v231.5h130q135 -189 260.5 -366t248.5 -349l330 -463h12v702v244.5v231.5h135v-231.5v-244.5v-477v-242v-231h-127q-112 158 -236.5 333t-274.5 385l-331 466h-12v-711v-242v-231h-135z" />
    <glyph glyph-name="O" unicode="O" horiz-adv-x="1635" 
d="M825 -21q-179 0 -313.5 58.5t-224.5 160.5t-135 235t-45 282q0 207 84.5 374t244 264.5t383.5 97.5q171 0 303 -56.5t222.5 -158t137 -234.5t46.5 -287q0 -210 -84.5 -376.5t-242 -263t-376.5 -96.5zM820 105q147 0 253 50t174.5 136.5t101.5 195.5t33 228
q0 128 -35.5 239t-106 194.5t-175.5 130.5t-245 47q-144 0 -250.5 -49.5t-176.5 -135.5t-105 -195.5t-35 -230.5t34 -231t103 -195.5t176 -134.5t254 -49z" />
    <glyph glyph-name="P" unicode="P" horiz-adv-x="1243" 
d="M197 0v231v242v477v244.5v231.5h204h282q160 0 264 -43t155 -131t51 -223q0 -128 -47.5 -227.5t-161.5 -157t-313 -57.5h-108.5h-112h-93.5v118h291q139 0 228 32.5t131.5 104t42.5 186.5q0 96 -32 152t-82.5 83t-109 35t-112.5 8h-407l69 101v-232v-244v-458v-242v-231
h-139z" />
    <glyph glyph-name="Q" unicode="Q" horiz-adv-x="1635" 
d="M1313 -334q-63 52 -126.5 103t-127.5 103l-165 134l79 84l195 -151q65 -49 129 -99t143 -111zM825 -21q-179 0 -313.5 58.5t-224.5 160.5t-135 235t-45 282q0 207 84.5 374t244 264.5t383.5 97.5q171 0 303 -56.5t222.5 -158t137 -234.5t46.5 -287q0 -210 -84.5 -376.5
t-242 -263t-376.5 -96.5zM820 105q147 0 253 50t174.5 136.5t101.5 195.5t33 228q0 128 -35.5 239t-106 194.5t-175.5 130.5t-245 47q-144 0 -250.5 -49.5t-176.5 -135.5t-105 -195.5t-35 -230.5t34 -231t103 -195.5t176 -134.5t254 -49z" />
    <glyph glyph-name="R" unicode="R" horiz-adv-x="1328" 
d="M197 0v231v242v477v244.5v231.5h126h155.5h183.5q160 0 265 -38.5t157 -122t52 -218.5q0 -115 -44.5 -211t-150.5 -154t-289 -59l40 64l233 -280q54 -65 115 -138.5t119.5 -143.5t103.5 -125h-167q-76 92 -146.5 177.5t-139.5 168.5l-260 320l87 -65h-326v118h280
q137 0 226 31.5t131.5 101t42.5 183.5q0 98 -31.5 153t-82 80t-108.5 31.5t-113 6.5h-411l90 101v-233.5v-242.5v-458v-242v-231h-138z" />
    <glyph glyph-name="S" unicode="S" horiz-adv-x="1165" 
d="M601 -20q-90 0 -179.5 16t-165 41.5t-121.5 51.5l16 135q67 -36 138 -63t147 -42t158 -15q94 0 171 27t122.5 86t45.5 158q0 81 -45 133.5t-130.5 91t-206.5 77.5q-138 43 -235 93t-148 122t-51 181q0 107 52 192.5t154 136t251 50.5q63 0 124 -9.5t116.5 -25t100.5 -35
t76 -39.5l-16 -138q-60 42 -127.5 68.5t-134.5 39.5t-126 13q-85 0 -158.5 -26t-119 -81t-45.5 -142q0 -72 38 -120.5t118 -86.5t207 -79q172 -55 270.5 -110.5t140 -126.5t41.5 -173q0 -112 -50 -203t-156 -144.5t-272 -53.5z" />
    <glyph glyph-name="T" unicode="T" horiz-adv-x="1279" 
d="M570 0v231v242v457v245.5v231.5l57 -108h-164h-217.5h-180.5v127h1149v-127h-179.5h-218.5h-164l58 108v-231.5v-245.5v-457v-242v-231h-140z" />
    <glyph glyph-name="U" unicode="U" horiz-adv-x="1462" 
d="M732 -21q-195 0 -317.5 68.5t-180.5 191.5t-58 286v110v148.5v166.5v244.5v231.5h141v-231.5v-244.5v-407q0 -137 40.5 -235t131.5 -150.5t242 -52.5q153 0 243 52.5t130 150.5t40 237v405v244.5v231.5h140v-231.5v-244.5v-166.5v-149v-109.5q0 -163 -58 -286
t-180 -191.5t-314 -68.5z" />
    <glyph glyph-name="V" unicode="V" horiz-adv-x="1360" 
d="M586 0q-39 107 -84 228.5t-84 223.5l-166 448q-28 76 -61.5 165.5t-67.5 182t-66 178.5h155q57 -158 122.5 -337.5t122.5 -337.5l218 -603h16l218 607q58 160 120.5 333.5t121.5 337.5h151q-32 -85 -65.5 -177t-66 -181.5t-61.5 -166.5l-165 -451q-38 -103 -81.5 -222
t-83.5 -228h-193z" />
    <glyph glyph-name="W" unicode="W" horiz-adv-x="2026" 
d="M477 0q-31 106 -66.5 227t-66.5 224l-131 446q-34 119 -76.5 261.5t-78.5 267.5h154q45 -159 95 -334.5t94 -335.5l167 -591h16l162 599q27 102 58 216t62 228.5t59 217.5h171q44 -159 91.5 -331.5t92.5 -333.5l164 -596h16l169 600q44 155 93.5 330.5t92.5 330.5h154
q-37 -127 -78.5 -266.5t-76.5 -259.5l-133 -449q-32 -107 -67 -227.5t-66 -223.5h-187q-43 154 -91 325.5t-91 321.5l-164 585h-15l-162 -585q-42 -150 -90 -323t-90 -324h-181z" />
    <glyph glyph-name="X" unicode="X" horiz-adv-x="1340" 
d="M78 0q62 96 126 195t135 209l226 349v-47l-198 292q-68 101 -138 203.5t-152 224.5h165q68 -100 131.5 -195t121.5 -182l149 -222h16l146 224q57 87 119.5 183t124.5 192h161q-73 -112 -140 -214t-123 -190l-211 -322v49l218 -311q81 -115 155 -220t153 -218h-169
q-68 98 -129.5 186.5t-118.5 169.5l-186 268h-16l-175 -269q-55 -86 -110.5 -171.5t-119.5 -183.5h-161z" />
    <glyph glyph-name="Y" unicode="Y" horiz-adv-x="1288" 
d="M579 572l-316 518q-49 82 -96 159t-108 177h162q59 -100 101.5 -171.5t80.5 -135t84 -141.5l151 -252h16l146 244q48 81 88 147.5t83.5 138.5t102.5 170h159q-53 -86 -104 -170t-100 -165l-317 -519h-133zM575 0v231v242v216h141v-216v-242v-231h-141z" />
    <glyph glyph-name="Z" unicode="Z" horiz-adv-x="1334" 
d="M101 0v85q58 77 130.5 171.5t146.5 191t135 176.5l559 734l44 -55h-421h-276h-303v123h1101v-105q-96 -126 -189 -247.5t-186 -243.5l-594 -775l-27 68h384h204.5h222h193.5v-123h-1124z" />
    <glyph glyph-name="bracketleft" unicode="[" horiz-adv-x="726" 
d="M202 -230v230.5v241.5v810v244.5v231.5h495v-111h-141h-177h-114l59 92v-231.5v-244.5v-770v-242v-231l-53 91h117h161h148v-111h-495z" />
    <glyph glyph-name="backslash" unicode="\" horiz-adv-x="885" 
d="M689 0l-94.5 216t-104.5 240l-215 492q-42 97 -76.5 176t-66.5 152t-66 150h130q51 -115 98.5 -223.5t108.5 -250.5l217 -496q59 -136 104.5 -240l94.5 -216h-130z" />
    <glyph glyph-name="bracketright" unicode="]" horiz-adv-x="726" 
d="M29 -230v111h141h177h114l-60 -92v232.5v243.5v770v242.5v229.5l54 -90h-117h-161h-148v111h495v-229.5v-243.5v-809v-244v-232h-495z" />
    <glyph glyph-name="asciicircum" unicode="^" horiz-adv-x="1204" 
d="M947 768q-84 123 -168.5 245.5t-168.5 243.5h-16q-83 -120 -168 -241t-168 -241h-131q98 149 196 297.5t196 297.5h167q98 -149 196 -299.5t195 -299.5z" />
    <glyph glyph-name="underscore" unicode="_" horiz-adv-x="789" 
d="M-20 -219v110h177.5h159.5h154h160.5h177.5v-110h-177.5h-160.5h-154h-159.5h-177.5z" />
    <glyph glyph-name="grave" unicode="`" horiz-adv-x="1200" 
d="M625 1160q-53 66 -105.5 131t-105.5 130.5t-107 131.5l150 4q70 -98 139.5 -196t139.5 -198z" />
    <glyph glyph-name="a" unicode="a" horiz-adv-x="1041" 
d="M414 -20q-91 0 -158 34.5t-104 98t-37 150.5q0 80 29 134t76.5 88.5t103.5 54t111 29.5l324 60q4 114 -28.5 171.5t-89.5 77t-126 19.5q-34 0 -73 -4.5t-82 -14.5t-91.5 -26t-102.5 -39l-8 122q36 15 80.5 29t94.5 25t102.5 17.5t102.5 6.5q107 0 184.5 -34.5t119 -109.5
t41.5 -193v-118v-136v-135v-135.5v-151.5h-118l-5 147h-16q-31 -42 -80.5 -80.5t-113 -62.5t-136.5 -24zM446 92q57 0 115 22.5t108.5 69.5t85.5 119l1 242q-17 -9 -45 -18.5t-84 -22t-157 -31.5q-63 -11 -113.5 -35t-80.5 -65.5t-30 -104.5q0 -96 57.5 -136t142.5 -40z" />
    <glyph glyph-name="b" unicode="b" horiz-adv-x="1183" 
d="M644 -21q-70 0 -129 18.5t-108 53.5t-89 84h-15l-9 -135h-109v214v225v549v245v230l129 19v-242.5v-251.5v-110h15q29 34 75 65.5t105.5 50.5t130.5 19q137 0 234 -67t148.5 -183.5t51.5 -263.5q0 -139 -48 -257.5t-143.5 -190.5t-238.5 -72zM611 98q116 0 189 57
t107.5 148t34.5 195q0 109 -36.5 198.5t-110.5 143t-187 53.5q-58 0 -112 -17t-101 -50.5t-81 -83.5v-468q33 -55 76.5 -94t98.5 -60.5t122 -21.5z" />
    <glyph glyph-name="c" unicode="c" horiz-adv-x="994" 
d="M605 -19q-159 0 -270 68t-169 185t-58 262q0 147 56.5 264t163.5 185t259 68q58 0 114 -10t105.5 -27.5t88.5 -39.5l-14 -122q-55 32 -105 49.5t-94 24t-81 6.5q-164 0 -262.5 -106.5t-98.5 -288.5q0 -114 43 -205t128.5 -144t213.5 -53q44 0 88.5 8t87.5 24.5t83 41.5
l15 -123q-32 -17 -76.5 -32.5t-99 -25t-118.5 -9.5z" />
    <glyph glyph-name="d" unicode="d" horiz-adv-x="1152" 
d="M539 -21q-143 0 -239 72t-143.5 190.5t-47.5 257.5q0 147 51 263.5t148.5 183.5t234.5 67q70 0 130 -19t105.5 -50t74.5 -66h16v110v245v230l129 19v-242.5v-251.5v-549v-225v-214h-114l-6 137h-14q-41 -51 -90 -86t-107.5 -53.5t-127.5 -18.5zM572 98q67 0 122 21.5
t98 60.5t77 94v468q-34 50 -80.5 83.5t-101 50.5t-112.5 17q-114 0 -187.5 -53.5t-110 -143t-36.5 -198.5q0 -104 34.5 -195t107.5 -148t189 -57z" />
    <glyph glyph-name="e" unicode="e" horiz-adv-x="1055" 
d="M620 -20q-174 0 -287.5 67.5t-169 185.5t-55.5 269q0 149 55.5 264.5t157 181t240.5 65.5q122 0 211.5 -49.5t137.5 -143.5t48 -229q0 -36 -1.5 -65.5t-6.5 -58.5l-114 66q2 16 2.5 31t0.5 29q0 156 -76 233.5t-200 77.5q-102 0 -174.5 -50t-111 -138t-38.5 -201v-17
q0 -124 42.5 -214t129 -139t219.5 -49q49 0 101 8t103 24t98 42l7 -121q-38 -21 -88 -36.5t-109 -24t-122 -8.5zM165 467v97l703 4l82 -27v-74h-785z" />
    <glyph glyph-name="f" unicode="f" horiz-adv-x="783" 
d="M246 0v214v225v100v128.5v139v152.5v170q0 102 27.5 171.5t76 111t112 60t136.5 18.5q33 0 65 -3t59 -9t47 -13l-13 -116q-31 12 -67.5 18t-76.5 6q-127 0 -184 -61.5t-57 -184.5v-76v-60l4 -35v-517v-225v-214h-129zM52 885v106h677v-106h-200h-196h-50h-231z" />
    <glyph glyph-name="g" unicode="g" horiz-adv-x="1080" 
d="M490 -406q-110 0 -183 20.5t-116 55t-61 76.5t-18 84q0 68 33.5 113.5t78.5 72.5t80 37v13q-18 5 -42.5 21t-43.5 45.5t-19 75.5q0 37 14.5 66.5t43 51.5t70.5 38v13q-22 7 -58.5 28.5t-74 59.5t-64 94t-26.5 132q0 97 48 169.5t133.5 112.5t196.5 40q45 0 79 -5.5
t70 -10.5t88 -5h318v-101h-196.5h-193.5l38 63q94 -43 135.5 -114.5t41.5 -157.5q0 -98 -39.5 -164t-112 -107.5t-171.5 -64.5q-112 -26 -166 -49.5t-54 -69.5q0 -33 22 -51t70.5 -25.5t127.5 -7.5h44q141 0 228.5 -22t128 -69.5t40.5 -126.5q0 -82 -43.5 -144
t-116.5 -103.5t-159 -62.5t-171 -21zM498 -295q118 0 197.5 33t120 80t40.5 89q0 43 -24 70.5t-88 40.5t-185 13h-39q-71 -1 -136.5 -23t-107.5 -61.5t-42 -92.5q0 -29 13 -56t43.5 -48t81.5 -33t126 -12zM469 438q41 9 88 22.5t88.5 38.5t67.5 67.5t26 108.5
q0 80 -41.5 129t-100.5 72t-113 23q-69 0 -127 -23.5t-94 -71t-36 -121.5q0 -75 35.5 -126t91 -80.5t115.5 -38.5z" />
    <glyph glyph-name="h" unicode="h" horiz-adv-x="1143" 
d="M185 0v214v225v549v244.5v230.5l129 19v-241.5v-252.5v-170h16q30 43 79 88t116.5 76t155.5 31q161 0 232.5 -91.5t71.5 -263.5v-113v-106v-222.5v-216.5h-129v216v218v196q0 128 -46 193.5t-167 65.5q-74 0 -134 -29.5t-108 -79t-87 -109.5v-237v-220.5v-213.5h-129z
" />
    <glyph glyph-name="i" unicode="i" horiz-adv-x="502" 
d="M187 0v214v225v100v161v146v145l128 4v-145.5v-147v-163.5v-100v-225v-214h-128zM247 1240q-46 0 -75.5 27t-29.5 83q0 55 29.5 82.5t77.5 27.5t77 -28.5t29 -81.5q0 -56 -29 -83t-79 -27z" />
    <glyph glyph-name="j" unicode="j" horiz-adv-x="497" 
d="M18 -389q59 63 96.5 126t55 139.5t17.5 180.5v382v100v161v146v145l128 4v-145.5v-147v-163.5v-208.5v-158.5v-135q0 -76 -10.5 -138.5t-30.5 -114.5t-48 -93.5t-62 -74.5zM247 1240q-46 0 -75.5 27t-29.5 83q0 55 29.5 82.5t77.5 27.5t77 -28.5t29 -81.5q0 -56 -29 -83
t-79 -27z" />
    <glyph glyph-name="k" unicode="k" horiz-adv-x="1067" 
d="M848 0q-73 70 -147.5 139.5t-148.5 138.5l-187 176h-69v97h80l156 154q73 72 145.5 143.5t143.5 142.5h165q-90 -87 -179 -173.5t-177 -172.5l-175 -170l-4 65l202 -194q92 -86 185 -173t185 -173h-175zM185 0v214v225v549v244.5v230.5l129 19v-241.5v-252.5v-566v-214.5
v-207.5h-129z" />
    <glyph glyph-name="l" unicode="l" horiz-adv-x="499" 
d="M185 0v214v225v549v245v230l129 19v-242.5v-251.5v-549v-225v-214h-129z" />
    <glyph glyph-name="m" unicode="m" horiz-adv-x="1744" 
d="M185 0v214v225v100v224v228l115 8l4 -185h16q30 44 78 89.5t114 77.5t151 32q125 0 191 -61t85 -176l7 -6q4 -26 6 -53.5t2 -58.5v-113v-106v-222.5v-216.5h-129v216v218v196q0 128 -43.5 193.5t-157.5 65.5q-69 0 -125.5 -30t-102 -80t-82.5 -108v-237v-220.5v-213.5
h-129zM1457 0v216v218v196q0 128 -43.5 193.5t-157.5 65.5q-69 0 -125.5 -29.5t-102.5 -79t-83 -109.5l-18 138h16q34 46 83 93t116.5 79t153.5 32q158 0 224 -94t66 -261v-113v-106v-222.5v-216.5h-129z" />
    <glyph glyph-name="n" unicode="n" horiz-adv-x="1143" 
d="M185 0v214v225v100v224v228l115 8l4 -186h16q31 44 81.5 90t120 78t159.5 32q161 0 232.5 -91.5t71.5 -263.5v-113v-106v-222.5v-216.5h-129v216v218v196q0 128 -46 193.5t-167 65.5q-74 0 -134 -29.5t-108 -79t-87 -109.5v-237v-220.5v-213.5h-129z" />
    <glyph glyph-name="o" unicode="o" horiz-adv-x="1194" 
d="M601 -21q-119 0 -210.5 42.5t-154.5 115.5t-95.5 167.5t-32.5 197.5q0 148 60.5 263.5t171 181.5t259.5 66q115 0 205 -38.5t153.5 -108t96 -162.5t32.5 -202q0 -147 -59 -265.5t-168.5 -188t-257.5 -69.5zM600 95q119 0 197.5 58.5t117.5 151t39 197.5q0 118 -43 207
t-122.5 138.5t-188.5 49.5q-117 0 -197.5 -52.5t-121.5 -142.5t-41 -200q0 -105 40 -197.5t120 -151t200 -58.5z" />
    <glyph glyph-name="p" unicode="p" horiz-adv-x="1183" 
d="M185 -389v216.5v227.5v484v224v228l119 8l3 -127h15q29 37 76.5 69.5t108.5 52t133 19.5q137 0 234 -67t148.5 -183.5t51.5 -263.5q0 -139 -48 -257.5t-143.5 -190.5t-238.5 -72q-68 0 -125.5 17.5t-105 51.5t-86.5 81h-13v-79v-220.5v-213.5zM611 98q116 0 189 57
t107.5 148t34.5 195q0 109 -36.5 198.5t-110.5 143t-187 53.5q-58 0 -112 -17t-101 -50.5t-81 -83.5v-468q33 -55 76.5 -94t98.5 -60.5t122 -21.5z" />
    <glyph glyph-name="q" unicode="q" horiz-adv-x="1166" 
d="M869 -389v216v223v81h-14q-39 -48 -86.5 -82t-104.5 -52t-125 -18q-143 0 -239 72t-143.5 190.5t-47.5 257.5q0 147 51 263.5t148.5 183.5t234.5 67q72 0 133 -19.5t108 -51.5t77 -70h15l3 119l119 8v-226.5v-233.5v-484v-225v-214zM572 98q67 0 122 21.5t98 60.5t77 94
v468q-34 50 -80.5 83.5t-101 50.5t-112.5 17q-114 0 -187.5 -53.5t-110 -143t-36.5 -198.5q0 -104 34.5 -195t107.5 -148t189 -57z" />
    <glyph glyph-name="r" unicode="r" horiz-adv-x="792" 
d="M185 0v214v225v100v224v228l115 8l4 -208h14q41 94 96.5 142t112 64t103.5 16q29 0 56.5 -4t52.5 -13l-11 -132q-31 8 -57 12.5t-61 4.5q-28 0 -67 -9t-80.5 -38t-80 -87t-68.5 -156v-157v-220.5v-213.5h-129z" />
    <glyph glyph-name="s" unicode="s" horiz-adv-x="904" 
d="M454 -20q-60 0 -121 9.5t-116 27t-96 39.5l12 124q46 -26 98 -45t107.5 -29.5t113.5 -10.5q60 0 110.5 15t81 53t30.5 110q0 47 -25.5 77.5t-85 54.5t-160.5 54q-76 22 -138 53t-99 83.5t-37 138.5q0 127 85.5 203t230.5 76q58 0 113 -10.5t103 -28t83 -37.5l-12 -125
q-49 31 -98.5 50t-95 27t-82.5 8q-42 0 -87 -12.5t-76.5 -47t-31.5 -100.5q0 -46 21.5 -77.5t71 -55t135.5 -48.5q96 -29 167.5 -60t110 -82t38.5 -140q0 -82 -36.5 -149t-113.5 -106t-201 -39z" />
    <glyph glyph-name="t" unicode="t" horiz-adv-x="813" 
d="M547 -21q-96 0 -162 35t-100 105t-34 176v183.5v174.5v159v137v185v178l128 31v-134v-122.5v-137.5v-629q0 -113 48 -169t148 -56q39 0 84 13.5t79 40.5l14 -118q-20 -15 -51.5 -26.5t-71 -18.5t-82.5 -7zM52 885v106h688v-106h-205h-202h-50h-231z" />
    <glyph glyph-name="u" unicode="u" horiz-adv-x="1111" 
d="M463 -21q-161 0 -232.5 92t-71.5 264v113.5v94.5v160v144v144l128 5v-217v-226v-192q0 -128 46.5 -193.5t167.5 -65.5q69 0 127.5 29.5t106.5 79t86 109.5v233v223v215h129v-216v-232v-104v-225v-214h-115l-3 180h-16q-31 -44 -81.5 -90.5t-118.5 -78.5t-153 -32z" />
    <glyph glyph-name="v" unicode="v" horiz-adv-x="1009" 
d="M429 0q-35 93 -70.5 188.5t-70.5 185.5l-66 176q-41 109 -83 220.5t-84 220.5l139 5q47 -131 92.5 -260t93.5 -261l118 -332h16l119 333q47 133 93 260.5t91 254.5h137q-41 -110 -83 -221.5t-84 -221.5l-66 -178q-35 -94 -69.5 -185t-69.5 -185h-153z" />
    <glyph glyph-name="w" unicode="w" horiz-adv-x="1585" 
d="M384 0q-31 93 -62 187t-63 190l-59 176q-36 110 -72 218.5t-73 219.5l136 5q40 -126 84 -266.5t84 -268.5l101 -321h13l99 328q39 131 78.5 260.5t78.5 262.5h129q39 -126 79 -258t80 -261l102 -332h13l103 336q39 127 81 263.5t77 251.5h137q-36 -110 -71.5 -219
t-71.5 -219l-57 -174q-31 -96 -62 -191.5t-61 -187.5h-158q-38 122 -78.5 252.5t-77.5 248.5l-96 306h-15l-95 -309q-36 -117 -75.5 -246.5t-77.5 -251.5h-150z" />
    <glyph glyph-name="x" unicode="x" horiz-adv-x="1045" 
d="M63 0q46 67 80.5 116.5t65 93t66.5 93.5l155 222l1 -41l-151 211q-36 51 -67.5 94.5t-65.5 91.5t-78 110l147 5q51 -72 90.5 -129.5t84.5 -121.5l114 -165h12l115 166q44 64 83 120t86 125h150q-46 -65 -79 -111t-62.5 -86.5t-65.5 -90.5l-153 -213l-6 39l171 -227
q54 -71 105 -138t123 -164h-158q-49 67 -88.5 121.5t-88.5 121.5l-133 182h-13l-120 -174q-47 -69 -86 -125t-87 -126h-147z" />
    <glyph glyph-name="y" unicode="y" horiz-adv-x="1018" 
d="M279 -389q39 97 79 195.5t80 194.5v-38q-38 103 -77 207.5t-76 203.5l-67 180q-39 107 -81 219t-82 218l139 5q46 -134 91 -262t91 -262l116 -332h15l126 334q50 130 98 258.5t97 258.5h135q-32 -80 -61.5 -154.5t-65 -164.5t-85.5 -214l-111 -279
q-75 -190 -127.5 -322.5t-96.5 -240.5z" />
    <glyph glyph-name="z" unicode="z" horiz-adv-x="983" 
d="M81 0v70q87 115 171.5 225t157.5 207l332 435l20 -53h-226h-132.5h-160.5h-160v107h793v-81q-39 -52 -92.5 -121.5t-110 -143t-107.5 -140.5l-331 -433l-16 35h250h133h157h150v-107h-828z" />
    <glyph glyph-name="braceleft" unicode="{" horiz-adv-x="786" 
d="M591 -230q-97 0 -166.5 31.5t-107 92.5t-37.5 148v70v70v70v70v70q0 75 -28.5 120t-72.5 65t-93 20h-62v102h62q49 0 93 20t72.5 65.5t28.5 119.5v70.5v70v71v70.5v70q0 131 83 201.5t228 70.5h166v-111h-86h-66q-100 0 -151.5 -45t-51.5 -131v-337q0 -77 -19.5 -124
t-54.5 -75t-82 -48v-16q47 -21 82 -49t54.5 -75t19.5 -125v-335q0 -86 51.5 -131t151.5 -45h64.5h89.5v-111h-168z" />
    <glyph glyph-name="bar" unicode="|" horiz-adv-x="519" 
d="M201 -312v172.5v164v160.5v161v564v161v160.5v164.5v172h117v-172v-164.5v-160.5v-161v-564v-161v-160.5v-164v-172.5h-117z" />
    <glyph glyph-name="braceright" unicode="}" horiz-adv-x="786" 
d="M29 -230v111h86.5h66.5q100 0 151 45t51 131v336q0 78 19.5 125t54.5 75t82 48v16q-47 20 -82 48.5t-54.5 75.5t-19.5 125v335q0 86 -51 131t-151 45h-65h-90v111h168q97 0 166.5 -31.5t107.5 -92.5t38 -148v-70v-70v-70v-70v-70q0 -75 28 -120t72 -65t93 -20h63v-102
h-63q-49 0 -93 -20t-72 -65.5t-28 -119.5v-71v-70v-70.5v-70.5v-70q0 -131 -83 -201.5t-229 -70.5h-166z" />
    <glyph glyph-name="asciitilde" unicode="~" horiz-adv-x="1131" 
d="M790 450q-67 0 -124.5 26t-108.5 60.5t-99.5 60.5t-97.5 26q-58 0 -97.5 -35t-40.5 -109h-93q0 125 62.5 193.5t154.5 68.5q66 0 123 -26t108 -60.5t99.5 -60.5t97.5 -26q58 0 96 35t39 109h92q0 -126 -60 -194t-151 -68z" />
    <glyph glyph-name="uni00A0" unicode="&#xa0;" horiz-adv-x="383" 
 />
    <glyph glyph-name="exclamdown" unicode="&#xa1;" horiz-adv-x="457" 
d="M144 -395q10 243 18.5 488.5t10.5 493.5l107 3q2 -249 11 -493.5t18 -485.5zM228 864q-35 0 -62 14.5t-41 40.5t-14 61q0 54 32 85t86 31q36 0 62.5 -14.5t40.5 -40t14 -61.5q0 -52 -31 -84t-87 -32z" />
    <glyph glyph-name="cent" unicode="&#xa2;" horiz-adv-x="994" 
d="M509 -274v172.5v164v160.5v161v206v161v160.5v164.5v172h101v-172v-164.5v-160.5v-161v-206v-161v-161v-164.5v-171.5h-101zM605 -19q-159 0 -270 68t-169 185t-58 262q0 147 56.5 264t163.5 185t259 68q58 0 114 -10t105.5 -27.5t88.5 -39.5l-14 -122q-55 32 -105 49.5
t-94 24t-81 6.5q-164 0 -262.5 -106.5t-98.5 -288.5q0 -114 43 -205t128.5 -144t213.5 -53q44 0 88.5 8t87.5 24.5t83 41.5l15 -123q-32 -17 -76.5 -32.5t-99 -25t-118.5 -9.5z" />
    <glyph glyph-name="sterling" unicode="&#xa3;" horiz-adv-x="1174" 
d="M136 0v82q64 57 97.5 118t46 125t12.5 127v230v229q0 245 118.5 365t328.5 120q58 0 114 -10.5t106 -27.5t88 -39l-15 -124q-56 31 -107 48.5t-95 24t-83 6.5q-160 0 -240 -90t-80 -282v-424q0 -74 -14.5 -141t-53.5 -131t-114 -127l-14 42h289h229.5h184.5h172v-121
h-970zM124 707v100h177h160h65h160.5h176.5v-100h-176.5h-160.5h-65h-160h-177z" />
    <glyph glyph-name="currency" unicode="&#xa4;" horiz-adv-x="1230" 
d="M611 241q-86 0 -159 27.5t-127 79.5t-84 126t-30 167q0 118 52.5 208t143.5 141t208 51q87 0 160 -29t127 -82.5t84 -127t30 -161.5q0 -125 -53 -214.5t-144 -137.5t-208 -48zM181 124l-84 84q66 65 126 125.5t112 112.5l84 -84l-112.5 -112.5zM612 357q119 0 200.5 69.5
t81.5 213.5q0 91 -37.5 154.5t-100.5 97t-141 33.5q-79 0 -143 -33.5t-101.5 -97t-37.5 -154.5q0 -96 37 -159t100.5 -93.5t141.5 -30.5zM336 838q-52 53 -112.5 113.5t-125.5 124.5l82 83q66 -65 126.5 -125.5t112.5 -113.5zM1050 125l-125.5 125.5t-113.5 112.5l83 82
q53 -52 113.5 -112.5t124.5 -125.5zM895 837l-84 84l113.5 113.5l124.5 124.5l84 -84q-64 -64 -125 -124.5t-113 -113.5z" />
    <glyph glyph-name="yen" unicode="&#xa5;" horiz-adv-x="1233" 
d="M553 552l-300 496q-28 47 -53.5 90t-58.5 97t-82 135h155q57 -95 97 -163t76 -129.5t80 -135.5l142 -242h16l144 244q43 73 79.5 134.5t77.5 130t96 161.5h152q-46 -78 -96.5 -161t-97.5 -161l-299 -496h-128zM550 0v221.5v231.5v208h135v-208v-231.5v-221.5h-135z
M165 294v93h177h160h232h160.5h176.5v-93h-176.5h-160.5h-232h-160h-177zM165 572v92h177h160h232h160.5h176.5v-92h-176.5h-160.5h-232h-160h-177z" />
    <glyph glyph-name="brokenbar" unicode="&#xa6;" horiz-adv-x="519" 
d="M201 728v182v161v160.5v164.5v172h117v-172v-164.5v-160.5v-161v-182h-117zM201 -312v172.5v164v160.5v161v182h117v-182v-161v-160.5v-164v-172.5h-117z" />
    <glyph glyph-name="section" unicode="&#xa7;" horiz-adv-x="1074" 
d="M490 -249q-70 0 -143.5 12.5t-139.5 33.5t-115 49l13 124q55 -32 117.5 -55t128.5 -36t132 -13q77 0 141 20t102.5 70.5t38.5 139.5q0 62 -32 101t-105 69.5t-196 68.5q-93 29 -167.5 68t-118 99.5t-43.5 154.5q0 70 26 129t76 103.5t121 67.5l90 -84q-44 -8 -85.5 -32.5
t-68 -67.5t-26.5 -110q0 -63 29 -104.5t91 -72t160 -59.5q117 -35 202.5 -73.5t132.5 -99t47 -164.5q0 -92 -42.5 -169t-132.5 -123.5t-233 -46.5zM787 258l-89 77q73 21 118 76.5t45 149.5q0 64 -32 105t-105 72.5t-196 68.5q-89 26 -164.5 64.5t-120.5 100.5t-45 159
q0 143 99.5 232t270.5 89q68 0 132.5 -12.5t120.5 -33.5t100 -46l-13 -126q-61 40 -118.5 62.5t-109.5 31.5t-95 9q-37 0 -80.5 -8t-83 -30.5t-64.5 -63.5t-25 -106q0 -60 29.5 -100t91 -70.5t159.5 -59.5q117 -35 202.5 -74t132.5 -99.5t47 -158.5q0 -100 -50 -181.5
t-157 -127.5z" />
    <glyph glyph-name="dieresis" unicode="&#xa8;" horiz-adv-x="1200" 
d="M804 1224q-42 0 -68.5 26.5t-26.5 77.5q0 52 27 78.5t70 26.5q44 0 69.5 -27.5t25.5 -77.5q0 -51 -26 -77.5t-71 -26.5zM388 1224q-42 0 -68.5 26.5t-26.5 77.5q0 52 27 78.5t70 26.5q44 0 70 -27.5t26 -77.5q0 -51 -26 -77.5t-72 -26.5z" />
    <glyph glyph-name="copyright" unicode="&#xa9;" horiz-adv-x="1643" 
d="M828 -21q-179 0 -313.5 56.5t-225 154.5t-136.5 226t-46 272q0 199 85 359.5t245.5 254.5t385.5 94q229 0 388 -95t242 -255.5t83 -357.5q0 -203 -85.5 -363t-244 -253t-378.5 -93zM845 312q-117 0 -198 50t-123.5 135t-42.5 192t41.5 192t120 135t189.5 50q42 0 83 -7
t77.5 -20t64.5 -29l-10 -102q-61 37 -113 48.5t-93 11.5q-110 0 -180.5 -71.5t-70.5 -205.5q0 -128 69 -205.5t200 -77.5q50 0 97 13.5t92 41.5l12 -102q-24 -13 -56 -24.5t-72 -18t-87 -6.5zM828 72q186 0 323.5 76t213 214t75.5 326q0 187 -75 325t-213.5 214t-328.5 76
q-188 0 -327.5 -76.5t-216 -214.5t-76.5 -324q0 -187 75 -325.5t215 -214.5t335 -76z" />
    <glyph glyph-name="ordfeminine" unicode="&#xaa;" horiz-adv-x="786" 
d="M307 667q-107 0 -165.5 58.5t-58.5 148.5q0 63 23 106.5t59.5 71.5t78 43.5t78.5 22.5l249 51q3 78 -21 118t-66.5 54.5t-96.5 14.5q-33 0 -73 -6t-87.5 -20t-102.5 -39l-8 103q29 11 63.5 21.5t72.5 18.5t77.5 13t78.5 5q119 0 189.5 -60.5t70.5 -197.5v-89v-103v-95
v-105v-120h-92l-4 120h-12q-24 -37 -63 -68t-88 -49t-102 -18zM340 760q41 0 84 15t80.5 47.5t63.5 85.5l1 196q-13 -7 -33.5 -14.5t-60.5 -17.5t-111 -25q-45 -8 -85.5 -25t-66.5 -48t-26 -82q0 -71 43.5 -101.5t110.5 -30.5z" />
    <glyph glyph-name="guillemotleft" unicode="&#xab;" horiz-adv-x="1094" 
d="M883 -4q-95 127 -190 252.5t-191 252.5q96 126 191 252t190 253l134 -8q-93 -123 -185 -245.5t-185 -244.5v-16q93 -122 185 -244t185 -245zM444 -4q-95 127 -190 252.5t-191 252.5q96 126 191 252t190 253l134 -8q-93 -123 -185 -245.5t-185 -244.5v-16
q93 -122 185 -244t185 -245z" />
    <glyph glyph-name="logicalnot" unicode="&#xac;" horiz-adv-x="1131" 
d="M882 325v177.5v160.5v158l92 -82h-162h-148h-198h-159.5h-177.5v117h177.5h159.5h198h160.5h176.5v-193v-160.5v-177.5h-119z" />
    <glyph glyph-name="uni00AD" unicode="&#xad;" horiz-adv-x="844" 
d="M129 535v117h154.5h138.5h139h153v-117h-153h-139h-138.5h-154.5z" />
    <glyph glyph-name="registered" unicode="&#xae;" horiz-adv-x="1133" 
d="M571 517q-166 0 -276.5 67.5t-165 178t-54.5 241.5q0 136 57.5 246.5t167.5 175t267 64.5q159 0 268.5 -65.5t166.5 -175.5t57 -245q0 -140 -58.5 -250t-168 -173.5t-261.5 -63.5zM374 731v92v96v192v97.5v92.5l78 -12v-90.5v-95.5v-184v-96v-92h-78zM571 588
q129 0 222 51.5t142 145.5t49 219t-48.5 218t-142 145.5t-225.5 52.5q-133 0 -227 -52.5t-143.5 -146t-49.5 -217.5q0 -93 27.5 -169.5t81.5 -132t133 -85t181 -29.5zM723 731q-29 39 -54.5 72.5t-50.5 65.5l-98 129l48 -31h-131v62h105q65 0 105 23.5t40 86.5q0 45 -21 65
t-49.5 24.5t-50.5 4.5h-139l-53 68h83h112q90 0 144 -36.5t54 -121.5q0 -70 -44 -119.5t-150 -49.5l30 34l87 -112q34 -42 68 -87t60 -78h-95z" />
    <glyph glyph-name="macron" unicode="&#xaf;" horiz-adv-x="1200" 
d="M294 1269v103h146h160h160.5h145.5v-103h-145.5h-160.5h-160h-146z" />
    <glyph glyph-name="degree" unicode="&#xb0;" horiz-adv-x="940" 
d="M470 639q-114 0 -203 46.5t-140 131t-51 198.5q0 108 51 194t140.5 136.5t204.5 50.5q114 0 202 -50.5t138.5 -136.5t50.5 -194q0 -114 -50.5 -198.5t-139 -131t-203.5 -46.5zM470 743q129 0 203.5 72.5t74.5 198.5q0 81 -34 143.5t-95.5 98t-146.5 35.5
q-129 0 -204.5 -77.5t-75.5 -199.5q0 -84 34 -144.5t96.5 -93.5t147.5 -33z" />
    <glyph glyph-name="plusminus" unicode="&#xb1;" horiz-adv-x="1131" 
d="M129 0v117h177.5h159.5h198h160.5h176.5v-117h-176.5h-160.5h-198h-159.5h-177.5zM129 714v117h177.5h159.5h198h160.5h176.5v-117h-176.5h-160.5h-198h-159.5h-177.5zM506 307v177v160v256v160.5v177.5h119v-177.5v-160.5v-256v-160v-177h-119z" />
    <glyph glyph-name="uni00B2" unicode="&#xb2;" horiz-adv-x="795" 
d="M71 603v78q43 36 87 72.5t88 72.5q103 85 176 158t112 141t39 138q0 88 -49.5 132.5t-156.5 44.5q-44 0 -92.5 -10.5t-97.5 -31t-97 -50.5l-13 111q31 17 68.5 31.5t79 26t85 18t86.5 6.5q96 0 164 -32.5t103 -91.5t35 -140q0 -76 -36.5 -151t-109 -154t-180.5 -166
l-159 -128l-20 25h156h185h183v-100h-636z" />
    <glyph glyph-name="uni00B3" unicode="&#xb3;" horiz-adv-x="821" 
d="M397 588q-44 0 -88.5 5.5t-87 15.5t-80.5 24t-70 30l12 105q38 -21 77.5 -36t77.5 -25.5t75.5 -15.5t72.5 -5q129 0 183 48.5t54 123.5q0 89 -76 136t-214 47h-42.5h-43.5v83h41.5h40.5q136 0 198.5 49t62.5 124q0 74 -54.5 109.5t-145.5 35.5q-46 0 -94 -11t-96 -32
t-96 -51l-11 108q31 18 67.5 33t76.5 26.5t83 18.5t85 7q89 0 156.5 -27.5t105.5 -78.5t38 -120q0 -86 -55 -143t-128 -73v-11q50 -9 100 -37.5t83.5 -78.5t33.5 -123q0 -111 -85 -186t-257 -75z" />
    <glyph glyph-name="acute" unicode="&#xb4;" horiz-adv-x="1200" 
d="M464 1160l140 198t138 195l151 4q-54 -67 -107.5 -133t-105.5 -131t-105 -130z" />
    <glyph glyph-name="uni00B5" unicode="&#xb5;" horiz-adv-x="1145" 
d="M185 -389v216.5v227.5v488v160v144v144l129 5v-145.5v-145v-152.5v-192q0 -128 46.5 -193.5t166.5 -65.5q70 0 128 29.5t106 79t87 109.5v233v223v215h129v-144.5v-145v-158.5v-243v-140v-160h-114q-1 45 -2.5 91t-2.5 90h-16q-29 -44 -77 -90.5t-114 -79t-148 -32.5
q-84 0 -140.5 28.5t-90.5 87.5h42v-45v-220.5v-213.5z" />
    <glyph glyph-name="paragraph" unicode="&#xb6;" horiz-adv-x="1077" 
d="M446 608q-120 0 -203.5 58t-127.5 152.5t-44 204.5q0 118 47 209t131 142.5t197 51.5h40v-818h-40zM449 -349v336.5v321.5v459v321.5v336.5h95v-336.5v-321.5v-459v-321.5v-336.5h-95zM730 -349v336.5v321.5v459v321.5v336.5h96v-336.5v-321.5v-459v-321.5v-336.5h-96z
M485 1334v92h198h160.5h177.5v-92h-177.5h-160.5h-198z" />
    <glyph glyph-name="periodcentered" unicode="&#xb7;" horiz-adv-x="457" 
d="M228 529q-35 0 -62 15t-41 41t-14 61q0 54 32 84.5t86 30.5q36 0 62.5 -14t40.5 -39.5t14 -61.5q0 -52 -31 -84.5t-87 -32.5z" />
    <glyph glyph-name="cedilla" unicode="&#xb8;" horiz-adv-x="1200" 
d="M551 -426q-20 0 -42 2t-42 5t-35 8v90q14 -5 43 -10t63 -5q74 0 102 24.5t28 60.5q0 20 -14.5 39.5t-53.5 35t-113 21.5l79 188h80v-33l-52 -119q73 -10 113.5 -33t56 -53t15.5 -61q0 -44 -22.5 -80.5t-72.5 -58t-133 -21.5z" />
    <glyph glyph-name="uni00B9" unicode="&#xb9;" horiz-adv-x="625" 
d="M79 1257l-27 91q89 46 174.5 90t170.5 87l-2 -105q-71 -36 -149.5 -76.5t-166.5 -86.5zM342 603v143v152v286v145v144l55 52l55 -3v-156v-164v-304v-152v-143h-110z" />
    <glyph glyph-name="ordmasculine" unicode="&#xba;" horiz-adv-x="908" 
d="M457 666q-121 0 -205 56t-127.5 146t-43.5 196q0 112 46 199.5t130 137.5t198 50q118 0 201 -51t127 -138.5t44 -197.5q0 -111 -45 -201.5t-128 -143.5t-197 -53zM456 761q89 0 147 43.5t87 112.5t29 147q0 131 -70.5 211.5t-192.5 80.5q-87 0 -146 -39t-90 -105.5
t-31 -147.5q0 -78 29.5 -147t89 -112.5t148.5 -43.5z" />
    <glyph glyph-name="guillemotright" unicode="&#xbb;" horiz-adv-x="1094" 
d="M649 -4l-134 8q93 122 185.5 245t185.5 245v16q-93 122 -185.5 244t-185.5 245l134 7q96 -127 191 -253t191 -252q-96 -127 -191 -252.5t-191 -252.5zM210 -4l-134 8q93 122 185.5 245t185.5 245v16q-93 122 -185.5 244t-185.5 245l134 7q96 -127 191 -253t191 -252
q-96 -127 -191 -252.5t-191 -252.5z" />
    <glyph glyph-name="onequarter" unicode="&#xbc;" horiz-adv-x="1854" 
d="M79 1161l-27 91q89 46 174.5 90t170.5 87l-2 -105q-71 -36 -149.5 -76.5t-166.5 -86.5zM342 507v143v152v286v145v144l55 52l55 -3v-156v-164v-304v-152v-143h-110zM451 0q61 110 119 216t132 242l273 496q52 95 95 173t83 150t82 149h131q-42 -77 -81.5 -149t-82.5 -150
t-95 -173l-273 -496q-75 -136 -133 -242t-119 -216h-131zM1517 0v119.5v133.5l8 21v304v143v143l80 38q-40 -53 -78.5 -105.5t-78.5 -106.5l-171 -228q-36 -49 -69 -93t-67 -90l-4 24h409l19 7h125.5h120.5v-100h-120.5h-125.5h-519v77q27 36 64 85.5t75.5 101.5t70.5 95
l123 167q35 45 69.5 91.5t68.5 91.5h110v-164.5v-160.5v-341v-133.5v-119.5h-110z" />
    <glyph glyph-name="onehalf" unicode="&#xbd;" horiz-adv-x="1987" 
d="M79 1161l-27 91q89 46 174.5 90t170.5 87l-2 -105q-71 -36 -149.5 -76.5t-166.5 -86.5zM342 507v143v152v286v145v144l55 52l55 -3v-156v-164v-304v-152v-143h-110zM451 0q61 110 119 216t132 242l273 496q52 95 95 173t83 150t82 149h131q-42 -77 -81.5 -149t-82.5 -150
t-95 -173l-273 -496q-75 -136 -133 -242t-119 -216h-131zM1263 0v78q43 36 87 72.5t88 72.5q103 85 176 158t112 141t39 138q0 88 -49.5 132.5t-156.5 44.5q-44 0 -92.5 -10.5t-97.5 -31t-97 -50.5l-13 111q31 17 68.5 31.5t79 26t85 18t86.5 6.5q96 0 164 -32.5t103 -91.5
t35 -140q0 -76 -36.5 -151t-109 -154t-180.5 -166l-159 -128l-20 25h156h185h183v-100h-636z" />
    <glyph glyph-name="threequarters" unicode="&#xbe;" horiz-adv-x="1960" 
d="M397 492q-44 0 -88.5 5.5t-87 15.5t-80.5 24t-70 30l12 105q38 -21 77.5 -36t77.5 -25.5t75.5 -15.5t72.5 -5q129 0 183 48.5t54 123.5q0 89 -76 136t-214 47h-42.5h-43.5v83h41.5h40.5q136 0 198.5 49t62.5 124q0 74 -54.5 109.5t-145.5 35.5q-46 0 -94 -11t-96 -32
t-96 -51l-11 108q31 18 67.5 33t76.5 26.5t83 18.5t85 7q89 0 156.5 -27.5t105.5 -78.5t38 -120q0 -86 -55 -143t-128 -73v-11q50 -9 100 -37.5t83.5 -78.5t33.5 -123q0 -111 -85 -186t-257 -75zM557 0q61 110 119 216t132 242l273 496q52 95 95 173t83 150t82 149h131
q-42 -77 -81.5 -149t-82.5 -150t-95 -173l-273 -496q-75 -136 -133 -242t-119 -216h-131zM1623 0v119.5v133.5l8 21v304v143v143l80 38q-40 -53 -78.5 -105.5t-78.5 -106.5l-171 -228q-36 -49 -69 -93t-67 -90l-4 24h409l19 7h125.5h120.5v-100h-120.5h-125.5h-519v77
q27 36 64 85.5t75.5 101.5t70.5 95l123 167q35 45 69.5 91.5t68.5 91.5h110v-164.5v-160.5v-341v-133.5v-119.5h-110z" />
    <glyph glyph-name="questiondown" unicode="&#xbf;" horiz-adv-x="783" 
d="M446 -423q-101 0 -177 31.5t-118 93t-42 152.5t39 158.5t98 118.5t118 94q68 51 120 100t52 112q0 70 -43.5 97t-103.5 27q-38 0 -69.5 -8t-52.5 -17l-6 82q17 5 42 10.5t54 9t59 3.5q112 0 176.5 -54t64.5 -145q0 -63 -30 -111.5t-77.5 -89t-100.5 -79.5t-101.5 -81
t-80 -93t-31.5 -116q0 -87 61 -132.5t168 -45.5q46 0 93.5 8.5t96.5 26t98 42.5l9 -121q-26 -10 -60 -23t-74 -24.5t-86 -18.5t-96 -7zM456 864q-36 0 -62 14.5t-40.5 40.5t-14.5 61q0 54 32 85t86 31q36 0 62.5 -14.5t40.5 -40t14 -61.5q0 -52 -31.5 -84t-86.5 -32z" />
    <glyph glyph-name="Agrave" unicode="&#xc0;" horiz-adv-x="1365" 
d="M63 0q43 116 90 242.5t90 241.5l181 489q49 131 88.5 238t79.5 215h188q40 -110 79 -216t87 -238l180 -491q43 -118 89 -242.5t87 -238.5h-146q-46 128 -94.5 263.5t-91.5 256.5l-277 774h-16l-279 -767q-45 -125 -94.5 -261.5t-96.5 -265.5h-144zM306 375l10 114h746
l8 -114h-764zM708 1579q-52 59 -104.5 117.5t-105.5 119t-108 121.5l150 2q70 -89 139.5 -178.5t139.5 -179.5z" />
    <glyph glyph-name="Aacute" unicode="&#xc1;" horiz-adv-x="1365" 
d="M63 0q43 116 90 242.5t90 241.5l181 489q49 131 88.5 238t79.5 215h188q40 -110 79 -216t87 -238l180 -491q43 -118 89 -242.5t87 -238.5h-146q-46 128 -94.5 263.5t-91.5 256.5l-277 774h-16l-279 -767q-45 -125 -94.5 -261.5t-96.5 -265.5h-144zM306 375l10 114h746
l8 -114h-764zM547 1579q71 91 140 180l138 178l151 2q-54 -61 -107 -121t-105.5 -119t-105.5 -118z" />
    <glyph glyph-name="Acircumflex" unicode="&#xc2;" horiz-adv-x="1365" 
d="M63 0q43 116 90 242.5t90 241.5l181 489q49 131 88.5 238t79.5 215h188q40 -110 79 -216t87 -238l180 -491q43 -118 89 -242.5t87 -238.5h-146q-46 128 -94.5 263.5t-91.5 256.5l-277 774h-16l-279 -767q-45 -125 -94.5 -261.5t-96.5 -265.5h-144zM306 375l10 114h746
l8 -114h-764zM922 1577q-66 77 -131 151.5t-131 152.5h41q-67 -77 -131 -150.5t-130 -149.5h-111q69 88 138.5 177t139.5 179h147q69 -90 138.5 -179.5t139.5 -178.5z" />
    <glyph glyph-name="Atilde" unicode="&#xc3;" horiz-adv-x="1365" 
d="M63 0q43 116 90 242.5t90 241.5l181 489q49 131 88.5 238t79.5 215h188q40 -110 79 -216t87 -238l180 -491q43 -118 89 -242.5t87 -238.5h-146q-46 128 -94.5 263.5t-91.5 256.5l-277 774h-16l-279 -767q-45 -125 -94.5 -261.5t-96.5 -265.5h-144zM306 375l10 114h746
l8 -114h-764zM849 1577q-59 0 -101.5 26.5t-77 62t-67 62t-70.5 26.5q-60 0 -84 -37t-25 -111h-87q0 123 49 188t134 65q58 0 100.5 -26.5t76.5 -62t66.5 -62t70.5 -26.5q60 0 83.5 37.5t24.5 110.5h87q0 -122 -48 -187.5t-132 -65.5z" />
    <glyph glyph-name="Adieresis" unicode="&#xc4;" horiz-adv-x="1365" 
d="M63 0q43 116 90 242.5t90 241.5l181 489q49 131 88.5 238t79.5 215h188q40 -110 79 -216t87 -238l180 -491q43 -118 89 -242.5t87 -238.5h-146q-46 128 -94.5 263.5t-91.5 256.5l-277 774h-16l-279 -767q-45 -125 -94.5 -261.5t-96.5 -265.5h-144zM306 375l10 114h746
l8 -114h-764zM889 1643q-42 0 -68.5 26t-26.5 78t27 78.5t70 26.5q44 0 69.5 -27.5t25.5 -77.5q0 -52 -26 -78t-71 -26zM473 1643q-42 0 -68.5 26t-26.5 78t27 78.5t70 26.5q44 0 70 -27.5t26 -77.5q0 -52 -26 -78t-72 -26z" />
    <glyph glyph-name="Aring" unicode="&#xc5;" horiz-adv-x="1365" 
d="M63 0q43 116 90 242.5t90 241.5l181 489q49 131 88.5 238t79.5 215h188q40 -110 79 -216t87 -238l180 -491q43 -118 89 -242.5t87 -238.5h-146q-46 128 -94.5 263.5t-91.5 256.5l-277 774h-16l-279 -767q-45 -125 -94.5 -261.5t-96.5 -265.5h-144zM306 375l10 114h746
l8 -114h-764zM681 1567q-64 0 -112.5 23.5t-76 68.5t-27.5 109q0 90 60.5 145t157.5 55q64 0 113 -25.5t76 -70.5t27 -104q0 -64 -27.5 -109t-76.5 -68.5t-114 -23.5zM681 1643q58 0 96 31t38 94q0 57 -37.5 90.5t-94.5 33.5q-58 0 -96 -33t-38 -91q0 -63 38 -94t94 -31z
" />
    <glyph glyph-name="AE" unicode="&#xc6;" horiz-adv-x="1928" 
d="M30 0q65 114 136 241.5t134 241.5l277 495q70 125 130.5 233t120.5 215h981v-123h-142h-160.5h-192.5h-277l41 104v-232v-244v-438v-241v-231l-39 102h288h171.5h160h151.5v-123h-870v231v242v477v242.5v219.5l69 -106h-104l-433 -779q-69 -125 -145 -261.5t-148 -265.5
h-149zM348 375l10 114h637l9 -114h-656zM1048 664v119h281h242.5h195.5v-119h-99.5h-101.5h-110.5h-127.5h-280z" />
    <glyph glyph-name="Ccedilla" unicode="&#xc7;" horiz-adv-x="1371" 
d="M832 -21q-168 0 -302.5 56t-228.5 155.5t-144 234t-50 291.5q0 216 89 382t246.5 259.5t362.5 93.5q71 0 138 -10t126.5 -28t109.5 -38t86 -40l-14 -138q-77 45 -151 73t-145.5 41t-140.5 13q-164 0 -290.5 -74.5t-198.5 -211t-72 -323.5q0 -126 37 -236.5t111.5 -194.5
t185 -131.5t255.5 -47.5q52 0 103.5 6.5t102.5 20t100 36.5t94 55l14 -137q-42 -27 -92.5 -47.5t-105 -33.5t-112 -19.5t-114.5 -6.5zM752 -426q-20 0 -42 2t-42 5t-35 8v90q14 -5 43 -10t63 -5q74 0 102 24.5t28 60.5q0 20 -14.5 39.5t-53.5 35t-113 21.5l79 188h80v-33
l-52 -119q73 -10 113.5 -33t56 -53t15.5 -61q0 -44 -22.5 -80.5t-72.5 -58t-133 -21.5z" />
    <glyph glyph-name="Egrave" unicode="&#xc8;" horiz-adv-x="1185" 
d="M197 0v231v242v477v244.5v231.5h869v-123h-219h-275h-313l76 104v-232v-244v-438v-241v-231l-70 102h319h254h229v-123h-870zM305 664v119h282h241.5h195.5v-119h-200.5h-238.5h-280zM659 1579q-52 59 -104.5 117.5t-105.5 119t-108 121.5l150 2q70 -89 139.5 -178.5
t139.5 -179.5z" />
    <glyph glyph-name="Eacute" unicode="&#xc9;" horiz-adv-x="1185" 
d="M197 0v231v242v477v244.5v231.5h869v-123h-219h-275h-313l76 104v-232v-244v-438v-241v-231l-70 102h319h254h229v-123h-870zM305 664v119h282h241.5h195.5v-119h-200.5h-238.5h-280zM498 1579q71 91 140 180l138 178l151 2q-54 -61 -107 -121t-105.5 -119t-105.5 -118z
" />
    <glyph glyph-name="Ecircumflex" unicode="&#xca;" horiz-adv-x="1185" 
d="M197 0v231v242v477v244.5v231.5h869v-123h-219h-275h-313l76 104v-232v-244v-438v-241v-231l-70 102h319h254h229v-123h-870zM305 664v119h282h241.5h195.5v-119h-200.5h-238.5h-280zM873 1577q-66 77 -131 151.5t-131 152.5h41q-67 -77 -131 -150.5t-130 -149.5h-111
q69 88 138.5 177t139.5 179h147q69 -90 138.5 -179.5t139.5 -178.5z" />
    <glyph glyph-name="Edieresis" unicode="&#xcb;" horiz-adv-x="1185" 
d="M197 0v231v242v477v244.5v231.5h869v-123h-219h-275h-313l76 104v-232v-244v-438v-241v-231l-70 102h319h254h229v-123h-870zM305 664v119h282h241.5h195.5v-119h-200.5h-238.5h-280zM840 1643q-42 0 -68.5 26t-26.5 78t27 78.5t70 26.5q44 0 69.5 -27.5t25.5 -77.5
q0 -52 -26 -78t-71 -26zM424 1643q-42 0 -68.5 26t-26.5 78t27 78.5t70 26.5q44 0 70 -27.5t26 -77.5q0 -52 -26 -78t-72 -26z" />
    <glyph glyph-name="Igrave" unicode="&#xcc;" horiz-adv-x="540" 
d="M199 0v231v242v477v244.5v231.5h142v-231.5v-244.5v-477v-242v-231h-142zM293 1579q-52 59 -104.5 117.5t-105.5 119t-108 121.5l150 2q70 -89 139.5 -178.5t139.5 -179.5z" />
    <glyph glyph-name="Iacute" unicode="&#xcd;" horiz-adv-x="540" 
d="M199 0v231v242v477v244.5v231.5h142v-231.5v-244.5v-477v-242v-231h-142zM132 1579q71 91 140 180l138 178l151 2q-54 -61 -107 -121t-105.5 -119t-105.5 -118z" />
    <glyph glyph-name="Icircumflex" unicode="&#xce;" horiz-adv-x="540" 
d="M199 0v231v242v477v244.5v231.5h142v-231.5v-244.5v-477v-242v-231h-142zM507 1577q-66 77 -131 151.5t-131 152.5h41q-67 -77 -131 -150.5t-130 -149.5h-111q69 88 138.5 177t139.5 179h147q69 -90 138.5 -179.5t139.5 -178.5z" />
    <glyph glyph-name="Idieresis" unicode="&#xcf;" horiz-adv-x="540" 
d="M199 0v231v242v477v244.5v231.5h142v-231.5v-244.5v-477v-242v-231h-142zM474 1643q-42 0 -68.5 26t-26.5 78t27 78.5t70 26.5q44 0 69.5 -27.5t25.5 -77.5q0 -52 -26 -78t-71 -26zM58 1643q-42 0 -68.5 26t-26.5 78t27 78.5t70 26.5q44 0 70 -27.5t26 -77.5
q0 -52 -26 -78t-72 -26z" />
    <glyph glyph-name="Eth" unicode="&#xd0;" horiz-adv-x="1475" 
d="M-22 642v107h177.5h159.5h93h160h177v-107h-177h-160h-93h-159.5h-177.5zM197 0v231v242v477v244.5v231.5h170.5h155.5h156q166 0 294 -47.5t216 -139.5t133.5 -222.5t45.5 -297.5q0 -151 -40.5 -281.5t-127 -228.5t-227 -153.5t-342.5 -55.5h-153h-137.5h-143.5z
M338 120h295q218 0 347 79t185.5 215t56.5 308q0 133 -33.5 240.5t-102.5 184.5t-176 118t-254 41h-318v-182v-197v-431v-195v-181z" />
    <glyph glyph-name="Ntilde" unicode="&#xd1;" horiz-adv-x="1510" 
d="M197 0v231v242v477v244.5v231.5h130q135 -189 260.5 -366t248.5 -349l330 -463h12v702v244.5v231.5h135v-231.5v-244.5v-477v-242v-231h-127q-112 158 -236.5 333t-274.5 385l-331 466h-12v-711v-242v-231h-135zM922 1577q-59 0 -101.5 26.5t-77 62t-67 62t-70.5 26.5
q-60 0 -84 -37t-25 -111h-87q0 123 49 188t134 65q58 0 100.5 -26.5t76.5 -62t66.5 -62t70.5 -26.5q60 0 83.5 37.5t24.5 110.5h87q0 -122 -48 -187.5t-132 -65.5z" />
    <glyph glyph-name="Ograve" unicode="&#xd2;" horiz-adv-x="1635" 
d="M825 -21q-179 0 -313.5 58.5t-224.5 160.5t-135 235t-45 282q0 207 84.5 374t244 264.5t383.5 97.5q171 0 303 -56.5t222.5 -158t137 -234.5t46.5 -287q0 -210 -84.5 -376.5t-242 -263t-376.5 -96.5zM820 105q147 0 253 50t174.5 136.5t101.5 195.5t33 228
q0 128 -35.5 239t-106 194.5t-175.5 130.5t-245 47q-144 0 -250.5 -49.5t-176.5 -135.5t-105 -195.5t-35 -230.5t34 -231t103 -195.5t176 -134.5t254 -49zM842 1579q-52 59 -104.5 117.5t-105.5 119t-108 121.5l150 2q70 -89 139.5 -178.5t139.5 -179.5z" />
    <glyph glyph-name="Oacute" unicode="&#xd3;" horiz-adv-x="1635" 
d="M825 -21q-179 0 -313.5 58.5t-224.5 160.5t-135 235t-45 282q0 207 84.5 374t244 264.5t383.5 97.5q171 0 303 -56.5t222.5 -158t137 -234.5t46.5 -287q0 -210 -84.5 -376.5t-242 -263t-376.5 -96.5zM820 105q147 0 253 50t174.5 136.5t101.5 195.5t33 228
q0 128 -35.5 239t-106 194.5t-175.5 130.5t-245 47q-144 0 -250.5 -49.5t-176.5 -135.5t-105 -195.5t-35 -230.5t34 -231t103 -195.5t176 -134.5t254 -49zM681 1579q71 91 140 180l138 178l151 2q-54 -61 -107 -121t-105.5 -119t-105.5 -118z" />
    <glyph glyph-name="Ocircumflex" unicode="&#xd4;" horiz-adv-x="1635" 
d="M825 -21q-179 0 -313.5 58.5t-224.5 160.5t-135 235t-45 282q0 207 84.5 374t244 264.5t383.5 97.5q171 0 303 -56.5t222.5 -158t137 -234.5t46.5 -287q0 -210 -84.5 -376.5t-242 -263t-376.5 -96.5zM820 105q147 0 253 50t174.5 136.5t101.5 195.5t33 228
q0 128 -35.5 239t-106 194.5t-175.5 130.5t-245 47q-144 0 -250.5 -49.5t-176.5 -135.5t-105 -195.5t-35 -230.5t34 -231t103 -195.5t176 -134.5t254 -49zM1056 1577q-66 77 -131 151.5t-131 152.5h41q-67 -77 -131 -150.5t-130 -149.5h-111q69 88 138.5 177t139.5 179h147
q69 -90 138.5 -179.5t139.5 -178.5z" />
    <glyph glyph-name="Otilde" unicode="&#xd5;" horiz-adv-x="1635" 
d="M825 -21q-179 0 -313.5 58.5t-224.5 160.5t-135 235t-45 282q0 207 84.5 374t244 264.5t383.5 97.5q171 0 303 -56.5t222.5 -158t137 -234.5t46.5 -287q0 -210 -84.5 -376.5t-242 -263t-376.5 -96.5zM820 105q147 0 253 50t174.5 136.5t101.5 195.5t33 228
q0 128 -35.5 239t-106 194.5t-175.5 130.5t-245 47q-144 0 -250.5 -49.5t-176.5 -135.5t-105 -195.5t-35 -230.5t34 -231t103 -195.5t176 -134.5t254 -49zM983 1577q-59 0 -101.5 26.5t-77 62t-67 62t-70.5 26.5q-60 0 -84 -37t-25 -111h-87q0 123 49 188t134 65
q58 0 100.5 -26.5t76.5 -62t66.5 -62t70.5 -26.5q60 0 83.5 37.5t24.5 110.5h87q0 -122 -48 -187.5t-132 -65.5z" />
    <glyph glyph-name="Odieresis" unicode="&#xd6;" horiz-adv-x="1635" 
d="M825 -21q-179 0 -313.5 58.5t-224.5 160.5t-135 235t-45 282q0 207 84.5 374t244 264.5t383.5 97.5q171 0 303 -56.5t222.5 -158t137 -234.5t46.5 -287q0 -210 -84.5 -376.5t-242 -263t-376.5 -96.5zM820 105q147 0 253 50t174.5 136.5t101.5 195.5t33 228
q0 128 -35.5 239t-106 194.5t-175.5 130.5t-245 47q-144 0 -250.5 -49.5t-176.5 -135.5t-105 -195.5t-35 -230.5t34 -231t103 -195.5t176 -134.5t254 -49zM1023 1643q-42 0 -68.5 26t-26.5 78t27 78.5t70 26.5q44 0 69.5 -27.5t25.5 -77.5q0 -52 -26 -78t-71 -26zM607 1643
q-42 0 -68.5 26t-26.5 78t27 78.5t70 26.5q44 0 70 -27.5t26 -77.5q0 -52 -26 -78t-72 -26z" />
    <glyph glyph-name="multiply" unicode="&#xd7;" horiz-adv-x="1124" 
d="M905 167q-64 65 -125.5 126.5l-113.5 113.5l-294 293q-52 53 -112.5 113.5l-125.5 125.5l84 84q66 -64 126.5 -125t113.5 -115l292 -292q54 -53 115 -113.5t125 -126.5zM218 167l-84 84q43 44 84.5 85.5t80.5 80t75 74.5l292 293l114.5 114.5l124.5 124.5l85 -84
q-64 -65 -124.5 -125.5t-114.5 -113.5l-293 -293l-113.5 -113.5z" />
    <glyph glyph-name="Oslash" unicode="&#xd8;" horiz-adv-x="1635" 
d="M825 -21q-179 0 -313.5 58.5t-224.5 160.5t-135 235t-45 282q0 207 84.5 374t244 264.5t383.5 97.5q171 0 303 -56.5t222.5 -158t137 -234.5t46.5 -287q0 -210 -84.5 -376.5t-242 -263t-376.5 -96.5zM820 105q147 0 253 50t174.5 136.5t101.5 195.5t33 228
q0 128 -35.5 239t-106 194.5t-175.5 130.5t-245 47q-144 0 -250.5 -49.5t-176.5 -135.5t-105 -195.5t-35 -230.5t34 -231t103 -195.5t176 -134.5t254 -49zM257 -123l-77 64q104 137 196.5 257.5t199.5 261.5l394 514q110 144 205.5 268.5t195.5 255.5l80 -60
q-102 -133 -196 -256.5t-203 -265.5l-397 -519q-108 -141 -203.5 -266t-194.5 -254z" />
    <glyph glyph-name="Ugrave" unicode="&#xd9;" horiz-adv-x="1462" 
d="M732 -21q-195 0 -317.5 68.5t-180.5 191.5t-58 286v110v148.5v166.5v244.5v231.5h141v-231.5v-244.5v-407q0 -137 40.5 -235t131.5 -150.5t242 -52.5q153 0 243 52.5t130 150.5t40 237v405v244.5v231.5h140v-231.5v-244.5v-166.5v-149v-109.5q0 -163 -58 -286
t-180 -191.5t-314 -68.5zM758 1579q-52 59 -104.5 117.5t-105.5 119t-108 121.5l150 2q70 -89 139.5 -178.5t139.5 -179.5z" />
    <glyph glyph-name="Uacute" unicode="&#xda;" horiz-adv-x="1462" 
d="M732 -21q-195 0 -317.5 68.5t-180.5 191.5t-58 286v110v148.5v166.5v244.5v231.5h141v-231.5v-244.5v-407q0 -137 40.5 -235t131.5 -150.5t242 -52.5q153 0 243 52.5t130 150.5t40 237v405v244.5v231.5h140v-231.5v-244.5v-166.5v-149v-109.5q0 -163 -58 -286
t-180 -191.5t-314 -68.5zM597 1579q71 91 140 180l138 178l151 2q-54 -61 -107 -121t-105.5 -119t-105.5 -118z" />
    <glyph glyph-name="Ucircumflex" unicode="&#xdb;" horiz-adv-x="1462" 
d="M732 -21q-195 0 -317.5 68.5t-180.5 191.5t-58 286v110v148.5v166.5v244.5v231.5h141v-231.5v-244.5v-407q0 -137 40.5 -235t131.5 -150.5t242 -52.5q153 0 243 52.5t130 150.5t40 237v405v244.5v231.5h140v-231.5v-244.5v-166.5v-149v-109.5q0 -163 -58 -286
t-180 -191.5t-314 -68.5zM972 1577q-66 77 -131 151.5t-131 152.5h41q-67 -77 -131 -150.5t-130 -149.5h-111q69 88 138.5 177t139.5 179h147q69 -90 138.5 -179.5t139.5 -178.5z" />
    <glyph glyph-name="Udieresis" unicode="&#xdc;" horiz-adv-x="1462" 
d="M732 -21q-195 0 -317.5 68.5t-180.5 191.5t-58 286v110v148.5v166.5v244.5v231.5h141v-231.5v-244.5v-407q0 -137 40.5 -235t131.5 -150.5t242 -52.5q153 0 243 52.5t130 150.5t40 237v405v244.5v231.5h140v-231.5v-244.5v-166.5v-149v-109.5q0 -163 -58 -286
t-180 -191.5t-314 -68.5zM939 1643q-42 0 -68.5 26t-26.5 78t27 78.5t70 26.5q44 0 69.5 -27.5t25.5 -77.5q0 -52 -26 -78t-71 -26zM523 1643q-42 0 -68.5 26t-26.5 78t27 78.5t70 26.5q44 0 70 -27.5t26 -77.5q0 -52 -26 -78t-72 -26z" />
    <glyph glyph-name="Yacute" unicode="&#xdd;" horiz-adv-x="1288" 
d="M579 572l-316 518q-49 82 -96 159t-108 177h162q59 -100 101.5 -171.5t80.5 -135t84 -141.5l151 -252h16l146 244q48 81 88 147.5t83.5 138.5t102.5 170h159q-53 -86 -104 -170t-100 -165l-317 -519h-133zM575 0v231v242v216h141v-216v-242v-231h-141zM510 1579
q71 91 140 180l138 178l151 2q-54 -61 -107 -121t-105.5 -119t-105.5 -118z" />
    <glyph glyph-name="Thorn" unicode="&#xde;" horiz-adv-x="1242" 
d="M197 0v231v242v477v244.5v231.5h139v-231.5v-244.5v-477v-242v-231h-139zM631 323h-108.5h-111.5h-94v118h291q139 0 228 33t131.5 104t42.5 186q0 96 -32 152t-82.5 83t-109 35t-112.5 8h-357v120h156h210q160 0 264 -43t155 -131t51 -223q0 -128 -47.5 -227.5
t-161.5 -157t-313 -57.5z" />
    <glyph glyph-name="germandbls" unicode="&#xdf;" horiz-adv-x="1209" 
d="M677 -9q-30 0 -61.5 3t-55.5 8v105q18 -4 43 -6.5t53 -2.5q150 0 231 86.5t81 231.5q0 111 -49.5 184t-133.5 108.5t-189 35.5v106q77 0 143.5 32t107.5 94t41 150q0 113 -68.5 180t-186.5 67q-136 0 -209 -85t-73 -260v-589v-225v-214h-128v214v225v100v246v246
q0 223 110.5 341t302.5 118q112 0 197 -42t132.5 -119.5t47.5 -183.5q0 -92 -32 -156t-79.5 -103.5t-93.5 -60.5v-15q44 -14 94.5 -41.5t95.5 -73.5t73.5 -115t28.5 -167q0 -187 -112.5 -304.5t-310.5 -117.5zM52 887v104h208v-104h-208z" />
    <glyph glyph-name="agrave" unicode="&#xe0;" horiz-adv-x="1035" 
d="M414 -20q-91 0 -158 34.5t-104 98t-37 150.5q0 80 29 134t76.5 88.5t103.5 54t111 29.5l324 60q4 114 -28.5 171.5t-89.5 77t-126 19.5q-34 0 -73 -4.5t-82 -14.5t-91.5 -26t-102.5 -39l-8 122q36 15 80.5 29t94.5 25t102.5 17.5t102.5 6.5q107 0 184.5 -34.5t119 -109.5
t41.5 -193v-118v-136v-135v-135.5v-151.5h-118l-5 147h-16q-31 -42 -80.5 -80.5t-113 -62.5t-136.5 -24zM446 92q57 0 115 22.5t108.5 69.5t85.5 119l1 242q-17 -9 -45 -18.5t-84 -22t-157 -31.5q-63 -11 -113.5 -35t-80.5 -65.5t-30 -104.5q0 -96 57.5 -136t142.5 -40z
M554 1160q-53 66 -105.5 131t-105.5 130.5t-107 131.5l150 4q70 -98 139.5 -196t139.5 -198z" />
    <glyph glyph-name="aacute" unicode="&#xe1;" horiz-adv-x="1035" 
d="M414 -20q-91 0 -158 34.5t-104 98t-37 150.5q0 80 29 134t76.5 88.5t103.5 54t111 29.5l324 60q4 114 -28.5 171.5t-89.5 77t-126 19.5q-34 0 -73 -4.5t-82 -14.5t-91.5 -26t-102.5 -39l-8 122q36 15 80.5 29t94.5 25t102.5 17.5t102.5 6.5q107 0 184.5 -34.5t119 -109.5
t41.5 -193v-118v-136v-135v-135.5v-151.5h-118l-5 147h-16q-31 -42 -80.5 -80.5t-113 -62.5t-136.5 -24zM446 92q57 0 115 22.5t108.5 69.5t85.5 119l1 242q-17 -9 -45 -18.5t-84 -22t-157 -31.5q-63 -11 -113.5 -35t-80.5 -65.5t-30 -104.5q0 -96 57.5 -136t142.5 -40z
M393 1160l140 198t138 195l151 4q-54 -67 -107.5 -133t-105.5 -131t-105 -130z" />
    <glyph glyph-name="acircumflex" unicode="&#xe2;" horiz-adv-x="1035" 
d="M414 -20q-91 0 -158 34.5t-104 98t-37 150.5q0 80 29 134t76.5 88.5t103.5 54t111 29.5l324 60q4 114 -28.5 171.5t-89.5 77t-126 19.5q-34 0 -73 -4.5t-82 -14.5t-91.5 -26t-102.5 -39l-8 122q36 15 80.5 29t94.5 25t102.5 17.5t102.5 6.5q107 0 184.5 -34.5t119 -109.5
t41.5 -193v-118v-136v-135v-135.5v-151.5h-118l-5 147h-16q-31 -42 -80.5 -80.5t-113 -62.5t-136.5 -24zM446 92q57 0 115 22.5t108.5 69.5t85.5 119l1 242q-17 -9 -45 -18.5t-84 -22t-157 -31.5q-63 -11 -113.5 -35t-80.5 -65.5t-30 -104.5q0 -96 57.5 -136t142.5 -40z
M768 1158q-66 84 -130 166t-131 166h39q-66 -84 -130 -164.5t-130 -163.5h-111q69 98 139 196t139 195h147q69 -97 138.5 -195.5t139.5 -196.5z" />
    <glyph glyph-name="atilde" unicode="&#xe3;" horiz-adv-x="1035" 
d="M414 -20q-91 0 -158 34.5t-104 98t-37 150.5q0 80 29 134t76.5 88.5t103.5 54t111 29.5l324 60q4 114 -28.5 171.5t-89.5 77t-126 19.5q-34 0 -73 -4.5t-82 -14.5t-91.5 -26t-102.5 -39l-8 122q36 15 80.5 29t94.5 25t102.5 17.5t102.5 6.5q107 0 184.5 -34.5t119 -109.5
t41.5 -193v-118v-136v-135v-135.5v-151.5h-118l-5 147h-16q-31 -42 -80.5 -80.5t-113 -62.5t-136.5 -24zM446 92q57 0 115 22.5t108.5 69.5t85.5 119l1 242q-17 -9 -45 -18.5t-84 -22t-157 -31.5q-63 -11 -113.5 -35t-80.5 -65.5t-30 -104.5q0 -96 57.5 -136t142.5 -40z
M695 1158q-59 0 -101.5 27t-77 62t-67 62t-70.5 27q-60 0 -84 -37.5t-25 -111.5h-87q0 123 49 188t134 65q58 0 100.5 -26.5t76.5 -61.5t66.5 -62t70.5 -27q60 0 83.5 37.5t24.5 111.5h87q0 -123 -48 -188.5t-132 -65.5z" />
    <glyph glyph-name="adieresis" unicode="&#xe4;" horiz-adv-x="1035" 
d="M414 -20q-91 0 -158 34.5t-104 98t-37 150.5q0 80 29 134t76.5 88.5t103.5 54t111 29.5l324 60q4 114 -28.5 171.5t-89.5 77t-126 19.5q-34 0 -73 -4.5t-82 -14.5t-91.5 -26t-102.5 -39l-8 122q36 15 80.5 29t94.5 25t102.5 17.5t102.5 6.5q107 0 184.5 -34.5t119 -109.5
t41.5 -193v-118v-136v-135v-135.5v-151.5h-118l-5 147h-16q-31 -42 -80.5 -80.5t-113 -62.5t-136.5 -24zM446 92q57 0 115 22.5t108.5 69.5t85.5 119l1 242q-17 -9 -45 -18.5t-84 -22t-157 -31.5q-63 -11 -113.5 -35t-80.5 -65.5t-30 -104.5q0 -96 57.5 -136t142.5 -40z
M735 1224q-42 0 -68.5 26.5t-26.5 77.5q0 52 27 78.5t70 26.5q44 0 69.5 -27.5t25.5 -77.5q0 -51 -26 -77.5t-71 -26.5zM319 1224q-42 0 -68.5 26.5t-26.5 77.5q0 52 27 78.5t70 26.5q44 0 70 -27.5t26 -77.5q0 -51 -26 -77.5t-72 -26.5z" />
    <glyph glyph-name="aring" unicode="&#xe5;" horiz-adv-x="1035" 
d="M414 -20q-91 0 -158 34.5t-104 98t-37 150.5q0 80 29 134t76.5 88.5t103.5 54t111 29.5l324 60q4 114 -28.5 171.5t-89.5 77t-126 19.5q-34 0 -73 -4.5t-82 -14.5t-91.5 -26t-102.5 -39l-8 122q36 15 80.5 29t94.5 25t102.5 17.5t102.5 6.5q107 0 184.5 -34.5t119 -109.5
t41.5 -193v-118v-136v-135v-135.5v-151.5h-118l-5 147h-16q-31 -42 -80.5 -80.5t-113 -62.5t-136.5 -24zM446 92q57 0 115 22.5t108.5 69.5t85.5 119l1 242q-17 -9 -45 -18.5t-84 -22t-157 -31.5q-63 -11 -113.5 -35t-80.5 -65.5t-30 -104.5q0 -96 57.5 -136t142.5 -40z
M527 1132q-64 0 -112.5 23.5t-76 68.5t-27.5 109q0 90 60.5 145t157.5 55q64 0 113 -25.5t76 -70.5t27 -104q0 -64 -27.5 -109t-76.5 -68.5t-114 -23.5zM527 1208q58 0 96 31t38 94q0 57 -37.5 90.5t-94.5 33.5q-58 0 -96 -33t-38 -91q0 -63 38 -94t94 -31z" />
    <glyph glyph-name="ae" unicode="&#xe6;" horiz-adv-x="1635" 
d="M1223 -20q-169 0 -276 67.5t-158 185.5t-51 269q0 149 50.5 264.5t146 181t231.5 65.5q121 0 210 -49.5t137 -143.5t48 -229q0 -36 -1.5 -65.5t-6.5 -58.5l-114 66q2 16 2.5 31t0.5 29q0 156 -76.5 233.5t-199.5 77.5q-102 0 -171.5 -50t-105 -138t-35.5 -201v-17
q0 -185 90 -293.5t289 -108.5q49 0 101 8t103 24t98 42l7 -121q-38 -21 -88 -36.5t-109 -24t-122 -8.5zM421 92q57 0 115.5 22.5t109 69.5t85.5 119l1 242q-17 -9 -45.5 -18.5t-84.5 -22t-156 -31.5q-63 -11 -113.5 -35t-80.5 -65.5t-30 -104.5q0 -96 57 -136t142 -40z
M397 -20q-95 0 -164 34.5t-106 98t-37 150.5q0 80 29 134t76.5 88.5t104 54t111.5 29.5l323 60q5 114 -27.5 171.5t-89.5 77t-127 19.5q-34 0 -73 -4.5t-81.5 -14.5t-91 -26t-103.5 -39l-8 122q36 15 80 29t93 25t100 17.5t101 6.5q155 0 243.5 -79.5t88.5 -257.5l-28 -174
l14 -242q-47 -95 -115 -157.5t-148.5 -92.5t-164.5 -30zM780 467v97l691 4l82 -21v-80h-773z" />
    <glyph glyph-name="ccedilla" unicode="&#xe7;" horiz-adv-x="994" 
d="M605 -19q-159 0 -270 68t-169 185t-58 262q0 147 56.5 264t163.5 185t259 68q58 0 114 -10t105.5 -27.5t88.5 -39.5l-14 -122q-55 32 -105 49.5t-94 24t-81 6.5q-164 0 -262.5 -106.5t-98.5 -288.5q0 -114 43 -205t128.5 -144t213.5 -53q44 0 88.5 8t87.5 24.5t83 41.5
l15 -123q-32 -17 -76.5 -32.5t-99 -25t-118.5 -9.5zM527 -426q-20 0 -42 2t-42 5t-35 8v90q14 -5 43 -10t63 -5q74 0 102 24.5t28 60.5q0 20 -14.5 39.5t-53.5 35t-113 21.5l79 188h80v-33l-52 -119q73 -10 113.5 -33t56 -53t15.5 -61q0 -44 -22.5 -80.5t-72.5 -58
t-133 -21.5z" />
    <glyph glyph-name="egrave" unicode="&#xe8;" horiz-adv-x="1055" 
d="M620 -20q-174 0 -287.5 67.5t-169 185.5t-55.5 269q0 149 55.5 264.5t157 181t240.5 65.5q122 0 211.5 -49.5t137.5 -143.5t48 -229q0 -36 -1.5 -65.5t-6.5 -58.5l-114 66q2 16 2.5 31t0.5 29q0 156 -76 233.5t-200 77.5q-102 0 -174.5 -50t-111 -138t-38.5 -201v-17
q0 -124 42.5 -214t129 -139t219.5 -49q49 0 101 8t103 24t98 42l7 -121q-38 -21 -88 -36.5t-109 -24t-122 -8.5zM165 467v97l703 4l82 -27v-74h-785zM581 1160q-53 66 -105.5 131t-105.5 130.5t-107 131.5l150 4q70 -98 139.5 -196t139.5 -198z" />
    <glyph glyph-name="eacute" unicode="&#xe9;" horiz-adv-x="1055" 
d="M620 -20q-174 0 -287.5 67.5t-169 185.5t-55.5 269q0 149 55.5 264.5t157 181t240.5 65.5q122 0 211.5 -49.5t137.5 -143.5t48 -229q0 -36 -1.5 -65.5t-6.5 -58.5l-114 66q2 16 2.5 31t0.5 29q0 156 -76 233.5t-200 77.5q-102 0 -174.5 -50t-111 -138t-38.5 -201v-17
q0 -124 42.5 -214t129 -139t219.5 -49q49 0 101 8t103 24t98 42l7 -121q-38 -21 -88 -36.5t-109 -24t-122 -8.5zM165 467v97l703 4l82 -27v-74h-785zM420 1160l140 198t138 195l151 4q-54 -67 -107.5 -133t-105.5 -131t-105 -130z" />
    <glyph glyph-name="ecircumflex" unicode="&#xea;" horiz-adv-x="1055" 
d="M620 -20q-174 0 -287.5 67.5t-169 185.5t-55.5 269q0 149 55.5 264.5t157 181t240.5 65.5q122 0 211.5 -49.5t137.5 -143.5t48 -229q0 -36 -1.5 -65.5t-6.5 -58.5l-114 66q2 16 2.5 31t0.5 29q0 156 -76 233.5t-200 77.5q-102 0 -174.5 -50t-111 -138t-38.5 -201v-17
q0 -124 42.5 -214t129 -139t219.5 -49q49 0 101 8t103 24t98 42l7 -121q-38 -21 -88 -36.5t-109 -24t-122 -8.5zM165 467v97l703 4l82 -27v-74h-785zM795 1158q-66 84 -130 166t-131 166h39q-66 -84 -130 -164.5t-130 -163.5h-111q69 98 139 196t139 195h147
q69 -97 138.5 -195.5t139.5 -196.5z" />
    <glyph glyph-name="edieresis" unicode="&#xeb;" horiz-adv-x="1055" 
d="M620 -20q-174 0 -287.5 67.5t-169 185.5t-55.5 269q0 149 55.5 264.5t157 181t240.5 65.5q122 0 211.5 -49.5t137.5 -143.5t48 -229q0 -36 -1.5 -65.5t-6.5 -58.5l-114 66q2 16 2.5 31t0.5 29q0 156 -76 233.5t-200 77.5q-102 0 -174.5 -50t-111 -138t-38.5 -201v-17
q0 -124 42.5 -214t129 -139t219.5 -49q49 0 101 8t103 24t98 42l7 -121q-38 -21 -88 -36.5t-109 -24t-122 -8.5zM165 467v97l703 4l82 -27v-74h-785zM762 1224q-42 0 -68.5 26.5t-26.5 77.5q0 52 27 78.5t70 26.5q44 0 69.5 -27.5t25.5 -77.5q0 -51 -26 -77.5t-71 -26.5z
M346 1224q-42 0 -68.5 26.5t-26.5 77.5q0 52 27 78.5t70 26.5q44 0 70 -27.5t26 -77.5q0 -51 -26 -77.5t-72 -26.5z" />
    <glyph glyph-name="igrave" unicode="&#xec;" horiz-adv-x="502" 
d="M187 0v214v225v100v161v146v145l128 4v-145.5v-147v-163.5v-100v-225v-214h-128zM276 1160q-53 66 -105.5 131t-105.5 130.5t-107 131.5l150 4q70 -98 139.5 -196t139.5 -198z" />
    <glyph glyph-name="iacute" unicode="&#xed;" horiz-adv-x="502" 
d="M187 0v214v225v100v161v146v145l128 4v-145.5v-147v-163.5v-100v-225v-214h-128zM115 1160l140 198t138 195l151 4q-54 -67 -107.5 -133t-105.5 -131t-105 -130z" />
    <glyph glyph-name="icircumflex" unicode="&#xee;" horiz-adv-x="502" 
d="M187 0v214v225v100v161v146v145l128 4v-145.5v-147v-163.5v-100v-225v-214h-128zM457 1158q-43 66 -87 131.5t-87.5 131t-88.5 132.5h120q61 -97 122 -194.5t122 -197.5zM-61 1162q62 99 122 195.5t122 195.5h120q-45 -67 -88.5 -131.5t-86.5 -129l-87 -130.5h-102z" />
    <glyph glyph-name="idieresis" unicode="&#xef;" horiz-adv-x="502" 
d="M187 0v214v225v100v161v146v145l128 4v-145.5v-147v-163.5v-100v-225v-214h-128zM420 1224q-42 0 -67.5 26.5t-25.5 77.5q0 52 26 78.5t69 26.5t67.5 -27.5t24.5 -77.5q0 -34 -11.5 -57t-32.5 -35t-50 -12zM79 1224q-41 0 -67 26.5t-26 77.5q0 52 26.5 78.5t68.5 26.5
q43 0 68 -27.5t25 -77.5q0 -34 -12 -57t-33 -35t-50 -12z" />
    <glyph glyph-name="eth" unicode="&#xf0;" horiz-adv-x="1180" 
d="M594 -20q-156 0 -264.5 71t-165 186.5t-56.5 248.5q0 136 55.5 245t155 173t231.5 64q57 0 116.5 -14t118.5 -43.5t114 -78.5l43 9q15 -42 18.5 -89t-9.5 -89q-67 83 -134.5 123.5t-127 53t-102.5 12.5q-116 0 -193.5 -52t-115.5 -136.5t-38 -180.5q0 -98 39.5 -186.5
t118 -145t196.5 -56.5q174 0 259.5 136.5t85.5 380.5q0 190 -65 347.5t-190 287.5q-51 56 -114 106.5t-136 96.5l108 50q72 -43 136.5 -94.5t119.5 -111.5q127 -135 200.5 -302.5t73.5 -387.5q0 -192 -53.5 -332t-159.5 -216t-265 -76zM352 1112l-28 92q87 26 166.5 50
t146.5 45l92 28q66 20 145 43.5t167 50.5l28 -92q-87 -26 -166.5 -50t-146.5 -44l-92 -28q-66 -20 -146 -44.5t-166 -50.5z" />
    <glyph glyph-name="ntilde" unicode="&#xf1;" horiz-adv-x="1143" 
d="M185 0v214v225v100v224v228l115 8l4 -186h16q31 44 81.5 90t120 78t159.5 32q161 0 232.5 -91.5t71.5 -263.5v-113v-106v-222.5v-216.5h-129v216v218v196q0 128 -46 193.5t-167 65.5q-74 0 -134 -29.5t-108 -79t-87 -109.5v-237v-220.5v-213.5h-129zM752 1158
q-59 0 -101.5 27t-77 62t-67 62t-70.5 27q-60 0 -84 -37.5t-25 -111.5h-87q0 123 49 188t134 65q58 0 100.5 -26.5t76.5 -61.5t66.5 -62t70.5 -27q60 0 83.5 37.5t24.5 111.5h87q0 -123 -48 -188.5t-132 -65.5z" />
    <glyph glyph-name="ograve" unicode="&#xf2;" horiz-adv-x="1194" 
d="M601 -21q-119 0 -210.5 42.5t-154.5 115.5t-95.5 167.5t-32.5 197.5q0 148 60.5 263.5t171 181.5t259.5 66q115 0 205 -38.5t153.5 -108t96 -162.5t32.5 -202q0 -147 -59 -265.5t-168.5 -188t-257.5 -69.5zM600 95q119 0 197.5 58.5t117.5 151t39 197.5q0 118 -43 207
t-122.5 138.5t-188.5 49.5q-117 0 -197.5 -52.5t-121.5 -142.5t-41 -200q0 -105 40 -197.5t120 -151t200 -58.5zM621 1160q-53 66 -105.5 131t-105.5 130.5t-107 131.5l150 4q70 -98 139.5 -196t139.5 -198z" />
    <glyph glyph-name="oacute" unicode="&#xf3;" horiz-adv-x="1194" 
d="M601 -21q-119 0 -210.5 42.5t-154.5 115.5t-95.5 167.5t-32.5 197.5q0 148 60.5 263.5t171 181.5t259.5 66q115 0 205 -38.5t153.5 -108t96 -162.5t32.5 -202q0 -147 -59 -265.5t-168.5 -188t-257.5 -69.5zM600 95q119 0 197.5 58.5t117.5 151t39 197.5q0 118 -43 207
t-122.5 138.5t-188.5 49.5q-117 0 -197.5 -52.5t-121.5 -142.5t-41 -200q0 -105 40 -197.5t120 -151t200 -58.5zM460 1160l140 198t138 195l151 4q-54 -67 -107.5 -133t-105.5 -131t-105 -130z" />
    <glyph glyph-name="ocircumflex" unicode="&#xf4;" horiz-adv-x="1194" 
d="M601 -21q-119 0 -210.5 42.5t-154.5 115.5t-95.5 167.5t-32.5 197.5q0 148 60.5 263.5t171 181.5t259.5 66q115 0 205 -38.5t153.5 -108t96 -162.5t32.5 -202q0 -147 -59 -265.5t-168.5 -188t-257.5 -69.5zM600 95q119 0 197.5 58.5t117.5 151t39 197.5q0 118 -43 207
t-122.5 138.5t-188.5 49.5q-117 0 -197.5 -52.5t-121.5 -142.5t-41 -200q0 -105 40 -197.5t120 -151t200 -58.5zM835 1158q-66 84 -130 166t-131 166h39q-66 -84 -130 -164.5t-130 -163.5h-111q69 98 139 196t139 195h147q69 -97 138.5 -195.5t139.5 -196.5z" />
    <glyph glyph-name="otilde" unicode="&#xf5;" horiz-adv-x="1194" 
d="M601 -21q-119 0 -210.5 42.5t-154.5 115.5t-95.5 167.5t-32.5 197.5q0 148 60.5 263.5t171 181.5t259.5 66q115 0 205 -38.5t153.5 -108t96 -162.5t32.5 -202q0 -147 -59 -265.5t-168.5 -188t-257.5 -69.5zM600 95q119 0 197.5 58.5t117.5 151t39 197.5q0 118 -43 207
t-122.5 138.5t-188.5 49.5q-117 0 -197.5 -52.5t-121.5 -142.5t-41 -200q0 -105 40 -197.5t120 -151t200 -58.5zM762 1158q-59 0 -101.5 27t-77 62t-67 62t-70.5 27q-60 0 -84 -37.5t-25 -111.5h-87q0 123 49 188t134 65q58 0 100.5 -26.5t76.5 -61.5t66.5 -62t70.5 -27
q60 0 83.5 37.5t24.5 111.5h87q0 -123 -48 -188.5t-132 -65.5z" />
    <glyph glyph-name="odieresis" unicode="&#xf6;" horiz-adv-x="1194" 
d="M601 -21q-119 0 -210.5 42.5t-154.5 115.5t-95.5 167.5t-32.5 197.5q0 148 60.5 263.5t171 181.5t259.5 66q115 0 205 -38.5t153.5 -108t96 -162.5t32.5 -202q0 -147 -59 -265.5t-168.5 -188t-257.5 -69.5zM600 95q119 0 197.5 58.5t117.5 151t39 197.5q0 118 -43 207
t-122.5 138.5t-188.5 49.5q-117 0 -197.5 -52.5t-121.5 -142.5t-41 -200q0 -105 40 -197.5t120 -151t200 -58.5zM802 1224q-42 0 -68.5 26.5t-26.5 77.5q0 52 27 78.5t70 26.5q44 0 69.5 -27.5t25.5 -77.5q0 -51 -26 -77.5t-71 -26.5zM386 1224q-42 0 -68.5 26.5t-26.5 77.5
q0 52 27 78.5t70 26.5q44 0 70 -27.5t26 -77.5q0 -51 -26 -77.5t-72 -26.5z" />
    <glyph glyph-name="divide" unicode="&#xf7;" horiz-adv-x="1131" 
d="M129 536v118h177.5h159.5h198h160.5h176.5v-118h-176.5h-160.5h-198h-159.5h-177.5zM563 129q-50 0 -80 30t-30 80q0 51 30 80t80 29q52 0 81.5 -29t29.5 -80q0 -50 -29.5 -80t-81.5 -30zM563 839q-50 0 -80 30.5t-30 79.5q0 51 30 80t81 29t80.5 -29t29.5 -80
q0 -49 -29.5 -79.5t-81.5 -30.5z" />
    <glyph glyph-name="oslash" unicode="&#xf8;" horiz-adv-x="1194" 
d="M601 -20q-119 0 -210.5 42t-154.5 115t-95.5 167.5t-32.5 197.5q0 148 60.5 263.5t171 181.5t259.5 66q115 0 205 -38.5t153.5 -108.5t96 -162.5t32.5 -201.5q0 -147 -59.5 -265t-168.5 -187.5t-257 -69.5zM600 95q119 0 197.5 58.5t117.5 151.5t39 197q0 118 -43 207
t-122.5 138.5t-188.5 49.5q-117 0 -197.5 -52.5t-121.5 -142.5t-41 -200q0 -104 40 -197t120 -151.5t200 -58.5zM192 -123l-71 55q78 102 146 191t146 190l288 377q83 109 152 199t141 185l74 -53q-74 -97 -145 -190t-152 -198l-289 -377q-79 -104 -147.5 -193.5
t-142.5 -185.5z" />
    <glyph glyph-name="ugrave" unicode="&#xf9;" horiz-adv-x="1111" 
d="M463 -21q-161 0 -232.5 92t-71.5 264v113.5v94.5v160v144v144l128 5v-217v-226v-192q0 -128 46.5 -193.5t167.5 -65.5q69 0 127.5 29.5t106.5 79t86 109.5v233v223v215h129v-216v-232v-104v-225v-214h-115l-3 180h-16q-31 -44 -81.5 -90.5t-118.5 -78.5t-153 -32z
M580 1160q-53 66 -105.5 131t-105.5 130.5t-107 131.5l150 4q70 -98 139.5 -196t139.5 -198z" />
    <glyph glyph-name="uacute" unicode="&#xfa;" horiz-adv-x="1111" 
d="M463 -21q-161 0 -232.5 92t-71.5 264v113.5v94.5v160v144v144l128 5v-217v-226v-192q0 -128 46.5 -193.5t167.5 -65.5q69 0 127.5 29.5t106.5 79t86 109.5v233v223v215h129v-216v-232v-104v-225v-214h-115l-3 180h-16q-31 -44 -81.5 -90.5t-118.5 -78.5t-153 -32z
M419 1160l140 198t138 195l151 4q-54 -67 -107.5 -133t-105.5 -131t-105 -130z" />
    <glyph glyph-name="ucircumflex" unicode="&#xfb;" horiz-adv-x="1111" 
d="M463 -21q-161 0 -232.5 92t-71.5 264v113.5v94.5v160v144v144l128 5v-217v-226v-192q0 -128 46.5 -193.5t167.5 -65.5q69 0 127.5 29.5t106.5 79t86 109.5v233v223v215h129v-216v-232v-104v-225v-214h-115l-3 180h-16q-31 -44 -81.5 -90.5t-118.5 -78.5t-153 -32z
M794 1158q-66 84 -130 166t-131 166h39q-66 -84 -130 -164.5t-130 -163.5h-111q69 98 139 196t139 195h147q69 -97 138.5 -195.5t139.5 -196.5z" />
    <glyph glyph-name="udieresis" unicode="&#xfc;" horiz-adv-x="1111" 
d="M463 -21q-161 0 -232.5 92t-71.5 264v113.5v94.5v160v144v144l128 5v-217v-226v-192q0 -128 46.5 -193.5t167.5 -65.5q69 0 127.5 29.5t106.5 79t86 109.5v233v223v215h129v-216v-232v-104v-225v-214h-115l-3 180h-16q-31 -44 -81.5 -90.5t-118.5 -78.5t-153 -32z
M761 1224q-42 0 -68.5 26.5t-26.5 77.5q0 52 27 78.5t70 26.5q44 0 69.5 -27.5t25.5 -77.5q0 -51 -26 -77.5t-71 -26.5zM345 1224q-42 0 -68.5 26.5t-26.5 77.5q0 52 27 78.5t70 26.5q44 0 70 -27.5t26 -77.5q0 -51 -26 -77.5t-72 -26.5z" />
    <glyph glyph-name="yacute" unicode="&#xfd;" horiz-adv-x="1018" 
d="M279 -389q39 97 79 195.5t80 194.5v-38q-38 103 -77 207.5t-76 203.5l-67 180q-39 107 -81 219t-82 218l139 5q46 -134 91 -262t91 -262l116 -332h15l126 334q50 130 98 258.5t97 258.5h135q-32 -80 -61.5 -154.5t-65 -164.5t-85.5 -214l-111 -279
q-75 -190 -127.5 -322.5t-96.5 -240.5zM374 1160l140 198t138 195l151 4q-54 -67 -107.5 -133t-105.5 -131t-105 -130z" />
    <glyph glyph-name="thorn" unicode="&#xfe;" horiz-adv-x="1183" 
d="M185 -389v216.5v227.5v933v244.5v230.5l129 19v-241.5v-252.5v-114h16q28 35 74 67t106.5 52t132.5 20q135 0 231.5 -67t148 -183.5t51.5 -263.5q0 -139 -48 -257.5t-143.5 -190.5t-238.5 -72q-68 0 -125.5 17.5t-105 51.5t-86.5 81h-13v-79v-220.5v-213.5zM611 98
q116 0 189 57t107.5 148t34.5 195q0 109 -36.5 198.5t-110.5 143t-187 53.5q-58 0 -112 -17t-101 -50.5t-81 -83.5v-468q33 -55 76.5 -94t98.5 -60.5t122 -21.5z" />
    <glyph glyph-name="ydieresis" unicode="&#xff;" horiz-adv-x="1018" 
d="M279 -389q39 97 79 195.5t80 194.5v-38q-38 103 -77 207.5t-76 203.5l-67 180q-39 107 -81 219t-82 218l139 5q46 -134 91 -262t91 -262l116 -332h15l126 334q50 130 98 258.5t97 258.5h135q-32 -80 -61.5 -154.5t-65 -164.5t-85.5 -214l-111 -279
q-75 -190 -127.5 -322.5t-96.5 -240.5zM716 1224q-42 0 -68.5 26.5t-26.5 77.5q0 52 27 78.5t70 26.5q44 0 69.5 -27.5t25.5 -77.5q0 -51 -26 -77.5t-71 -26.5zM300 1224q-42 0 -68.5 26.5t-26.5 77.5q0 52 27 78.5t70 26.5q44 0 70 -27.5t26 -77.5q0 -51 -26 -77.5
t-72 -26.5z" />
    <glyph glyph-name="Amacron" unicode="&#x100;" horiz-adv-x="1365" 
d="M63 0q43 116 90 242.5t90 241.5l181 489q49 131 88.5 238t79.5 215h188q40 -110 79 -216t87 -238l180 -491q43 -118 89 -242.5t87 -238.5h-146q-46 128 -94.5 263.5t-91.5 256.5l-277 774h-16l-279 -767q-45 -125 -94.5 -261.5t-96.5 -265.5h-144zM306 375l10 114h746
l8 -114h-764zM377 1688v103h146h160h160.5h145.5v-103h-145.5h-160.5h-160h-146z" />
    <glyph glyph-name="amacron" unicode="&#x101;" horiz-adv-x="1035" 
d="M414 -20q-91 0 -158 34.5t-104 98t-37 150.5q0 80 29 134t76.5 88.5t103.5 54t111 29.5l324 60q4 114 -28.5 171.5t-89.5 77t-126 19.5q-34 0 -73 -4.5t-82 -14.5t-91.5 -26t-102.5 -39l-8 122q36 15 80.5 29t94.5 25t102.5 17.5t102.5 6.5q107 0 184.5 -34.5t119 -109.5
t41.5 -193v-118v-136v-135v-135.5v-151.5h-118l-5 147h-16q-31 -42 -80.5 -80.5t-113 -62.5t-136.5 -24zM446 92q57 0 115 22.5t108.5 69.5t85.5 119l1 242q-17 -9 -45 -18.5t-84 -22t-157 -31.5q-63 -11 -113.5 -35t-80.5 -65.5t-30 -104.5q0 -96 57.5 -136t142.5 -40z
M223 1269v103h146h160h160.5h145.5v-103h-145.5h-160.5h-160h-146z" />
    <glyph glyph-name="Abreve" unicode="&#x102;" horiz-adv-x="1365" 
d="M63 0q43 116 90 242.5t90 241.5l181 489q49 131 88.5 238t79.5 215h188q40 -110 79 -216t87 -238l180 -491q43 -118 89 -242.5t87 -238.5h-146q-46 128 -94.5 263.5t-91.5 256.5l-277 774h-16l-279 -767q-45 -125 -94.5 -261.5t-96.5 -265.5h-144zM306 375l10 114h746
l8 -114h-764zM679 1572q-149 0 -228.5 93t-79.5 271l100 4q0 -140 54.5 -203t153.5 -63q102 0 156.5 62t54.5 200h100q0 -119 -35.5 -200t-104.5 -122.5t-171 -41.5z" />
    <glyph glyph-name="abreve" unicode="&#x103;" horiz-adv-x="1035" 
d="M414 -20q-91 0 -158 34.5t-104 98t-37 150.5q0 80 29 134t76.5 88.5t103.5 54t111 29.5l324 60q4 114 -28.5 171.5t-89.5 77t-126 19.5q-34 0 -73 -4.5t-82 -14.5t-91.5 -26t-102.5 -39l-8 122q36 15 80.5 29t94.5 25t102.5 17.5t102.5 6.5q107 0 184.5 -34.5t119 -109.5
t41.5 -193v-118v-136v-135v-135.5v-151.5h-118l-5 147h-16q-31 -42 -80.5 -80.5t-113 -62.5t-136.5 -24zM446 92q57 0 115 22.5t108.5 69.5t85.5 119l1 242q-17 -9 -45 -18.5t-84 -22t-157 -31.5q-63 -11 -113.5 -35t-80.5 -65.5t-30 -104.5q0 -96 57.5 -136t142.5 -40z
M525 1153q-149 0 -228.5 93.5t-79.5 270.5l100 4q0 -140 54.5 -203t153.5 -63q102 0 156.5 62t54.5 200h100q0 -118 -35.5 -199.5t-104.5 -123t-171 -41.5z" />
    <glyph glyph-name="Aogonek" unicode="&#x104;" horiz-adv-x="1365" 
d="M63 0q43 116 90 242.5t90 241.5l181 489q49 131 88.5 238t79.5 215h188q40 -110 79 -216t87 -238l180 -491q43 -118 89 -242.5t87 -238.5h-146q-46 128 -94.5 263.5t-91.5 256.5l-277 774h-16l-279 -767q-45 -125 -94.5 -261.5t-96.5 -265.5h-144zM306 375l10 114h746
l8 -114h-764zM1197 -410q-65 0 -110.5 19.5t-69.5 55t-24 82.5q0 48 23 92.5t69 87.5t117 84v30l68 5l32 -46q-83 -42 -142.5 -103.5t-59.5 -122.5q0 -46 30.5 -68t80.5 -22q35 0 60 5t39 10v-94q-22 -6 -52.5 -10.5t-60.5 -4.5z" />
    <glyph glyph-name="aogonek" unicode="&#x105;" horiz-adv-x="1041" 
d="M414 -20q-91 0 -158 34.5t-104 98t-37 150.5q0 80 29 134t76.5 88.5t103.5 54t111 29.5l324 60q4 114 -28.5 171.5t-89.5 77t-126 19.5q-34 0 -73 -4.5t-82 -14.5t-91.5 -26t-102.5 -39l-8 122q36 15 80.5 29t94.5 25t102.5 17.5t102.5 6.5q107 0 184.5 -34.5t119 -109.5
t41.5 -193v-118v-136v-135v-135.5v-151.5h-118l-5 147h-16q-31 -42 -80.5 -80.5t-113 -62.5t-136.5 -24zM446 92q57 0 115 22.5t108.5 69.5t85.5 119l1 242q-17 -9 -45 -18.5t-84 -22t-157 -31.5q-63 -11 -113.5 -35t-80.5 -65.5t-30 -104.5q0 -96 57.5 -136t142.5 -40z
M778 -410q-65 0 -110.5 19.5t-69.5 55t-24 82.5q0 48 23 92.5t69 87.5t117 84v33l55 5l45 -49q-83 -42 -142.5 -103.5t-59.5 -122.5q0 -46 30.5 -68t80.5 -22q35 0 60 5t39 10v-94q-22 -6 -52.5 -10.5t-60.5 -4.5z" />
    <glyph glyph-name="Cacute" unicode="&#x106;" horiz-adv-x="1371" 
d="M832 -21q-168 0 -302.5 56t-228.5 155.5t-144 234t-50 291.5q0 216 89 382t246.5 259.5t362.5 93.5q71 0 138 -10t126.5 -28t109.5 -38t86 -40l-14 -138q-77 45 -151 73t-145.5 41t-140.5 13q-164 0 -290.5 -74.5t-198.5 -211t-72 -323.5q0 -126 37 -236.5t111.5 -194.5
t185 -131.5t255.5 -47.5q52 0 103.5 6.5t102.5 20t100 36.5t94 55l14 -137q-42 -27 -92.5 -47.5t-105 -33.5t-112 -19.5t-114.5 -6.5zM647 1579q71 91 140 180l138 178l151 2q-54 -61 -107 -121t-105.5 -119t-105.5 -118z" />
    <glyph glyph-name="cacute" unicode="&#x107;" horiz-adv-x="994" 
d="M605 -19q-159 0 -270 68t-169 185t-58 262q0 147 56.5 264t163.5 185t259 68q58 0 114 -10t105.5 -27.5t88.5 -39.5l-14 -122q-55 32 -105 49.5t-94 24t-81 6.5q-164 0 -262.5 -106.5t-98.5 -288.5q0 -114 43 -205t128.5 -144t213.5 -53q44 0 88.5 8t87.5 24.5t83 41.5
l15 -123q-32 -17 -76.5 -32.5t-99 -25t-118.5 -9.5zM423 1160l140 198t138 195l151 4q-54 -67 -107.5 -133t-105.5 -131t-105 -130z" />
    <glyph glyph-name="Ccircumflex" unicode="&#x108;" horiz-adv-x="1371" 
d="M832 -21q-168 0 -302.5 56t-228.5 155.5t-144 234t-50 291.5q0 216 89 382t246.5 259.5t362.5 93.5q71 0 138 -10t126.5 -28t109.5 -38t86 -40l-14 -138q-77 45 -151 73t-145.5 41t-140.5 13q-164 0 -290.5 -74.5t-198.5 -211t-72 -323.5q0 -126 37 -236.5t111.5 -194.5
t185 -131.5t255.5 -47.5q52 0 103.5 6.5t102.5 20t100 36.5t94 55l14 -137q-42 -27 -92.5 -47.5t-105 -33.5t-112 -19.5t-114.5 -6.5zM1022 1577q-66 77 -131 151.5t-131 152.5h41q-67 -77 -131 -150.5t-130 -149.5h-111q69 88 138.5 177t139.5 179h147q69 -90 138.5 -179.5
t139.5 -178.5z" />
    <glyph glyph-name="ccircumflex" unicode="&#x109;" horiz-adv-x="994" 
d="M605 -19q-159 0 -270 68t-169 185t-58 262q0 147 56.5 264t163.5 185t259 68q58 0 114 -10t105.5 -27.5t88.5 -39.5l-14 -122q-55 32 -105 49.5t-94 24t-81 6.5q-164 0 -262.5 -106.5t-98.5 -288.5q0 -114 43 -205t128.5 -144t213.5 -53q44 0 88.5 8t87.5 24.5t83 41.5
l15 -123q-32 -17 -76.5 -32.5t-99 -25t-118.5 -9.5zM798 1158q-66 84 -130 166t-131 166h39q-66 -84 -130 -164.5t-130 -163.5h-111q69 98 139 196t139 195h147q69 -97 138.5 -195.5t139.5 -196.5z" />
    <glyph glyph-name="Cdotaccent" unicode="&#x10a;" horiz-adv-x="1371" 
d="M832 -21q-168 0 -302.5 56t-228.5 155.5t-144 234t-50 291.5q0 216 89 382t246.5 259.5t362.5 93.5q71 0 138 -10t126.5 -28t109.5 -38t86 -40l-14 -138q-77 45 -151 73t-145.5 41t-140.5 13q-164 0 -290.5 -74.5t-198.5 -211t-72 -323.5q0 -126 37 -236.5t111.5 -194.5
t185 -131.5t255.5 -47.5q52 0 103.5 6.5t102.5 20t100 36.5t94 55l14 -137q-42 -27 -92.5 -47.5t-105 -33.5t-112 -19.5t-114.5 -6.5zM779 1643q-46 0 -75.5 27t-29.5 82t29.5 82.5t77.5 27.5t77 -28.5t29 -81.5q0 -55 -29 -82t-79 -27z" />
    <glyph glyph-name="cdotaccent" unicode="&#x10b;" horiz-adv-x="994" 
d="M605 -19q-159 0 -270 68t-169 185t-58 262q0 147 56.5 264t163.5 185t259 68q58 0 114 -10t105.5 -27.5t88.5 -39.5l-14 -122q-55 32 -105 49.5t-94 24t-81 6.5q-164 0 -262.5 -106.5t-98.5 -288.5q0 -114 43 -205t128.5 -144t213.5 -53q44 0 88.5 8t87.5 24.5t83 41.5
l15 -123q-32 -17 -76.5 -32.5t-99 -25t-118.5 -9.5zM556 1240q-46 0 -75.5 27t-29.5 83q0 55 29.5 82.5t77.5 27.5t77 -28.5t29 -81.5q0 -56 -29 -83t-79 -27z" />
    <glyph glyph-name="Ccaron" unicode="&#x10c;" horiz-adv-x="1371" 
d="M832 -21q-168 0 -302.5 56t-228.5 155.5t-144 234t-50 291.5q0 216 89 382t246.5 259.5t362.5 93.5q71 0 138 -10t126.5 -28t109.5 -38t86 -40l-14 -138q-77 45 -151 73t-145.5 41t-140.5 13q-164 0 -290.5 -74.5t-198.5 -211t-72 -323.5q0 -126 37 -236.5t111.5 -194.5
t185 -131.5t255.5 -47.5q52 0 103.5 6.5t102.5 20t100 36.5t94 55l14 -137q-42 -27 -92.5 -47.5t-105 -33.5t-112 -19.5t-114.5 -6.5zM710 1579q-69 89 -138.5 178.5t-139.5 178.5l110 2q67 -77 131.5 -151.5t130.5 -152.5h-41q67 77 131.5 151t129.5 149h111
q-69 -88 -138 -177t-140 -178h-147z" />
    <glyph glyph-name="ccaron" unicode="&#x10d;" horiz-adv-x="994" 
d="M605 -19q-159 0 -270 68t-169 185t-58 262q0 147 56.5 264t163.5 185t259 68q58 0 114 -10t105.5 -27.5t88.5 -39.5l-14 -122q-55 32 -105 49.5t-94 24t-81 6.5q-164 0 -262.5 -106.5t-98.5 -288.5q0 -114 43 -205t128.5 -144t213.5 -53q44 0 88.5 8t87.5 24.5t83 41.5
l15 -123q-32 -17 -76.5 -32.5t-99 -25t-118.5 -9.5zM486 1148q-69 99 -138.5 197t-139.5 196l110 2q66 -83 130.5 -165.5t130.5 -166.5h-39q67 84 131 165t129 163h111q-69 -96 -139 -194t-139 -197h-147z" />
    <glyph glyph-name="Dcaron" unicode="&#x10e;" horiz-adv-x="1475" 
d="M197 0v231v242v477v244.5v231.5h170.5h155.5h156q166 0 294 -47.5t216 -139.5t133.5 -222.5t45.5 -297.5q0 -151 -40.5 -281.5t-127 -228.5t-227 -153.5t-342.5 -55.5h-153h-137.5h-143.5zM338 120h295q218 0 347 79t185.5 215t56.5 308q0 133 -33.5 240.5t-102.5 184.5
t-176 118t-254 41h-318v-182v-197v-431v-195v-181zM629 1579q-69 89 -138.5 178.5t-139.5 178.5l110 2q67 -77 131.5 -151.5t130.5 -152.5h-41q67 77 131.5 151t129.5 149h111q-69 -88 -138 -177t-140 -178h-147z" />
    <glyph glyph-name="dcaron" unicode="&#x10f;" horiz-adv-x="1166" 
d="M539 -21q-143 0 -239 72t-143.5 190.5t-47.5 257.5q0 147 51 263.5t148.5 183.5t234.5 67q70 0 130 -19t105.5 -50t74.5 -66h16v110v245v230l129 19v-242.5v-251.5v-549v-225v-214h-114l-6 137h-14q-41 -51 -90 -86t-107.5 -53.5t-127.5 -18.5zM572 98q67 0 122 21.5
t98 60.5t77 94v468q-34 50 -80.5 83.5t-101 50.5t-112.5 17q-114 0 -187.5 -53.5t-110 -143t-36.5 -198.5q0 -104 34.5 -195t107.5 -148t189 -57zM1167 1087q23 51 37.5 107t21 108t6.5 89v75.5v74.5l59 5q30 -2 45 -23.5t15 -61.5q0 -47 -9 -98.5t-24.5 -102t-35 -94.5
t-40.5 -76z" />
    <glyph glyph-name="Dcroat" unicode="&#x110;" horiz-adv-x="1475" 
d="M-22 642v107h177.5h159.5h93h160h177v-107h-177h-160h-93h-159.5h-177.5zM197 0v231v242v477v244.5v231.5h170.5h155.5h156q166 0 294 -47.5t216 -139.5t133.5 -222.5t45.5 -297.5q0 -151 -40.5 -281.5t-127 -228.5t-227 -153.5t-342.5 -55.5h-153h-137.5h-143.5z
M338 120h295q218 0 347 79t185.5 215t56.5 308q0 133 -33.5 240.5t-102.5 184.5t-176 118t-254 41h-318v-182v-197v-431v-195v-181z" />
    <glyph glyph-name="dcroat" unicode="&#x111;" horiz-adv-x="1152" 
d="M498 1202v96h163h145h86h146h162v-96h-162h-146h-86h-145h-163zM539 -21q-143 0 -239 72t-143.5 190.5t-47.5 257.5q0 147 51 263.5t148.5 183.5t234.5 67q70 0 130 -19t105.5 -50t74.5 -66h16v110v245v230l129 19v-242.5v-251.5v-549v-225v-214h-114l-6 137h-14
q-41 -51 -90 -86t-107.5 -53.5t-127.5 -18.5zM572 98q67 0 122 21.5t98 60.5t77 94v468q-34 50 -80.5 83.5t-101 50.5t-112.5 17q-114 0 -187.5 -53.5t-110 -143t-36.5 -198.5q0 -104 34.5 -195t107.5 -148t189 -57z" />
    <glyph glyph-name="Emacron" unicode="&#x112;" horiz-adv-x="1185" 
d="M197 0v231v242v477v244.5v231.5h869v-123h-219h-275h-313l76 104v-232v-244v-438v-241v-231l-70 102h319h254h229v-123h-870zM305 664v119h282h241.5h195.5v-119h-200.5h-238.5h-280zM328 1688v103h146h160h160.5h145.5v-103h-145.5h-160.5h-160h-146z" />
    <glyph glyph-name="emacron" unicode="&#x113;" horiz-adv-x="1055" 
d="M620 -20q-174 0 -287.5 67.5t-169 185.5t-55.5 269q0 149 55.5 264.5t157 181t240.5 65.5q122 0 211.5 -49.5t137.5 -143.5t48 -229q0 -36 -1.5 -65.5t-6.5 -58.5l-114 66q2 16 2.5 31t0.5 29q0 156 -76 233.5t-200 77.5q-102 0 -174.5 -50t-111 -138t-38.5 -201v-17
q0 -124 42.5 -214t129 -139t219.5 -49q49 0 101 8t103 24t98 42l7 -121q-38 -21 -88 -36.5t-109 -24t-122 -8.5zM165 467v97l703 4l82 -27v-74h-785zM250 1269v103h146h160h160.5h145.5v-103h-145.5h-160.5h-160h-146z" />
    <glyph glyph-name="Ebreve" unicode="&#x114;" horiz-adv-x="1185" 
d="M197 0v231v242v477v244.5v231.5h869v-123h-219h-275h-313l76 104v-232v-244v-438v-241v-231l-70 102h319h254h229v-123h-870zM305 664v119h282h241.5h195.5v-119h-200.5h-238.5h-280zM630 1572q-149 0 -228.5 93t-79.5 271l100 4q0 -140 54.5 -203t153.5 -63
q102 0 156.5 62t54.5 200h100q0 -119 -35.5 -200t-104.5 -122.5t-171 -41.5z" />
    <glyph glyph-name="ebreve" unicode="&#x115;" horiz-adv-x="1055" 
d="M620 -20q-174 0 -287.5 67.5t-169 185.5t-55.5 269q0 149 55.5 264.5t157 181t240.5 65.5q122 0 211.5 -49.5t137.5 -143.5t48 -229q0 -36 -1.5 -65.5t-6.5 -58.5l-114 66q2 16 2.5 31t0.5 29q0 156 -76 233.5t-200 77.5q-102 0 -174.5 -50t-111 -138t-38.5 -201v-17
q0 -124 42.5 -214t129 -139t219.5 -49q49 0 101 8t103 24t98 42l7 -121q-38 -21 -88 -36.5t-109 -24t-122 -8.5zM165 467v97l703 4l82 -27v-74h-785zM552 1153q-149 0 -228.5 93.5t-79.5 270.5l100 4q0 -140 54.5 -203t153.5 -63q102 0 156.5 62t54.5 200h100
q0 -118 -35.5 -199.5t-104.5 -123t-171 -41.5z" />
    <glyph glyph-name="Edotaccent" unicode="&#x116;" horiz-adv-x="1185" 
d="M197 0v231v242v477v244.5v231.5h869v-123h-219h-275h-313l76 104v-232v-244v-438v-241v-231l-70 102h319h254h229v-123h-870zM305 664v119h282h241.5h195.5v-119h-200.5h-238.5h-280zM630 1643q-46 0 -75.5 27t-29.5 82t29.5 82.5t77.5 27.5t77 -28.5t29 -81.5
q0 -55 -29 -82t-79 -27z" />
    <glyph glyph-name="edotaccent" unicode="&#x117;" horiz-adv-x="1055" 
d="M620 -20q-174 0 -287.5 67.5t-169 185.5t-55.5 269q0 149 55.5 264.5t157 181t240.5 65.5q122 0 211.5 -49.5t137.5 -143.5t48 -229q0 -36 -1.5 -65.5t-6.5 -58.5l-114 66q2 16 2.5 31t0.5 29q0 156 -76 233.5t-200 77.5q-102 0 -174.5 -50t-111 -138t-38.5 -201v-17
q0 -124 42.5 -214t129 -139t219.5 -49q49 0 101 8t103 24t98 42l7 -121q-38 -21 -88 -36.5t-109 -24t-122 -8.5zM165 467v97l703 4l82 -27v-74h-785zM552 1240q-46 0 -75.5 27t-29.5 83q0 55 29.5 82.5t77.5 27.5t77 -28.5t29 -81.5q0 -56 -29 -83t-79 -27z" />
    <glyph glyph-name="Eogonek" unicode="&#x118;" horiz-adv-x="1185" 
d="M197 0v231v242v477v244.5v231.5h869v-123h-219h-275h-313l76 104v-232v-244v-438v-241v-231l-70 102h319h254h229v-123h-870zM305 664v119h282h241.5h195.5v-119h-200.5h-238.5h-280zM962 -410q-65 0 -110.5 19.5t-69.5 55t-24 82.5q0 48 23 92.5t69 87.5t117 84v30l68 5
l32 -46q-83 -42 -142.5 -103.5t-59.5 -122.5q0 -46 30.5 -68t80.5 -22q35 0 60 5t39 10v-94q-22 -6 -52.5 -10.5t-60.5 -4.5z" />
    <glyph glyph-name="eogonek" unicode="&#x119;" horiz-adv-x="1055" 
d="M620 -20q-174 0 -287.5 67.5t-169 185.5t-55.5 269q0 149 55.5 264.5t157 181t240.5 65.5q122 0 211.5 -49.5t137.5 -143.5t48 -229q0 -36 -1.5 -65.5t-6.5 -58.5l-114 66q2 16 2.5 31t0.5 29q0 156 -76 233.5t-200 77.5q-102 0 -174.5 -50t-111 -138t-38.5 -201v-17
q0 -124 42.5 -214t129 -139t219.5 -49q49 0 101 8t103 24t98 42l7 -121q-38 -21 -88 -36.5t-109 -24t-122 -8.5zM165 467v97l703 4l82 -27v-74h-785zM659 -410q-65 0 -110.5 19.5t-69.5 55t-24 82.5q0 48 23 92.5t69 87.5t117 84v30l68 5l32 -46q-83 -42 -142.5 -103.5
t-59.5 -122.5q0 -46 30.5 -68t80.5 -22q35 0 60 5t39 10v-94q-22 -6 -52.5 -10.5t-60.5 -4.5z" />
    <glyph glyph-name="Ecaron" unicode="&#x11a;" horiz-adv-x="1185" 
d="M197 0v231v242v477v244.5v231.5h869v-123h-219h-275h-313l76 104v-232v-244v-438v-241v-231l-70 102h319h254h229v-123h-870zM305 664v119h282h241.5h195.5v-119h-200.5h-238.5h-280zM561 1579q-69 89 -138.5 178.5t-139.5 178.5l110 2q67 -77 131.5 -151.5t130.5 -152.5
h-41q67 77 131.5 151t129.5 149h111q-69 -88 -138 -177t-140 -178h-147z" />
    <glyph glyph-name="ecaron" unicode="&#x11b;" horiz-adv-x="1055" 
d="M620 -20q-174 0 -287.5 67.5t-169 185.5t-55.5 269q0 149 55.5 264.5t157 181t240.5 65.5q122 0 211.5 -49.5t137.5 -143.5t48 -229q0 -36 -1.5 -65.5t-6.5 -58.5l-114 66q2 16 2.5 31t0.5 29q0 156 -76 233.5t-200 77.5q-102 0 -174.5 -50t-111 -138t-38.5 -201v-17
q0 -124 42.5 -214t129 -139t219.5 -49q49 0 101 8t103 24t98 42l7 -121q-38 -21 -88 -36.5t-109 -24t-122 -8.5zM165 467v97l703 4l82 -27v-74h-785zM483 1148q-69 99 -138.5 197t-139.5 196l110 2q66 -83 130.5 -165.5t130.5 -166.5h-39q67 84 131 165t129 163h111
q-69 -96 -139 -194t-139 -197h-147z" />
    <glyph glyph-name="Gcircumflex" unicode="&#x11c;" horiz-adv-x="1468" 
d="M864 -20q-186 0 -327 56t-237 156t-144.5 234.5t-48.5 290.5q0 214 88.5 380t248.5 260t374 94q75 0 145.5 -10.5t132.5 -28t114 -38t89 -40.5l-15 -137q-82 45 -160 73t-152.5 41t-146.5 13q-127 0 -231.5 -41.5t-181.5 -121t-118.5 -192t-41.5 -253.5q0 -129 36.5 -240
t112 -195t193 -131t278.5 -47q55 0 111 5.5t111.5 17.5t109 31.5t103.5 46.5l17 -137q-35 -15 -85 -30.5t-110.5 -28.5t-127.5 -20.5t-137 -7.5zM1189 65v182.5v155.5v163v143h135v-143v-163v-155v-181zM1038 1577q-66 77 -131 151.5t-131 152.5h41q-67 -77 -131 -150.5
t-130 -149.5h-111q69 88 138.5 177t139.5 179h147q69 -90 138.5 -179.5t139.5 -178.5z" />
    <glyph glyph-name="gcircumflex" unicode="&#x11d;" horiz-adv-x="1080" 
d="M490 -406q-110 0 -183 20.5t-116 55t-61 76.5t-18 84q0 68 33.5 113.5t78.5 72.5t80 37v13q-18 5 -42.5 21t-43.5 45.5t-19 75.5q0 37 14.5 66.5t43 51.5t70.5 38v13q-22 7 -58.5 28.5t-74 59.5t-64 94t-26.5 132q0 97 48 169.5t133.5 112.5t196.5 40q45 0 79 -5.5
t70 -10.5t88 -5h318v-101h-196.5h-193.5l38 63q94 -43 135.5 -114.5t41.5 -157.5q0 -98 -39.5 -164t-112 -107.5t-171.5 -64.5q-112 -26 -166 -49.5t-54 -69.5q0 -33 22 -51t70.5 -25.5t127.5 -7.5h44q141 0 228.5 -22t128 -69.5t40.5 -126.5q0 -82 -43.5 -144
t-116.5 -103.5t-159 -62.5t-171 -21zM498 -295q118 0 197.5 33t120 80t40.5 89q0 43 -24 70.5t-88 40.5t-185 13h-39q-71 -1 -136.5 -23t-107.5 -61.5t-42 -92.5q0 -29 13 -56t43.5 -48t81.5 -33t126 -12zM469 438q41 9 88 22.5t88.5 38.5t67.5 67.5t26 108.5
q0 80 -41.5 129t-100.5 72t-113 23q-69 0 -127 -23.5t-94 -71t-36 -121.5q0 -75 35.5 -126t91 -80.5t115.5 -38.5zM748 1158q-66 84 -130 166t-131 166h39q-66 -84 -130 -164.5t-130 -163.5h-111q69 98 139 196t139 195h147q69 -97 138.5 -195.5t139.5 -196.5z" />
    <glyph glyph-name="Gbreve" unicode="&#x11e;" horiz-adv-x="1468" 
d="M864 -20q-186 0 -327 56t-237 156t-144.5 234.5t-48.5 290.5q0 214 88.5 380t248.5 260t374 94q75 0 145.5 -10.5t132.5 -28t114 -38t89 -40.5l-15 -137q-82 45 -160 73t-152.5 41t-146.5 13q-127 0 -231.5 -41.5t-181.5 -121t-118.5 -192t-41.5 -253.5q0 -129 36.5 -240
t112 -195t193 -131t278.5 -47q55 0 111 5.5t111.5 17.5t109 31.5t103.5 46.5l17 -137q-35 -15 -85 -30.5t-110.5 -28.5t-127.5 -20.5t-137 -7.5zM1189 65v182.5v155.5v163v143h135v-143v-163v-155v-181zM795 1572q-149 0 -228.5 93t-79.5 271l100 4q0 -140 54.5 -203
t153.5 -63q102 0 156.5 62t54.5 200h100q0 -119 -35.5 -200t-104.5 -122.5t-171 -41.5z" />
    <glyph glyph-name="gbreve" unicode="&#x11f;" horiz-adv-x="1080" 
d="M490 -406q-110 0 -183 20.5t-116 55t-61 76.5t-18 84q0 68 33.5 113.5t78.5 72.5t80 37v13q-18 5 -42.5 21t-43.5 45.5t-19 75.5q0 37 14.5 66.5t43 51.5t70.5 38v13q-22 7 -58.5 28.5t-74 59.5t-64 94t-26.5 132q0 97 48 169.5t133.5 112.5t196.5 40q45 0 79 -5.5
t70 -10.5t88 -5h318v-101h-196.5h-193.5l38 63q94 -43 135.5 -114.5t41.5 -157.5q0 -98 -39.5 -164t-112 -107.5t-171.5 -64.5q-112 -26 -166 -49.5t-54 -69.5q0 -33 22 -51t70.5 -25.5t127.5 -7.5h44q141 0 228.5 -22t128 -69.5t40.5 -126.5q0 -82 -43.5 -144
t-116.5 -103.5t-159 -62.5t-171 -21zM498 -295q118 0 197.5 33t120 80t40.5 89q0 43 -24 70.5t-88 40.5t-185 13h-39q-71 -1 -136.5 -23t-107.5 -61.5t-42 -92.5q0 -29 13 -56t43.5 -48t81.5 -33t126 -12zM469 438q41 9 88 22.5t88.5 38.5t67.5 67.5t26 108.5
q0 80 -41.5 129t-100.5 72t-113 23q-69 0 -127 -23.5t-94 -71t-36 -121.5q0 -75 35.5 -126t91 -80.5t115.5 -38.5zM505 1153q-149 0 -228.5 93.5t-79.5 270.5l100 4q0 -140 54.5 -203t153.5 -63q102 0 156.5 62t54.5 200h100q0 -118 -35.5 -199.5t-104.5 -123t-171 -41.5z
" />
    <glyph glyph-name="Gdotaccent" unicode="&#x120;" horiz-adv-x="1468" 
d="M864 -20q-186 0 -327 56t-237 156t-144.5 234.5t-48.5 290.5q0 214 88.5 380t248.5 260t374 94q75 0 145.5 -10.5t132.5 -28t114 -38t89 -40.5l-15 -137q-82 45 -160 73t-152.5 41t-146.5 13q-127 0 -231.5 -41.5t-181.5 -121t-118.5 -192t-41.5 -253.5q0 -129 36.5 -240
t112 -195t193 -131t278.5 -47q55 0 111 5.5t111.5 17.5t109 31.5t103.5 46.5l17 -137q-35 -15 -85 -30.5t-110.5 -28.5t-127.5 -20.5t-137 -7.5zM1189 65v182.5v155.5v163v143h135v-143v-163v-155v-181zM795 1643q-46 0 -75.5 27t-29.5 82t29.5 82.5t77.5 27.5t77 -28.5
t29 -81.5q0 -55 -29 -82t-79 -27z" />
    <glyph glyph-name="gdotaccent" unicode="&#x121;" horiz-adv-x="1080" 
d="M490 -406q-110 0 -183 20.5t-116 55t-61 76.5t-18 84q0 68 33.5 113.5t78.5 72.5t80 37v13q-18 5 -42.5 21t-43.5 45.5t-19 75.5q0 37 14.5 66.5t43 51.5t70.5 38v13q-22 7 -58.5 28.5t-74 59.5t-64 94t-26.5 132q0 97 48 169.5t133.5 112.5t196.5 40q45 0 79 -5.5
t70 -10.5t88 -5h318v-101h-196.5h-193.5l38 63q94 -43 135.5 -114.5t41.5 -157.5q0 -98 -39.5 -164t-112 -107.5t-171.5 -64.5q-112 -26 -166 -49.5t-54 -69.5q0 -33 22 -51t70.5 -25.5t127.5 -7.5h44q141 0 228.5 -22t128 -69.5t40.5 -126.5q0 -82 -43.5 -144
t-116.5 -103.5t-159 -62.5t-171 -21zM498 -295q118 0 197.5 33t120 80t40.5 89q0 43 -24 70.5t-88 40.5t-185 13h-39q-71 -1 -136.5 -23t-107.5 -61.5t-42 -92.5q0 -29 13 -56t43.5 -48t81.5 -33t126 -12zM469 438q41 9 88 22.5t88.5 38.5t67.5 67.5t26 108.5
q0 80 -41.5 129t-100.5 72t-113 23q-69 0 -127 -23.5t-94 -71t-36 -121.5q0 -75 35.5 -126t91 -80.5t115.5 -38.5zM505 1240q-46 0 -75.5 27t-29.5 83q0 55 29.5 82.5t77.5 27.5t77 -28.5t29 -81.5q0 -56 -29 -83t-79 -27z" />
    <glyph glyph-name="uni0122" unicode="&#x122;" horiz-adv-x="1468" 
d="M864 -20q-186 0 -327 56t-237 156t-144.5 234.5t-48.5 290.5q0 214 88.5 380t248.5 260t374 94q75 0 145.5 -10.5t132.5 -28t114 -38t89 -40.5l-15 -137q-82 45 -160 73t-152.5 41t-146.5 13q-127 0 -231.5 -41.5t-181.5 -121t-118.5 -192t-41.5 -253.5q0 -129 36.5 -240
t112 -195t193 -131t278.5 -47q55 0 111 5.5t111.5 17.5t109 31.5t103.5 46.5l17 -137q-35 -15 -85 -30.5t-110.5 -28.5t-127.5 -20.5t-137 -7.5zM1189 65v182.5v155.5v163v143h135v-143v-163v-155v-181zM675 -568q42 55 52.5 107.5t10.5 133.5v60.5v59.5l68 5
q46 -2 68.5 -28.5t22.5 -68.5q0 -49 -19 -99t-53.5 -93.5t-80.5 -74.5z" />
    <glyph glyph-name="uni0123" unicode="&#x123;" horiz-adv-x="1080" 
d="M490 -406q-110 0 -183 20.5t-116 55t-61 76.5t-18 84q0 68 33.5 113.5t78.5 72.5t80 37v13q-18 5 -42.5 21t-43.5 45.5t-19 75.5q0 37 14.5 66.5t43 51.5t70.5 38v13q-22 7 -58.5 28.5t-74 59.5t-64 94t-26.5 132q0 97 48 169.5t133.5 112.5t196.5 40q45 0 79 -5.5
t70 -10.5t88 -5h318v-101h-196.5h-193.5l38 63q94 -43 135.5 -114.5t41.5 -157.5q0 -98 -39.5 -164t-112 -107.5t-171.5 -64.5q-112 -26 -166 -49.5t-54 -69.5q0 -33 22 -51t70.5 -25.5t127.5 -7.5h44q141 0 228.5 -22t128 -69.5t40.5 -126.5q0 -82 -43.5 -144
t-116.5 -103.5t-159 -62.5t-171 -21zM498 -295q118 0 197.5 33t120 80t40.5 89q0 43 -24 70.5t-88 40.5t-185 13h-39q-71 -1 -136.5 -23t-107.5 -61.5t-42 -92.5q0 -29 13 -56t43.5 -48t81.5 -33t126 -12zM469 438q41 9 88 22.5t88.5 38.5t67.5 67.5t26 108.5
q0 80 -41.5 129t-100.5 72t-113 23q-69 0 -127 -23.5t-94 -71t-36 -121.5q0 -75 35.5 -126t91 -80.5t115.5 -38.5zM496 1240q-46 3 -68.5 30t-22.5 68q0 48 19 98t53.5 94t80.5 74l69 2q-42 -54 -52.5 -106.5t-10.5 -134.5v-59.5v-60.5z" />
    <glyph glyph-name="Hcircumflex" unicode="&#x124;" horiz-adv-x="1499" 
d="M1161 0v231v242v477v244.5v231.5h141v-231.5v-244.5v-477v-242v-231h-141zM197 0v231v242v477v244.5v231.5h141v-231.5v-244.5v-477v-242v-231h-141zM282 661v124h941v-124h-941zM989 1577q-66 77 -131 151.5t-131 152.5h41q-67 -77 -131 -150.5t-130 -149.5h-111
q69 88 138.5 177t139.5 179h147q69 -90 138.5 -179.5t139.5 -178.5z" />
    <glyph glyph-name="hcircumflex" unicode="&#x125;" horiz-adv-x="1143" 
d="M185 0v214v225v549v244.5v230.5l129 19v-241.5v-252.5v-170h16q30 43 79 88t116.5 76t155.5 31q161 0 232.5 -91.5t71.5 -263.5v-113v-106v-222.5v-216.5h-129v216v218v196q0 128 -46 193.5t-167 65.5q-74 0 -134 -29.5t-108 -79t-87 -109.5v-237v-220.5v-213.5h-129z
M783 1617q-66 84 -130 166t-131 166h39q-66 -84 -130 -164.5t-130 -163.5h-111q69 98 139 196t139 195h147q69 -97 138.5 -195.5t139.5 -196.5z" />
    <glyph glyph-name="Hbar" unicode="&#x126;" horiz-adv-x="1499" 
d="M1161 0v231v242v477v244.5v231.5h141v-155.5v-154v-166.5v-477v-242v-231h-141zM197 0v231v242v477v166.5v154v155.5h141v-231.5v-244.5v-477v-242v-231h-141zM282 652v120h941v-120h-941zM41 1050v103h196h178h671h177.5h196.5v-103h-196.5h-177.5h-671h-178h-196z" />
    <glyph glyph-name="hbar" unicode="&#x127;" horiz-adv-x="1143" 
d="M-17 1202v96h163h145h86h145h162v-96h-162h-145h-86h-145h-163zM185 0v214v225v549v244.5v230.5l129 19v-241.5v-252.5v-170h16q30 43 79 88t116.5 76t155.5 31q161 0 232.5 -91.5t71.5 -263.5v-113v-106v-222.5v-216.5h-129v216v218v196q0 128 -46 193.5t-167 65.5
q-74 0 -134 -29.5t-108 -79t-87 -109.5v-237v-220.5v-213.5h-129z" />
    <glyph glyph-name="Itilde" unicode="&#x128;" horiz-adv-x="540" 
d="M199 0v231v242v477v244.5v231.5h142v-231.5v-244.5v-477v-242v-231h-142zM434 1577q-59 0 -101.5 26.5t-77 62t-67 62t-70.5 26.5q-60 0 -84 -37t-25 -111h-87q0 123 49 188t134 65q58 0 100.5 -26.5t76.5 -62t66.5 -62t70.5 -26.5q60 0 83.5 37.5t24.5 110.5h87
q0 -122 -48 -187.5t-132 -65.5z" />
    <glyph glyph-name="itilde" unicode="&#x129;" horiz-adv-x="502" 
d="M187 0v214v225v100v161v146v145l128 4v-145.5v-147v-163.5v-100v-225v-214h-128zM401 1158q-53 0 -91.5 27t-69.5 62t-59.5 62t-62.5 27q-52 0 -74 -37.5t-23 -111.5h-82q0 122 44.5 187.5t120.5 65.5q54 0 92.5 -26.5t69 -61.5t59.5 -62t63 -27q53 0 72.5 37.5
t20.5 111.5h84q0 -123 -44 -188.5t-120 -65.5z" />
    <glyph glyph-name="Imacron" unicode="&#x12a;" horiz-adv-x="540" 
d="M199 0v231v242v477v244.5v231.5h142v-231.5v-244.5v-477v-242v-231h-142zM-38 1688v103h146h160h160.5h145.5v-103h-145.5h-160.5h-160h-146z" />
    <glyph glyph-name="imacron" unicode="&#x12b;" horiz-adv-x="502" 
d="M187 0v214v225v100v161v146v145l128 4v-145.5v-147v-163.5v-100v-225v-214h-128zM-4 1269v103h122h133h134h121v-103h-121h-134h-133h-122z" />
    <glyph glyph-name="Ibreve" unicode="&#x12c;" horiz-adv-x="540" 
d="M199 0v231v242v477v244.5v231.5h142v-231.5v-244.5v-477v-242v-231h-142zM264 1572q-149 0 -228.5 93t-79.5 271l100 4q0 -140 54.5 -203t153.5 -63q102 0 156.5 62t54.5 200h100q0 -119 -35.5 -200t-104.5 -122.5t-171 -41.5z" />
    <glyph glyph-name="ibreve" unicode="&#x12d;" horiz-adv-x="502" 
d="M187 0v214v225v100v161v146v145l128 4v-145.5v-147v-163.5v-100v-225v-214h-128zM248 1153q-136 0 -208.5 94t-72.5 270l98 4q0 -140 47 -203t136 -63t136.5 62t47.5 200h98q0 -118 -32.5 -199.5t-95.5 -123t-154 -41.5z" />
    <glyph glyph-name="Iogonek" unicode="&#x12e;" horiz-adv-x="540" 
d="M199 0v231v242v477v244.5v231.5h142v-231.5v-244.5v-477v-242v-231h-142zM236 -410q-65 0 -110.5 19.5t-69.5 55t-24 82.5q0 48 23 92.5t69 87.5t117 84v30l68 5l32 -46q-83 -42 -142.5 -103.5t-59.5 -122.5q0 -46 30.5 -68t80.5 -22q35 0 60 5t39 10v-94
q-22 -6 -52.5 -10.5t-60.5 -4.5z" />
    <glyph glyph-name="iogonek" unicode="&#x12f;" horiz-adv-x="502" 
d="M187 0v214v225v100v161v146v145l128 4v-145.5v-147v-163.5v-100v-225v-214h-128zM247 1240q-46 0 -75.5 27t-29.5 83q0 55 29.5 82.5t77.5 27.5t77 -28.5t29 -81.5q0 -56 -29 -83t-79 -27zM210 -410q-65 0 -110.5 19.5t-69.5 55t-24 82.5q0 48 23 92.5t69 87.5t117 84v30
l68 5l32 -46q-83 -42 -142.5 -103.5t-59.5 -122.5q0 -46 30.5 -68t80.5 -22q35 0 60 5t39 10v-94q-22 -6 -52.5 -10.5t-60.5 -4.5z" />
    <glyph glyph-name="Idotaccent" unicode="&#x130;" horiz-adv-x="540" 
d="M199 0v231v242v477v244.5v231.5h142v-231.5v-244.5v-477v-242v-231h-142zM265 1643q-46 0 -75.5 27t-29.5 82t29.5 82.5t77.5 27.5t77 -28.5t29 -81.5q0 -55 -29 -82t-79 -27z" />
    <glyph glyph-name="dotlessi" unicode="&#x131;" horiz-adv-x="502" 
d="M187 0v214v225v100v161v146v145l128 4v-145.5v-147v-163.5v-100v-225v-214h-128z" />
    <glyph glyph-name="Jcircumflex" unicode="&#x134;" horiz-adv-x="567" 
d="M37 -317q59 63 101.5 127t65.5 140.5t24 178.5v393v428v244.5v231.5h140v-231.5v-244.5v-377v-235.5v-223.5q0 -80 -14.5 -145.5t-40 -117t-57.5 -93t-67 -75.5h-152zM534 1577q-66 77 -131 151.5t-131 152.5h41q-67 -77 -131 -150.5t-130 -149.5h-111q69 88 138.5 177
t139.5 179h147q69 -90 138.5 -179.5t139.5 -178.5z" />
    <glyph glyph-name="jcircumflex" unicode="&#x135;" horiz-adv-x="497" 
d="M18 -389q59 63 96.5 126t55 139.5t17.5 180.5v382v100v161v146v145l128 4v-145.5v-147v-163.5v-208.5v-158.5v-135q0 -76 -10.5 -138.5t-30.5 -114.5t-48 -93.5t-62 -74.5zM457 1158q-43 66 -87 131.5t-87.5 131t-88.5 132.5h120q61 -97 122 -194.5t122 -197.5zM-61 1162
q62 99 122 195.5t122 195.5h120q-45 -67 -88.5 -131.5t-86.5 -129l-87 -130.5h-102z" />
    <glyph glyph-name="uni0136" unicode="&#x136;" horiz-adv-x="1327" 
d="M1080 0q-103 106 -193 198t-176 180l-293 300h-100v118h100l253 252l176 176l202 202h177q-115 -114 -224 -222t-217 -216l-274 -272l-2 61l305 -315q71 -73 152 -157t158.5 -164t136.5 -141h-181zM197 0v231v242v477v244.5v231.5h140v-231.5v-244.5v-477v-242v-231h-140
zM554 -568q42 55 52.5 107.5t10.5 133.5v60.5v59.5l68 5q46 -2 68.5 -28.5t22.5 -68.5q0 -49 -19 -99t-53.5 -93.5t-80.5 -74.5z" />
    <glyph glyph-name="uni0137" unicode="&#x137;" horiz-adv-x="1067" 
d="M848 0q-73 70 -147.5 139.5t-148.5 138.5l-187 176h-69v97h80l156 154q73 72 145.5 143.5t143.5 142.5h165q-90 -87 -179 -173.5t-177 -172.5l-175 -170l-4 65l202 -194q92 -86 185 -173t185 -173h-175zM185 0v214v225v549v244.5v230.5l129 19v-241.5v-252.5v-566v-214.5
v-207.5h-129zM425 -568q42 55 52.5 107.5t10.5 133.5v60.5v59.5l68 5q46 -2 68.5 -28.5t22.5 -68.5q0 -49 -19 -99t-53.5 -93.5t-80.5 -74.5z" />
    <glyph glyph-name="kgreenlandic" unicode="&#x138;" horiz-adv-x="1067" 
d="M185 0v214v225v104v160v144v144l129 5v-217v-226v-131v-214.5v-207.5h-129zM848 0q-73 70 -147.5 139.5t-148.5 138.5l-187 176h-69v97h80l156 154q73 72 145.5 143.5t143.5 142.5h165q-90 -87 -179 -173.5t-177 -172.5l-175 -170l-4 65l202 -194q92 -86 185 -173
t185 -173h-175z" />
    <glyph glyph-name="Lacute" unicode="&#x139;" horiz-adv-x="1140" 
d="M197 0v231v242v477v244.5v231.5h141v-231.5v-244.5v-456v-242v-231l-56 106h257h207h166.5h156.5v-127h-872zM255 1579q71 91 140 180l138 178l151 2q-54 -61 -107 -121t-105.5 -119t-105.5 -118z" />
    <glyph glyph-name="lacute" unicode="&#x13a;" horiz-adv-x="499" 
d="M185 0v214v225v549v245v230l129 19v-242.5v-251.5v-549v-225v-214h-129zM113 1619l140 198t138 195l151 4q-54 -67 -107.5 -133t-105.5 -131t-105 -130z" />
    <glyph glyph-name="uni013B" unicode="&#x13b;" horiz-adv-x="1140" 
d="M197 0v231v242v477v244.5v231.5h141v-231.5v-244.5v-456v-242v-231l-56 106h257h207h166.5h156.5v-127h-872zM506 -568q42 55 52.5 107.5t10.5 133.5v60.5v59.5l68 5q46 -2 68.5 -28.5t22.5 -68.5q0 -49 -19 -99t-53.5 -93.5t-80.5 -74.5z" />
    <glyph glyph-name="uni013C" unicode="&#x13c;" horiz-adv-x="499" 
d="M185 0v214v225v549v245v230l129 19v-242.5v-251.5v-549v-225v-214h-129zM125 -568q42 55 52.5 107.5t10.5 133.5v60.5v59.5l68 5q46 -2 68.5 -28.5t22.5 -68.5q0 -49 -19 -99t-53.5 -93.5t-80.5 -74.5z" />
    <glyph glyph-name="Lcaron" unicode="&#x13d;" horiz-adv-x="1140" 
d="M197 0v231v242v477v244.5v231.5h141v-231.5v-244.5v-456v-242v-231l-56 106h257h207h166.5h156.5v-127h-872zM623 1087q23 51 37.5 107t21 108t6.5 89v75.5v74.5l59 5q30 -2 45 -23.5t15 -61.5q0 -47 -9 -98.5t-24.5 -102t-35 -94.5t-40.5 -76z" />
    <glyph glyph-name="lcaron" unicode="&#x13e;" horiz-adv-x="513" 
d="M185 0v214v225v549v245v230l129 19v-242.5v-251.5v-549v-225v-214h-129zM483 1087q23 51 37.5 107t21 108t6.5 89v75.5v74.5l59 5q30 -2 45 -23.5t15 -61.5q0 -47 -9 -98.5t-24.5 -102t-35 -94.5t-40.5 -76z" />
    <glyph glyph-name="Ldot" unicode="&#x13f;" horiz-adv-x="1140" 
d="M197 0v231v242v477v244.5v231.5h141v-231.5v-244.5v-456v-242v-231l-56 106h257h207h166.5h156.5v-127h-872zM843 608q-46 0 -75.5 27.5t-29.5 82.5t29.5 82.5t77.5 27.5t76.5 -28.5t28.5 -81.5q0 -55 -28.5 -82.5t-78.5 -27.5z" />
    <glyph glyph-name="ldot" unicode="&#x140;" horiz-adv-x="760" 
d="M185 0v214v225v549v245v230l129 19v-242.5v-251.5v-549v-225v-214h-129zM628 608q-46 0 -75.5 27.5t-29.5 82.5t29.5 82.5t77.5 27.5t76.5 -28.5t28.5 -81.5q0 -55 -28.5 -82.5t-78.5 -27.5z" />
    <glyph glyph-name="Lslash" unicode="&#x141;" horiz-adv-x="1151" 
d="M208 0v231v242v477v244.5v231.5h140v-231.5v-244.5v-456v-242v-231l-55 106h257h206.5h166.5h157v-127h-872zM10 565l-32 102q96 28 183.5 54.5t166.5 49.5l96 29q79 23 167.5 49t182.5 54l29 -103q-93 -27 -181.5 -53t-166.5 -50l-97 -29q-78 -23 -165.5 -49.5
t-182.5 -53.5z" />
    <glyph glyph-name="lslash" unicode="&#x142;" horiz-adv-x="574" 
d="M9 557l-28 92q72 22 135 40.5t124 35.5l66 20q60 18 124 37t135 40l28 -93q-72 -20 -137.5 -39.5t-122.5 -36.5l-66 -20q-61 -17 -124 -35.5t-134 -40.5zM223 0v214v225v549v245v230l129 19v-242.5v-251.5v-549v-225v-214h-129z" />
    <glyph glyph-name="Nacute" unicode="&#x143;" horiz-adv-x="1510" 
d="M197 0v231v242v477v244.5v231.5h130q135 -189 260.5 -366t248.5 -349l330 -463h12v702v244.5v231.5h135v-231.5v-244.5v-477v-242v-231h-127q-112 158 -236.5 333t-274.5 385l-331 466h-12v-711v-242v-231h-135zM620 1579q71 91 140 180l138 178l151 2q-54 -61 -107 -121
t-105.5 -119t-105.5 -118z" />
    <glyph glyph-name="nacute" unicode="&#x144;" horiz-adv-x="1143" 
d="M185 0v214v225v100v224v228l115 8l4 -186h16q31 44 81.5 90t120 78t159.5 32q161 0 232.5 -91.5t71.5 -263.5v-113v-106v-222.5v-216.5h-129v216v218v196q0 128 -46 193.5t-167 65.5q-74 0 -134 -29.5t-108 -79t-87 -109.5v-237v-220.5v-213.5h-129zM450 1160l140 198
t138 195l151 4q-54 -67 -107.5 -133t-105.5 -131t-105 -130z" />
    <glyph glyph-name="uni0145" unicode="&#x145;" horiz-adv-x="1510" 
d="M197 0v231v242v477v244.5v231.5h130q135 -189 260.5 -366t248.5 -349l330 -463h12v702v244.5v231.5h135v-231.5v-244.5v-477v-242v-231h-127q-112 158 -236.5 333t-274.5 385l-331 466h-12v-711v-242v-231h-135zM632 -568q42 55 52.5 107.5t10.5 133.5v60.5v59.5l68 5
q46 -2 68.5 -28.5t22.5 -68.5q0 -49 -19 -99t-53.5 -93.5t-80.5 -74.5z" />
    <glyph glyph-name="uni0146" unicode="&#x146;" horiz-adv-x="1143" 
d="M185 0v214v225v100v224v228l115 8l4 -186h16q31 44 81.5 90t120 78t159.5 32q161 0 232.5 -91.5t71.5 -263.5v-113v-106v-222.5v-216.5h-129v216v218v196q0 128 -46 193.5t-167 65.5q-74 0 -134 -29.5t-108 -79t-87 -109.5v-237v-220.5v-213.5h-129zM462 -568
q42 55 52.5 107.5t10.5 133.5v60.5v59.5l68 5q46 -2 68.5 -28.5t22.5 -68.5q0 -49 -19 -99t-53.5 -93.5t-80.5 -74.5z" />
    <glyph glyph-name="Ncaron" unicode="&#x147;" horiz-adv-x="1510" 
d="M197 0v231v242v477v244.5v231.5h130q135 -189 260.5 -366t248.5 -349l330 -463h12v702v244.5v231.5h135v-231.5v-244.5v-477v-242v-231h-127q-112 158 -236.5 333t-274.5 385l-331 466h-12v-711v-242v-231h-135zM683 1579q-69 89 -138.5 178.5t-139.5 178.5l110 2
q67 -77 131.5 -151.5t130.5 -152.5h-41q67 77 131.5 151t129.5 149h111q-69 -88 -138 -177t-140 -178h-147z" />
    <glyph glyph-name="ncaron" unicode="&#x148;" horiz-adv-x="1143" 
d="M185 0v214v225v100v224v228l115 8l4 -186h16q31 44 81.5 90t120 78t159.5 32q161 0 232.5 -91.5t71.5 -263.5v-113v-106v-222.5v-216.5h-129v216v218v196q0 128 -46 193.5t-167 65.5q-74 0 -134 -29.5t-108 -79t-87 -109.5v-237v-220.5v-213.5h-129zM513 1148
q-69 99 -138.5 197t-139.5 196l110 2q66 -83 130.5 -165.5t130.5 -166.5h-39q67 84 131 165t129 163h111q-69 -96 -139 -194t-139 -197h-147z" />
    <glyph glyph-name="Eng" unicode="&#x14a;" horiz-adv-x="1510" 
d="M982 -384q59 64 102 127.5t65.5 140t22.5 179.5v30l56 -93h-42q-113 159 -237 334t-274 384l-331 466h-12v-711v-242v-231h-135v231v242v477v244.5v231.5h130q136 -190 261 -366t248 -349l330 -463h12v702v244.5v231.5h135v-231.5v-244.5v-442v-235.5v-223.5
q0 -81 -14.5 -146.5t-40 -117.5t-57.5 -93.5t-67 -75.5h-152z" />
    <glyph glyph-name="eng" unicode="&#x14b;" horiz-adv-x="1143" 
d="M687 -389q59 63 96.5 126t55 139.5t17.5 180.5v377v196q0 128 -46 193.5t-167 65.5q-74 0 -134 -29.5t-108 -79t-87 -109.5v-237v-220.5v-213.5h-129v214v225v100v224v228l115 8l4 -186h16q31 44 81.5 90t120 78t159.5 32q161 0 232.5 -91.5t71.5 -263.5v-61.5v-57.5
v-208.5v-158.5v-135q0 -76 -10.5 -138.5t-31 -114.5t-48.5 -93.5t-62 -74.5z" />
    <glyph glyph-name="Omacron" unicode="&#x14c;" horiz-adv-x="1635" 
d="M825 -21q-179 0 -313.5 58.5t-224.5 160.5t-135 235t-45 282q0 207 84.5 374t244 264.5t383.5 97.5q171 0 303 -56.5t222.5 -158t137 -234.5t46.5 -287q0 -210 -84.5 -376.5t-242 -263t-376.5 -96.5zM820 105q147 0 253 50t174.5 136.5t101.5 195.5t33 228
q0 128 -35.5 239t-106 194.5t-175.5 130.5t-245 47q-144 0 -250.5 -49.5t-176.5 -135.5t-105 -195.5t-35 -230.5t34 -231t103 -195.5t176 -134.5t254 -49zM511 1688v103h146h160h160.5h145.5v-103h-145.5h-160.5h-160h-146z" />
    <glyph glyph-name="omacron" unicode="&#x14d;" horiz-adv-x="1194" 
d="M601 -21q-119 0 -210.5 42.5t-154.5 115.5t-95.5 167.5t-32.5 197.5q0 148 60.5 263.5t171 181.5t259.5 66q115 0 205 -38.5t153.5 -108t96 -162.5t32.5 -202q0 -147 -59 -265.5t-168.5 -188t-257.5 -69.5zM600 95q119 0 197.5 58.5t117.5 151t39 197.5q0 118 -43 207
t-122.5 138.5t-188.5 49.5q-117 0 -197.5 -52.5t-121.5 -142.5t-41 -200q0 -105 40 -197.5t120 -151t200 -58.5zM290 1269v103h146h160h160.5h145.5v-103h-145.5h-160.5h-160h-146z" />
    <glyph glyph-name="Obreve" unicode="&#x14e;" horiz-adv-x="1635" 
d="M825 -21q-179 0 -313.5 58.5t-224.5 160.5t-135 235t-45 282q0 207 84.5 374t244 264.5t383.5 97.5q171 0 303 -56.5t222.5 -158t137 -234.5t46.5 -287q0 -210 -84.5 -376.5t-242 -263t-376.5 -96.5zM820 105q147 0 253 50t174.5 136.5t101.5 195.5t33 228
q0 128 -35.5 239t-106 194.5t-175.5 130.5t-245 47q-144 0 -250.5 -49.5t-176.5 -135.5t-105 -195.5t-35 -230.5t34 -231t103 -195.5t176 -134.5t254 -49zM813 1572q-149 0 -228.5 93t-79.5 271l100 4q0 -140 54.5 -203t153.5 -63q102 0 156.5 62t54.5 200h100
q0 -119 -35.5 -200t-104.5 -122.5t-171 -41.5z" />
    <glyph glyph-name="obreve" unicode="&#x14f;" horiz-adv-x="1194" 
d="M601 -21q-119 0 -210.5 42.5t-154.5 115.5t-95.5 167.5t-32.5 197.5q0 148 60.5 263.5t171 181.5t259.5 66q115 0 205 -38.5t153.5 -108t96 -162.5t32.5 -202q0 -147 -59 -265.5t-168.5 -188t-257.5 -69.5zM600 95q119 0 197.5 58.5t117.5 151t39 197.5q0 118 -43 207
t-122.5 138.5t-188.5 49.5q-117 0 -197.5 -52.5t-121.5 -142.5t-41 -200q0 -105 40 -197.5t120 -151t200 -58.5zM592 1153q-149 0 -228.5 93.5t-79.5 270.5l100 4q0 -140 54.5 -203t153.5 -63q102 0 156.5 62t54.5 200h100q0 -118 -35.5 -199.5t-104.5 -123t-171 -41.5z" />
    <glyph glyph-name="Ohungarumlaut" unicode="&#x150;" horiz-adv-x="1635" 
d="M825 -21q-179 0 -313.5 58.5t-224.5 160.5t-135 235t-45 282q0 207 84.5 374t244 264.5t383.5 97.5q171 0 303 -56.5t222.5 -158t137 -234.5t46.5 -287q0 -210 -84.5 -376.5t-242 -263t-376.5 -96.5zM820 105q147 0 253 50t174.5 136.5t101.5 195.5t33 228
q0 128 -35.5 239t-106 194.5t-175.5 130.5t-245 47q-144 0 -250.5 -49.5t-176.5 -135.5t-105 -195.5t-35 -230.5t34 -231t103 -195.5t176 -134.5t254 -49zM896 1579q69 89 138.5 179t137.5 179l146 2q-53 -61 -105.5 -121t-104.5 -119l-104 -118zM545 1579q59 91 117 179.5
t116 178.5l139 2q-45 -61 -90.5 -121t-90 -119t-90.5 -118z" />
    <glyph glyph-name="ohungarumlaut" unicode="&#x151;" horiz-adv-x="1194" 
d="M601 -21q-119 0 -210.5 42.5t-154.5 115.5t-95.5 167.5t-32.5 197.5q0 148 60.5 263.5t171 181.5t259.5 66q115 0 205 -38.5t153.5 -108t96 -162.5t32.5 -202q0 -147 -59 -265.5t-168.5 -188t-257.5 -69.5zM600 95q119 0 197.5 58.5t117.5 151t39 197.5q0 118 -43 207
t-122.5 138.5t-188.5 49.5q-117 0 -197.5 -52.5t-121.5 -142.5t-41 -200q0 -105 40 -197.5t120 -151t200 -58.5zM675 1160q70 99 139 198t137 195l146 4q-53 -67 -105.5 -133t-104.5 -131.5t-104 -129.5zM324 1160q60 100 118 197.5t115 195.5l139 4q-45 -67 -90.5 -133
t-90 -131.5t-90.5 -129.5z" />
    <glyph glyph-name="OE" unicode="&#x152;" horiz-adv-x="2178" 
d="M832 -20q-172 0 -306.5 55.5t-228 155t-142 234t-48.5 291.5q0 217 87.5 382.5t244.5 259.5t366 94q97 0 183.5 -18t157 -46t119.5 -55l-15 -138q-117 68 -225 98.5t-211 30.5q-161 0 -287.5 -74.5t-200 -211t-73.5 -323.5q0 -126 38 -236.5t112.5 -194.5t184.5 -132
t253 -48q107 0 208 27.5t193 91.5l14 -139q-58 -37 -127.5 -60t-145 -33.5t-151.5 -10.5zM1190 0v231v242v477v244.5v231.5h869v-123h-218.5h-275.5h-313l76 104v-232v-244v-438v-241v-231l-70 102h320h253h230v-123h-871zM1298 664v119h282h241.5h195.5v-119h-200h-238
h-281z" />
    <glyph glyph-name="oe" unicode="&#x153;" horiz-adv-x="1875" 
d="M582 -20q-118 0 -209.5 42t-154 115t-95 167.5t-32.5 197.5q0 148 60.5 263.5t170.5 181.5t259 66q113 0 202 -38.5t151 -108.5t94.5 -162.5t32.5 -201.5q0 -147 -58.5 -265t-166 -187.5t-254.5 -69.5zM584 95q119 0 197.5 58.5t117.5 151.5t39 197q0 118 -43.5 207
t-122.5 138.5t-188 49.5q-118 0 -198 -52.5t-121 -142.5t-41 -200q0 -104 39.5 -197t119.5 -151.5t201 -58.5zM1455 -20q-173 0 -286 67.5t-168.5 185.5t-55.5 269q0 149 55 264.5t156.5 181t240.5 65.5q122 0 211 -49.5t137.5 -143.5t48.5 -229q0 -36 -1.5 -65.5
t-6.5 -58.5l-114 66q2 16 2.5 31t0.5 29q0 156 -76.5 233.5t-199.5 77.5q-102 0 -174.5 -50t-111 -138t-38.5 -201v-17q0 -124 42.5 -214t129 -139t219.5 -49q49 0 101 8t103 24t98 42l6 -121q-38 -21 -88 -36.5t-108.5 -24t-122.5 -8.5zM1000 467v97l704 4l82 -21v-80h-786
z" />
    <glyph glyph-name="Racute" unicode="&#x154;" horiz-adv-x="1328" 
d="M197 0v231v242v477v244.5v231.5h126h155.5h183.5q160 0 265 -38.5t157 -122t52 -218.5q0 -115 -44.5 -211t-150.5 -154t-289 -59l40 64l233 -280q54 -65 115 -138.5t119.5 -143.5t103.5 -125h-167q-76 92 -146.5 177.5t-139.5 168.5l-260 320l87 -65h-326v118h280
q137 0 226 31.5t131.5 101t42.5 183.5q0 98 -31.5 153t-82 80t-108.5 31.5t-113 6.5h-411l90 101v-233.5v-242.5v-458v-242v-231h-138zM493 1579q71 91 140 180l138 178l151 2q-54 -61 -107 -121t-105.5 -119t-105.5 -118z" />
    <glyph glyph-name="racute" unicode="&#x155;" horiz-adv-x="792" 
d="M185 0v214v225v100v224v228l115 8l4 -208h14q41 94 96.5 142t112 64t103.5 16q29 0 56.5 -4t52.5 -13l-11 -132q-31 8 -57 12.5t-61 4.5q-28 0 -67 -9t-80.5 -38t-80 -87t-68.5 -156v-157v-220.5v-213.5h-129zM330 1160l140 198t138 195l151 4q-54 -67 -107.5 -133
t-105.5 -131t-105 -130z" />
    <glyph glyph-name="uni0156" unicode="&#x156;" horiz-adv-x="1328" 
d="M197 0v231v242v477v244.5v231.5h126h155.5h183.5q160 0 265 -38.5t157 -122t52 -218.5q0 -115 -44.5 -211t-150.5 -154t-289 -59l40 64l233 -280q54 -65 115 -138.5t119.5 -143.5t103.5 -125h-167q-76 92 -146.5 177.5t-139.5 168.5l-260 320l87 -65h-326v118h280
q137 0 226 31.5t131.5 101t42.5 183.5q0 98 -31.5 153t-82 80t-108.5 31.5t-113 6.5h-411l90 101v-233.5v-242.5v-458v-242v-231h-138zM545 -568q42 55 52.5 107.5t10.5 133.5v60.5v59.5l68 5q46 -2 68.5 -28.5t22.5 -68.5q0 -49 -19 -99t-53.5 -93.5t-80.5 -74.5z" />
    <glyph glyph-name="uni0157" unicode="&#x157;" horiz-adv-x="792" 
d="M185 0v214v225v100v224v228l115 8l4 -208h14q41 94 96.5 142t112 64t103.5 16q29 0 56.5 -4t52.5 -13l-11 -132q-31 8 -57 12.5t-61 4.5q-28 0 -67 -9t-80.5 -38t-80 -87t-68.5 -156v-157v-220.5v-213.5h-129zM125 -568q42 55 52.5 107.5t10.5 133.5v60.5v59.5l68 5
q46 -2 68.5 -28.5t22.5 -68.5q0 -49 -19 -99t-53.5 -93.5t-80.5 -74.5z" />
    <glyph glyph-name="Rcaron" unicode="&#x158;" horiz-adv-x="1328" 
d="M197 0v231v242v477v244.5v231.5h126h155.5h183.5q160 0 265 -38.5t157 -122t52 -218.5q0 -115 -44.5 -211t-150.5 -154t-289 -59l40 64l233 -280q54 -65 115 -138.5t119.5 -143.5t103.5 -125h-167q-76 92 -146.5 177.5t-139.5 168.5l-260 320l87 -65h-326v118h280
q137 0 226 31.5t131.5 101t42.5 183.5q0 98 -31.5 153t-82 80t-108.5 31.5t-113 6.5h-411l90 101v-233.5v-242.5v-458v-242v-231h-138zM556 1579q-69 89 -138.5 178.5t-139.5 178.5l110 2q67 -77 131.5 -151.5t130.5 -152.5h-41q67 77 131.5 151t129.5 149h111
q-69 -88 -138 -177t-140 -178h-147z" />
    <glyph glyph-name="rcaron" unicode="&#x159;" horiz-adv-x="792" 
d="M185 0v214v225v100v224v228l115 8l4 -208h14q41 94 96.5 142t112 64t103.5 16q29 0 56.5 -4t52.5 -13l-11 -132q-31 8 -57 12.5t-61 4.5q-28 0 -67 -9t-80.5 -38t-80 -87t-68.5 -156v-157v-220.5v-213.5h-129zM393 1148q-69 99 -138.5 197t-139.5 196l110 2
q66 -83 130.5 -165.5t130.5 -166.5h-39q67 84 131 165t129 163h111q-69 -96 -139 -194t-139 -197h-147z" />
    <glyph glyph-name="Sacute" unicode="&#x15a;" horiz-adv-x="1165" 
d="M601 -20q-90 0 -179.5 16t-165 41.5t-121.5 51.5l16 135q67 -36 138 -63t147 -42t158 -15q94 0 171 27t122.5 86t45.5 158q0 81 -45 133.5t-130.5 91t-206.5 77.5q-138 43 -235 93t-148 122t-51 181q0 107 52 192.5t154 136t251 50.5q63 0 124 -9.5t116.5 -25t100.5 -35
t76 -39.5l-16 -138q-60 42 -127.5 68.5t-134.5 39.5t-126 13q-85 0 -158.5 -26t-119 -81t-45.5 -142q0 -72 38 -120.5t118 -86.5t207 -79q172 -55 270.5 -110.5t140 -126.5t41.5 -173q0 -112 -50 -203t-156 -144.5t-272 -53.5zM455 1579q71 91 140 180l138 178l151 2
q-54 -61 -107 -121t-105.5 -119t-105.5 -118z" />
    <glyph glyph-name="sacute" unicode="&#x15b;" horiz-adv-x="903" 
d="M454 -20q-60 0 -121 9.5t-116 27t-96 39.5l12 124q46 -26 98 -45t107.5 -29.5t113.5 -10.5q60 0 110.5 15t81 53t30.5 110q0 47 -25.5 77.5t-85 54.5t-160.5 54q-76 22 -138 53t-99 83.5t-37 138.5q0 127 85.5 203t230.5 76q58 0 113 -10.5t103 -28t83 -37.5l-12 -125
q-49 31 -98.5 50t-95 27t-82.5 8q-42 0 -87 -12.5t-76.5 -47t-31.5 -100.5q0 -46 21.5 -77.5t71 -55t135.5 -48.5q96 -29 167.5 -60t110 -82t38.5 -140q0 -82 -36.5 -149t-113.5 -106t-201 -39zM316 1160l140 198t138 195l151 4q-54 -67 -107.5 -133t-105.5 -131t-105 -130z
" />
    <glyph glyph-name="Scircumflex" unicode="&#x15c;" horiz-adv-x="1165" 
d="M601 -20q-90 0 -179.5 16t-165 41.5t-121.5 51.5l16 135q67 -36 138 -63t147 -42t158 -15q94 0 171 27t122.5 86t45.5 158q0 81 -45 133.5t-130.5 91t-206.5 77.5q-138 43 -235 93t-148 122t-51 181q0 107 52 192.5t154 136t251 50.5q63 0 124 -9.5t116.5 -25t100.5 -35
t76 -39.5l-16 -138q-60 42 -127.5 68.5t-134.5 39.5t-126 13q-85 0 -158.5 -26t-119 -81t-45.5 -142q0 -72 38 -120.5t118 -86.5t207 -79q172 -55 270.5 -110.5t140 -126.5t41.5 -173q0 -112 -50 -203t-156 -144.5t-272 -53.5zM830 1577q-66 77 -131 151.5t-131 152.5h41
q-67 -77 -131 -150.5t-130 -149.5h-111q69 88 138.5 177t139.5 179h147q69 -90 138.5 -179.5t139.5 -178.5z" />
    <glyph glyph-name="scircumflex" unicode="&#x15d;" horiz-adv-x="903" 
d="M454 -20q-60 0 -121 9.5t-116 27t-96 39.5l12 124q46 -26 98 -45t107.5 -29.5t113.5 -10.5q60 0 110.5 15t81 53t30.5 110q0 47 -25.5 77.5t-85 54.5t-160.5 54q-76 22 -138 53t-99 83.5t-37 138.5q0 127 85.5 203t230.5 76q58 0 113 -10.5t103 -28t83 -37.5l-12 -125
q-49 31 -98.5 50t-95 27t-82.5 8q-42 0 -87 -12.5t-76.5 -47t-31.5 -100.5q0 -46 21.5 -77.5t71 -55t135.5 -48.5q96 -29 167.5 -60t110 -82t38.5 -140q0 -82 -36.5 -149t-113.5 -106t-201 -39zM691 1158q-66 84 -130 166t-131 166h39q-66 -84 -130 -164.5t-130 -163.5h-111
q69 98 139 196t139 195h147q69 -97 138.5 -195.5t139.5 -196.5z" />
    <glyph glyph-name="Scedilla" unicode="&#x15e;" horiz-adv-x="1165" 
d="M601 -20q-90 0 -179.5 16t-165 41.5t-121.5 51.5l16 135q67 -36 138 -63t147 -42t158 -15q94 0 171 27t122.5 86t45.5 158q0 81 -45 133.5t-130.5 91t-206.5 77.5q-138 43 -235 93t-148 122t-51 181q0 107 52 192.5t154 136t251 50.5q63 0 124 -9.5t116.5 -25t100.5 -35
t76 -39.5l-16 -138q-60 42 -127.5 68.5t-134.5 39.5t-126 13q-85 0 -158.5 -26t-119 -81t-45.5 -142q0 -72 38 -120.5t118 -86.5t207 -79q172 -55 270.5 -110.5t140 -126.5t41.5 -173q0 -112 -50 -203t-156 -144.5t-272 -53.5zM544 -426q-20 0 -42 2t-42 5t-35 8v90
q14 -5 43 -10t63 -5q74 0 102 24.5t28 60.5q0 20 -14.5 39.5t-53.5 35t-113 21.5l79 188h80v-33l-52 -119q73 -10 113.5 -33t56 -53t15.5 -61q0 -44 -22.5 -80.5t-72.5 -58t-133 -21.5z" />
    <glyph glyph-name="scedilla" unicode="&#x15f;" horiz-adv-x="903" 
d="M454 -20q-60 0 -121 9.5t-116 27t-96 39.5l12 124q46 -26 98 -45t107.5 -29.5t113.5 -10.5q60 0 110.5 15t81 53t30.5 110q0 47 -25.5 77.5t-85 54.5t-160.5 54q-76 22 -138 53t-99 83.5t-37 138.5q0 127 85.5 203t230.5 76q58 0 113 -10.5t103 -28t83 -37.5l-12 -125
q-49 31 -98.5 50t-95 27t-82.5 8q-42 0 -87 -12.5t-76.5 -47t-31.5 -100.5q0 -46 21.5 -77.5t71 -55t135.5 -48.5q96 -29 167.5 -60t110 -82t38.5 -140q0 -82 -36.5 -149t-113.5 -106t-201 -39zM404 -426q-20 0 -42 2t-42 5t-35 8v90q14 -5 43 -10t63 -5q74 0 102 24.5
t28 60.5q0 20 -14.5 39.5t-53.5 35t-113 21.5l79 188h80v-33l-52 -119q73 -10 113.5 -33t56 -53t15.5 -61q0 -44 -22.5 -80.5t-72.5 -58t-133 -21.5z" />
    <glyph glyph-name="Scaron" unicode="&#x160;" horiz-adv-x="1165" 
d="M601 -20q-90 0 -179.5 16t-165 41.5t-121.5 51.5l16 135q67 -36 138 -63t147 -42t158 -15q94 0 171 27t122.5 86t45.5 158q0 81 -45 133.5t-130.5 91t-206.5 77.5q-138 43 -235 93t-148 122t-51 181q0 107 52 192.5t154 136t251 50.5q63 0 124 -9.5t116.5 -25t100.5 -35
t76 -39.5l-16 -138q-60 42 -127.5 68.5t-134.5 39.5t-126 13q-85 0 -158.5 -26t-119 -81t-45.5 -142q0 -72 38 -120.5t118 -86.5t207 -79q172 -55 270.5 -110.5t140 -126.5t41.5 -173q0 -112 -50 -203t-156 -144.5t-272 -53.5zM518 1579q-69 89 -138.5 178.5t-139.5 178.5
l110 2q67 -77 131.5 -151.5t130.5 -152.5h-41q67 77 131.5 151t129.5 149h111q-69 -88 -138 -177t-140 -178h-147z" />
    <glyph glyph-name="scaron" unicode="&#x161;" horiz-adv-x="903" 
d="M454 -20q-60 0 -121 9.5t-116 27t-96 39.5l12 124q46 -26 98 -45t107.5 -29.5t113.5 -10.5q60 0 110.5 15t81 53t30.5 110q0 47 -25.5 77.5t-85 54.5t-160.5 54q-76 22 -138 53t-99 83.5t-37 138.5q0 127 85.5 203t230.5 76q58 0 113 -10.5t103 -28t83 -37.5l-12 -125
q-49 31 -98.5 50t-95 27t-82.5 8q-42 0 -87 -12.5t-76.5 -47t-31.5 -100.5q0 -46 21.5 -77.5t71 -55t135.5 -48.5q96 -29 167.5 -60t110 -82t38.5 -140q0 -82 -36.5 -149t-113.5 -106t-201 -39zM379 1148q-69 99 -138.5 197t-139.5 196l110 2q66 -83 130.5 -165.5
t130.5 -166.5h-39q67 84 131 165t129 163h111q-69 -96 -139 -194t-139 -197h-147z" />
    <glyph glyph-name="uni0162" unicode="&#x162;" horiz-adv-x="1279" 
d="M570 0v231v242v457v245.5v231.5l57 -108h-164h-217.5h-180.5v127h1149v-127h-179.5h-218.5h-164l58 108v-231.5v-245.5v-457v-242v-231h-140zM593 -426q-20 0 -42 2t-42 5t-35 8v90q14 -5 43 -10t63 -5q74 0 102 24.5t28 60.5q0 20 -14.5 39.5t-53.5 35t-113 21.5l79 188
h80v-33l-52 -119q73 -10 113.5 -33t56 -53t15.5 -61q0 -44 -22.5 -80.5t-72.5 -58t-133 -21.5z" />
    <glyph glyph-name="uni0163" unicode="&#x163;" horiz-adv-x="813" 
d="M547 -21q-96 0 -162 35t-100 105t-34 176v183.5v174.5v159v137v185v178l128 31v-134v-122.5v-137.5v-629q0 -113 48 -169t148 -56q39 0 84 13.5t79 40.5l14 -118q-20 -15 -51.5 -26.5t-71 -18.5t-82.5 -7zM52 885v106h688v-106h-205h-202h-50h-231zM425 -426q-20 0 -42 2
t-42 5t-35 8v90q14 -5 43 -10t63 -5q74 0 102 24.5t28 60.5q0 20 -14.5 39.5t-53.5 35t-113 21.5l79 188h80v-33l-52 -119q73 -10 113.5 -33t56 -53t15.5 -61q0 -44 -22.5 -80.5t-72.5 -58t-133 -21.5z" />
    <glyph glyph-name="Tcaron" unicode="&#x164;" horiz-adv-x="1279" 
d="M570 0v231v242v457v245.5v231.5l57 -108h-164h-217.5h-180.5v127h1149v-127h-179.5h-218.5h-164l58 108v-231.5v-245.5v-457v-242v-231h-140zM568 1579q-69 89 -138.5 178.5t-139.5 178.5l110 2q67 -77 131.5 -151.5t130.5 -152.5h-41q67 77 131.5 151t129.5 149h111
q-69 -88 -138 -177t-140 -178h-147z" />
    <glyph glyph-name="tcaron" unicode="&#x165;" horiz-adv-x="815" 
d="M547 -21q-96 0 -162 35t-100 105t-34 176v183.5v174.5v159v137v185v178l128 31v-134v-122.5v-137.5v-629q0 -113 48 -169t148 -56q39 0 84 13.5t79 40.5l14 -118q-20 -15 -51.5 -26.5t-71 -18.5t-82.5 -7zM52 885v106h688v-106h-205h-202h-50h-231zM529 1087
q23 51 37.5 107t21 108t6.5 89v75.5v74.5l59 5q30 -2 45 -23.5t15 -61.5q0 -47 -9 -98.5t-24.5 -102t-35 -94.5t-40.5 -76z" />
    <glyph glyph-name="Tbar" unicode="&#x166;" horiz-adv-x="1279" 
d="M250 622v106h181h162h95h163h180v-106h-180h-163h-95h-162h-181zM570 0v231v242v457v245.5v231.5l57 -108h-164h-217.5h-180.5v127h1149v-127h-179.5h-218.5h-164l58 108v-231.5v-245.5v-457v-242v-231h-140z" />
    <glyph glyph-name="tbar" unicode="&#x167;" horiz-adv-x="813" 
d="M71 513v92h150h131h81h131h149v-92h-149h-131h-81h-131h-150zM547 -21q-96 0 -162 35t-100 105t-34 176v183.5v174.5v159v137v185v178l128 31v-134v-122.5v-137.5v-637q0 -112 48 -168t148 -56q39 0 84 13.5t79 40.5l14 -111q-20 -15 -51.5 -26.5t-71 -18.5t-82.5 -7z
M52 885v106h688v-106h-205h-202h-50h-231z" />
    <glyph glyph-name="Utilde" unicode="&#x168;" horiz-adv-x="1462" 
d="M732 -21q-195 0 -317.5 68.5t-180.5 191.5t-58 286v110v148.5v166.5v244.5v231.5h141v-231.5v-244.5v-407q0 -137 40.5 -235t131.5 -150.5t242 -52.5q153 0 243 52.5t130 150.5t40 237v405v244.5v231.5h140v-231.5v-244.5v-166.5v-149v-109.5q0 -163 -58 -286
t-180 -191.5t-314 -68.5zM899 1577q-59 0 -101.5 26.5t-77 62t-67 62t-70.5 26.5q-60 0 -84 -37t-25 -111h-87q0 123 49 188t134 65q58 0 100.5 -26.5t76.5 -62t66.5 -62t70.5 -26.5q60 0 83.5 37.5t24.5 110.5h87q0 -122 -48 -187.5t-132 -65.5z" />
    <glyph glyph-name="utilde" unicode="&#x169;" horiz-adv-x="1111" 
d="M463 -21q-161 0 -232.5 92t-71.5 264v113.5v94.5v160v144v144l128 5v-217v-226v-192q0 -128 46.5 -193.5t167.5 -65.5q69 0 127.5 29.5t106.5 79t86 109.5v233v223v215h129v-216v-232v-104v-225v-214h-115l-3 180h-16q-31 -44 -81.5 -90.5t-118.5 -78.5t-153 -32z
M721 1158q-59 0 -101.5 27t-77 62t-67 62t-70.5 27q-60 0 -84 -37.5t-25 -111.5h-87q0 123 49 188t134 65q58 0 100.5 -26.5t76.5 -61.5t66.5 -62t70.5 -27q60 0 83.5 37.5t24.5 111.5h87q0 -123 -48 -188.5t-132 -65.5z" />
    <glyph glyph-name="Umacron" unicode="&#x16a;" horiz-adv-x="1462" 
d="M732 -21q-195 0 -317.5 68.5t-180.5 191.5t-58 286v110v148.5v166.5v244.5v231.5h141v-231.5v-244.5v-407q0 -137 40.5 -235t131.5 -150.5t242 -52.5q153 0 243 52.5t130 150.5t40 237v405v244.5v231.5h140v-231.5v-244.5v-166.5v-149v-109.5q0 -163 -58 -286
t-180 -191.5t-314 -68.5zM427 1688v103h146h160h160.5h145.5v-103h-145.5h-160.5h-160h-146z" />
    <glyph glyph-name="umacron" unicode="&#x16b;" horiz-adv-x="1111" 
d="M463 -21q-161 0 -232.5 92t-71.5 264v113.5v94.5v160v144v144l128 5v-217v-226v-192q0 -128 46.5 -193.5t167.5 -65.5q69 0 127.5 29.5t106.5 79t86 109.5v233v223v215h129v-216v-232v-104v-225v-214h-115l-3 180h-16q-31 -44 -81.5 -90.5t-118.5 -78.5t-153 -32z
M249 1269v103h146h160h160.5h145.5v-103h-145.5h-160.5h-160h-146z" />
    <glyph glyph-name="Ubreve" unicode="&#x16c;" horiz-adv-x="1462" 
d="M732 -21q-195 0 -317.5 68.5t-180.5 191.5t-58 286v110v148.5v166.5v244.5v231.5h141v-231.5v-244.5v-407q0 -137 40.5 -235t131.5 -150.5t242 -52.5q153 0 243 52.5t130 150.5t40 237v405v244.5v231.5h140v-231.5v-244.5v-166.5v-149v-109.5q0 -163 -58 -286
t-180 -191.5t-314 -68.5zM729 1572q-149 0 -228.5 93t-79.5 271l100 4q0 -140 54.5 -203t153.5 -63q102 0 156.5 62t54.5 200h100q0 -119 -35.5 -200t-104.5 -122.5t-171 -41.5z" />
    <glyph glyph-name="ubreve" unicode="&#x16d;" horiz-adv-x="1111" 
d="M463 -21q-161 0 -232.5 92t-71.5 264v113.5v94.5v160v144v144l128 5v-217v-226v-192q0 -128 46.5 -193.5t167.5 -65.5q69 0 127.5 29.5t106.5 79t86 109.5v233v223v215h129v-216v-232v-104v-225v-214h-115l-3 180h-16q-31 -44 -81.5 -90.5t-118.5 -78.5t-153 -32z
M551 1153q-149 0 -228.5 93.5t-79.5 270.5l100 4q0 -140 54.5 -203t153.5 -63q102 0 156.5 62t54.5 200h100q0 -118 -35.5 -199.5t-104.5 -123t-171 -41.5z" />
    <glyph glyph-name="Uring" unicode="&#x16e;" horiz-adv-x="1462" 
d="M732 -21q-195 0 -317.5 68.5t-180.5 191.5t-58 286v110v148.5v166.5v244.5v231.5h141v-231.5v-244.5v-407q0 -137 40.5 -235t131.5 -150.5t242 -52.5q153 0 243 52.5t130 150.5t40 237v405v244.5v231.5h140v-231.5v-244.5v-166.5v-149v-109.5q0 -163 -58 -286
t-180 -191.5t-314 -68.5zM731 1567q-64 0 -112.5 23.5t-76 68.5t-27.5 109q0 90 60.5 145t157.5 55q64 0 113 -25.5t76 -70.5t27 -104q0 -64 -27.5 -109t-76.5 -68.5t-114 -23.5zM731 1643q58 0 96 31t38 94q0 57 -37.5 90.5t-94.5 33.5q-58 0 -96 -33t-38 -91q0 -63 38 -94
t94 -31z" />
    <glyph glyph-name="uring" unicode="&#x16f;" horiz-adv-x="1111" 
d="M463 -21q-161 0 -232.5 92t-71.5 264v113.5v94.5v160v144v144l128 5v-217v-226v-192q0 -128 46.5 -193.5t167.5 -65.5q69 0 127.5 29.5t106.5 79t86 109.5v233v223v215h129v-216v-232v-104v-225v-214h-115l-3 180h-16q-31 -44 -81.5 -90.5t-118.5 -78.5t-153 -32z
M553 1132q-64 0 -112.5 23.5t-76 68.5t-27.5 109q0 90 60.5 145t157.5 55q64 0 113 -25.5t76 -70.5t27 -104q0 -64 -27.5 -109t-76.5 -68.5t-114 -23.5zM553 1208q58 0 96 31t38 94q0 57 -37.5 90.5t-94.5 33.5q-58 0 -96 -33t-38 -91q0 -63 38 -94t94 -31z" />
    <glyph glyph-name="Uhungarumlaut" unicode="&#x170;" horiz-adv-x="1462" 
d="M732 -21q-195 0 -317.5 68.5t-180.5 191.5t-58 286v110v148.5v166.5v244.5v231.5h141v-231.5v-244.5v-407q0 -137 40.5 -235t131.5 -150.5t242 -52.5q153 0 243 52.5t130 150.5t40 237v405v244.5v231.5h140v-231.5v-244.5v-166.5v-149v-109.5q0 -163 -58 -286
t-180 -191.5t-314 -68.5zM812 1579q69 89 138.5 179t137.5 179l146 2q-53 -61 -105.5 -121t-104.5 -119l-104 -118zM461 1579q59 91 117 179.5t116 178.5l139 2q-45 -61 -90.5 -121t-90 -119t-90.5 -118z" />
    <glyph glyph-name="uhungarumlaut" unicode="&#x171;" horiz-adv-x="1111" 
d="M463 -21q-161 0 -232.5 92t-71.5 264v113.5v94.5v160v144v144l128 5v-217v-226v-192q0 -128 46.5 -193.5t167.5 -65.5q69 0 127.5 29.5t106.5 79t86 109.5v233v223v215h129v-216v-232v-104v-225v-214h-115l-3 180h-16q-31 -44 -81.5 -90.5t-118.5 -78.5t-153 -32z
M634 1160q70 99 139 198t137 195l146 4q-53 -67 -105.5 -133t-104.5 -131.5t-104 -129.5zM283 1160q60 100 118 197.5t115 195.5l139 4q-45 -67 -90.5 -133t-90 -131.5t-90.5 -129.5z" />
    <glyph glyph-name="Uogonek" unicode="&#x172;" horiz-adv-x="1462" 
d="M732 -21q-195 0 -317.5 68.5t-180.5 191.5t-58 286v110v148.5v166.5v244.5v231.5h141v-231.5v-244.5v-407q0 -137 40.5 -235t131.5 -150.5t242 -52.5q153 0 243 52.5t130 150.5t40 237v405v244.5v231.5h140v-231.5v-244.5v-166.5v-149v-109.5q0 -163 -58 -286
t-180 -191.5t-314 -68.5zM807 -410q-65 0 -110.5 19.5t-69.5 55t-24 82.5q0 48 23 92.5t69 87.5t117 84v30l68 5l32 -46q-83 -42 -142.5 -103.5t-59.5 -122.5q0 -46 30.5 -68t80.5 -22q35 0 60 5t39 10v-94q-22 -6 -52.5 -10.5t-60.5 -4.5z" />
    <glyph glyph-name="uogonek" unicode="&#x173;" horiz-adv-x="1111" 
d="M463 -21q-161 0 -232.5 92t-71.5 264v113.5v94.5v160v144v144l128 5v-217v-226v-192q0 -128 46.5 -193.5t167.5 -65.5q69 0 127.5 29.5t106.5 79t86 109.5v233v223v215h129v-216v-232v-104v-225v-214h-115l-3 180h-16q-31 -44 -81.5 -90.5t-118.5 -78.5t-153 -32z
M845 -410q-65 0 -110.5 19.5t-69.5 55t-24 82.5q0 48 23 92.5t69 87.5t117 84v30l68 5l32 -46q-83 -42 -142.5 -103.5t-59.5 -122.5q0 -46 30.5 -68t80.5 -22q35 0 60 5t39 10v-94q-22 -6 -52.5 -10.5t-60.5 -4.5z" />
    <glyph glyph-name="Wcircumflex" unicode="&#x174;" horiz-adv-x="2026" 
d="M477 0q-31 106 -66.5 227t-66.5 224l-131 446q-34 119 -76.5 261.5t-78.5 267.5h154q45 -159 95 -334.5t94 -335.5l167 -591h16l162 599q27 102 58 216t62 228.5t59 217.5h171q44 -159 91.5 -331.5t92.5 -333.5l164 -596h16l169 600q44 155 93.5 330.5t92.5 330.5h154
q-37 -127 -78.5 -266.5t-76.5 -259.5l-133 -449q-32 -107 -67 -227.5t-66 -223.5h-187q-43 154 -91 325.5t-91 321.5l-164 585h-15l-162 -585q-42 -150 -90 -323t-90 -324h-181zM1249 1577q-66 77 -131 151.5t-131 152.5h41q-67 -77 -131 -150.5t-130 -149.5h-111
q69 88 138.5 177t139.5 179h147q69 -90 138.5 -179.5t139.5 -178.5z" />
    <glyph glyph-name="wcircumflex" unicode="&#x175;" horiz-adv-x="1585" 
d="M384 0q-31 93 -62 187t-63 190l-59 176q-36 110 -72 218.5t-73 219.5l136 5q40 -126 84 -266.5t84 -268.5l101 -321h13l99 328q39 131 78.5 260.5t78.5 262.5h129q39 -126 79 -258t80 -261l102 -332h13l103 336q39 127 81 263.5t77 251.5h137q-36 -110 -71.5 -219
t-71.5 -219l-57 -174q-31 -96 -62 -191.5t-61 -187.5h-158q-38 122 -78.5 252.5t-77.5 248.5l-96 306h-15l-95 -309q-36 -117 -75.5 -246.5t-77.5 -251.5h-150zM1034 1158q-66 84 -130 166t-131 166h39q-66 -84 -130 -164.5t-130 -163.5h-111q69 98 139 196t139 195h147
q69 -97 138.5 -195.5t139.5 -196.5z" />
    <glyph glyph-name="Ycircumflex" unicode="&#x176;" horiz-adv-x="1288" 
d="M579 572l-316 518q-49 82 -96 159t-108 177h162q59 -100 101.5 -171.5t80.5 -135t84 -141.5l151 -252h16l146 244q48 81 88 147.5t83.5 138.5t102.5 170h159q-53 -86 -104 -170t-100 -165l-317 -519h-133zM575 0v231v242v216h141v-216v-242v-231h-141zM885 1577
q-66 77 -131 151.5t-131 152.5h41q-67 -77 -131 -150.5t-130 -149.5h-111q69 88 138.5 177t139.5 179h147q69 -90 138.5 -179.5t139.5 -178.5z" />
    <glyph glyph-name="ycircumflex" unicode="&#x177;" horiz-adv-x="1018" 
d="M279 -389q39 97 79 195.5t80 194.5v-38q-38 103 -77 207.5t-76 203.5l-67 180q-39 107 -81 219t-82 218l139 5q46 -134 91 -262t91 -262l116 -332h15l126 334q50 130 98 258.5t97 258.5h135q-32 -80 -61.5 -154.5t-65 -164.5t-85.5 -214l-111 -279
q-75 -190 -127.5 -322.5t-96.5 -240.5zM749 1158q-66 84 -130 166t-131 166h39q-66 -84 -130 -164.5t-130 -163.5h-111q69 98 139 196t139 195h147q69 -97 138.5 -195.5t139.5 -196.5z" />
    <glyph glyph-name="Ydieresis" unicode="&#x178;" horiz-adv-x="1288" 
d="M579 572l-316 518q-49 82 -96 159t-108 177h162q59 -100 101.5 -171.5t80.5 -135t84 -141.5l151 -252h16l146 244q48 81 88 147.5t83.5 138.5t102.5 170h159q-53 -86 -104 -170t-100 -165l-317 -519h-133zM575 0v231v242v216h141v-216v-242v-231h-141zM852 1643
q-42 0 -68.5 26t-26.5 78t27 78.5t70 26.5q44 0 69.5 -27.5t25.5 -77.5q0 -52 -26 -78t-71 -26zM436 1643q-42 0 -68.5 26t-26.5 78t27 78.5t70 26.5q44 0 70 -27.5t26 -77.5q0 -52 -26 -78t-72 -26z" />
    <glyph glyph-name="Zacute" unicode="&#x179;" horiz-adv-x="1334" 
d="M101 0v85q58 77 130.5 171.5t146.5 191t135 176.5l559 734l44 -55h-421h-276h-303v123h1101v-105q-96 -126 -189 -247.5t-186 -243.5l-594 -775l-27 68h384h204.5h222h193.5v-123h-1124zM532 1579q71 91 140 180l138 178l151 2q-54 -61 -107 -121t-105.5 -119
t-105.5 -118z" />
    <glyph glyph-name="zacute" unicode="&#x17a;" horiz-adv-x="983" 
d="M81 0v70q87 115 171.5 225t157.5 207l332 435l20 -53h-226h-132.5h-160.5h-160v107h793v-81q-39 -52 -92.5 -121.5t-110 -143t-107.5 -140.5l-331 -433l-16 35h250h133h157h150v-107h-828zM352 1160l140 198t138 195l151 4q-54 -67 -107.5 -133t-105.5 -131t-105 -130z
" />
    <glyph glyph-name="Zdotaccent" unicode="&#x17b;" horiz-adv-x="1334" 
d="M101 0v85q58 77 130.5 171.5t146.5 191t135 176.5l559 734l44 -55h-421h-276h-303v123h1101v-105q-96 -126 -189 -247.5t-186 -243.5l-594 -775l-27 68h384h204.5h222h193.5v-123h-1124zM664 1643q-46 0 -75.5 27t-29.5 82t29.5 82.5t77.5 27.5t77 -28.5t29 -81.5
q0 -55 -29 -82t-79 -27z" />
    <glyph glyph-name="zdotaccent" unicode="&#x17c;" horiz-adv-x="983" 
d="M81 0v70q87 115 171.5 225t157.5 207l332 435l20 -53h-226h-132.5h-160.5h-160v107h793v-81q-39 -52 -92.5 -121.5t-110 -143t-107.5 -140.5l-331 -433l-16 35h250h133h157h150v-107h-828zM484 1240q-46 0 -75.5 27t-29.5 83q0 55 29.5 82.5t77.5 27.5t77 -28.5t29 -81.5
q0 -56 -29 -83t-79 -27z" />
    <glyph glyph-name="Zcaron" unicode="&#x17d;" horiz-adv-x="1334" 
d="M101 0v85q58 77 130.5 171.5t146.5 191t135 176.5l559 734l44 -55h-421h-276h-303v123h1101v-105q-96 -126 -189 -247.5t-186 -243.5l-594 -775l-27 68h384h204.5h222h193.5v-123h-1124zM595 1579q-69 89 -138.5 178.5t-139.5 178.5l110 2q67 -77 131.5 -151.5
t130.5 -152.5h-41q67 77 131.5 151t129.5 149h111q-69 -88 -138 -177t-140 -178h-147z" />
    <glyph glyph-name="zcaron" unicode="&#x17e;" horiz-adv-x="983" 
d="M81 0v70q87 115 171.5 225t157.5 207l332 435l20 -53h-226h-132.5h-160.5h-160v107h793v-81q-39 -52 -92.5 -121.5t-110 -143t-107.5 -140.5l-331 -433l-16 35h250h133h157h150v-107h-828zM415 1148q-69 99 -138.5 197t-139.5 196l110 2q66 -83 130.5 -165.5
t130.5 -166.5h-39q67 84 131 165t129 163h111q-69 -96 -139 -194t-139 -197h-147z" />
    <glyph glyph-name="uni018F" unicode="&#x18f;" horiz-adv-x="1579" 
d="M797 -20q-175 0 -304.5 57.5t-215 159.5t-128 234t-42.5 281l2 69h1260v-117h-1147l25 34q0 -116 30.5 -222.5t96 -190.5t170 -132t249.5 -48q146 0 248 49t165.5 134t93 193t30.5 227v36q-1 138 -41.5 246t-119 183t-193.5 114.5t-265 39.5q-61 0 -123.5 -7.5
t-124.5 -23t-122 -39t-116 -54.5l-17 131q52 27 114 49t129.5 37t136 23.5t135.5 8.5q176 0 315 -50t235.5 -145t147.5 -231.5t51 -310.5q0 -213 -79 -379t-229.5 -261t-366.5 -95z" />
    <glyph glyph-name="florin" unicode="&#x192;" horiz-adv-x="1046" 
d="M167 -247q-34 0 -65 3t-58 8.5t-46 13.5l21 115q32 -10 68.5 -17t76.5 -7q100 0 149 61.5t59 186.5q20 230 39.5 459t39.5 459q9 102 42.5 171.5t86.5 111t118.5 60t137.5 18.5q33 0 64.5 -3t58.5 -9t45 -13l-20 -116q-32 12 -68 18t-76 6q-127 0 -189 -63.5t-74 -190.5
q-6 -65 -11.5 -134.5t-11.5 -136.5l-1 -29q-13 -154 -26 -305.5t-26 -305.5q-9 -103 -37.5 -172.5t-73.5 -110.5t-101.5 -59.5t-121.5 -18.5zM135 660v99h177.5h160.5h163h160.5h176.5v-99h-176.5h-160.5h-163h-160.5h-177.5z" />
    <glyph glyph-name="Ohorn" unicode="&#x1a0;" horiz-adv-x="1663" 
d="M825 -21q-179 0 -313.5 58.5t-224.5 160.5t-135 235t-45 282q0 207 84.5 374t244 264.5t383.5 97.5q171 0 303 -56.5t222.5 -158t137 -234.5t46.5 -287q0 -210 -84.5 -376.5t-242 -263t-376.5 -96.5zM820 105q147 0 253 50t174.5 136.5t101.5 195.5t33 228
q0 128 -35.5 239t-106 194.5t-175.5 130.5t-245 47q-144 0 -250.5 -49.5t-176.5 -135.5t-105 -195.5t-35 -230.5t34 -231t103 -195.5t176 -134.5t254 -49zM1307 1162l-32 84q98 0 149 26.5t68.5 70t17.5 97.5q0 48 -12 107.5t-28 109.5l103 6q12 -32 23 -67.5t17.5 -75
t6.5 -80.5q0 -87 -36 -149t-106 -95.5t-171 -33.5z" />
    <glyph glyph-name="ohorn" unicode="&#x1a1;" horiz-adv-x="1254" 
d="M601 -21q-119 0 -210.5 42.5t-154.5 115.5t-95.5 167.5t-32.5 197.5q0 148 60.5 263.5t171 181.5t259.5 66q115 0 205 -38.5t153.5 -108t96 -162.5t32.5 -202q0 -147 -59 -265.5t-168.5 -188t-257.5 -69.5zM600 95q119 0 197.5 58.5t117.5 151t39 197.5q0 118 -43 207
t-122.5 138.5t-188.5 49.5q-117 0 -197.5 -52.5t-121.5 -142.5t-41 -200q0 -105 40 -197.5t120 -151t200 -58.5zM941 727l-32 84q98 0 149 26.5t68.5 70t17.5 97.5q0 48 -12 107.5t-28 109.5l103 6q12 -32 23 -67.5t17.5 -75t6.5 -80.5q0 -87 -36 -149t-106 -95.5
t-171 -33.5z" />
    <glyph glyph-name="Uhorn" unicode="&#x1af;" horiz-adv-x="1573" 
d="M732 -21q-195 0 -317.5 68.5t-180.5 191.5t-58 286v110v148.5v166.5v244.5v231.5h141v-231.5v-244.5v-407q0 -137 40.5 -235t131.5 -150.5t242 -52.5q153 0 243 52.5t130 150.5t40 237v405v244.5v231.5h140v-231.5v-244.5v-166.5v-149v-109.5q0 -163 -58 -286
t-180 -191.5t-314 -68.5zM1260 1162l-32 84q98 0 149 26.5t68.5 70t17.5 97.5q0 48 -12 107.5t-28 109.5l103 6q12 -32 23 -67.5t17.5 -75t6.5 -80.5q0 -87 -36 -149t-106 -95.5t-171 -33.5z" />
    <glyph glyph-name="uhorn" unicode="&#x1b0;" horiz-adv-x="1242" 
d="M463 -21q-161 0 -232.5 92t-71.5 264v113.5v94.5v160v144v144l128 5v-217v-226v-192q0 -128 46.5 -193.5t167.5 -65.5q69 0 127.5 29.5t106.5 79t86 109.5v233v223v215h129v-216v-232v-104v-225v-214h-115l-3 180h-16q-31 -44 -81.5 -90.5t-118.5 -78.5t-153 -32z
M928 727l-32 84q98 0 149 26.5t68.5 70t17.5 97.5q0 48 -12 107.5t-28 109.5l103 6q12 -32 23 -67.5t17.5 -75t6.5 -80.5q0 -87 -36 -149t-106 -95.5t-171 -33.5z" />
    <glyph glyph-name="uni01C4" unicode="&#x1c4;" horiz-adv-x="2772" 
d="M197 0v231v242v477v244.5v231.5h170.5h155.5h156q166 0 294 -47.5t216 -139.5t133.5 -222.5t45.5 -297.5q0 -151 -40.5 -281.5t-127 -228.5t-227 -153.5t-342.5 -55.5h-153h-137.5h-143.5zM338 120h295q218 0 347 79t185.5 215t56.5 308q0 133 -33.5 240.5t-102.5 184.5
t-176 118t-254 41h-318v-182v-197v-431v-195v-181zM1539 0v85q58 77 130.5 171.5t146.5 191t135 176.5l559 734l44 -55h-421h-276h-303v123h1101v-105q-96 -126 -189 -247.5t-186 -243.5l-594 -775l-27 68h384h204.5h222h193.5v-123h-1124zM2033 1579q-69 89 -138.5 178.5
t-139.5 178.5l110 2q67 -77 131.5 -151.5t130.5 -152.5h-41q67 77 131.5 151t129.5 149h111q-69 -88 -138 -177t-140 -178h-147z" />
    <glyph glyph-name="uni01C5" unicode="&#x1c5;" horiz-adv-x="2458" 
d="M197 0v231v242v477v244.5v231.5h170.5h155.5h156q166 0 294 -47.5t216 -139.5t133.5 -222.5t45.5 -297.5q0 -151 -40.5 -281.5t-127 -228.5t-227 -153.5t-342.5 -55.5h-153h-137.5h-143.5zM338 120h295q218 0 347 79t185.5 215t56.5 308q0 133 -33.5 240.5t-102.5 184.5
t-176 118t-254 41h-318v-182v-197v-431v-195v-181zM1556 0v70q87 115 171.5 225t157.5 207l332 435l20 -53h-226h-132.5h-160.5h-160v107h793v-81q-39 -52 -92.5 -121.5t-110 -143t-107.5 -140.5l-331 -433l-16 35h250h133h157h150v-107h-828zM1890 1148q-69 99 -138.5 197
t-139.5 196l110 2q66 -83 130.5 -165.5t130.5 -166.5h-39q67 84 131 165t129 163h111q-69 -96 -139 -194t-139 -197h-147z" />
    <glyph glyph-name="uni01C6" unicode="&#x1c6;" horiz-adv-x="2135" 
d="M539 -21q-143 0 -239 72t-143.5 190.5t-47.5 257.5q0 147 51 263.5t148.5 183.5t234.5 67q70 0 130 -19t105.5 -50t74.5 -66h16v110v245v230l129 19v-242.5v-251.5v-549v-225v-214h-114l-6 137h-14q-41 -51 -90 -86t-107.5 -53.5t-127.5 -18.5zM572 98q67 0 122 21.5
t98 60.5t77 94v468q-34 50 -80.5 83.5t-101 50.5t-112.5 17q-114 0 -187.5 -53.5t-110 -143t-36.5 -198.5q0 -104 34.5 -195t107.5 -148t189 -57zM1233 0v70q87 115 171.5 225t157.5 207l332 435l20 -53h-226h-132.5h-160.5h-160v107h793v-81q-39 -52 -92.5 -121.5
t-110 -143t-107.5 -140.5l-331 -433l-16 35h250h133h157h150v-107h-828zM1567 1148q-69 99 -138.5 197t-139.5 196l110 2q66 -83 130.5 -165.5t130.5 -166.5h-39q67 84 131 165t129 163h111q-69 -96 -139 -194t-139 -197h-147z" />
    <glyph glyph-name="uni01C7" unicode="&#x1c7;" horiz-adv-x="1707" 
d="M197 0v231v242v477v244.5v231.5h141v-231.5v-244.5v-456v-242v-231l-56 106h257h207h166.5h156.5v-127h-872zM1177 -317q59 63 101.5 127t65.5 140.5t24 178.5v393v428v244.5v231.5h140v-231.5v-244.5v-377v-235.5v-223.5q0 -80 -14.5 -145.5t-40 -117t-57.5 -93
t-67 -75.5h-152z" />
    <glyph glyph-name="uni01C8" unicode="&#x1c8;" horiz-adv-x="1637" 
d="M197 0v231v242v477v244.5v231.5h141v-231.5v-244.5v-456v-242v-231l-56 106h257h207h166.5h156.5v-127h-872zM1158 -389q59 63 96.5 126t55 139.5t17.5 180.5v382v100v161v146v145l128 4v-145.5v-147v-163.5v-208.5v-158.5v-135q0 -76 -10.5 -138.5t-30.5 -114.5
t-48 -93.5t-62 -74.5zM1387 1240q-46 0 -75.5 27t-29.5 83q0 55 29.5 82.5t77.5 27.5t77 -28.5t29 -81.5q0 -56 -29 -83t-79 -27z" />
    <glyph glyph-name="uni01C9" unicode="&#x1c9;" horiz-adv-x="996" 
d="M185 0v214v225v549v245v230l129 19v-242.5v-251.5v-549v-225v-214h-129zM517 -389q59 63 96.5 126t55 139.5t17.5 180.5v382v100v161v146v145l128 4v-145.5v-147v-163.5v-208.5v-158.5v-135q0 -76 -10.5 -138.5t-30.5 -114.5t-48 -93.5t-62 -74.5zM745 1240
q-46 0 -75.5 27t-29.5 83q0 55 29.5 82.5t77.5 27.5t77 -28.5t29 -81.5q0 -56 -29 -83t-79 -27z" />
    <glyph glyph-name="uni01CA" unicode="&#x1ca;" horiz-adv-x="2077" 
d="M197 0v231v242v477v244.5v231.5h130q135 -189 260.5 -366t248.5 -349l330 -463h12v702v244.5v231.5h135v-231.5v-244.5v-477v-242v-231h-127q-112 158 -236.5 333t-274.5 385l-331 466h-12v-711v-242v-231h-135zM1547 -317q59 63 101.5 127t65.5 140.5t24 178.5v393v428
v244.5v231.5h140v-231.5v-244.5v-377v-235.5v-223.5q0 -80 -14.5 -145.5t-40 -117t-57.5 -93t-67 -75.5h-152z" />
    <glyph glyph-name="uni01CB" unicode="&#x1cb;" horiz-adv-x="2007" 
d="M197 0v231v242v477v244.5v231.5h130q135 -189 260.5 -366t248.5 -349l330 -463h12v702v244.5v231.5h135v-231.5v-244.5v-477v-242v-231h-127q-112 158 -236.5 333t-274.5 385l-331 466h-12v-711v-242v-231h-135zM1528 -389q59 63 96.5 126t55 139.5t17.5 180.5v382v100
v161v146v145l128 4v-145.5v-147v-163.5v-208.5v-158.5v-135q0 -76 -10.5 -138.5t-30.5 -114.5t-48 -93.5t-62 -74.5zM1757 1240q-46 0 -75.5 27t-29.5 83q0 55 29.5 82.5t77.5 27.5t77 -28.5t29 -81.5q0 -56 -29 -83t-79 -27z" />
    <glyph glyph-name="uni01CC" unicode="&#x1cc;" horiz-adv-x="1641" 
d="M185 0v214v225v100v224v228l115 8l4 -186h16q31 44 81.5 90t120 78t159.5 32q161 0 232.5 -91.5t71.5 -263.5v-113v-106v-222.5v-216.5h-129v216v218v196q0 128 -46 193.5t-167 65.5q-74 0 -134 -29.5t-108 -79t-87 -109.5v-237v-220.5v-213.5h-129zM1161 -389
q59 63 96.5 126t55 139.5t17.5 180.5v382v100v161v146v145l128 4v-145.5v-147v-163.5v-208.5v-158.5v-135q0 -76 -10.5 -138.5t-30.5 -114.5t-48 -93.5t-62 -74.5zM1390 1240q-46 0 -75.5 27t-29.5 83q0 55 29.5 82.5t77.5 27.5t77 -28.5t29 -81.5q0 -56 -29 -83t-79 -27z
" />
    <glyph glyph-name="Gcaron" unicode="&#x1e6;" horiz-adv-x="1468" 
d="M864 -20q-186 0 -327 56t-237 156t-144.5 234.5t-48.5 290.5q0 214 88.5 380t248.5 260t374 94q75 0 145.5 -10.5t132.5 -28t114 -38t89 -40.5l-15 -137q-82 45 -160 73t-152.5 41t-146.5 13q-127 0 -231.5 -41.5t-181.5 -121t-118.5 -192t-41.5 -253.5q0 -129 36.5 -240
t112 -195t193 -131t278.5 -47q55 0 111 5.5t111.5 17.5t109 31.5t103.5 46.5l17 -137q-35 -15 -85 -30.5t-110.5 -28.5t-127.5 -20.5t-137 -7.5zM1189 65v182.5v155.5v163v143h135v-143v-163v-155v-181zM726 1579q-69 89 -138.5 178.5t-139.5 178.5l110 2
q67 -77 131.5 -151.5t130.5 -152.5h-41q67 77 131.5 151t129.5 149h111q-69 -88 -138 -177t-140 -178h-147z" />
    <glyph glyph-name="gcaron" unicode="&#x1e7;" horiz-adv-x="1080" 
d="M490 -406q-110 0 -183 20.5t-116 55t-61 76.5t-18 84q0 68 33.5 113.5t78.5 72.5t80 37v13q-18 5 -42.5 21t-43.5 45.5t-19 75.5q0 37 14.5 66.5t43 51.5t70.5 38v13q-22 7 -58.5 28.5t-74 59.5t-64 94t-26.5 132q0 97 48 169.5t133.5 112.5t196.5 40q45 0 79 -5.5
t70 -10.5t88 -5h318v-101h-196.5h-193.5l38 63q94 -43 135.5 -114.5t41.5 -157.5q0 -98 -39.5 -164t-112 -107.5t-171.5 -64.5q-112 -26 -166 -49.5t-54 -69.5q0 -33 22 -51t70.5 -25.5t127.5 -7.5h44q141 0 228.5 -22t128 -69.5t40.5 -126.5q0 -82 -43.5 -144
t-116.5 -103.5t-159 -62.5t-171 -21zM498 -295q118 0 197.5 33t120 80t40.5 89q0 43 -24 70.5t-88 40.5t-185 13h-39q-71 -1 -136.5 -23t-107.5 -61.5t-42 -92.5q0 -29 13 -56t43.5 -48t81.5 -33t126 -12zM469 438q41 9 88 22.5t88.5 38.5t67.5 67.5t26 108.5
q0 80 -41.5 129t-100.5 72t-113 23q-69 0 -127 -23.5t-94 -71t-36 -121.5q0 -75 35.5 -126t91 -80.5t115.5 -38.5zM436 1148q-69 99 -138.5 197t-139.5 196l110 2q66 -83 130.5 -165.5t130.5 -166.5h-39q67 84 131 165t129 163h111q-69 -96 -139 -194t-139 -197h-147z" />
    <glyph glyph-name="uni01EA" unicode="&#x1ea;" horiz-adv-x="1635" 
d="M825 -21q-179 0 -313.5 58.5t-224.5 160.5t-135 235t-45 282q0 207 84.5 374t244 264.5t383.5 97.5q171 0 303 -56.5t222.5 -158t137 -234.5t46.5 -287q0 -210 -84.5 -376.5t-242 -263t-376.5 -96.5zM820 105q147 0 253 50t174.5 136.5t101.5 195.5t33 228
q0 128 -35.5 239t-106 194.5t-175.5 130.5t-245 47q-144 0 -250.5 -49.5t-176.5 -135.5t-105 -195.5t-35 -230.5t34 -231t103 -195.5t176 -134.5t254 -49zM896 -410q-65 0 -110.5 19.5t-69.5 55t-24 82.5q0 48 23 92.5t69 87.5t117 84v30l68 5l32 -46q-83 -42 -142.5 -103.5
t-59.5 -122.5q0 -46 30.5 -68t80.5 -22q35 0 60 5t39 10v-94q-22 -6 -52.5 -10.5t-60.5 -4.5z" />
    <glyph glyph-name="uni01EB" unicode="&#x1eb;" horiz-adv-x="1194" 
d="M601 -21q-119 0 -210.5 42.5t-154.5 115.5t-95.5 167.5t-32.5 197.5q0 148 60.5 263.5t171 181.5t259.5 66q115 0 205 -38.5t153.5 -108t96 -162.5t32.5 -202q0 -147 -59 -265.5t-168.5 -188t-257.5 -69.5zM600 95q119 0 197.5 58.5t117.5 151t39 197.5q0 118 -43 207
t-122.5 138.5t-188.5 49.5q-117 0 -197.5 -52.5t-121.5 -142.5t-41 -200q0 -105 40 -197.5t120 -151t200 -58.5zM636 -410q-65 0 -110.5 19.5t-69.5 55t-24 82.5q0 48 23 92.5t69 87.5t117 84v30l68 5l32 -46q-83 -42 -142.5 -103.5t-59.5 -122.5q0 -46 30.5 -68t80.5 -22
q35 0 60 5t39 10v-94q-22 -6 -52.5 -10.5t-60.5 -4.5z" />
    <glyph glyph-name="Aringacute" unicode="&#x1fa;" horiz-adv-x="1365" 
d="M63 0q43 116 90 242.5t90 241.5l181 489q49 131 88.5 238t79.5 215h188q40 -110 79 -216t87 -238l180 -491q43 -118 89 -242.5t87 -238.5h-146q-46 128 -94.5 263.5t-91.5 256.5l-277 774h-16l-279 -767q-45 -125 -94.5 -261.5t-96.5 -265.5h-144zM306 375l10 114h746
l8 -114h-764zM681 1567q-64 0 -112.5 23.5t-76 68.5t-27.5 109q0 90 60.5 145t157.5 55q64 0 113 -25.5t76 -70.5t27 -104q0 -64 -27.5 -109t-76.5 -68.5t-114 -23.5zM681 1643q58 0 96 31t38 94q0 57 -37.5 90.5t-94.5 33.5q-58 0 -96 -33t-38 -91q0 -63 38 -94t94 -31z
M577 1911q71 91 140 180l138 178l151 2q-54 -61 -107 -121t-105.5 -119t-105.5 -118z" />
    <glyph glyph-name="aringacute" unicode="&#x1fb;" horiz-adv-x="1035" 
d="M414 -20q-91 0 -158 34.5t-104 98t-37 150.5q0 80 29 134t76.5 88.5t103.5 54t111 29.5l324 60q4 114 -28.5 171.5t-89.5 77t-126 19.5q-34 0 -73 -4.5t-82 -14.5t-91.5 -26t-102.5 -39l-8 122q36 15 80.5 29t94.5 25t102.5 17.5t102.5 6.5q107 0 184.5 -34.5t119 -109.5
t41.5 -193v-118v-136v-135v-135.5v-151.5h-118l-5 147h-16q-31 -42 -80.5 -80.5t-113 -62.5t-136.5 -24zM446 92q57 0 115 22.5t108.5 69.5t85.5 119l1 242q-17 -9 -45 -18.5t-84 -22t-157 -31.5q-63 -11 -113.5 -35t-80.5 -65.5t-30 -104.5q0 -96 57.5 -136t142.5 -40z
M527 1132q-64 0 -112.5 23.5t-76 68.5t-27.5 109q0 90 60.5 145t157.5 55q64 0 113 -25.5t76 -70.5t27 -104q0 -64 -27.5 -109t-76.5 -68.5t-114 -23.5zM527 1208q58 0 96 31t38 94q0 57 -37.5 90.5t-94.5 33.5q-58 0 -96 -33t-38 -91q0 -63 38 -94t94 -31zM423 1492
l140 198t138 195l151 4q-54 -67 -107.5 -133t-105.5 -131t-105 -130z" />
    <glyph glyph-name="AEacute" unicode="&#x1fc;" horiz-adv-x="1927" 
d="M30 0q65 114 136 241.5t134 241.5l277 495q70 125 130.5 233t120.5 215h981v-123h-142h-160.5h-192.5h-277l41 104v-232v-244v-438v-241v-231l-39 102h288h171.5h160h151.5v-123h-870v231v242v477v242.5v219.5l69 -106h-104l-433 -779q-69 -125 -145 -261.5t-148 -265.5
h-149zM348 375l10 114h637l9 -114h-656zM1048 664v119h281h242.5h195.5v-119h-99.5h-101.5h-110.5h-127.5h-280zM873 1579q71 91 140 180l138 178l151 2q-54 -61 -107 -121t-105.5 -119t-105.5 -118z" />
    <glyph glyph-name="aeacute" unicode="&#x1fd;" horiz-adv-x="1637" 
d="M1223 -20q-169 0 -276 67.5t-158 185.5t-51 269q0 149 50.5 264.5t146 181t231.5 65.5q121 0 210 -49.5t137 -143.5t48 -229q0 -36 -1.5 -65.5t-6.5 -58.5l-114 66q2 16 2.5 31t0.5 29q0 156 -76.5 233.5t-199.5 77.5q-102 0 -171.5 -50t-105 -138t-35.5 -201v-17
q0 -185 90 -293.5t289 -108.5q49 0 101 8t103 24t98 42l7 -121q-38 -21 -88 -36.5t-109 -24t-122 -8.5zM421 92q57 0 115.5 22.5t109 69.5t85.5 119l1 242q-17 -9 -45.5 -18.5t-84.5 -22t-156 -31.5q-63 -11 -113.5 -35t-80.5 -65.5t-30 -104.5q0 -96 57 -136t142 -40z
M397 -20q-95 0 -164 34.5t-106 98t-37 150.5q0 80 29 134t76.5 88.5t104 54t111.5 29.5l323 60q5 114 -27.5 171.5t-89.5 77t-127 19.5q-34 0 -73 -4.5t-81.5 -14.5t-91 -26t-103.5 -39l-8 122q36 15 80 29t93 25t100 17.5t101 6.5q155 0 243.5 -79.5t88.5 -257.5l-28 -174
l14 -242q-47 -95 -115 -157.5t-148.5 -92.5t-164.5 -30zM780 467v97l691 4l82 -21v-80h-773zM667 1160l140 198t138 195l151 4q-54 -67 -107.5 -133t-105.5 -131t-105 -130z" />
    <glyph glyph-name="Oslashacute" unicode="&#x1fe;" horiz-adv-x="1635" 
d="M825 -21q-179 0 -313.5 58.5t-224.5 160.5t-135 235t-45 282q0 207 84.5 374t244 264.5t383.5 97.5q171 0 303 -56.5t222.5 -158t137 -234.5t46.5 -287q0 -210 -84.5 -376.5t-242 -263t-376.5 -96.5zM820 105q147 0 253 50t174.5 136.5t101.5 195.5t33 228
q0 128 -35.5 239t-106 194.5t-175.5 130.5t-245 47q-144 0 -250.5 -49.5t-176.5 -135.5t-105 -195.5t-35 -230.5t34 -231t103 -195.5t176 -134.5t254 -49zM257 -123l-77 64q104 137 196.5 257.5t199.5 261.5l394 514q110 144 205.5 268.5t195.5 255.5l80 -60
q-102 -133 -196 -256.5t-203 -265.5l-397 -519q-108 -141 -203.5 -266t-194.5 -254zM681 1579q71 91 140 180l138 178l151 2q-54 -61 -107 -121t-105.5 -119t-105.5 -118z" />
    <glyph glyph-name="oslashacute" unicode="&#x1ff;" horiz-adv-x="1194" 
d="M601 -20q-119 0 -210.5 42t-154.5 115t-95.5 167.5t-32.5 197.5q0 148 60.5 263.5t171 181.5t259.5 66q115 0 205 -38.5t153.5 -108.5t96 -162.5t32.5 -201.5q0 -147 -59.5 -265t-168.5 -187.5t-257 -69.5zM600 95q119 0 197.5 58.5t117.5 151.5t39 197q0 118 -43 207
t-122.5 138.5t-188.5 49.5q-117 0 -197.5 -52.5t-121.5 -142.5t-41 -200q0 -104 40 -197t120 -151.5t200 -58.5zM192 -123l-71 55q78 102 146 191t146 190l288 377q83 109 152 199t141 185l74 -53q-74 -97 -145 -190t-152 -198l-289 -377q-79 -104 -147.5 -193.5
t-142.5 -185.5zM460 1160l140 198t138 195l151 4q-54 -67 -107.5 -133t-105.5 -131t-105 -130z" />
    <glyph glyph-name="uni0200" unicode="&#x200;" horiz-adv-x="1365" 
d="M63 0q43 116 90 242.5t90 241.5l181 489q49 131 88.5 238t79.5 215h188q40 -110 79 -216t87 -238l180 -491q43 -118 89 -242.5t87 -238.5h-146q-46 128 -94.5 263.5t-91.5 256.5l-277 774h-16l-279 -767q-45 -125 -94.5 -261.5t-96.5 -265.5h-144zM306 375l10 114h746
l8 -114h-764zM495 1579q-51 59 -102.5 117.5t-103.5 119t-106 121.5l143 2q68 -88 137 -178l138 -180zM854 1579q-45 59 -89.5 117.5t-89.5 119t-92 121.5l137 2q58 -88 116 -177t117 -181z" />
    <glyph glyph-name="uni0201" unicode="&#x201;" horiz-adv-x="1035" 
d="M414 -20q-91 0 -158 34.5t-104 98t-37 150.5q0 80 29 134t76.5 88.5t103.5 54t111 29.5l324 60q4 114 -28.5 171.5t-89.5 77t-126 19.5q-34 0 -73 -4.5t-82 -14.5t-91.5 -26t-102.5 -39l-8 122q36 15 80.5 29t94.5 25t102.5 17.5t102.5 6.5q107 0 184.5 -34.5t119 -109.5
t41.5 -193v-118v-136v-135v-135.5v-151.5h-118l-5 147h-16q-31 -42 -80.5 -80.5t-113 -62.5t-136.5 -24zM446 92q57 0 115 22.5t108.5 69.5t85.5 119l1 242q-17 -9 -45 -18.5t-84 -22t-157 -31.5q-63 -11 -113.5 -35t-80.5 -65.5t-30 -104.5q0 -96 57.5 -136t142.5 -40z
M341 1160q-51 65 -103 130t-104 131t-105 132l143 4q68 -97 137 -196.5t138 -197.5zM700 1160q-45 65 -89.5 130t-90 131t-91.5 132l137 4q58 -97 116.5 -195.5t116.5 -198.5z" />
    <glyph glyph-name="uni0202" unicode="&#x202;" horiz-adv-x="1365" 
d="M63 0q43 116 90 242.5t90 241.5l181 489q49 131 88.5 238t79.5 215h188q40 -110 79 -216t87 -238l180 -491q43 -118 89 -242.5t87 -238.5h-146q-46 128 -94.5 263.5t-91.5 256.5l-277 774h-16l-279 -767q-45 -125 -94.5 -261.5t-96.5 -265.5h-144zM306 375l10 114h746
l8 -114h-764zM890 1580q0 141 -54 203.5t-155 62.5t-155.5 -62t-54.5 -200h-100q0 118 35 199.5t104.5 123t170.5 41.5q149 0 229 -93t80 -271z" />
    <glyph glyph-name="uni0203" unicode="&#x203;" horiz-adv-x="1035" 
d="M414 -20q-91 0 -158 34.5t-104 98t-37 150.5q0 80 29 134t76.5 88.5t103.5 54t111 29.5l324 60q4 114 -28.5 171.5t-89.5 77t-126 19.5q-34 0 -73 -4.5t-82 -14.5t-91.5 -26t-102.5 -39l-8 122q36 15 80.5 29t94.5 25t102.5 17.5t102.5 6.5q107 0 184.5 -34.5t119 -109.5
t41.5 -193v-118v-136v-135v-135.5v-151.5h-118l-5 147h-16q-31 -42 -80.5 -80.5t-113 -62.5t-136.5 -24zM446 92q57 0 115 22.5t108.5 69.5t85.5 119l1 242q-17 -9 -45 -18.5t-84 -22t-157 -31.5q-63 -11 -113.5 -35t-80.5 -65.5t-30 -104.5q0 -96 57.5 -136t142.5 -40z
M736 1161q0 141 -54 203.5t-155 62.5t-155.5 -62t-54.5 -200h-100q0 119 35 200t104.5 122.5t170.5 41.5q149 0 229 -93t80 -271z" />
    <glyph glyph-name="uni0204" unicode="&#x204;" horiz-adv-x="1185" 
d="M197 0v231v242v477v244.5v231.5h869v-123h-219h-275h-313l76 104v-232v-244v-438v-241v-231l-70 102h319h254h229v-123h-870zM305 664v119h282h241.5h195.5v-119h-200.5h-238.5h-280zM446 1579q-51 59 -102.5 117.5t-103.5 119t-106 121.5l143 2q68 -88 137 -178
l138 -180zM805 1579q-45 59 -89.5 117.5t-89.5 119t-92 121.5l137 2q58 -88 116 -177t117 -181z" />
    <glyph glyph-name="uni0205" unicode="&#x205;" horiz-adv-x="1055" 
d="M620 -20q-174 0 -287.5 67.5t-169 185.5t-55.5 269q0 149 55.5 264.5t157 181t240.5 65.5q122 0 211.5 -49.5t137.5 -143.5t48 -229q0 -36 -1.5 -65.5t-6.5 -58.5l-114 66q2 16 2.5 31t0.5 29q0 156 -76 233.5t-200 77.5q-102 0 -174.5 -50t-111 -138t-38.5 -201v-17
q0 -124 42.5 -214t129 -139t219.5 -49q49 0 101 8t103 24t98 42l7 -121q-38 -21 -88 -36.5t-109 -24t-122 -8.5zM165 467v97l703 4l82 -27v-74h-785zM368 1160q-51 65 -103 130t-104 131t-105 132l143 4q68 -97 137 -196.5t138 -197.5zM727 1160q-45 65 -89.5 130t-90 131
t-91.5 132l137 4q58 -97 116.5 -195.5t116.5 -198.5z" />
    <glyph glyph-name="uni0206" unicode="&#x206;" horiz-adv-x="1185" 
d="M197 0v231v242v477v244.5v231.5h869v-123h-219h-275h-313l76 104v-232v-244v-438v-241v-231l-70 102h319h254h229v-123h-870zM305 664v119h282h241.5h195.5v-119h-200.5h-238.5h-280zM841 1580q0 141 -54 203.5t-155 62.5t-155.5 -62t-54.5 -200h-100q0 118 35 199.5
t104.5 123t170.5 41.5q149 0 229 -93t80 -271z" />
    <glyph glyph-name="uni0207" unicode="&#x207;" horiz-adv-x="1055" 
d="M620 -20q-174 0 -287.5 67.5t-169 185.5t-55.5 269q0 149 55.5 264.5t157 181t240.5 65.5q122 0 211.5 -49.5t137.5 -143.5t48 -229q0 -36 -1.5 -65.5t-6.5 -58.5l-114 66q2 16 2.5 31t0.5 29q0 156 -76 233.5t-200 77.5q-102 0 -174.5 -50t-111 -138t-38.5 -201v-17
q0 -124 42.5 -214t129 -139t219.5 -49q49 0 101 8t103 24t98 42l7 -121q-38 -21 -88 -36.5t-109 -24t-122 -8.5zM165 467v97l703 4l82 -27v-74h-785zM763 1161q0 141 -54 203.5t-155 62.5t-155.5 -62t-54.5 -200h-100q0 119 35 200t104.5 122.5t170.5 41.5q149 0 229 -93
t80 -271z" />
    <glyph glyph-name="uni0208" unicode="&#x208;" horiz-adv-x="540" 
d="M199 0v231v242v477v244.5v231.5h142v-231.5v-244.5v-477v-242v-231h-142zM80 1579q-51 59 -102.5 117.5t-103.5 119t-106 121.5l143 2q68 -88 137 -178l138 -180zM439 1579q-45 59 -89.5 117.5t-89.5 119t-92 121.5l137 2q58 -88 116 -177t117 -181z" />
    <glyph glyph-name="uni0209" unicode="&#x209;" horiz-adv-x="502" 
d="M187 0v214v225v100v161v146v145l128 4v-145.5v-147v-163.5v-100v-225v-214h-128zM63 1160q-51 65 -103 130t-104 131t-105 132l143 4q68 -97 137 -196.5t138 -197.5zM422 1160q-45 65 -89.5 130t-90 131t-91.5 132l137 4q58 -97 116.5 -195.5t116.5 -198.5z" />
    <glyph glyph-name="uni020A" unicode="&#x20a;" horiz-adv-x="540" 
d="M199 0v231v242v477v244.5v231.5h142v-231.5v-244.5v-477v-242v-231h-142zM475 1580q0 141 -54 203.5t-155 62.5t-155.5 -62t-54.5 -200h-100q0 118 35 199.5t104.5 123t170.5 41.5q149 0 229 -93t80 -271z" />
    <glyph glyph-name="uni020B" unicode="&#x20b;" horiz-adv-x="502" 
d="M187 0v214v225v100v161v146v145l128 4v-145.5v-147v-163.5v-100v-225v-214h-128zM432 1161q0 141 -47 203.5t-136 62.5t-137 -62t-48 -200h-98q0 119 32.5 200t95.5 122.5t155 41.5q136 0 208.5 -93.5t72.5 -270.5z" />
    <glyph glyph-name="uni020C" unicode="&#x20c;" horiz-adv-x="1635" 
d="M825 -21q-179 0 -313.5 58.5t-224.5 160.5t-135 235t-45 282q0 207 84.5 374t244 264.5t383.5 97.5q171 0 303 -56.5t222.5 -158t137 -234.5t46.5 -287q0 -210 -84.5 -376.5t-242 -263t-376.5 -96.5zM820 105q147 0 253 50t174.5 136.5t101.5 195.5t33 228
q0 128 -35.5 239t-106 194.5t-175.5 130.5t-245 47q-144 0 -250.5 -49.5t-176.5 -135.5t-105 -195.5t-35 -230.5t34 -231t103 -195.5t176 -134.5t254 -49zM629 1579q-51 59 -102.5 117.5t-103.5 119t-106 121.5l143 2q68 -88 137 -178l138 -180zM988 1579
q-45 59 -89.5 117.5t-89.5 119t-92 121.5l137 2q58 -88 116 -177t117 -181z" />
    <glyph glyph-name="uni020D" unicode="&#x20d;" horiz-adv-x="1194" 
d="M601 -21q-119 0 -210.5 42.5t-154.5 115.5t-95.5 167.5t-32.5 197.5q0 148 60.5 263.5t171 181.5t259.5 66q115 0 205 -38.5t153.5 -108t96 -162.5t32.5 -202q0 -147 -59 -265.5t-168.5 -188t-257.5 -69.5zM600 95q119 0 197.5 58.5t117.5 151t39 197.5q0 118 -43 207
t-122.5 138.5t-188.5 49.5q-117 0 -197.5 -52.5t-121.5 -142.5t-41 -200q0 -105 40 -197.5t120 -151t200 -58.5zM408 1160q-51 65 -103 130t-104 131t-105 132l143 4q68 -97 137 -196.5t138 -197.5zM767 1160q-45 65 -89.5 130t-90 131t-91.5 132l137 4q58 -97 116.5 -195.5
t116.5 -198.5z" />
    <glyph glyph-name="uni020E" unicode="&#x20e;" horiz-adv-x="1635" 
d="M825 -21q-179 0 -313.5 58.5t-224.5 160.5t-135 235t-45 282q0 207 84.5 374t244 264.5t383.5 97.5q171 0 303 -56.5t222.5 -158t137 -234.5t46.5 -287q0 -210 -84.5 -376.5t-242 -263t-376.5 -96.5zM820 105q147 0 253 50t174.5 136.5t101.5 195.5t33 228
q0 128 -35.5 239t-106 194.5t-175.5 130.5t-245 47q-144 0 -250.5 -49.5t-176.5 -135.5t-105 -195.5t-35 -230.5t34 -231t103 -195.5t176 -134.5t254 -49zM1024 1580q0 141 -54 203.5t-155 62.5t-155.5 -62t-54.5 -200h-100q0 118 35 199.5t104.5 123t170.5 41.5
q149 0 229 -93t80 -271z" />
    <glyph glyph-name="uni020F" unicode="&#x20f;" horiz-adv-x="1194" 
d="M601 -21q-119 0 -210.5 42.5t-154.5 115.5t-95.5 167.5t-32.5 197.5q0 148 60.5 263.5t171 181.5t259.5 66q115 0 205 -38.5t153.5 -108t96 -162.5t32.5 -202q0 -147 -59 -265.5t-168.5 -188t-257.5 -69.5zM600 95q119 0 197.5 58.5t117.5 151t39 197.5q0 118 -43 207
t-122.5 138.5t-188.5 49.5q-117 0 -197.5 -52.5t-121.5 -142.5t-41 -200q0 -105 40 -197.5t120 -151t200 -58.5zM803 1161q0 141 -54 203.5t-155 62.5t-155.5 -62t-54.5 -200h-100q0 119 35 200t104.5 122.5t170.5 41.5q149 0 229 -93t80 -271z" />
    <glyph glyph-name="uni0210" unicode="&#x210;" horiz-adv-x="1328" 
d="M197 0v231v242v477v244.5v231.5h126h155.5h183.5q160 0 265 -38.5t157 -122t52 -218.5q0 -115 -44.5 -211t-150.5 -154t-289 -59l40 64l233 -280q54 -65 115 -138.5t119.5 -143.5t103.5 -125h-167q-76 92 -146.5 177.5t-139.5 168.5l-260 320l87 -65h-326v118h280
q137 0 226 31.5t131.5 101t42.5 183.5q0 98 -31.5 153t-82 80t-108.5 31.5t-113 6.5h-411l90 101v-233.5v-242.5v-458v-242v-231h-138zM441 1579q-51 59 -102.5 117.5t-103.5 119t-106 121.5l143 2q68 -88 137 -178l138 -180zM800 1579q-45 59 -89.5 117.5t-89.5 119
t-92 121.5l137 2q58 -88 116 -177t117 -181z" />
    <glyph glyph-name="uni0211" unicode="&#x211;" horiz-adv-x="792" 
d="M185 0v214v225v100v224v228l115 8l4 -208h14q41 94 96.5 142t112 64t103.5 16q29 0 56.5 -4t52.5 -13l-11 -132q-31 8 -57 12.5t-61 4.5q-28 0 -67 -9t-80.5 -38t-80 -87t-68.5 -156v-157v-220.5v-213.5h-129zM278 1160q-51 65 -103 130t-104 131t-105 132l143 4
q68 -97 137 -196.5t138 -197.5zM637 1160q-45 65 -89.5 130t-90 131t-91.5 132l137 4q58 -97 116.5 -195.5t116.5 -198.5z" />
    <glyph glyph-name="uni0212" unicode="&#x212;" horiz-adv-x="1328" 
d="M197 0v231v242v477v244.5v231.5h126h155.5h183.5q160 0 265 -38.5t157 -122t52 -218.5q0 -115 -44.5 -211t-150.5 -154t-289 -59l40 64l233 -280q54 -65 115 -138.5t119.5 -143.5t103.5 -125h-167q-76 92 -146.5 177.5t-139.5 168.5l-260 320l87 -65h-326v118h280
q137 0 226 31.5t131.5 101t42.5 183.5q0 98 -31.5 153t-82 80t-108.5 31.5t-113 6.5h-411l90 101v-233.5v-242.5v-458v-242v-231h-138zM836 1580q0 141 -54 203.5t-155 62.5t-155.5 -62t-54.5 -200h-100q0 118 35 199.5t104.5 123t170.5 41.5q149 0 229 -93t80 -271z" />
    <glyph glyph-name="uni0213" unicode="&#x213;" horiz-adv-x="792" 
d="M185 0v214v225v100v224v228l115 8l4 -208h14q41 94 96.5 142t112 64t103.5 16q29 0 56.5 -4t52.5 -13l-11 -132q-31 8 -57 12.5t-61 4.5q-28 0 -67 -9t-80.5 -38t-80 -87t-68.5 -156v-157v-220.5v-213.5h-129zM673 1161q0 141 -54 203.5t-155 62.5t-155.5 -62t-54.5 -200
h-100q0 119 35 200t104.5 122.5t170.5 41.5q149 0 229 -93t80 -271z" />
    <glyph glyph-name="uni0214" unicode="&#x214;" horiz-adv-x="1462" 
d="M732 -21q-195 0 -317.5 68.5t-180.5 191.5t-58 286v110v148.5v166.5v244.5v231.5h141v-231.5v-244.5v-407q0 -137 40.5 -235t131.5 -150.5t242 -52.5q153 0 243 52.5t130 150.5t40 237v405v244.5v231.5h140v-231.5v-244.5v-166.5v-149v-109.5q0 -163 -58 -286
t-180 -191.5t-314 -68.5zM545 1579q-51 59 -102.5 117.5t-103.5 119t-106 121.5l143 2q68 -88 137 -178l138 -180zM904 1579q-45 59 -89.5 117.5t-89.5 119t-92 121.5l137 2q58 -88 116 -177t117 -181z" />
    <glyph glyph-name="uni0215" unicode="&#x215;" horiz-adv-x="1111" 
d="M463 -21q-161 0 -232.5 92t-71.5 264v113.5v94.5v160v144v144l128 5v-217v-226v-192q0 -128 46.5 -193.5t167.5 -65.5q69 0 127.5 29.5t106.5 79t86 109.5v233v223v215h129v-216v-232v-104v-225v-214h-115l-3 180h-16q-31 -44 -81.5 -90.5t-118.5 -78.5t-153 -32z
M367 1160q-51 65 -103 130t-104 131t-105 132l143 4q68 -97 137 -196.5t138 -197.5zM726 1160q-45 65 -89.5 130t-90 131t-91.5 132l137 4q58 -97 116.5 -195.5t116.5 -198.5z" />
    <glyph glyph-name="uni0216" unicode="&#x216;" horiz-adv-x="1462" 
d="M732 -21q-195 0 -317.5 68.5t-180.5 191.5t-58 286v110v148.5v166.5v244.5v231.5h141v-231.5v-244.5v-407q0 -137 40.5 -235t131.5 -150.5t242 -52.5q153 0 243 52.5t130 150.5t40 237v405v244.5v231.5h140v-231.5v-244.5v-166.5v-149v-109.5q0 -163 -58 -286
t-180 -191.5t-314 -68.5zM940 1580q0 141 -54 203.5t-155 62.5t-155.5 -62t-54.5 -200h-100q0 118 35 199.5t104.5 123t170.5 41.5q149 0 229 -93t80 -271z" />
    <glyph glyph-name="uni0217" unicode="&#x217;" horiz-adv-x="1111" 
d="M463 -21q-161 0 -232.5 92t-71.5 264v113.5v94.5v160v144v144l128 5v-217v-226v-192q0 -128 46.5 -193.5t167.5 -65.5q69 0 127.5 29.5t106.5 79t86 109.5v233v223v215h129v-216v-232v-104v-225v-214h-115l-3 180h-16q-31 -44 -81.5 -90.5t-118.5 -78.5t-153 -32z
M762 1161q0 141 -54 203.5t-155 62.5t-155.5 -62t-54.5 -200h-100q0 119 35 200t104.5 122.5t170.5 41.5q149 0 229 -93t80 -271z" />
    <glyph glyph-name="uni0218" unicode="&#x218;" horiz-adv-x="1165" 
d="M601 -20q-90 0 -179.5 16t-165 41.5t-121.5 51.5l16 135q67 -36 138 -63t147 -42t158 -15q94 0 171 27t122.5 86t45.5 158q0 81 -45 133.5t-130.5 91t-206.5 77.5q-138 43 -235 93t-148 122t-51 181q0 107 52 192.5t154 136t251 50.5q63 0 124 -9.5t116.5 -25t100.5 -35
t76 -39.5l-16 -138q-60 42 -127.5 68.5t-134.5 39.5t-126 13q-85 0 -158.5 -26t-119 -81t-45.5 -142q0 -72 38 -120.5t118 -86.5t207 -79q172 -55 270.5 -110.5t140 -126.5t41.5 -173q0 -112 -50 -203t-156 -144.5t-272 -53.5zM467 -568q42 55 52.5 107.5t10.5 133.5v60.5
v59.5l68 5q46 -2 68.5 -28.5t22.5 -68.5q0 -49 -19 -99t-53.5 -93.5t-80.5 -74.5z" />
    <glyph glyph-name="uni0219" unicode="&#x219;" horiz-adv-x="903" 
d="M454 -20q-60 0 -121 9.5t-116 27t-96 39.5l12 124q46 -26 98 -45t107.5 -29.5t113.5 -10.5q60 0 110.5 15t81 53t30.5 110q0 47 -25.5 77.5t-85 54.5t-160.5 54q-76 22 -138 53t-99 83.5t-37 138.5q0 127 85.5 203t230.5 76q58 0 113 -10.5t103 -28t83 -37.5l-12 -125
q-49 31 -98.5 50t-95 27t-82.5 8q-42 0 -87 -12.5t-76.5 -47t-31.5 -100.5q0 -46 21.5 -77.5t71 -55t135.5 -48.5q96 -29 167.5 -60t110 -82t38.5 -140q0 -82 -36.5 -149t-113.5 -106t-201 -39zM328 -568q42 55 52.5 107.5t10.5 133.5v60.5v59.5l68 5q46 -2 68.5 -28.5
t22.5 -68.5q0 -49 -19 -99t-53.5 -93.5t-80.5 -74.5z" />
    <glyph glyph-name="uni021A" unicode="&#x21a;" horiz-adv-x="1279" 
d="M570 0v231v242v457v245.5v231.5l57 -108h-164h-217.5h-180.5v127h1149v-127h-179.5h-218.5h-164l58 108v-231.5v-245.5v-457v-242v-231h-140zM517 -568q42 55 52.5 107.5t10.5 133.5v60.5v59.5l68 5q46 -2 68.5 -28.5t22.5 -68.5q0 -49 -19 -99t-53.5 -93.5t-80.5 -74.5z
" />
    <glyph glyph-name="uni021B" unicode="&#x21b;" horiz-adv-x="813" 
d="M547 -21q-96 0 -162 35t-100 105t-34 176v183.5v174.5v159v137v185v178l128 31v-134v-122.5v-137.5v-629q0 -113 48 -169t148 -56q39 0 84 13.5t79 40.5l14 -118q-20 -15 -51.5 -26.5t-71 -18.5t-82.5 -7zM52 885v106h688v-106h-205h-202h-50h-231zM348 -568
q42 55 52.5 107.5t10.5 133.5v60.5v59.5l68 5q46 -2 68.5 -28.5t22.5 -68.5q0 -49 -19 -99t-53.5 -93.5t-80.5 -74.5z" />
    <glyph glyph-name="uni022A" unicode="&#x22a;" horiz-adv-x="1635" 
d="M825 -21q-179 0 -313.5 58.5t-224.5 160.5t-135 235t-45 282q0 207 84.5 374t244 264.5t383.5 97.5q171 0 303 -56.5t222.5 -158t137 -234.5t46.5 -287q0 -210 -84.5 -376.5t-242 -263t-376.5 -96.5zM820 105q147 0 253 50t174.5 136.5t101.5 195.5t33 228
q0 128 -35.5 239t-106 194.5t-175.5 130.5t-245 47q-144 0 -250.5 -49.5t-176.5 -135.5t-105 -195.5t-35 -230.5t34 -231t103 -195.5t176 -134.5t254 -49zM1023 1643q-42 0 -68.5 26t-26.5 78t27 78.5t70 26.5q44 0 69.5 -27.5t25.5 -77.5q0 -52 -26 -78t-71 -26zM607 1643
q-42 0 -68.5 26t-26.5 78t27 78.5t70 26.5q44 0 70 -27.5t26 -77.5q0 -52 -26 -78t-72 -26zM509 2043v103h146h160h160.5h145.5v-103h-145.5h-160.5h-160h-146z" />
    <glyph glyph-name="uni022B" unicode="&#x22b;" horiz-adv-x="1194" 
d="M601 -21q-119 0 -210.5 42.5t-154.5 115.5t-95.5 167.5t-32.5 197.5q0 148 60.5 263.5t171 181.5t259.5 66q115 0 205 -38.5t153.5 -108t96 -162.5t32.5 -202q0 -147 -59 -265.5t-168.5 -188t-257.5 -69.5zM600 95q119 0 197.5 58.5t117.5 151t39 197.5q0 118 -43 207
t-122.5 138.5t-188.5 49.5q-117 0 -197.5 -52.5t-121.5 -142.5t-41 -200q0 -105 40 -197.5t120 -151t200 -58.5zM802 1224q-42 0 -68.5 26.5t-26.5 77.5q0 52 27 78.5t70 26.5q44 0 69.5 -27.5t25.5 -77.5q0 -51 -26 -77.5t-71 -26.5zM386 1224q-42 0 -68.5 26.5t-26.5 77.5
q0 52 27 78.5t70 26.5q44 0 70 -27.5t26 -77.5q0 -51 -26 -77.5t-72 -26.5zM288 1641v103h146h160h160.5h145.5v-103h-145.5h-160.5h-160h-146z" />
    <glyph glyph-name="uni022C" unicode="&#x22c;" horiz-adv-x="1635" 
d="M825 -21q-179 0 -313.5 58.5t-224.5 160.5t-135 235t-45 282q0 207 84.5 374t244 264.5t383.5 97.5q171 0 303 -56.5t222.5 -158t137 -234.5t46.5 -287q0 -210 -84.5 -376.5t-242 -263t-376.5 -96.5zM820 105q147 0 253 50t174.5 136.5t101.5 195.5t33 228
q0 128 -35.5 239t-106 194.5t-175.5 130.5t-245 47q-144 0 -250.5 -49.5t-176.5 -135.5t-105 -195.5t-35 -230.5t34 -231t103 -195.5t176 -134.5t254 -49zM983 1577q-59 0 -101.5 26.5t-77 62t-67 62t-70.5 26.5q-60 0 -84 -37t-25 -111h-87q0 123 49 188t134 65
q58 0 100.5 -26.5t76.5 -62t66.5 -62t70.5 -26.5q60 0 83.5 37.5t24.5 110.5h87q0 -122 -48 -187.5t-132 -65.5zM511 2056v103h146h160h160.5h145.5v-103h-145.5h-160.5h-160h-146z" />
    <glyph glyph-name="uni022D" unicode="&#x22d;" horiz-adv-x="1194" 
d="M601 -21q-119 0 -210.5 42.5t-154.5 115.5t-95.5 167.5t-32.5 197.5q0 148 60.5 263.5t171 181.5t259.5 66q115 0 205 -38.5t153.5 -108t96 -162.5t32.5 -202q0 -147 -59 -265.5t-168.5 -188t-257.5 -69.5zM600 95q119 0 197.5 58.5t117.5 151t39 197.5q0 118 -43 207
t-122.5 138.5t-188.5 49.5q-117 0 -197.5 -52.5t-121.5 -142.5t-41 -200q0 -105 40 -197.5t120 -151t200 -58.5zM762 1158q-59 0 -101.5 27t-77 62t-67 62t-70.5 27q-60 0 -84 -37.5t-25 -111.5h-87q0 123 49 188t134 65q58 0 100.5 -26.5t76.5 -61.5t66.5 -62t70.5 -27
q60 0 83.5 37.5t24.5 111.5h87q0 -123 -48 -188.5t-132 -65.5zM290 1654v103h146h160h160.5h145.5v-103h-145.5h-160.5h-160h-146z" />
    <glyph glyph-name="uni0230" unicode="&#x230;" horiz-adv-x="1635" 
d="M825 -21q-179 0 -313.5 58.5t-224.5 160.5t-135 235t-45 282q0 207 84.5 374t244 264.5t383.5 97.5q171 0 303 -56.5t222.5 -158t137 -234.5t46.5 -287q0 -210 -84.5 -376.5t-242 -263t-376.5 -96.5zM820 105q147 0 253 50t174.5 136.5t101.5 195.5t33 228
q0 128 -35.5 239t-106 194.5t-175.5 130.5t-245 47q-144 0 -250.5 -49.5t-176.5 -135.5t-105 -195.5t-35 -230.5t34 -231t103 -195.5t176 -134.5t254 -49zM813 1643q-46 0 -75.5 27t-29.5 82t29.5 82.5t77.5 27.5t77 -28.5t29 -81.5q0 -55 -29 -82t-79 -27zM509 2047v103
h146h160h160.5h145.5v-103h-145.5h-160.5h-160h-146z" />
    <glyph glyph-name="uni0231" unicode="&#x231;" horiz-adv-x="1194" 
d="M601 -21q-119 0 -210.5 42.5t-154.5 115.5t-95.5 167.5t-32.5 197.5q0 148 60.5 263.5t171 181.5t259.5 66q115 0 205 -38.5t153.5 -108t96 -162.5t32.5 -202q0 -147 -59 -265.5t-168.5 -188t-257.5 -69.5zM600 95q119 0 197.5 58.5t117.5 151t39 197.5q0 118 -43 207
t-122.5 138.5t-188.5 49.5q-117 0 -197.5 -52.5t-121.5 -142.5t-41 -200q0 -105 40 -197.5t120 -151t200 -58.5zM593 1240q-46 0 -75.5 27t-29.5 83q0 55 29.5 82.5t77.5 27.5t77 -28.5t29 -81.5q0 -56 -29 -83t-79 -27zM289 1661v103h146h160h160.5h145.5v-103h-145.5
h-160.5h-160h-146z" />
    <glyph glyph-name="uni0232" unicode="&#x232;" horiz-adv-x="1288" 
d="M579 572l-316 518q-49 82 -96 159t-108 177h162q59 -100 101.5 -171.5t80.5 -135t84 -141.5l151 -252h16l146 244q48 81 88 147.5t83.5 138.5t102.5 170h159q-53 -86 -104 -170t-100 -165l-317 -519h-133zM575 0v231v242v216h141v-216v-242v-231h-141zM340 1688v103h146
h160h160.5h145.5v-103h-145.5h-160.5h-160h-146z" />
    <glyph glyph-name="uni0233" unicode="&#x233;" horiz-adv-x="1018" 
d="M279 -389q39 97 79 195.5t80 194.5v-38q-38 103 -77 207.5t-76 203.5l-67 180q-39 107 -81 219t-82 218l139 5q46 -134 91 -262t91 -262l116 -332h15l126 334q50 130 98 258.5t97 258.5h135q-32 -80 -61.5 -154.5t-65 -164.5t-85.5 -214l-111 -279
q-75 -190 -127.5 -322.5t-96.5 -240.5zM204 1269v103h146h160h160.5h145.5v-103h-145.5h-160.5h-160h-146z" />
    <glyph glyph-name="uni0237" unicode="&#x237;" horiz-adv-x="497" 
d="M18 -389q59 63 96.5 126t55 139.5t17.5 180.5v382v100v161v146v145l128 4v-145.5v-147v-163.5v-208.5v-158.5v-135q0 -76 -10.5 -138.5t-30.5 -114.5t-48 -93.5t-62 -74.5z" />
    <glyph glyph-name="uni0259" unicode="&#x259;" horiz-adv-x="1055" 
d="M494 -20q-122 0 -211 49t-137.5 143t-48.5 229q0 37 2 66.5t6 57.5l114 -66l-2 -30t-1 -30q0 -155 76.5 -233t199.5 -78q102 0 174.5 50.5t111 138.5t38.5 201v16q0 124 -42 214t-129 139t-220 49q-49 0 -101 -7.5t-103 -24t-98 -42.5l-6 121q38 21 88 37t108.5 24.5
t122.5 8.5q173 0 286.5 -67.5t169 -185.5t55.5 -270q0 -149 -55 -264.5t-156.5 -180.5t-241.5 -65zM187 424l-82 27v74h786v-97z" />
    <glyph glyph-name="uni02BB" unicode="&#x2bb;" horiz-adv-x="449" 
d="M203 964q-47 4 -69 36.5t-22 80.5q0 59 15 118t41.5 114t60 102t71.5 81l77 2q-40 -56 -62.5 -110.5t-32 -114t-9.5 -129.5v-87v-88z" />
    <glyph glyph-name="uni02BC" unicode="&#x2bc;" horiz-adv-x="449" 
d="M72 956q39 56 62 110.5t32.5 114t9.5 129.5v87v88l70 5q47 -4 68.5 -36t21.5 -81q0 -59 -15 -118t-41 -114t-60 -101.5t-71 -81.5z" />
    <glyph glyph-name="uni02BE" unicode="&#x2be;" horiz-adv-x="391" 
d="M65 1132v76q58 0 95.5 31t37.5 94q0 57 -37 90.5t-94 33.5v76q63 0 111.5 -25.5t76.5 -70.5t28 -104q0 -64 -28 -109t-77 -68.5t-113 -23.5z" />
    <glyph glyph-name="uni02BF" unicode="&#x2bf;" horiz-adv-x="391" 
d="M324 1132q-64 0 -112.5 23.5t-76.5 68.5t-28 109q0 90 61 145t158 55v-76q-58 0 -96 -33t-38 -91q0 -63 38 -94t94 -31v-76z" />
    <glyph glyph-name="circumflex" unicode="&#x2c6;" horiz-adv-x="1200" 
d="M839 1158q-66 84 -130 166t-131 166h39q-66 -84 -130 -164.5t-130 -163.5h-111q69 98 139 196t139 195h147q69 -97 138.5 -195.5t139.5 -196.5z" />
    <glyph glyph-name="caron" unicode="&#x2c7;" horiz-adv-x="1200" 
d="M527 1148q-69 99 -138.5 197t-139.5 196l110 2q66 -83 130.5 -165.5t130.5 -166.5h-39q67 84 131 165t129 163h111q-69 -96 -139 -194t-139 -197h-147z" />
    <glyph glyph-name="uni02C8" unicode="&#x2c8;" horiz-adv-x="394" 
d="M142 1057v253.5v247.5h110v-247.5v-253.5h-110z" />
    <glyph glyph-name="uni02C9" unicode="&#x2c9;" horiz-adv-x="758" 
d="M73 1269v103h146h160h160.5h145.5v-103h-145.5h-160.5h-160h-146z" />
    <glyph glyph-name="uni02CA" unicode="&#x2ca;" horiz-adv-x="567" 
d="M36 1160l140 198t138 195l151 4q-54 -67 -107.5 -133t-105.5 -131t-105 -130z" />
    <glyph glyph-name="uni02CB" unicode="&#x2cb;" horiz-adv-x="567" 
d="M420 1160q-53 66 -105.5 131t-105.5 130.5t-107 131.5l150 4q70 -98 139.5 -196t139.5 -198z" />
    <glyph glyph-name="uni02CC" unicode="&#x2cc;" horiz-adv-x="394" 
d="M142 -384v253.5v247.5h110v-247.5v-253.5h-110z" />
    <glyph glyph-name="breve" unicode="&#x2d8;" horiz-adv-x="1200" 
d="M596 1153q-149 0 -228.5 93.5t-79.5 270.5l100 4q0 -140 54.5 -203t153.5 -63q102 0 156.5 62t54.5 200h100q0 -118 -35.5 -199.5t-104.5 -123t-171 -41.5z" />
    <glyph glyph-name="dotaccent" unicode="&#x2d9;" horiz-adv-x="1200" 
d="M600 1240q-46 0 -75.5 27t-29.5 83q0 55 29.5 82.5t77.5 27.5t77 -28.5t29 -81.5q0 -56 -29 -83t-79 -27z" />
    <glyph glyph-name="ring" unicode="&#x2da;" horiz-adv-x="1200" 
d="M598 1132q-64 0 -112.5 23.5t-76 68.5t-27.5 109q0 90 60.5 145t157.5 55q64 0 113 -25.5t76 -70.5t27 -104q0 -64 -27.5 -109t-76.5 -68.5t-114 -23.5zM598 1208q58 0 96 31t38 94q0 57 -37.5 90.5t-94.5 33.5q-58 0 -96 -33t-38 -91q0 -63 38 -94t94 -31z" />
    <glyph glyph-name="ogonek" unicode="&#x2db;" horiz-adv-x="1200" 
d="M493 -410q-65 0 -110.5 19.5t-69.5 55t-24 82.5q0 48 23 92.5t69 87.5t117 84v30l68 5l32 -46q-83 -42 -142.5 -103.5t-59.5 -122.5q0 -46 30.5 -68t80.5 -22q35 0 60 5t39 10v-94q-22 -6 -52.5 -10.5t-60.5 -4.5z" />
    <glyph glyph-name="tilde" unicode="&#x2dc;" horiz-adv-x="1200" 
d="M766 1158q-59 0 -101.5 27t-77 62t-67 62t-70.5 27q-60 0 -84 -37.5t-25 -111.5h-87q0 123 49 188t134 65q58 0 100.5 -26.5t76.5 -61.5t66.5 -62t70.5 -27q60 0 83.5 37.5t24.5 111.5h87q0 -123 -48 -188.5t-132 -65.5z" />
    <glyph glyph-name="hungarumlaut" unicode="&#x2dd;" horiz-adv-x="1200" 
d="M679 1160q70 99 139 198t137 195l146 4q-53 -67 -105.5 -133t-104.5 -131.5t-104 -129.5zM328 1160q60 100 118 197.5t115 195.5l139 4q-45 -67 -90.5 -133t-90 -131.5t-90.5 -129.5z" />
    <glyph glyph-name="gravecomb" unicode="&#x300;" 
d="M625 1160q-53 66 -105.5 131t-105.5 130.5t-107 131.5l150 4q70 -98 139.5 -196t139.5 -198z" />
    <glyph glyph-name="acutecomb" unicode="&#x301;" 
d="M464 1160l140 198t138 195l151 4q-54 -67 -107.5 -133t-105.5 -131t-105 -130z" />
    <glyph glyph-name="uni0302" unicode="&#x302;" 
d="M839 1158q-66 84 -130 166t-131 166h39q-66 -84 -130 -164.5t-130 -163.5h-111q69 98 139 196t139 195h147q69 -97 138.5 -195.5t139.5 -196.5z" />
    <glyph glyph-name="tildecomb" unicode="&#x303;" 
d="M766 1158q-59 0 -101.5 27t-77 62t-67 62t-70.5 27q-60 0 -84 -37.5t-25 -111.5h-87q0 123 49 188t134 65q58 0 100.5 -26.5t76.5 -61.5t66.5 -62t70.5 -27q60 0 83.5 37.5t24.5 111.5h87q0 -123 -48 -188.5t-132 -65.5z" />
    <glyph glyph-name="uni0304" unicode="&#x304;" 
d="M294 1269v103h146h160h160.5h145.5v-103h-145.5h-160.5h-160h-146z" />
    <glyph glyph-name="uni0306" unicode="&#x306;" 
d="M596 1153q-149 0 -228.5 93.5t-79.5 270.5l100 4q0 -140 54.5 -203t153.5 -63q102 0 156.5 62t54.5 200h100q0 -118 -35.5 -199.5t-104.5 -123t-171 -41.5z" />
    <glyph glyph-name="uni0307" unicode="&#x307;" 
d="M209 1240q-46 0 -75.5 27t-29.5 83q0 55 29.5 82.5t77.5 27.5t77 -28.5t29 -81.5q0 -56 -29 -83t-79 -27z" />
    <glyph glyph-name="uni0308" unicode="&#x308;" 
d="M804 1224q-42 0 -68.5 26.5t-26.5 77.5q0 52 27 78.5t70 26.5q44 0 69.5 -27.5t25.5 -77.5q0 -51 -26 -77.5t-71 -26.5zM388 1224q-42 0 -68.5 26.5t-26.5 77.5q0 52 27 78.5t70 26.5q44 0 70 -27.5t26 -77.5q0 -51 -26 -77.5t-72 -26.5z" />
    <glyph glyph-name="hookabovecomb" unicode="&#x309;" 
d="M537 1161v106q73 26 124 64t51 89q0 46 -35.5 65t-83.5 19q-30 0 -59.5 -6t-60.5 -17.5t-66 -29.5l-9 96q18 9 41.5 18t51 16.5t57.5 12t61 4.5q53 0 102 -17t80.5 -53.5t31.5 -94.5q0 -59 -30 -99.5t-74.5 -67.5t-89.5 -44v-61h-92z" />
    <glyph glyph-name="uni030A" unicode="&#x30a;" 
d="M598 1132q-64 0 -112.5 23.5t-76 68.5t-27.5 109q0 90 60.5 145t157.5 55q64 0 113 -25.5t76 -70.5t27 -104q0 -64 -27.5 -109t-76.5 -68.5t-114 -23.5zM598 1208q58 0 96 31t38 94q0 57 -37.5 90.5t-94.5 33.5q-58 0 -96 -33t-38 -91q0 -63 38 -94t94 -31z" />
    <glyph glyph-name="uni030B" unicode="&#x30b;" 
d="M679 1160q70 99 139 198t137 195l146 4q-53 -67 -105.5 -133t-104.5 -131.5t-104 -129.5zM328 1160q60 100 118 197.5t115 195.5l139 4q-45 -67 -90.5 -133t-90 -131.5t-90.5 -129.5z" />
    <glyph glyph-name="uni030C" unicode="&#x30c;" 
d="M527 1148q-69 99 -138.5 197t-139.5 196l110 2q66 -83 130.5 -165.5t130.5 -166.5h-39q67 84 131 165t129 163h111q-69 -96 -139 -194t-139 -197h-147z" />
    <glyph glyph-name="uni030F" unicode="&#x30f;" 
d="M412 1160q-51 65 -103 130t-104 131t-105 132l143 4q68 -97 137 -196.5t138 -197.5zM771 1160q-45 65 -89.5 130t-90 131t-91.5 132l137 4q58 -97 116.5 -195.5t116.5 -198.5z" />
    <glyph glyph-name="uni0311" unicode="&#x311;" 
d="M807 1161q0 141 -54 203.5t-155 62.5t-155.5 -62t-54.5 -200h-100q0 119 35 200t104.5 122.5t170.5 41.5q149 0 229 -93t80 -271z" />
    <glyph glyph-name="uni0312" unicode="&#x312;" 
d="M587 1240q-46 3 -68.5 30t-22.5 68q0 48 19 98t53.5 94t80.5 74l69 2q-42 -54 -52.5 -106.5t-10.5 -134.5v-59.5v-60.5z" />
    <glyph glyph-name="uni031B" unicode="&#x31b;" 
d="M472 727l-32 84q98 0 149 26.5t68.5 70t17.5 97.5q0 48 -12 107.5t-28 109.5l103 6q12 -32 23 -67.5t17.5 -75t6.5 -80.5q0 -87 -36 -149t-106 -95.5t-171 -33.5z" />
    <glyph glyph-name="dotbelowcomb" unicode="&#x323;" 
d="M598 -422q-46 0 -75.5 27.5t-29.5 82.5t29.5 82.5t77.5 27.5t76.5 -28.5t28.5 -81.5q0 -55 -28.5 -82.5t-78.5 -27.5z" />
    <glyph glyph-name="uni0324" unicode="&#x324;" 
d="M804 -411q-42 0 -68.5 26.5t-26.5 77.5q0 52 27 78.5t70 26.5q44 0 69.5 -27.5t25.5 -77.5q0 -51 -26 -77.5t-71 -26.5zM388 -411q-42 0 -68.5 26.5t-26.5 77.5q0 52 27 78.5t70 26.5q44 0 70 -27.5t26 -77.5q0 -51 -26 -77.5t-72 -26.5z" />
    <glyph glyph-name="uni0326" unicode="&#x326;" 
d="M476 -568q42 55 52.5 107.5t10.5 133.5v60.5v59.5l68 5q46 -2 68.5 -28.5t22.5 -68.5q0 -49 -19 -99t-53.5 -93.5t-80.5 -74.5z" />
    <glyph glyph-name="uni0327" unicode="&#x327;" 
d="M551 -426q-20 0 -42 2t-42 5t-35 8v90q14 -5 43 -10t63 -5q74 0 102 24.5t28 60.5q0 20 -14.5 39.5t-53.5 35t-113 21.5l79 188h80v-33l-52 -119q73 -10 113.5 -33t56 -53t15.5 -61q0 -44 -22.5 -80.5t-72.5 -58t-133 -21.5z" />
    <glyph glyph-name="uni0328" unicode="&#x328;" 
d="M493 -410q-65 0 -110.5 19.5t-69.5 55t-24 82.5q0 48 23 92.5t69 87.5t117 84v30l68 5l32 -46q-83 -42 -142.5 -103.5t-59.5 -122.5q0 -46 30.5 -68t80.5 -22q35 0 60 5t39 10v-94q-22 -6 -52.5 -10.5t-60.5 -4.5z" />
    <glyph glyph-name="uni032E" unicode="&#x32e;" 
d="M598 -493q-149 0 -228.5 93.5t-79.5 270.5l100 4q0 -140 54.5 -203t153.5 -63q102 0 156.5 62t54.5 200h100q0 -118 -35.5 -199.5t-104.5 -123t-171 -41.5z" />
    <glyph glyph-name="uni0331" unicode="&#x331;" 
d="M294 -350v103h146h160h160.5h145.5v-103h-145.5h-160.5h-160h-146z" />
    <glyph glyph-name="uni0374" unicode="&#x374;" horiz-adv-x="477" 
d="M146 779q13 150 20.5 298t12.5 293l157 4q-24 -146 -48 -294.5t-43 -298.5z" />
    <glyph glyph-name="uni0375" unicode="&#x375;" horiz-adv-x="460" 
d="M146 -334q13 150 20.5 298t12.5 293l157 4q-24 -146 -48 -294.5t-43 -298.5z" />
    <glyph glyph-name="uni037E" unicode="&#x37e;" horiz-adv-x="457" 
d="M228 781q-35 0 -62 15t-41 41t-14 61q0 54 32 84.5t86 30.5q36 0 62.5 -14t40.5 -39.5t14 -61.5q0 -52 -31 -84.5t-87 -32.5zM80 -314q39 56 62 110.5t32.5 114t9.5 129.5v87v88l70 5q47 -4 68.5 -36t21.5 -81q0 -59 -15 -118t-41 -114t-60 -101.5t-71 -81.5z" />
    <glyph glyph-name="tonos" unicode="&#x384;" horiz-adv-x="1200" 
d="M479 1160q47 106 93.5 211.5t92.5 209.5l136 4q-38 -71 -75 -141.5t-73.5 -140.5t-73.5 -140z" />
    <glyph glyph-name="dieresistonos" unicode="&#x385;" horiz-adv-x="1200" 
d="M291 1224q-39 0 -64 26.5t-25 77.5q0 52 25.5 78.5t65.5 26.5q41 0 64.5 -27.5t23.5 -77.5q0 -51 -24 -77.5t-66 -26.5zM823 1224q-40 0 -64 26.5t-24 77.5q0 52 24.5 78.5t65.5 26.5q40 0 64 -27.5t24 -77.5q0 -51 -24.5 -77.5t-65.5 -26.5zM468 1160q24 106 47 211.5
t47 209.5l120 4q-33 -107 -65 -212l-64 -210z" />
    <glyph glyph-name="Alphatonos" unicode="&#x386;" horiz-adv-x="1365" 
d="M63 0q43 116 90 242.5t90 241.5l181 489q49 131 88.5 238t79.5 215h188q40 -110 79 -216t87 -238l180 -491q43 -118 89 -242.5t87 -238.5h-146q-46 128 -94.5 263.5t-91.5 256.5l-277 774h-16l-279 -767q-45 -125 -94.5 -261.5t-96.5 -265.5h-144zM306 375l10 114h746
l8 -114h-764zM-19 1003q33 106 66.5 212t66.5 209l127 4q-27 -71 -54 -141.5t-53.5 -140.5t-54.5 -140z" />
    <glyph glyph-name="anoteleia" unicode="&#x387;" horiz-adv-x="457" 
d="M228 779q-35 0 -62 15t-41 41t-14 61q0 54 32 84.5t86 30.5q36 0 62.5 -14t40.5 -39.5t14 -61.5q0 -52 -31 -84.5t-87 -32.5z" />
    <glyph glyph-name="Epsilontonos" unicode="&#x388;" horiz-adv-x="1305" 
d="M317 0v231v242v477v244.5v231.5h869v-123h-219h-275h-313l76 104v-232v-244v-438v-241v-231l-70 102h319h254h229v-123h-870zM425 664v119h282h241.5h195.5v-119h-200.5h-238.5h-280zM-127 1003q33 106 66.5 212t66.5 209l127 4q-27 -71 -54 -141.5t-53.5 -140.5
t-54.5 -140z" />
    <glyph glyph-name="Etatonos" unicode="&#x389;" horiz-adv-x="1599" 
d="M1261 0v231v242v477v244.5v231.5h141v-231.5v-244.5v-477v-242v-231h-141zM297 0v231v242v477v244.5v231.5h141v-231.5v-244.5v-477v-242v-231h-141zM382 661v124h941v-124h-941zM-147 1003q33 106 66.5 212t66.5 209l127 4q-27 -71 -54 -141.5t-53.5 -140.5t-54.5 -140z
" />
    <glyph glyph-name="Iotatonos" unicode="&#x38a;" horiz-adv-x="640" 
d="M299 0v231v242v477v244.5v231.5h142v-231.5v-244.5v-477v-242v-231h-142zM-145 1003q33 106 66.5 212t66.5 209l127 4q-27 -71 -54 -141.5t-53.5 -140.5t-54.5 -140z" />
    <glyph glyph-name="Omicrontonos" unicode="&#x38c;" horiz-adv-x="1695" 
d="M885 -21q-179 0 -313.5 58.5t-224.5 160.5t-135 235t-45 282q0 207 84.5 374t244 264.5t383.5 97.5q171 0 303 -56.5t222.5 -158t137 -234.5t46.5 -287q0 -210 -84.5 -376.5t-242 -263t-376.5 -96.5zM880 105q147 0 253 50t174.5 136.5t101.5 195.5t33 228
q0 128 -35.5 239t-106 194.5t-175.5 130.5t-245 47q-144 0 -250.5 -49.5t-176.5 -135.5t-105 -195.5t-35 -230.5t34 -231t103 -195.5t176 -134.5t254 -49zM-134 1003q33 106 66.5 212t66.5 209l127 4q-27 -71 -54 -141.5t-53.5 -140.5t-54.5 -140z" />
    <glyph glyph-name="Upsilontonos" unicode="&#x38e;" horiz-adv-x="1348" 
d="M639 572l-316 518q-49 82 -96 159t-108 177h162q59 -100 101.5 -171.5t80.5 -135t84 -141.5l151 -252h16l146 244q48 81 88 147.5t83.5 138.5t102.5 170h159q-53 -86 -104 -170t-100 -165l-317 -519h-133zM635 0v231v242v216h141v-216v-242v-231h-141zM-214 1003
q33 106 66.5 212t66.5 209l127 4q-27 -71 -54 -141.5t-53.5 -140.5t-54.5 -140z" />
    <glyph glyph-name="Omegatonos" unicode="&#x38f;" horiz-adv-x="1677" 
d="M132 0v123h155h191h46v15q-108 66 -184.5 162t-116.5 216.5t-40 257.5q0 200 85.5 353t240 238.5t361.5 85.5q158 0 284.5 -49.5t215.5 -140.5t136.5 -215t47.5 -272q0 -143 -42 -264t-118.5 -214.5t-179.5 -156.5v-16h46h190h155v-123h-602v120q101 42 176.5 105.5
t126 145.5t76.5 179t26 206q0 176 -64.5 303.5t-184.5 197.5t-288 70q-174 0 -295 -72.5t-184 -201t-63 -297.5q0 -146 46 -269.5t136 -216.5t223 -150v-120h-602zM-128 1003q33 106 66.5 212t66.5 209l127 4q-27 -71 -54 -141.5t-53.5 -140.5t-54.5 -140z" />
    <glyph glyph-name="iotadieresistonos" unicode="&#x390;" horiz-adv-x="600" 
d="M413 -21q-78 0 -133 32t-83.5 97t-28.5 165v141.5v124.5v234.5v217.5l128 4v-229v-201v-163v-101q0 -102 34 -154t116 -52q27 0 52.5 7t52.5 24l12 -113q-19 -11 -43 -18t-51 -11.5t-56 -4.5zM169 1160q23 106 46.5 211.5t46.5 209.5l120 4q-32 -107 -64 -212l-64 -210z
M8 1224q-39 0 -64 26.5t-25 77.5q0 52 25.5 78.5t65.5 26.5q41 0 64.5 -27.5t23.5 -77.5q0 -51 -24 -77.5t-66 -26.5zM491 1224q-40 0 -64.5 26.5t-24.5 77.5q0 52 25 78.5t66 26.5q40 0 64 -27.5t24 -77.5q0 -51 -24.5 -77.5t-65.5 -26.5z" />
    <glyph glyph-name="Alpha" unicode="&#x391;" horiz-adv-x="1365" 
d="M63 0q43 116 90 242.5t90 241.5l181 489q49 131 88.5 238t79.5 215h188q40 -110 79 -216t87 -238l180 -491q43 -118 89 -242.5t87 -238.5h-146q-46 128 -94.5 263.5t-91.5 256.5l-277 774h-16l-279 -767q-45 -125 -94.5 -261.5t-96.5 -265.5h-144zM306 375l10 114h746
l8 -114h-764z" />
    <glyph glyph-name="Beta" unicode="&#x392;" horiz-adv-x="1283" 
d="M626 0h-181h-146h-102v231v242v477v244.5v231.5h241.5h269.5q118 0 202.5 -23t139 -67t80 -106.5t25.5 -141.5q0 -91 -32 -159t-88.5 -113.5t-126.5 -68.5v-16q70 -14 135.5 -51.5t108 -107.5t42.5 -182q0 -82 -28 -153t-93 -124.5t-174.5 -83t-272.5 -29.5zM335 120h301
q150 0 241 34t131.5 96t40.5 149q0 144 -101 205.5t-281 61.5h-363v115h366q121 0 196 39.5t109.5 103.5t34.5 138q0 129 -79 186.5t-234 57.5h-362v-182.5v-196.5v-432v-194.5v-180.5z" />
    <glyph glyph-name="Gamma" unicode="&#x393;" horiz-adv-x="1124" 
d="M197 0v231v242v477v244.5v231.5h847v-127h-225.5h-284.5h-259l63 108v-231.5v-245.5v-457v-242v-231h-141z" />
    <glyph glyph-name="uni0394" unicode="&#x394;" horiz-adv-x="1421" 
d="M63 0q45 116 94.5 242.5t95.5 243.5l190 487q51 131 93 238t84 215h189q42 -108 83 -214t91 -238l190 -492q46 -118 94 -242.5t92 -239.5h-1296zM216 21l-24 102h1039l-27 -102q-49 131 -100.5 269t-97.5 260l-285 742h-15l-286 -734q-49 -129 -101.5 -267.5
t-102.5 -269.5z" />
    <glyph glyph-name="Epsilon" unicode="&#x395;" horiz-adv-x="1185" 
d="M197 0v231v242v477v244.5v231.5h869v-123h-219h-275h-313l76 104v-232v-244v-438v-241v-231l-70 102h319h254h229v-123h-870zM305 664v119h282h241.5h195.5v-119h-200.5h-238.5h-280z" />
    <glyph glyph-name="Zeta" unicode="&#x396;" horiz-adv-x="1334" 
d="M101 0v85q58 77 130.5 171.5t146.5 191t135 176.5l559 734l44 -55h-421h-276h-303v123h1101v-105q-96 -126 -189 -247.5t-186 -243.5l-594 -775l-27 68h384h204.5h222h193.5v-123h-1124z" />
    <glyph glyph-name="Eta" unicode="&#x397;" horiz-adv-x="1499" 
d="M1161 0v231v242v477v244.5v231.5h141v-231.5v-244.5v-477v-242v-231h-141zM197 0v231v242v477v244.5v231.5h141v-231.5v-244.5v-477v-242v-231h-141zM282 661v124h941v-124h-941z" />
    <glyph glyph-name="Theta" unicode="&#x398;" horiz-adv-x="1642" 
d="M828 -20q-179 0 -314.5 58t-226 160.5t-135.5 235t-45 281.5q0 155 48 289t140.5 234.5t225 157t302.5 56.5q172 0 304.5 -57t223.5 -158.5t137.5 -234.5t46.5 -287q0 -210 -84.5 -376.5t-243 -262.5t-379.5 -96zM824 105q149 0 256 49.5t175.5 135.5t101 195.5
t32.5 229.5q0 130 -35.5 241t-106 194t-176 130t-247.5 47q-146 0 -253.5 -49.5t-178 -135t-104.5 -195.5t-34 -232t33.5 -232t102.5 -195.5t177 -134t257 -48.5zM468 664v117h168.5h184.5h185h169v-117h-169h-185h-184.5h-168.5z" />
    <glyph glyph-name="Iota" unicode="&#x399;" horiz-adv-x="540" 
d="M199 0v231v242v477v244.5v231.5h142v-231.5v-244.5v-477v-242v-231h-142z" />
    <glyph glyph-name="Kappa" unicode="&#x39a;" horiz-adv-x="1327" 
d="M1080 0q-103 106 -193 198t-176 180l-293 300h-100v118h100l253 252l176 176l202 202h177q-115 -114 -224 -222t-217 -216l-274 -272l-2 61l305 -315q71 -73 152 -157t158.5 -164t136.5 -141h-181zM197 0v231v242v477v244.5v231.5h140v-231.5v-244.5v-477v-242v-231h-140
z" />
    <glyph glyph-name="Lambda" unicode="&#x39b;" horiz-adv-x="1366" 
d="M63 0q43 116 89.5 242.5t89.5 241.5l181 489q48 131 87.5 238t79.5 215h192q39 -108 78.5 -214t86.5 -238l180 -493q43 -118 88.5 -242.5t86.5 -238.5h-155q-59 166 -120.5 339t-118.5 333l-215 606h-16l-218 -604q-57 -157 -122 -336t-122 -338h-152z" />
    <glyph glyph-name="Mu" unicode="&#x39c;" horiz-adv-x="1912" 
d="M143 0q15 117 29 230.5t30 246.5l59 469q17 131 30.5 243t29.5 237h141q67 -160 128.5 -310t122.5 -298l241 -586h12l240 586l122 298t127 310h141q15 -123 28.5 -235.5t29.5 -244.5l58 -473q16 -130 29.5 -241.5t27.5 -231.5h-134q-25 201 -46.5 381.5t-40.5 337.5
l-55 450h-11l-196 -485q-72 -177 -143.5 -354t-133.5 -330h-97q-39 96 -86 210.5t-96.5 235.5t-97.5 235l-200 488h-11l-54 -450q-19 -156 -41 -337.5t-46 -381.5h-137z" />
    <glyph glyph-name="Nu" unicode="&#x39d;" horiz-adv-x="1510" 
d="M197 0v231v242v477v244.5v231.5h130q135 -189 260.5 -366t248.5 -349l330 -463h12v702v244.5v231.5h135v-231.5v-244.5v-477v-242v-231h-127q-112 158 -236.5 333t-274.5 385l-331 466h-12v-711v-242v-231h-135z" />
    <glyph glyph-name="Xi" unicode="&#x39e;" horiz-adv-x="1304" 
d="M109 0v127h259.5h283.5h284h259v-127h-1086zM228 661v124h190.5h233.5h233.5h190.5v-124h-128h-137h-159h-229.5h-194.5zM111 1299v127h1083v-127h-239.5h-302.5h-301.5h-239.5z" />
    <glyph glyph-name="Omicron" unicode="&#x39f;" horiz-adv-x="1635" 
d="M825 -21q-179 0 -313.5 58.5t-224.5 160.5t-135 235t-45 282q0 207 84.5 374t244 264.5t383.5 97.5q171 0 303 -56.5t222.5 -158t137 -234.5t46.5 -287q0 -210 -84.5 -376.5t-242 -263t-376.5 -96.5zM820 105q147 0 253 50t174.5 136.5t101.5 195.5t33 228
q0 128 -35.5 239t-106 194.5t-175.5 130.5t-245 47q-144 0 -250.5 -49.5t-176.5 -135.5t-105 -195.5t-35 -230.5t34 -231t103 -195.5t176 -134.5t254 -49z" />
    <glyph glyph-name="Pi" unicode="&#x3a0;" horiz-adv-x="1494" 
d="M197 0v231v242v477v244.5v231.5h1100v-231.5v-244.5v-477v-242v-231h-141v231v242v457v245.5v231.5l57 -104h-932l57 104v-231.5v-245.5v-457v-242v-231h-141z" />
    <glyph glyph-name="Rho" unicode="&#x3a1;" horiz-adv-x="1243" 
d="M197 0v231v242v477v244.5v231.5h204h282q160 0 264 -43t155 -131t51 -223q0 -128 -47.5 -227.5t-161.5 -157t-313 -57.5h-108.5h-112h-93.5v118h291q139 0 228 32.5t131.5 104t42.5 186.5q0 96 -32 152t-82.5 83t-109 35t-112.5 8h-407l69 101v-232v-244v-458v-242v-231
h-139z" />
    <glyph glyph-name="Sigma" unicode="&#x3a3;" horiz-adv-x="1278" 
d="M101 0v99q52 59 117 134t132.5 152.5t125.5 142.5l198 228v-70l-213 248q-82 96 -163 190t-165 192v110h1020v-123h-302h-275h-338l38 52l197 -230q86 -100 173.5 -203t170.5 -199q-89 -102 -183 -209.5t-183 -209.5l-207 -237l-26 60h341h204.5h222h192.5v-127h-1077z
" />
    <glyph glyph-name="Tau" unicode="&#x3a4;" horiz-adv-x="1279" 
d="M570 0v231v242v457v245.5v231.5l57 -108h-164h-217.5h-180.5v127h1149v-127h-179.5h-218.5h-164l58 108v-231.5v-245.5v-457v-242v-231h-140z" />
    <glyph glyph-name="Upsilon" unicode="&#x3a5;" horiz-adv-x="1288" 
d="M579 572l-316 518q-49 82 -96 159t-108 177h162q59 -100 101.5 -171.5t80.5 -135t84 -141.5l151 -252h16l146 244q48 81 88 147.5t83.5 138.5t102.5 170h159q-53 -86 -104 -170t-100 -165l-317 -519h-133zM575 0v231v242v216h141v-216v-242v-231h-141z" />
    </font>
</defs>
</svg>
