<svg width="26" height="26" viewBox="0 0 26 26" fill="none" xmlns="http://www.w3.org/2000/svg">
<path d="M3.92738 25.1251H22.0768L24.9994 22.3168H25.1244V22.3166V5.65407C25.1244 4.09625 23.749 2.8457 22.0768 2.8457H3.92738C2.25764 2.8457 0.879761 4.09619 0.879761 5.65407V22.3168C0.879761 23.8747 2.25764 25.1251 3.92738 25.1251ZM2.32371 5.65407C2.32371 4.85831 3.0334 4.19232 3.92738 4.19232H22.0768C22.9732 4.19232 23.6822 4.85836 23.6822 5.65407V22.3168C23.6822 23.1124 22.971 23.7785 22.0768 23.7785H3.92738C3.03339 23.7785 2.32371 23.1126 2.32371 22.3168V5.65407Z" fill="#211F1F" stroke="#211F1F" stroke-width="0.25"/>
<path d="M8.64987 5.27545H8.64988V5.27446V1.5472C8.64988 1.16662 8.31245 0.875 7.92644 0.875C7.54008 0.875 7.20532 1.16471 7.20532 1.5472V5.27446C7.20532 5.65414 7.53701 5.94668 7.92644 5.94668C8.31341 5.94668 8.64687 5.65442 8.64987 5.27545Z" fill="#211F1F" stroke="#211F1F" stroke-width="0.25"/>
<path d="M17.2621 5.27449C17.2621 5.65474 17.5968 5.94668 17.9855 5.94668L18.5816 5.27449H18.7066V5.27403V1.5472C18.7066 1.16754 18.3749 0.875 17.9855 0.875C17.5971 0.875 17.2621 1.16442 17.2621 1.5472V5.27449Z" fill="#211F1F" stroke="#211F1F" stroke-width="0.25"/>
<path d="M1.59844 9.28981H24.4016C24.7903 9.28981 25.125 8.99787 25.125 8.61759C25.125 8.23733 24.7904 7.94531 24.4016 7.94531H1.59844C1.20966 7.94531 0.875 8.23733 0.875 8.61759C0.875 8.99787 1.20968 9.28981 1.59844 9.28981Z" fill="#211F1F" stroke="#211F1F" stroke-width="0.25"/>
</svg>
