<svg width="20" height="19" viewBox="0 0 20 19" fill="none" xmlns="http://www.w3.org/2000/svg">
<path d="M10 1.1875C10.8288 1.1875 11.6237 1.50028 12.2097 2.05703C12.7958 2.61378 13.125 3.36889 13.125 4.15625V4.75H6.875V4.15625C6.875 3.36889 7.20424 2.61378 7.79029 2.05703C8.37634 1.50028 9.1712 1.1875 10 1.1875ZM14.375 4.75V4.15625C14.375 3.05394 13.9141 1.99679 13.0936 1.21734C12.2731 0.437889 11.1603 0 10 0C8.83968 0 7.72688 0.437889 6.90641 1.21734C6.08594 1.99679 5.625 3.05394 5.625 4.15625V4.75H1.25V16.625C1.25 17.2549 1.51339 17.859 1.98223 18.3044C2.45107 18.7498 3.08696 19 3.75 19H16.25C16.913 19 17.5489 18.7498 18.0178 18.3044C18.4866 17.859 18.75 17.2549 18.75 16.625V4.75H14.375ZM2.5 5.9375H17.5V16.625C17.5 16.9399 17.3683 17.242 17.1339 17.4647C16.8995 17.6874 16.5815 17.8125 16.25 17.8125H3.75C3.41848 17.8125 3.10054 17.6874 2.86612 17.4647C2.6317 17.242 2.5 16.9399 2.5 16.625V5.9375Z" fill="#211F1F"/>
</svg>
