<svg width="25" height="25" viewBox="0 0 25 25" fill="none" xmlns="http://www.w3.org/2000/svg">
<path d="M12.5 1.5625C13.536 1.5625 14.5296 1.97405 15.2621 2.70661C15.9947 3.43918 16.4062 4.43275 16.4062 5.46875V6.25H8.59375V5.46875C8.59375 4.43275 9.0053 3.43918 9.73786 2.70661C10.4704 1.97405 11.464 1.5625 12.5 1.5625ZM17.9688 6.25V5.46875C17.9688 4.01835 17.3926 2.62735 16.367 1.60176C15.3414 0.57617 13.9504 0 12.5 0C11.0496 0 9.6586 0.57617 8.63301 1.60176C7.60742 2.62735 7.03125 4.01835 7.03125 5.46875V6.25H1.5625V21.875C1.5625 22.7038 1.89174 23.4987 2.47779 24.0847C3.06384 24.6708 3.8587 25 4.6875 25H20.3125C21.1413 25 21.9362 24.6708 22.5222 24.0847C23.1083 23.4987 23.4375 22.7038 23.4375 21.875V6.25H17.9688ZM3.125 7.8125H21.875V21.875C21.875 22.2894 21.7104 22.6868 21.4174 22.9799C21.1243 23.2729 20.7269 23.4375 20.3125 23.4375H4.6875C4.2731 23.4375 3.87567 23.2729 3.58265 22.9799C3.28962 22.6868 3.125 22.2894 3.125 21.875V7.8125Z" fill="white"/>
</svg>
