<svg width="14" height="15" viewBox="0 0 14 15" fill="none" xmlns="http://www.w3.org/2000/svg">
<path d="M11.5929 12.3252V11.5491C11.5929 11.4806 11.5654 11.415 11.5165 11.3665C11.4676 11.3181 11.4013 11.2909 11.3321 11.2909C11.263 11.2909 11.1966 11.3181 11.1477 11.3665C11.0988 11.415 11.0714 11.4806 11.0714 11.5491L11.0891 12.9468C11.0889 12.9806 11.0957 13.0142 11.109 13.0454C11.1223 13.0766 11.1418 13.1049 11.1663 13.1284C11.1898 13.1522 11.2178 13.1711 11.2488 13.184C11.2798 13.1968 11.313 13.2034 11.3466 13.2033L12.7583 13.1858C12.8272 13.1841 12.8927 13.1559 12.9408 13.107C12.9889 13.0582 13.0159 12.9927 13.0158 12.9244C13.015 12.8565 12.9871 12.7917 12.9383 12.7439C12.8895 12.6962 12.8237 12.6694 12.7551 12.6695H11.9712L12.0082 12.6296C12.8848 11.7401 13.5039 10.6338 13.8009 9.42635C14.0979 8.21889 14.0618 6.95462 13.6965 5.76568C13.3311 4.57674 12.6499 3.50681 11.724 2.66771C10.7981 1.82862 9.66152 1.25118 8.4331 0.995758C7.16071 0.735561 5.84041 0.828773 4.61818 1.26509C4.56294 1.29396 4.52008 1.3416 4.4975 1.39927C4.47492 1.45693 4.47414 1.52073 4.4953 1.57892C4.51646 1.63711 4.55813 1.68578 4.61265 1.71596C4.66718 1.74614 4.73087 1.75581 4.79203 1.74319C6.1745 1.24865 7.68565 1.23376 9.0778 1.70095C10.4699 2.16815 11.6605 3.08973 12.4543 4.31462C13.2481 5.53951 13.598 6.99505 13.4468 8.44267C13.2956 9.89029 12.6521 11.2441 11.6219 12.2822L11.5929 12.3252Z" fill="#211F1F"/>
<path d="M9.36685 14.3337C9.40316 14.3262 9.43742 14.311 9.46732 14.2893C9.49722 14.2676 9.52206 14.2398 9.54016 14.2077C9.55826 14.1756 9.5692 14.1401 9.57225 14.1035C9.57529 14.0669 9.57036 14.0301 9.5578 13.9956C9.54524 13.961 9.52533 13.9295 9.49942 13.9033C9.47352 13.877 9.44222 13.8565 9.40763 13.8432C9.37305 13.83 9.336 13.8242 9.29897 13.8263C9.26194 13.8284 9.22581 13.8384 9.19301 13.8556C7.80947 14.3532 6.29611 14.3702 4.90154 13.9037C3.50697 13.4372 2.31412 12.515 1.51893 11.2885C0.723739 10.0621 0.373503 8.60435 0.525754 7.15477C0.678005 5.7052 1.32369 4.34999 2.35674 3.31177L2.39537 3.27193V4.04965C2.39622 4.11756 2.42406 4.18242 2.47288 4.23015C2.52169 4.27788 2.58753 4.30464 2.65614 4.30463C2.72503 4.30297 2.79053 4.2747 2.83865 4.22586C2.88678 4.17703 2.9137 4.1115 2.91368 4.04327L2.89598 2.64561C2.89522 2.57958 2.86893 2.51635 2.82252 2.46892C2.77611 2.42149 2.71311 2.39347 2.64648 2.39062L1.2348 2.40656C1.16591 2.40823 1.1004 2.4365 1.05228 2.48533C1.00416 2.53417 0.97723 2.5997 0.977251 2.66793C0.978098 2.73584 1.00594 2.8007 1.05476 2.84843C1.10357 2.89616 1.16941 2.92292 1.23802 2.92291H2.02193L1.9849 2.96276C1.02503 3.93966 0.376989 5.1748 0.121638 6.51404C-0.133712 7.85328 0.0149386 9.23731 0.549041 10.4934C1.08314 11.7496 1.97905 12.8222 3.12495 13.5774C4.27086 14.3326 5.61602 14.7369 6.99259 14.74C7.80151 14.7383 8.60428 14.6009 9.36685 14.3337Z" fill="#211F1F"/>
<path d="M3.52391 10.7633C3.44823 10.8001 3.38638 10.8598 3.34735 10.9338C3.30832 11.0077 3.29415 11.0921 3.3069 11.1746C3.31965 11.2571 3.35865 11.3334 3.41824 11.3924C3.47782 11.4515 3.55488 11.4901 3.63819 11.5028C3.72818 11.5166 3.81917 11.523 3.91022 11.5219C4.39032 11.5143 4.85763 11.3675 5.25429 11.0996C6.083 11.5306 7.04378 11.6418 7.95055 11.4116C8.85732 11.1814 9.64554 10.6263 10.1626 9.85366C10.6796 9.08105 10.8886 8.14596 10.7492 7.2295C10.6098 6.31303 10.1318 5.48041 9.40781 4.89288C8.68384 4.30536 7.76541 4.00473 6.8304 4.04924C5.89538 4.09375 5.01032 4.48022 4.34662 5.1338C3.68292 5.78738 3.28781 6.66157 3.23782 7.58705C3.18783 8.51253 3.48651 9.42345 4.07602 10.1434C3.96388 10.4033 3.77032 10.6206 3.52391 10.7633ZM4.71183 5.50419C5.14289 5.07818 5.68588 4.78026 6.27923 4.64421C6.87259 4.50817 7.49258 4.53944 8.0689 4.73448C8.64522 4.92952 9.15482 5.28052 9.53991 5.7477C9.92501 6.21488 10.1702 6.77953 10.2477 7.37765C10.3252 7.97576 10.2319 8.5834 9.9783 9.13168C9.72475 9.67996 9.32112 10.1469 8.81317 10.4797C8.30522 10.8124 7.71327 10.9976 7.10445 11.0142C6.49562 11.0308 5.89427 10.8782 5.36857 10.5737C5.32846 10.5505 5.28302 10.5379 5.23658 10.537C5.17822 10.5361 5.12134 10.5553 5.07562 10.5912C4.78881 10.8146 4.44499 10.9547 4.08246 10.996C4.3151 10.7701 4.49765 10.4988 4.61847 10.1992C4.63745 10.1552 4.64374 10.1069 4.63663 10.0597C4.62953 10.0124 4.60931 9.968 4.57823 9.93143C4.0287 9.31549 3.73667 8.51549 3.76149 7.69404C3.7863 6.87258 4.12611 6.09129 4.71183 5.50897V5.50419Z" fill="#211F1F"/>
</svg>
