<svg width="30" height="17" viewBox="0 0 30 17" fill="none" xmlns="http://www.w3.org/2000/svg">
<path fill-rule="evenodd" clip-rule="evenodd" d="M19.882 10.547H21.2111C21.4974 10.547 21.7277 10.3087 21.7277 10.0103V3.19861H24.1421V8.70052C24.1421 8.99675 24.3744 9.23719 24.6607 9.23719H28.9651V13.7048H28.1934C27.9522 12.4376 26.8701 11.4785 25.5758 11.4785C24.2821 11.4785 23.2015 12.4369 22.9601 13.7034H11.3333C11.0914 12.4369 10.0093 11.4785 8.71553 11.4785C7.42174 11.4785 6.34157 12.4369 6.10018 13.7034H4.81359C4.52728 13.7034 4.29492 13.9438 4.29492 14.2401C4.29492 14.5363 4.52728 14.7768 4.81359 14.7768H6.10049C6.3425 16.0425 7.4223 17 8.71553 17C10.0087 17 11.0905 16.0425 11.333 14.7768H22.9604C23.2025 16.0425 24.2826 17 25.5758 17C26.8686 17 27.9496 16.0432 28.1926 14.7782H29.4838C29.7701 14.7782 30.0004 14.5399 30.0004 14.2393V8.03952C30.0004 4.7786 27.4364 2.12525 24.2851 2.12525H21.7277V0.536702C21.7277 0.240431 21.4954 0 21.2091 0H9.77539C9.48907 0 9.25672 0.240431 9.25672 0.536702C9.25672 0.832933 9.48907 1.07336 9.77539 1.07336H20.6924V2.60395C20.6905 2.62299 20.6895 2.64233 20.6895 2.66191C20.6895 2.68149 20.6905 2.70083 20.6924 2.71988V9.47573H19.8701C19.8614 9.47528 19.8527 9.47505 19.8439 9.47505H4.81359C4.52728 9.47505 4.29492 9.71549 4.29492 10.0117C4.29492 10.308 4.52728 10.5484 4.81359 10.5484H19.8439C19.8567 10.5484 19.8694 10.5479 19.882 10.547ZM25.1794 8.16382V3.28731C27.3339 3.72038 28.9651 5.68757 28.9651 8.04173V8.16382H25.1794ZM8.71553 12.5519C7.81721 12.5519 7.08508 13.3098 7.08508 14.2393C7.08508 15.171 7.81721 15.9266 8.71553 15.9266C9.61589 15.9266 10.3485 15.1688 10.3485 14.2393C10.3464 13.3098 9.61382 12.5519 8.71553 12.5519ZM25.5758 12.5519C24.6755 12.5519 23.9449 13.3098 23.9449 14.2393C23.9449 15.171 24.6776 15.9266 25.5758 15.9266C26.4742 15.9266 27.2083 15.1688 27.2083 14.2393C27.2062 13.3098 26.4742 12.5519 25.5758 12.5519ZM4.81746 3.21337H11.5352C11.8214 3.21337 12.0538 2.97294 12.0538 2.67671C12.0538 2.38044 11.8214 2.14 11.5352 2.14H4.81746C4.53118 2.14 4.29883 2.38044 4.29883 2.67671C4.29883 2.97294 4.53118 3.21337 4.81746 3.21337ZM8.58156 8.13169H1.86387C1.57757 8.13169 1.34521 7.89126 1.34521 7.59503C1.34521 7.29876 1.57757 7.05833 1.86387 7.05833H8.58156C8.86784 7.05833 9.10023 7.29876 9.10023 7.59503C9.10023 7.89126 8.86784 8.13169 8.58156 8.13169ZM0.518656 5.8088H9.92483C10.2111 5.8088 10.4435 5.56833 10.4435 5.27423C10.4435 4.97796 10.2111 4.73753 9.92483 4.73753H0.518656C0.232357 4.73753 0 4.97796 0 5.27423C0 5.56833 0.232357 5.8088 0.518656 5.8088Z" fill="#211F1F"/>
</svg>
