<svg width="16" height="16" viewBox="0 0 16 16" fill="none" xmlns="http://www.w3.org/2000/svg">
<path d="M4.48129 10.3717C4.51574 10.3717 4.55011 10.3684 4.58395 10.362L7.3923 9.69695L13.336 3.7532C13.5186 3.5706 13.6635 3.35384 13.7623 3.11527C13.8611 2.87671 13.912 2.62101 13.912 2.36279C13.912 2.10457 13.8611 1.84888 13.7623 1.61032C13.6635 1.37175 13.5186 1.15499 13.336 0.972398C13.1534 0.78981 12.9367 0.644973 12.6981 0.546157C12.4595 0.447342 12.2038 0.396483 11.9456 0.396484C11.6874 0.396486 11.4317 0.447348 11.1932 0.546166C10.9546 0.644984 10.7378 0.789823 10.5552 0.972414L4.61148 6.91616L3.95105 9.7032L3.94651 9.72426C3.93141 9.80304 3.93389 9.88419 3.95377 9.9619C3.97365 10.0396 4.01045 10.112 4.06154 10.1738C4.11263 10.2357 4.17674 10.2855 4.2493 10.3197C4.32186 10.3539 4.40108 10.3716 4.48129 10.3717ZM5.51911 7.42266L11.2625 1.67938C11.3523 1.58965 11.4588 1.51847 11.576 1.46991C11.6933 1.42135 11.8189 1.39635 11.9458 1.39635C12.0727 1.39635 12.1984 1.42135 12.3156 1.46991C12.4329 1.51847 12.5394 1.58965 12.6291 1.67938C12.7189 1.76911 12.7901 1.87564 12.8386 1.99288C12.8872 2.11012 12.9122 2.23578 12.9122 2.36268C12.9122 2.48958 12.8872 2.61524 12.8386 2.73248C12.7901 2.84972 12.7189 2.95624 12.6291 3.04598L6.88573 8.78929L5.09467 9.21373L5.51911 7.42266Z" fill="#211F1F"/>
<path d="M14.75 11.75H1.25C1.05116 11.7502 0.860528 11.8293 0.719926 11.9699C0.579324 12.1105 0.500232 12.3012 0.5 12.5V14.75C0.500232 14.9488 0.579324 15.1395 0.719926 15.2801C0.860528 15.4207 1.05116 15.4998 1.25 15.5H14.75C14.9488 15.4998 15.1395 15.4207 15.2801 15.2801C15.4207 15.1395 15.4998 14.9488 15.5 14.75V12.5C15.4998 12.3012 15.4207 12.1105 15.2801 11.9699C15.1395 11.8293 14.9488 11.7502 14.75 11.75ZM14.5 14.5H1.5V12.75H14.5V14.5Z" fill="#211F1F"/>
</svg>
