<svg width="18" height="14" viewBox="0 0 18 14" fill="none" xmlns="http://www.w3.org/2000/svg">
<path d="M9.63413 6.2912L9.63414 6.29121L16.453 10.4793C16.6871 10.6228 16.8616 10.8661 16.9595 11.1408C17.0574 11.4157 17.0802 11.7261 17.0065 12.0077L17.0065 12.0077C16.8566 12.5788 16.3703 13.05 15.8377 13.05H2.15916C1.62668 13.05 1.14267 12.578 0.992783 12.0069L0.992777 12.0069C0.848123 11.4547 1.07996 10.7994 1.54869 10.5124L9.63413 6.2912ZM9.63413 6.2912C9.61406 6.27888 9.59787 6.26738 9.58149 6.25576M9.63413 6.2912L9.58149 6.25576M9.58149 6.25576L9.57868 6.25376M9.58149 6.25576L9.57868 6.25376M9.57868 6.25376C9.5616 6.24164 9.54361 6.22897 9.52256 6.2172M9.57868 6.25376L9.52256 6.2172M9.52256 6.2172C9.48647 6.19703 9.44407 6.18093 9.38012 6.16797M9.52256 6.2172L9.38012 6.16797M9.38012 6.16797V4.98058C10.3931 4.74805 11.1335 3.95935 11.1335 2.96558C11.1335 1.88047 10.2741 0.95 9.2239 0.95C8.36237 0.95 7.60281 1.55413 7.38263 2.41635L9.38012 6.16797ZM8.39208 6.30462L1.54877 10.5123L7.38263 2.41639C7.34183 2.57537 7.42962 2.74365 7.58811 2.78732C7.74613 2.83211 7.90581 2.73406 7.94669 2.5729C8.09953 1.97508 8.62119 1.56193 9.21448 1.56193C9.9359 1.56193 10.5262 2.17816 10.5262 2.93381C10.5262 3.66336 9.88488 4.32754 9.15309 4.34888C9.12401 4.33662 9.09584 4.32836 9.05656 4.32836C8.88992 4.32836 8.77265 4.46873 8.77265 4.63157V6.15385C8.61911 6.18193 8.5125 6.23066 8.3921 6.30461L8.39208 6.30462ZM1.84362 11.0516L1.84379 11.0515L8.6825 6.83489C8.79012 6.7687 8.89936 6.73185 8.99842 6.73185C9.11731 6.73185 9.22305 6.75886 9.31442 6.81527L9.3145 6.81532L16.1536 11.02L16.1537 11.02C16.2678 11.0898 16.3596 11.2179 16.4127 11.3697C16.4657 11.5211 16.4782 11.6907 16.4395 11.8388C16.3988 11.9939 16.3107 12.1412 16.2 12.2492C16.0888 12.3577 15.9596 12.4223 15.8377 12.4223H2.15916C2.0373 12.4223 1.90816 12.3577 1.79694 12.249C1.68623 12.1408 1.59799 11.9932 1.55717 11.8377C1.48043 11.5443 1.60681 11.1964 1.84362 11.0516Z" fill="#757575" stroke="#757575" stroke-width="0.1"/>
</svg>
