<svg width="18" height="13" viewBox="0 0 18 13" fill="none" xmlns="http://www.w3.org/2000/svg">
<path d="M9.63249 5.84575L9.6325 5.84576L16.4514 9.68489L9.63249 5.84575ZM9.63249 5.84575C9.61239 5.83445 9.59619 5.8239 9.57982 5.81324L9.57701 5.81141C9.55992 5.80029 9.54196 5.7887 9.52096 5.77794C9.48524 5.75963 9.44332 5.74501 9.38012 5.73322V4.65293C10.39 4.44008 11.1335 3.71783 11.1335 2.80178C11.1335 1.80091 10.27 0.95 9.2239 0.95C8.3654 0.95 7.60414 1.50212 7.38292 2.29624M9.63249 5.84575L8.39371 5.85806M8.39371 5.85806L8.39373 5.85805C8.51388 5.7904 8.62005 5.74593 8.77265 5.72025V4.32894C8.77265 4.17355 8.89391 4.04683 9.05656 4.04683C9.09542 4.04683 9.12321 4.05434 9.15236 4.06566C9.88844 4.04647 10.5262 3.43552 10.5262 2.77266C10.5262 2.08621 9.94 1.51927 9.21448 1.51927C8.61816 1.51927 8.0982 1.89966 7.94641 2.4439C7.90425 2.59625 7.74306 2.68267 7.58915 2.64267C7.43307 2.60325 7.34039 2.44809 7.38292 2.29624M8.39371 5.85806L1.55041 9.71511L1.57488 9.75871L1.55033 9.71516L1.55035 9.71514C1.08163 9.97823 0.847201 10.5814 0.99307 11.0917L0.993076 11.0918M8.39371 5.85806L0.993076 11.0918M7.38292 2.29624C7.38292 2.29623 7.38292 2.29622 7.38293 2.29621L7.43107 2.30969M7.38292 2.29624C7.38291 2.29625 7.38291 2.29626 7.38291 2.29628L7.43107 2.30969M7.43107 2.30969C7.39639 2.43347 7.47155 2.56149 7.60156 2.59424L7.43107 2.30969ZM0.993076 11.0918C1.14399 11.6189 1.62958 12.05 2.15916 12.05H15.8377C16.3674 12.05 16.8553 11.6197 17.0062 11.0926L17.0062 11.0925M0.993076 11.0918L17.0062 11.0925M17.0062 11.0925C17.1539 10.5754 16.9176 9.94682 16.4514 9.68491L17.0062 11.0925ZM9.34069 6.29166C9.24026 6.23482 9.12512 6.20836 8.99842 6.20836C8.8874 6.20836 8.76913 6.246 8.6563 6.30961M9.34069 6.29166L8.6809 6.35314C8.78855 6.29246 8.89835 6.25836 8.99842 6.25836C9.11806 6.25836 9.22441 6.28331 9.31606 6.33518L9.31614 6.33522L16.1552 10.1895L16.1553 10.1896C16.2695 10.2536 16.3606 10.3705 16.4132 10.5082C16.4658 10.6458 16.478 10.7995 16.4398 10.9334C16.3995 11.0742 16.3121 11.2085 16.2016 11.3073C16.0908 11.4064 15.9611 11.4662 15.8377 11.4662H2.15916C2.0358 11.4662 1.90618 11.4064 1.79536 11.3071C1.68487 11.2082 1.59731 11.0736 1.55689 10.9325L1.50881 10.9462C1.42721 10.6602 1.55952 10.3195 1.81755 10.1749L8.6563 6.30961M9.34069 6.29166L16.1798 10.1459L9.34069 6.29166ZM8.6563 6.30961L8.68086 6.35317M8.6563 6.30961L8.68086 6.35317M8.68086 6.35317L1.84215 10.2184L1.84199 10.2185C1.60518 10.3512 1.48134 10.6676 1.55688 10.9324L8.68086 6.35317Z" fill="#211F1F" stroke="#211F1F" stroke-width="0.1"/>
</svg>
