<svg width="16" height="12" viewBox="0 0 16 12" fill="none" xmlns="http://www.w3.org/2000/svg">
<path d="M1.47996 11.8197C1.20663 11.7943 0.948017 11.6844 0.740105 11.5051C0.532194 11.3259 0.385332 11.0863 0.319962 10.8197C0.243239 10.5406 0.254932 10.2445 0.35343 9.97229C0.451928 9.70008 0.632387 9.46509 0.869962 9.29969L7.38996 5.29969C7.49597 5.2369 7.61048 5.18975 7.72996 5.15969V3.73969C7.72863 3.69635 7.73585 3.65317 7.75121 3.61262C7.76658 3.57207 7.78978 3.53495 7.8195 3.50337C7.84922 3.47179 7.88487 3.44638 7.92441 3.42859C7.96396 3.4108 8.00662 3.40098 8.04996 3.39969V3.39969H8.14996C8.47941 3.37781 8.78918 3.23507 9.01987 2.99885C9.25055 2.76263 9.3859 2.44956 9.39996 2.11969C9.40533 1.79516 9.28222 1.48166 9.05744 1.24751C8.83266 1.01337 8.52444 0.877559 8.19996 0.869687C7.9333 0.873444 7.67548 0.965925 7.46723 1.13253C7.25898 1.29913 7.11216 1.53035 7.04996 1.78969C7.03247 1.8621 6.99168 1.92675 6.93387 1.97373C6.87606 2.0207 6.80442 2.04739 6.72996 2.04969C6.46996 1.98969 6.35996 1.79969 6.40996 1.61969C6.50601 1.21308 6.73545 0.850352 7.0617 0.589357C7.38794 0.328362 7.79219 0.184137 8.20996 0.179688C8.71933 0.210304 9.19772 0.434458 9.54722 0.806264C9.89672 1.17807 10.0909 1.66941 10.09 2.17969C10.0843 2.65586 9.91376 3.11535 9.60746 3.47999C9.30117 3.84462 8.878 4.09188 8.40996 4.17969V5.17969C8.47243 5.1917 8.53088 5.21921 8.57996 5.25969L15.13 9.25969C15.3653 9.42705 15.5441 9.66221 15.6423 9.93379C15.7406 10.2054 15.7537 10.5005 15.68 10.7797C15.6174 11.0477 15.4713 11.2889 15.2629 11.4686C15.0544 11.6484 14.7943 11.7573 14.52 11.7797L1.47996 11.8197ZM7.99996 5.79969C7.90036 5.80468 7.80382 5.83571 7.71996 5.88969L1.20996 9.88969C1.1057 9.97168 1.02949 10.084 0.991868 10.2112C0.954247 10.3384 0.957076 10.4742 0.999962 10.5997C1.06996 10.8797 1.30996 11.1197 1.51996 11.1197H14.52C14.73 11.1197 14.97 10.8797 15.04 10.5997C15.0723 10.4684 15.0659 10.3305 15.0215 10.2027C14.9772 10.0749 14.8967 9.96272 14.79 9.87969L8.26996 5.87969C8.19025 5.82605 8.09602 5.79813 7.99996 5.79969Z" fill="#757575"/>
</svg>
