<svg width="22" height="21" viewBox="0 0 22 21" fill="none" xmlns="http://www.w3.org/2000/svg">
<path d="M10.9676 20.035L11.0036 20.0717L11.0393 20.0348L19.1565 11.6562C19.9396 10.9281 20.5122 9.99513 20.8123 8.9585C21.1125 7.92145 21.1287 6.82025 20.8589 5.7745L20.8587 5.77367C20.5536 4.66995 19.9763 3.66446 19.1817 2.85337C18.3872 2.04228 17.4021 1.45271 16.3205 1.14113L16.3205 1.14112L16.3196 1.14088C15.3865 0.891284 14.4067 0.886392 13.4712 1.12666C12.5508 1.36307 11.7026 1.8293 11.0029 2.483C10.3026 1.84518 9.45814 1.3942 8.5448 1.17083C7.61646 0.94378 6.64702 0.959223 5.72607 1.21573L5.72607 1.21572L5.72545 1.2159C4.63313 1.53545 3.63867 2.13379 2.83586 2.95437C2.03306 3.77494 1.44835 4.79068 1.13681 5.90573L1.1368 5.90572L1.13653 5.90678C0.872905 6.93651 0.888989 8.02008 1.18306 9.04119C1.47703 10.062 2.03775 10.9819 2.80515 11.7022L10.9676 20.035ZM11.0033 18.302L3.66965 10.8154L3.6697 10.8153L3.66794 10.8137C3.05233 10.2427 2.60126 9.51073 2.36363 8.69677C2.12606 7.88299 2.11091 7.01836 2.31984 6.19642C2.57201 5.29061 3.04673 4.46572 3.69884 3.8C4.35102 3.13421 5.15898 2.64974 6.04596 2.39246C6.41672 2.2883 6.79935 2.23485 7.18383 2.23348L7.18513 2.23919C7.81998 2.2546 8.44537 2.39993 9.02426 2.6666C9.60316 2.93327 10.1238 3.31587 10.5553 3.79179L10.5553 3.79182L10.5567 3.7932L10.9564 4.20125L10.9924 4.23798L11.0281 4.201L11.4222 3.79294L11.4222 3.79298L11.4236 3.79135C11.9886 3.15297 12.7139 2.68473 13.5207 2.43722C14.3274 2.18978 15.1849 2.17236 16.0006 2.38683C16.8784 2.64127 17.6785 3.11967 18.3255 3.7771C18.9724 4.43451 19.4448 5.24929 19.6981 6.14475C19.9083 6.9779 19.8913 7.85391 19.6487 8.67786C19.4061 9.50203 18.9473 10.2426 18.322 10.8193L18.3219 10.8193L18.3201 10.8211L11.0033 18.302Z" fill="#211F1F" stroke="#211F1F" stroke-width="0.1"/>
</svg>
