<svg width="17" height="16" viewBox="0 0 17 16" fill="none" xmlns="http://www.w3.org/2000/svg">
<path d="M8.3963 15.1059L8.50311 15.213L8.60932 15.1053L14.6952 8.93371C15.2966 8.38365 15.7364 7.67907 15.9671 6.89631C16.1981 6.11229 16.2105 5.27976 16.0029 4.48917L16.003 4.48916L16.0023 4.48663C15.7682 3.65469 15.3253 2.89683 14.7157 2.28551C14.1062 1.6742 13.3505 1.22987 12.5208 0.995062L12.5208 0.995037L12.5181 0.994319C11.8 0.805605 11.046 0.801907 10.3261 0.983568C9.65017 1.15412 9.02495 1.48285 8.50124 1.94198C7.97745 1.49453 7.35517 1.1769 6.68474 1.01581C5.97014 0.844108 5.22393 0.855787 4.51502 1.04977L4.51502 1.04975L4.51318 1.05028C3.67561 1.29101 2.91305 1.74176 2.29741 2.35998C1.68178 2.97819 1.23337 3.74349 0.994447 4.58363L0.994411 4.58362L0.993573 4.58684C0.790659 5.36552 0.80304 6.18492 1.02939 6.95709C1.25544 7.72823 1.68638 8.42322 2.27609 8.96762L8.3963 15.1059Z" fill="#211F1F" stroke="#211F1F" stroke-width="0.3"/>
</svg>
