<svg width="27" height="25" viewBox="0 0 27 25" fill="none" xmlns="http://www.w3.org/2000/svg">
<path d="M1.14446 7.18972L1.14444 7.18971L1.14397 7.1916C0.8133 8.49679 0.833472 9.87021 1.20233 11.1645C1.57101 12.4582 2.27422 13.6242 3.23685 14.5374L12.7176 24.3178C13.1475 24.7613 13.8596 24.7593 14.287 24.3135L23.7153 14.4793C24.6974 13.5563 25.4155 12.3738 25.7919 11.0601C26.1685 9.74562 26.1887 8.34991 25.8503 7.02447L25.8499 7.02298C25.4674 5.6246 24.7435 4.35052 23.7472 3.32266C22.7508 2.29478 21.5152 1.54749 20.1585 1.15255L20.1585 1.15253L20.1568 1.15208C18.9857 0.835534 17.756 0.829329 16.582 1.13404C15.7154 1.35896 14.9 1.74785 14.1761 2.278C13.7787 2.56898 13.2248 2.57244 12.8233 2.28692C12.1028 1.77441 11.2944 1.40148 10.4377 1.18976C9.27259 0.901796 8.05584 0.921384 6.89997 1.2467L6.89997 1.2467L6.89884 1.24703C5.52875 1.65206 4.28157 2.41041 3.27484 3.45024C2.26813 4.49005 1.53504 5.77706 1.14446 7.18972ZM7.31525 2.78463C7.76783 2.65617 8.23462 2.58911 8.70383 2.58508C8.71408 2.58941 8.72562 2.59199 8.73831 2.59232C9.52537 2.61267 10.3006 2.79524 11.0185 3.1294C11.7387 3.46465 12.3865 3.94568 12.9235 4.54416L12.9234 4.5442L12.9259 4.54669C13.2318 4.86226 13.743 4.86518 14.0478 4.54624L14.0479 4.54629L14.0504 4.54335C14.7534 3.74069 15.6557 3.15211 16.6592 2.84103C17.6624 2.53006 18.7288 2.50813 19.7431 2.77759C20.8357 3.09763 21.8316 3.69936 22.6369 4.52641C23.4422 5.35344 24.0305 6.37856 24.3461 7.50534C24.6076 8.55314 24.5863 9.65483 24.2845 10.691C23.9825 11.7276 23.4115 12.6588 22.6335 13.384L22.6334 13.3839L22.6302 13.3872L14.1575 22.1411C13.8001 22.5104 13.208 22.5106 12.8502 22.1416L4.35704 13.3799L4.35712 13.3798L4.35396 13.3769C3.58809 12.6591 3.02675 11.7386 2.73101 10.715C2.43536 9.69158 2.41648 8.60424 2.67644 7.57058C2.99052 6.4307 3.58167 5.39281 4.39352 4.55529C5.2055 3.71764 6.21128 3.10824 7.31525 2.78463ZM8.73904 2.5849C8.73886 2.5849 8.73869 2.5849 8.73851 2.5849C8.73869 2.5849 8.73886 2.5849 8.73904 2.5849Z" fill="#211F1F" stroke="#211F1F" stroke-width="0.18"/>
</svg>
