<svg width="17" height="16" viewBox="0 0 17 16" fill="none" xmlns="http://www.w3.org/2000/svg">
<path d="M8.3963 15.1059L8.50311 15.213L8.60932 15.1053L14.6952 8.93371C15.2966 8.38365 15.7364 7.67907 15.9671 6.89631C16.1981 6.11229 16.2105 5.27976 16.0029 4.48917L16.003 4.48916L16.0023 4.48663C15.7682 3.65469 15.3253 2.89683 14.7157 2.28551C14.1062 1.6742 13.3505 1.22987 12.5208 0.995062L12.5208 0.995037L12.5181 0.994319C11.8 0.805605 11.046 0.801907 10.3261 0.983568C9.65017 1.15412 9.02495 1.48285 8.50124 1.94198C7.97745 1.49453 7.35517 1.1769 6.68474 1.01581C5.97014 0.844108 5.22393 0.855787 4.51502 1.04977L4.51502 1.04975L4.51318 1.05028C3.67561 1.29101 2.91305 1.74176 2.29741 2.35998C1.68178 2.9782 1.23337 3.74349 0.994447 4.58363L0.994411 4.58362L0.993573 4.58684C0.790659 5.36552 0.80304 6.18492 1.02939 6.95709C1.25544 7.72823 1.68638 8.42323 2.27609 8.96762L8.3963 15.1059ZM8.50244 13.589L3.08167 8.15224L3.0818 8.15212L3.07648 8.14727C2.62998 7.74043 2.30284 7.21884 2.13051 6.6389C1.95834 6.05951 1.94725 5.44394 2.09843 4.8587C2.28238 4.21034 2.62837 3.61989 3.10356 3.14329C3.57901 2.66644 4.16802 2.31939 4.81468 2.13502C5.08207 2.06127 5.35798 2.02329 5.63525 2.02205L5.63618 2.02621C6.09732 2.03721 6.55157 2.14092 6.97204 2.33121C7.39251 2.52151 7.77065 2.79452 8.08406 3.1341L8.08397 3.13417L8.08806 3.13827L8.38785 3.43895L8.49483 3.54624L8.60104 3.43819L8.89661 3.13752L8.89671 3.13762L8.90108 3.13276C9.31104 2.67769 9.83731 2.34387 10.4228 2.1674C11.0078 1.99112 11.6296 1.97858 12.2211 2.13113C12.8607 2.31349 13.4435 2.65603 13.9148 3.12659C14.3861 3.59708 14.7303 4.18008 14.9151 4.82077C15.0672 5.41415 15.0546 6.03795 14.8788 6.62472C14.7028 7.21218 14.3699 7.74008 13.9162 8.15123L13.9161 8.15108L13.9106 8.15655L8.50244 13.589Z" fill="#211F1F" stroke="#211F1F" stroke-width="0.3"/>
</svg>
