<svg width="26" height="25" viewBox="0 0 26 25" fill="none" xmlns="http://www.w3.org/2000/svg">
<path d="M8.17969 0H18.6797C22.6797 0 25.9297 3.25 25.9297 7.25V17.75C25.9297 19.6728 25.1659 21.5169 23.8062 22.8765C22.4466 24.2362 20.6025 25 18.6797 25H8.17969C4.17969 25 0.929688 21.75 0.929688 17.75V7.25C0.929688 5.32718 1.69352 3.48311 3.05316 2.12348C4.4128 0.763837 6.25687 0 8.17969 0ZM7.92969 2.5C6.73621 2.5 5.59162 2.97411 4.74771 3.81802C3.90379 4.66193 3.42969 5.80653 3.42969 7V18C3.42969 20.4875 5.44219 22.5 7.92969 22.5H18.9297C20.1232 22.5 21.2678 22.0259 22.1117 21.182C22.9556 20.3381 23.4297 19.1935 23.4297 18V7C23.4297 4.5125 21.4172 2.5 18.9297 2.5H7.92969ZM19.9922 4.375C20.4066 4.375 20.804 4.53962 21.097 4.83265C21.3901 5.12567 21.5547 5.5231 21.5547 5.9375C21.5547 6.3519 21.3901 6.74933 21.097 7.04235C20.804 7.33538 20.4066 7.5 19.9922 7.5C19.5778 7.5 19.1804 7.33538 18.8873 7.04235C18.5943 6.74933 18.4297 6.3519 18.4297 5.9375C18.4297 5.5231 18.5943 5.12567 18.8873 4.83265C19.1804 4.53962 19.5778 4.375 19.9922 4.375ZM13.4297 6.25C15.0873 6.25 16.677 6.90848 17.8491 8.08058C19.0212 9.25268 19.6797 10.8424 19.6797 12.5C19.6797 14.1576 19.0212 15.7473 17.8491 16.9194C16.677 18.0915 15.0873 18.75 13.4297 18.75C11.7721 18.75 10.1824 18.0915 9.01027 16.9194C7.83817 15.7473 7.17969 14.1576 7.17969 12.5C7.17969 10.8424 7.83817 9.25268 9.01027 8.08058C10.1824 6.90848 11.7721 6.25 13.4297 6.25ZM13.4297 8.75C12.4351 8.75 11.4813 9.14509 10.778 9.84835C10.0748 10.5516 9.67969 11.5054 9.67969 12.5C9.67969 13.4946 10.0748 14.4484 10.778 15.1517C11.4813 15.8549 12.4351 16.25 13.4297 16.25C14.4242 16.25 15.3781 15.8549 16.0813 15.1517C16.7846 14.4484 17.1797 13.4946 17.1797 12.5C17.1797 11.5054 16.7846 10.5516 16.0813 9.84835C15.3781 9.14509 14.4242 8.75 13.4297 8.75Z" fill="#211F1F"/>
</svg>
