<svg width="15" height="15" viewBox="0 0 15 15" fill="none" xmlns="http://www.w3.org/2000/svg">
<path fill-rule="evenodd" clip-rule="evenodd" d="M11.202 6.17926C11.202 8.79315 9.03364 10.9585 6.30101 10.9585C3.56838 10.9585 1.4 8.79315 1.4 6.17926C1.4 3.56537 3.56838 1.4 6.30101 1.4C9.03364 1.4 11.202 3.56537 11.202 6.17926ZM10.3363 10.9253C9.24316 11.8201 7.8362 12.3585 6.30101 12.3585C2.82106 12.3585 0 9.59198 0 6.17926C0 2.76655 2.82106 0 6.30101 0C9.78096 0 12.602 2.76655 12.602 6.17926C12.602 7.69045 12.0489 9.07494 11.1303 10.1486L14.8498 14.0759C15.0607 14.2986 15.0478 14.6466 14.8211 14.8531C14.5943 15.0597 14.2395 15.0466 14.0286 14.8239L10.3363 10.9253Z" fill="#757575"/>
</svg>
