<svg width="10" height="17" viewBox="0 0 10 17" fill="none" xmlns="http://www.w3.org/2000/svg">
<path d="M6.44275 12.4108L9.23803 8.14027C9.24708 8.12611 9.25452 8.11108 9.26024 8.09543C9.7256 7.37596 9.9806 6.55155 9.99894 5.70722C10.0173 4.86288 9.79828 4.02918 9.36454 3.29208C8.93081 2.55497 8.29802 1.94113 7.53144 1.51385C6.76485 1.08658 5.8922 0.861328 5.00347 0.861328C4.11474 0.861328 3.24209 1.08658 2.4755 1.51385C1.70892 1.94113 1.07613 2.55497 0.642394 3.29208C0.208658 4.02918 -0.0103322 4.86288 0.00800319 5.70722C0.0263386 6.55155 0.281336 7.37596 0.746704 8.09543C0.746704 8.10862 0.746704 8.12181 0.766135 8.13236L3.46148 12.4187C1.37127 12.7036 0 13.5213 0 14.5104C0 15.7396 2.19292 16.7024 4.99653 16.7024C7.80014 16.7024 9.99306 15.7396 9.99306 14.5104C9.99306 13.516 8.55795 12.6798 6.44275 12.4108ZM1.24913 7.85804C0.824543 7.21968 0.587979 6.48477 0.564113 5.72994C0.540247 4.97512 0.729953 4.22803 1.11345 3.56661C1.49694 2.90519 2.06017 2.35366 2.74439 1.96955C3.42861 1.58544 4.20876 1.38282 5.00347 1.38282C5.79818 1.38282 6.57832 1.58544 7.26255 1.96955C7.94677 2.35366 8.51 2.90519 8.89349 3.56661C9.27699 4.22803 9.46669 4.97512 9.44283 5.72994C9.41896 6.48477 9.1824 7.21968 8.75781 7.85804C8.74928 7.87245 8.74185 7.88744 8.7356 7.90288L5.7821 12.4134L5.67384 12.5796L4.92991 13.7191L1.27412 7.91607C1.26904 7.8956 1.26061 7.87601 1.24913 7.85804ZM4.99653 16.1748C2.3789 16.1748 0.55517 15.2991 0.55517 14.5131C0.55517 13.8009 1.92922 13.1309 3.77516 12.9304L4.68286 14.3759C4.70743 14.4153 4.74236 14.4479 4.78421 14.4706C4.82607 14.4932 4.87341 14.5051 4.92158 14.5051C4.96902 14.505 5.01561 14.4932 5.05692 14.4711C5.09822 14.4489 5.13286 14.417 5.15753 14.3785L6.10687 12.9093C7.98612 13.1045 9.43789 13.7903 9.43789 14.5104C9.43789 15.2965 7.61416 16.1748 4.99653 16.1748Z" fill="#211F1F"/>
<path d="M7 5.81021C7 5.41858 6.8827 5.03574 6.66294 4.71011C6.44318 4.38448 6.13082 4.13068 5.76537 3.98081C5.39991 3.83094 4.99778 3.79172 4.60982 3.86813C4.22186 3.94453 3.86549 4.13312 3.58579 4.41005C3.30608 4.68697 3.1156 5.0398 3.03843 5.42391C2.96126 5.80801 3.00087 6.20615 3.15224 6.56797C3.30362 6.9298 3.55996 7.23905 3.88886 7.45663C4.21776 7.67421 4.60444 7.79034 5 7.79034C5.53018 7.78954 6.03842 7.58066 6.41332 7.20949C6.78822 6.83832 6.99919 6.33513 7 5.81021ZM3.61468 5.81021C3.61407 5.53881 3.69481 5.27334 3.84666 5.04739C3.99851 4.82144 4.21466 4.64517 4.46774 4.5409C4.72082 4.43662 4.99946 4.40903 5.26838 4.46161C5.53731 4.51419 5.78444 4.64458 5.97848 4.83627C6.17253 5.02797 6.30477 5.27235 6.35847 5.53849C6.41218 5.80463 6.38492 6.08056 6.28016 6.33135C6.1754 6.58215 5.99784 6.79654 5.76996 6.94738C5.54208 7.09822 5.27412 7.17874 5 7.17874C4.63312 7.17874 4.28122 7.03466 4.02151 6.77809C3.7618 6.52153 3.61549 6.17345 3.61468 5.81021Z" fill="#211F1F"/>
</svg>
