<svg width="15" height="15" viewBox="0 0 15 15" fill="none" xmlns="http://www.w3.org/2000/svg">
<path d="M0 7.5C0 10.7019 2.00688 13.4356 4.83125 14.5113C4.7625 13.9256 4.68937 12.96 4.84688 12.2825C4.9825 11.7 5.7225 8.57125 5.7225 8.57125C5.7225 8.57125 5.49937 8.12437 5.49937 7.4625C5.49937 6.425 6.10063 5.65 6.85 5.65C7.4875 5.65 7.795 6.12813 7.795 6.70125C7.795 7.34188 7.38688 8.29937 7.17625 9.1875C7.00063 9.93062 7.54938 10.5369 8.28188 10.5369C9.60875 10.5369 10.6294 9.1375 10.6294 7.1175C10.6294 5.32937 9.34437 4.08 7.51 4.08C5.38625 4.08 4.13938 5.67312 4.13938 7.32C4.13938 7.96187 4.38625 8.64937 4.695 9.02375C4.72132 9.05202 4.73992 9.0866 4.74901 9.12414C4.75809 9.16169 4.75736 9.20094 4.74687 9.23812C4.69 9.47437 4.56375 9.98125 4.53937 10.085C4.50625 10.2212 4.43125 10.2506 4.28937 10.1844C3.35687 9.75062 2.77437 8.3875 2.77437 7.2925C2.77437 4.93688 4.485 2.77437 7.70688 2.77437C10.2969 2.77437 12.31 4.62 12.31 7.08625C12.31 9.65938 10.6881 11.7306 8.43563 11.7306C7.67875 11.7306 6.96812 11.3369 6.72437 10.8725C6.72437 10.8725 6.35 12.2987 6.25938 12.6475C6.08313 13.325 5.59437 14.1825 5.29125 14.6694C5.99 14.8844 6.73125 15 7.5 15C11.6419 15 15 11.6419 15 7.5C15 3.35813 11.6419 0 7.5 0C3.35813 0 0 3.35813 0 7.5Z" fill="#211F1F"/>
</svg>
