<svg width="22" height="32" viewBox="0 0 22 32" fill="none" xmlns="http://www.w3.org/2000/svg">
<path fill-rule="evenodd" clip-rule="evenodd" d="M2.47876 2.55871L2.68705 5.85218C2.7039 6.11855 2.93349 6.32083 3.19986 6.30399C3.46623 6.28714 3.66851 6.05755 3.65166 5.79118L3.44337 2.4977C3.42653 2.23133 3.19694 2.02906 2.93057 2.0459C2.6642 2.06275 2.46192 2.29234 2.47876 2.55871Z" fill="#211F1F"/>
<path fill-rule="evenodd" clip-rule="evenodd" d="M8.72762 1.93307C8.46071 1.93307 8.24435 1.71664 8.24435 1.4498V0.483268C8.24435 0.216367 8.02798 0 7.76108 0H5.82801C5.56111 0 5.34474 0.216367 5.34474 0.483268V1.4498C5.34474 1.71664 5.12838 1.93307 4.86147 1.93307C1.55142 1.93307 0.0268555 2.7207 0.0268555 4.34941C0.0268555 4.93956 0.739962 5.81583 1.63484 6.6383C1.80297 6.79283 2.05633 6.80858 2.24231 6.67605C3.41576 5.83987 5.3547 6.28158 6.38077 7.98198C6.56871 8.29342 7.02038 8.29342 7.20832 7.98198C8.23439 6.28158 10.1733 5.83987 11.3468 6.67605C11.5328 6.80858 11.7861 6.79283 11.9543 6.6383C12.8491 5.81583 13.5622 4.93956 13.5622 4.34941C13.5622 2.7207 12.0377 1.93307 8.72762 1.93307ZM6.79454 6.89686C5.51112 5.33722 3.4942 4.89774 2.02699 5.67552C1.47614 5.12584 0.993392 4.51081 0.993392 4.34941C0.993392 3.42759 2.01537 2.89961 4.86147 2.89961C5.66225 2.89961 6.31128 2.25036 6.31128 1.4498V0.966537H7.27781V1.4498C7.27781 2.25036 7.92683 2.89961 8.72762 2.89961C11.5737 2.89961 12.5957 3.42759 12.5957 4.34941C12.5957 4.51081 12.113 5.12584 11.5621 5.67552C10.0949 4.89774 8.07797 5.33722 6.79454 6.89686Z" fill="#211F1F"/>
<path fill-rule="evenodd" clip-rule="evenodd" d="M10.1448 2.4977L9.93653 5.79118C9.91968 6.05755 10.122 6.28714 10.3883 6.30399C10.6547 6.32083 10.8843 6.11855 10.9011 5.85218L11.1094 2.55871C11.1263 2.29234 10.924 2.06275 10.6576 2.0459C10.3913 2.02906 10.1617 2.23133 10.1448 2.4977Z" fill="#211F1F"/>
<path fill-rule="evenodd" clip-rule="evenodd" d="M1.47827 6.2837C1.47827 7.49598 1.58879 8.55914 1.79225 9.49784C1.81766 9.61508 1.88577 9.71868 1.98333 9.78848C2.28008 10.0008 2.70261 10.2173 3.20613 10.4239C5.10835 11.2034 7.25371 9.79232 7.27746 7.7391C7.2785 7.6492 7.25444 7.5608 7.20799 7.48382C5.89557 5.30889 3.32012 4.72218 1.68109 5.89013C1.55383 5.98082 1.47827 6.12744 1.47827 6.2837ZM6.30475 7.86253C6.19929 9.15856 4.80275 10.0336 3.57283 9.52965C3.22084 9.38521 2.91936 9.23794 2.69722 9.1021C2.5475 8.34713 2.46028 7.50117 2.44668 6.54845C3.60018 5.91136 5.32148 6.35437 6.30475 7.86253Z" fill="#211F1F"/>
<path fill-rule="evenodd" clip-rule="evenodd" d="M10.8913 9.1021C10.6692 9.23794 10.3676 9.38523 10.0155 9.52975C8.78577 10.0336 7.38923 9.15856 7.28377 7.86253C8.26705 6.35437 9.98835 5.91136 11.1418 6.54845C11.1282 7.50117 11.041 8.34713 10.8913 9.1021ZM12.1103 6.2837C12.1103 6.12744 12.0347 5.98082 11.9074 5.89013C10.2684 4.72218 7.69296 5.30889 6.38053 7.48382C6.33408 7.5608 6.31003 7.6492 6.31107 7.7391C6.33481 9.79232 8.48018 11.2034 10.3822 10.424C10.8859 10.2173 11.3084 10.0008 11.6052 9.78848C11.7028 9.71868 11.7709 9.61508 11.7963 9.49784C11.9997 8.55914 12.1103 7.49598 12.1103 6.2837Z" fill="#211F1F"/>
<path fill-rule="evenodd" clip-rule="evenodd" d="M1.68093 5.89013C1.55367 5.98082 1.47812 6.12744 1.47812 6.2837C1.47812 8.80366 1.9357 10.6117 2.63098 11.8128C2.82625 12.149 2.92792 12.5267 2.92792 12.9156C2.92792 13.4636 2.72254 13.9858 2.34908 14.4249C-0.466439 17.7355 -0.537253 21.4451 1.00913 27.6641C1.04905 27.8247 1.16834 27.9537 1.32529 28.006C1.35049 28.0144 1.39673 28.0294 1.4624 28.05C1.57042 28.084 1.69457 28.1218 1.83319 28.1623C2.2281 28.2779 2.66112 28.3934 3.11928 28.5012C4.00363 28.7093 4.87362 28.8636 5.69295 28.9416C6.07739 28.9782 6.44513 28.9973 6.79407 28.9973C7.143 28.9973 7.51075 28.9782 7.89519 28.9416C8.71452 28.8636 9.58451 28.7093 10.4689 28.5012C10.927 28.3934 11.36 28.2779 11.7549 28.1623C11.8936 28.1218 12.0177 28.084 12.1257 28.05C12.1914 28.0294 12.2376 28.0144 12.2628 28.006C12.4198 27.9537 12.5391 27.8247 12.579 27.6641C14.1254 21.4451 14.0546 17.7355 11.2391 14.4249C10.8656 13.9858 10.6602 13.4636 10.6602 12.9354C10.6602 12.5267 10.7619 12.149 10.9568 11.8134C11.6524 10.6117 12.11 8.80366 12.11 6.2837C12.11 6.12744 12.0345 5.98082 11.9072 5.89013C10.4265 4.83502 8.18162 5.2119 6.79407 6.89807C5.40651 5.2119 3.16161 4.83502 1.68093 5.89013ZM11.4834 27.2347C11.1044 27.3457 10.6879 27.4567 10.2475 27.5604C9.4028 27.7591 8.57456 27.906 7.80355 27.9794C7.44829 28.0132 7.11086 28.0308 6.79407 28.0308C6.47728 28.0308 6.13984 28.0132 5.78459 27.9794C5.01357 27.906 4.18534 27.7591 3.34065 27.5604C2.90024 27.4567 2.48375 27.3457 2.10469 27.2347C2.02182 27.2105 1.94753 27.1882 1.88245 27.1684C0.472996 21.3905 0.574037 18.004 3.08535 15.0511C3.60283 14.4426 3.89446 13.7011 3.89446 12.9354C3.89446 12.3563 3.74771 11.811 3.46711 11.3279C2.88295 10.3188 2.47643 8.76178 2.44643 6.54851C3.63013 5.89466 5.41183 6.37826 6.3803 7.98319C6.56823 8.29464 7.0199 8.29464 7.20784 7.98319C8.1763 6.37826 9.958 5.89466 11.1417 6.54851C11.1117 8.76178 10.7052 10.3188 10.1207 11.3285C9.84042 11.811 9.69368 12.3563 9.69368 12.9156C9.69368 13.7011 9.98531 14.4426 10.5028 15.0511C13.0141 18.004 13.1151 21.3905 11.7057 27.1684C11.6406 27.1882 11.5663 27.2105 11.4834 27.2347Z" fill="#211F1F"/>
<path fill-rule="evenodd" clip-rule="evenodd" d="M8.72728 13.084C8.72728 12.5679 8.84547 12.0687 9.07486 11.6252C9.26908 11.2503 9.46244 10.814 9.64668 10.3178C9.76126 10.0093 9.54059 9.67894 9.21167 9.66666C8.16499 9.62756 7.2898 8.7754 7.27744 7.72563C7.26995 7.08885 6.31847 7.08885 6.31097 7.72563C6.29862 8.7754 5.42343 9.62756 4.37674 9.66666C4.04783 9.67894 3.82716 10.0093 3.94174 10.3178C4.12598 10.814 4.31933 11.2503 4.5137 11.6255C4.74295 12.0687 4.86114 12.5679 4.86114 13.084C4.86114 13.5754 4.74971 14.0563 4.53405 14.4935C2.81404 17.9803 2.52242 23.4085 3.41053 28.2591C3.44604 28.4531 3.59579 28.606 3.78893 28.6456C4.87568 28.8681 5.88971 28.9951 6.79421 28.9951C7.69871 28.9951 8.71274 28.8681 9.79948 28.6456C9.99263 28.606 10.1424 28.4531 10.1779 28.2591C11.066 23.4085 10.7744 17.9802 9.05437 14.4935C8.83871 14.0563 8.72728 13.5754 8.72728 13.084ZM6.79421 28.0286C6.05107 28.0286 5.20969 27.933 4.30407 27.7619C3.52082 23.1804 3.82528 18.1151 5.40086 14.9211C5.68234 14.3505 5.82767 13.7232 5.82767 13.084C5.82767 12.4153 5.6734 11.7638 5.37206 11.1812C5.27055 10.9852 5.16872 10.7695 5.06808 10.5342C5.77984 10.3444 6.39503 9.89755 6.79421 9.29757C7.19339 9.89755 7.80857 10.3444 8.52034 10.5342C8.41972 10.7695 8.31793 10.9851 8.2165 11.1809C7.91502 11.7638 7.76075 12.4153 7.76075 13.084C7.76075 13.7232 7.90608 14.3505 8.18756 14.9211C9.76314 18.1151 10.0676 23.1804 9.28435 27.7619C8.37873 27.933 7.53735 28.0286 6.79421 28.0286Z" fill="#211F1F"/>
<rect x="8" y="19" width="13" height="13" fill="white"/>
<path d="M15.494 21.6627L15.4931 21.6627C15.2796 21.6663 15.1062 21.8428 15.1062 22.0563L15.1063 22.0632H15.1063V25.4987C15.1063 25.6034 15.148 25.7039 15.2223 25.7777C15.2224 25.7778 15.2224 25.7778 15.2224 25.7778L17.1659 27.724L17.1659 27.724C17.24 27.7981 17.3404 27.8396 17.445 27.8396C17.6617 27.8396 17.8396 27.6617 17.8396 27.445C17.8396 27.3404 17.7981 27.24 17.724 27.1659L17.724 27.1659L15.8937 25.3363V22.0632L15.8938 22.0607L15.8938 22.0563C15.8938 21.8401 15.7163 21.6627 15.5001 21.6627H15.5001H15.5001H15.5001H15.5001H15.5001H15.5001H15.5001H15.5H15.5H15.5H15.5H15.5H15.5H15.5H15.5H15.4999H15.4999H15.4999H15.4999H15.4999H15.4999H15.4999H15.4999H15.4998H15.4998H15.4998H15.4998H15.4998H15.4998H15.4998H15.4998H15.4997H15.4997H15.4997H15.4997H15.4997H15.4997H15.4997H15.4997H15.4996H15.4996H15.4996H15.4996H15.4996H15.4996H15.4996H15.4996H15.4996H15.4995H15.4995H15.4995H15.4995H15.4995H15.4995H15.4995H15.4995H15.4994H15.4994H15.4994H15.4994H15.4994H15.4994H15.4994H15.4994H15.4993H15.4993H15.4993H15.4993H15.4993H15.4993H15.4993H15.4993H15.4992H15.4992H15.4992H15.4992H15.4992H15.4992H15.4992H15.4992H15.4991H15.4991H15.4991H15.4991H15.4991H15.4991H15.4991H15.4991H15.4991H15.499H15.499H15.499H15.499H15.499H15.499H15.499H15.499H15.4989H15.4989H15.4989H15.4989H15.4989H15.4989H15.4989H15.4989H15.4988H15.4988H15.4988H15.4988H15.4988H15.4988H15.4988H15.4988H15.4988H15.4987H15.4987H15.4987H15.4987H15.4987H15.4987H15.4987H15.4987H15.4986H15.4986H15.4986H15.4986H15.4986H15.4986H15.4986H15.4986H15.4985H15.4985H15.4985H15.4985H15.4985H15.4985H15.4985H15.4985H15.4984H15.4984H15.4984H15.4984H15.4984H15.4984H15.4984H15.4984H15.4984H15.4983H15.4983H15.4983H15.4983H15.4983H15.4983H15.4983H15.4983H15.4982H15.4982H15.4982H15.4982H15.4982H15.4982H15.4982H15.4982H15.4981H15.4981H15.4981H15.4981H15.4981H15.4981H15.4981H15.4981H15.4981H15.498H15.498H15.498H15.498H15.498H15.498H15.498H15.498H15.4979H15.4979H15.4979H15.4979H15.4979H15.4979H15.4979H15.4979H15.4978H15.4978H15.4978H15.4978H15.4978H15.4978H15.4978H15.4978H15.4978H15.4977H15.4977H15.4977H15.4977H15.4977H15.4977H15.4977H15.4977H15.4976H15.4976H15.4976H15.4976H15.4976H15.4976H15.4976H15.4976H15.4975H15.4975H15.4975H15.4975H15.4975H15.4975H15.4975H15.4975H15.4975H15.4974H15.4974H15.4974H15.4974H15.4974H15.4974H15.4974H15.4974H15.4973H15.4973H15.4973H15.4973H15.4973H15.4973H15.4973H15.4973H15.4972H15.4972H15.4972H15.4972H15.4972H15.4972H15.4972H15.4972H15.4972H15.4971H15.4971H15.4971H15.4971H15.4971H15.4971H15.4971H15.4971H15.497H15.497H15.497H15.497H15.497H15.497H15.497H15.497H15.4969H15.4969H15.4969H15.4969H15.4969H15.4969H15.4969H15.4969H15.4969H15.4968H15.4968H15.4968H15.4968H15.4968H15.4968H15.4968H15.4968H15.4967H15.4967H15.4967H15.4967H15.4967H15.4967H15.4967H15.4967H15.4966H15.4966H15.4966H15.4966H15.4966H15.4966H15.4966H15.4966H15.4966H15.4965H15.4965H15.4965H15.4965H15.4965H15.4965H15.4965H15.4965H15.4964H15.4964H15.4964H15.4964H15.4964H15.4964H15.4964H15.4964H15.4963H15.4963H15.4963H15.4963H15.4963H15.4963H15.4963H15.4963H15.4963H15.4962H15.4962H15.4962H15.4962H15.4962H15.4962H15.4962H15.4962H15.4961H15.4961H15.4961H15.4961H15.4961H15.4961H15.4961H15.4961H15.496H15.496H15.496H15.496H15.496H15.496H15.496H15.496H15.496H15.4959H15.4959H15.4959H15.4959H15.4959H15.4959H15.4959H15.4959H15.4958H15.4958H15.4958H15.4958H15.4958H15.4958H15.4958H15.4958H15.4957H15.4957H15.4957H15.4957H15.4957H15.4957H15.4957H15.4957H15.4957H15.4956H15.4956H15.4956H15.4956H15.4956H15.4956H15.4956H15.4956H15.4955H15.4955H15.4955H15.4955H15.4955H15.4955H15.4955H15.4955H15.4954H15.4954H15.4954H15.4954H15.4954H15.4954H15.4954H15.4954H15.4953H15.4953H15.4953H15.4953H15.4953H15.4953H15.4953H15.4953H15.4953H15.4952H15.4952H15.4952H15.4952H15.4952H15.4952H15.4952H15.4952H15.4951H15.4951H15.4951H15.4951H15.4951H15.4951H15.4951H15.4951H15.495H15.495H15.495H15.495H15.495H15.495H15.495H15.495H15.495H15.4949H15.4949H15.4949H15.4949H15.4949H15.4949H15.4949H15.4949H15.4948H15.4948H15.4948H15.4948H15.4948H15.4948H15.4948H15.4948H15.4947H15.4947H15.4947H15.4947H15.4947H15.4947H15.4947H15.4947H15.4946H15.4946H15.4946H15.4946H15.4946H15.4946H15.4946H15.4946H15.4945H15.4945H15.4945H15.4945H15.4945H15.4945H15.4945H15.4945H15.4945H15.4944H15.4944H15.4944H15.4944H15.4944H15.4944H15.4944H15.4944H15.4943H15.4943H15.4943H15.4943H15.4943H15.4943H15.4943H15.4943H15.4942H15.4942H15.4942H15.4942H15.4942H15.4942H15.4942H15.4942H15.4941H15.4941H15.4941H15.4941H15.4941H15.4941H15.4941H15.4941H15.494H15.494H15.494H15.494H15.494H15.494H15.494H15.494L15.494 21.6627ZM15.4987 19.95C12.4375 19.95 9.95 22.4375 9.95 25.4987C9.95 28.5597 12.4375 31.05 15.4987 31.05C18.5598 31.05 21.05 28.5598 21.05 25.4987C21.05 22.4375 18.5597 19.95 15.4987 19.95ZM15.4987 20.7375C18.1331 20.7375 20.2625 22.8642 20.2625 25.4987C20.2625 28.1331 18.1331 30.2625 15.4987 30.2625C12.8642 30.2625 10.7375 28.1331 10.7375 25.4987C10.7375 22.8642 12.8642 20.7375 15.4987 20.7375Z" fill="#211F1F" stroke="#211F1F" stroke-width="0.1"/>
</svg>
