<svg width="21" height="21" viewBox="0 0 21 21" fill="none" xmlns="http://www.w3.org/2000/svg">
<mask id="path-1-inside-1_301:245" fill="white">
<path fill-rule="evenodd" clip-rule="evenodd" d="M16.2425 8.65083C16.2425 12.6297 12.9458 15.9017 8.82127 15.9017C4.69674 15.9017 1.4 12.6297 1.4 8.65083C1.4 4.67193 4.69674 1.4 8.82127 1.4C12.9458 1.4 16.2425 4.67193 16.2425 8.65083ZM14.4704 15.2953C12.9401 16.5479 10.9705 17.3017 8.82127 17.3017C3.94942 17.3017 0 13.4285 0 8.65083C0 3.87311 3.94942 0 8.82127 0C13.6931 0 17.6425 3.87311 17.6425 8.65083C17.6425 10.7665 16.8681 12.7048 15.582 14.2079L20.7893 19.7061C21.0846 20.0179 21.0666 20.5051 20.7491 20.7942C20.4317 21.0834 19.9349 21.0651 19.6396 20.7533L14.4704 15.2953Z"/>
</mask>
<path fill-rule="evenodd" clip-rule="evenodd" d="M16.2425 8.65083C16.2425 12.6297 12.9458 15.9017 8.82127 15.9017C4.69674 15.9017 1.4 12.6297 1.4 8.65083C1.4 4.67193 4.69674 1.4 8.82127 1.4C12.9458 1.4 16.2425 4.67193 16.2425 8.65083ZM14.4704 15.2953C12.9401 16.5479 10.9705 17.3017 8.82127 17.3017C3.94942 17.3017 0 13.4285 0 8.65083C0 3.87311 3.94942 0 8.82127 0C13.6931 0 17.6425 3.87311 17.6425 8.65083C17.6425 10.7665 16.8681 12.7048 15.582 14.2079L20.7893 19.7061C21.0846 20.0179 21.0666 20.5051 20.7491 20.7942C20.4317 21.0834 19.9349 21.0651 19.6396 20.7533L14.4704 15.2953Z" fill="#211F1F"/>
<path d="M14.4704 15.2953L14.5067 15.2609L14.4747 15.2271L14.4387 15.2566L14.4704 15.2953ZM15.582 14.2079L15.544 14.1754L15.5148 14.2096L15.5457 14.2423L15.582 14.2079ZM20.7893 19.7061L20.753 19.7405L20.7893 19.7061ZM20.7491 20.7942L20.7828 20.8312L20.7491 20.7942ZM19.6396 20.7533L19.6033 20.7877L19.6396 20.7533ZM8.82127 15.9517C12.9725 15.9517 16.2925 12.6582 16.2925 8.65083H16.1925C16.1925 12.6012 12.9191 15.8517 8.82127 15.8517V15.9517ZM1.35 8.65083C1.35 12.6582 4.67 15.9517 8.82127 15.9517V15.8517C4.72348 15.8517 1.45 12.6012 1.45 8.65083H1.35ZM8.82127 1.35C4.67 1.35 1.35 4.64346 1.35 8.65083H1.45C1.45 4.70041 4.72348 1.45 8.82127 1.45V1.35ZM16.2925 8.65083C16.2925 4.64346 12.9725 1.35 8.82127 1.35V1.45C12.9191 1.45 16.1925 4.70041 16.1925 8.65083H16.2925ZM8.82127 17.3517C10.9823 17.3517 12.9631 16.5937 14.5021 15.334L14.4387 15.2566C12.9171 16.5021 10.9586 17.2517 8.82127 17.2517V17.3517ZM-0.05 8.65083C-0.05 13.4571 3.92273 17.3517 8.82127 17.3517V17.2517C3.97611 17.2517 0.05 13.4 0.05 8.65083H-0.05ZM8.82127 -0.05C3.92273 -0.05 -0.05 3.84458 -0.05 8.65083H0.05C0.05 3.90164 3.97611 0.05 8.82127 0.05V-0.05ZM17.6925 8.65083C17.6925 3.84458 13.7198 -0.05 8.82127 -0.05V0.05C13.6664 0.05 17.5925 3.90164 17.5925 8.65083H17.6925ZM15.62 14.2405C16.9135 12.7287 17.6925 10.779 17.6925 8.65083H17.5925C17.5925 10.754 16.8227 12.6809 15.544 14.1754L15.62 14.2405ZM15.5457 14.2423L20.753 19.7405L20.8256 19.6717L15.6183 14.1736L15.5457 14.2423ZM20.753 19.7405C21.029 20.0319 21.0123 20.4869 20.7155 20.7573L20.7828 20.8312C21.121 20.5232 21.1402 20.0038 20.8256 19.6717L20.753 19.7405ZM20.7155 20.7573C20.4181 21.0281 19.9525 21.0109 19.6759 20.7189L19.6033 20.7877C19.9174 21.1192 20.4452 21.1387 20.7828 20.8312L20.7155 20.7573ZM19.6759 20.7189L14.5067 15.2609L14.4341 15.3297L19.6033 20.7877L19.6759 20.7189Z" fill="white" mask="url(#path-1-inside-1_301:245)"/>
</svg>
