<svg width="16" height="17" viewBox="0 0 16 17" fill="none" xmlns="http://www.w3.org/2000/svg">
<path d="M13.0628 6.03031C13.6426 6.03031 14.2095 5.85348 14.6916 5.52217C15.1738 5.19086 15.5496 4.71996 15.7715 4.16901C15.9934 3.61806 16.0515 3.01181 15.9383 2.42693C15.8252 1.84205 15.546 1.3048 15.1359 0.88312C14.7259 0.461443 14.2035 0.174277 13.6347 0.0579367C13.066 -0.0584037 12.4765 0.00130643 11.9408 0.229517C11.405 0.457727 10.9471 0.844187 10.625 1.34003C10.3028 1.83587 10.1308 2.41882 10.1308 3.01516C10.1308 3.07765 10.1332 3.1396 10.137 3.20128L4.32099 5.80171C4.30767 5.80747 4.29727 5.81542 4.28501 5.82241C3.83812 5.58332 3.33886 5.46668 2.83538 5.48374C2.33191 5.50079 1.8412 5.65097 1.41057 5.91978C0.979948 6.18859 0.623935 6.56697 0.376864 7.01844C0.129793 7.4699 0 7.97921 0 8.49726C0 9.01531 0.129793 9.52463 0.376864 9.97609C0.623935 10.4275 0.979948 10.8059 1.41057 11.0747C1.8412 11.3436 2.33191 11.4937 2.83538 11.5108C3.33886 11.5278 3.83812 11.4112 4.28501 11.1721C4.29727 11.1787 4.30807 11.1871 4.32099 11.1928L10.137 13.7932C10.1332 13.8549 10.1308 13.9166 10.1308 13.9794C10.1302 14.7234 10.3968 15.4415 10.8796 15.9958C11.3624 16.55 12.0272 16.9012 12.7465 16.9821C13.4657 17.063 14.1887 16.8677 14.7765 16.4339C15.3643 16 15.7755 15.3582 15.9312 14.6315C16.0869 13.9049 15.9761 13.1447 15.6201 12.4969C15.264 11.8492 14.6878 11.3596 14.0021 11.1221C13.3164 10.8846 12.5696 10.9159 11.905 11.2102C11.2405 11.5044 10.705 12.0407 10.4015 12.7162L5.21043 10.395C5.63465 9.85877 5.86625 9.18857 5.86625 8.49726C5.86625 7.80595 5.63465 7.13576 5.21043 6.59949L10.4015 4.27837C10.6364 4.80099 11.0118 5.24362 11.4833 5.55404C11.9549 5.86445 12.5029 6.02971 13.0628 6.03031ZM13.0628 12.0606C13.4318 12.0606 13.7925 12.1732 14.0993 12.384C14.4061 12.5948 14.6453 12.8945 14.7865 13.2451C14.9277 13.5957 14.9647 13.9815 14.8927 14.3537C14.8207 14.7259 14.643 15.0678 14.382 15.3361C14.1211 15.6045 13.7887 15.7872 13.4267 15.8612C13.0648 15.9353 12.6897 15.8973 12.3488 15.752C12.0078 15.6068 11.7164 15.3609 11.5114 15.0454C11.3064 14.7298 11.197 14.3589 11.197 13.9794C11.1975 13.4707 11.3943 12.9829 11.744 12.6232C12.0938 12.2635 12.5681 12.0612 13.0628 12.0606ZM1.06857 8.49726C1.06857 8.11777 1.178 7.7468 1.38301 7.43127C1.58802 7.11573 1.87941 6.8698 2.22034 6.72458C2.56126 6.57936 2.9364 6.54136 3.29832 6.61539C3.66025 6.68943 3.99269 6.87217 4.25362 7.14051C4.51456 7.40885 4.69225 7.75074 4.76424 8.12294C4.83623 8.49513 4.79929 8.88093 4.65807 9.23153C4.51686 9.58213 4.27772 9.8818 3.97089 10.0926C3.66407 10.3035 3.30334 10.416 2.93433 10.416C2.43966 10.4155 1.96541 10.2131 1.61562 9.85341C1.26584 9.4937 1.0691 9.00597 1.06857 8.49726ZM13.0628 1.09642C13.4318 1.09642 13.7925 1.20895 14.0993 1.41979C14.4061 1.63062 14.6453 1.93029 14.7865 2.28089C14.9277 2.63149 14.9647 3.01729 14.8927 3.38949C14.8207 3.76168 14.643 4.10357 14.382 4.37191C14.1211 4.64025 13.7887 4.82299 13.4267 4.89703C13.0648 4.97106 12.6897 4.93306 12.3488 4.78784C12.0078 4.64261 11.7164 4.39669 11.5114 4.08115C11.3064 3.76562 11.197 3.39465 11.197 3.01516C11.1975 2.50644 11.3943 2.01872 11.744 1.65901C12.0938 1.29929 12.5681 1.09697 13.0628 1.09642Z" fill="#211F1F"/>
</svg>
