<svg width="22" height="21" viewBox="0 0 22 21" fill="none" xmlns="http://www.w3.org/2000/svg">
<path d="M4.67822 7.96514C3.52653 7.70932 2.60616 7.3486 1.96816 6.9089C1.3138 6.45793 0.950001 5.91882 0.950001 5.32058C0.950001 4.8171 1.19991 4.37552 1.62388 3.99856C2.04732 3.62209 2.64725 3.30718 3.35668 3.05444C4.77584 2.54883 6.64536 2.28775 8.45405 2.28775C9.05636 2.28775 9.66457 2.31718 10.2613 2.37605L11.0159 1.62147C11.1322 1.50513 11.369 1.33819 11.6297 1.20058C11.8894 1.06357 12.1833 0.95 12.4131 0.95H18.1437C18.2449 0.95 18.3652 0.986879 18.4953 1.04779C18.6263 1.10915 18.7715 1.19699 18.9238 1.30365C19.2284 1.51702 19.5651 1.8083 19.8784 2.12162C20.1917 2.43494 20.483 2.7716 20.6963 3.07624C20.803 3.22853 20.8908 3.37374 20.9522 3.50473C21.0131 3.63477 21.05 3.75507 21.05 3.85628V9.58692C21.05 9.8166 20.9381 10.1104 20.8017 10.3702C20.665 10.6307 20.498 10.8677 20.3783 10.9844C20.3782 10.9844 20.3781 10.9845 20.3781 10.9846L11.3095 20.0531C11.0466 20.3161 10.7012 20.4696 10.3303 20.4878L10.329 20.4878L10.257 20.4896H10.2558C9.85684 20.4896 9.48258 20.3336 9.20207 20.0531L1.95289 12.804C1.37285 12.2239 1.37313 11.2765 1.9527 10.6907L1.95289 10.6905L4.67822 7.96514ZM11.4808 2.53328C12.9881 2.7871 14.3202 3.23434 15.1297 3.86875C15.97 3.41346 17.0914 3.52267 17.7874 4.21864C18.2064 4.63769 18.4408 5.19873 18.4408 5.7906C18.4408 6.38247 18.2064 6.94351 17.7874 7.36256C17.3684 7.78156 16.8134 8.01595 16.2154 8.01595C15.6175 8.01595 15.0625 7.78156 14.6435 7.36256C13.8727 6.59181 13.7951 5.39745 14.3919 4.53154C13.6841 4.05054 12.3978 3.59208 10.6295 3.37854L2.63222 11.3758C2.42879 11.5793 2.42879 11.9152 2.63222 12.1186L9.88139 19.3678C9.97035 19.4567 10.0857 19.5101 10.2121 19.5201L10.2568 19.5219C10.4001 19.5216 10.531 19.4665 10.6232 19.3688L10.6242 19.3678L19.6932 10.2988C19.7569 10.2351 19.8519 10.0887 19.9339 9.93679C19.9743 9.86175 20.0107 9.78717 20.0375 9.7233C20.0644 9.65914 20.0795 9.611 20.0823 9.58451L20.0883 3.90587C20.0749 3.86414 20.043 3.80442 19.9929 3.72915C19.941 3.65104 19.872 3.55983 19.7906 3.46028C19.6278 3.26126 19.4173 3.03119 19.1988 2.80974C18.9804 2.5883 18.7548 2.37621 18.562 2.21302C18.4656 2.13139 18.378 2.06246 18.304 2.01083C18.2331 1.96137 18.1783 1.93045 18.1418 1.91773H12.4274C12.3994 1.92055 12.35 1.93568 12.2851 1.9626C12.2204 1.9894 12.1453 2.02572 12.0699 2.0662C11.9173 2.14811 11.7709 2.24314 11.7072 2.30682L11.4808 2.53328ZM5.83961 10.359C6.02786 10.1708 6.33671 10.1708 6.52496 10.359L11.641 15.475C11.8292 15.6633 11.8292 15.9721 11.641 16.1604C11.5469 16.2545 11.4255 16.3016 11.2983 16.3016C11.1711 16.3016 11.0497 16.2545 10.9556 16.1604L5.83961 11.0444C5.65135 10.8561 5.65135 10.5473 5.83961 10.359ZM7.54494 8.65371C7.73319 8.46546 8.04204 8.46546 8.23029 8.65371L13.3463 13.7697C13.5345 13.958 13.5345 14.2668 13.3463 14.4551C13.2522 14.5492 13.1308 14.5962 13.0036 14.5962C12.8764 14.5962 12.755 14.5492 12.6609 14.4551L7.54494 9.33906C7.35669 9.15081 7.35669 8.84196 7.54494 8.65371ZM9.35767 3.27967C9.06399 3.26494 8.76842 3.25548 8.45405 3.25548C6.41893 3.25548 4.77839 3.56366 3.64835 3.98003C3.0831 4.1883 2.64759 4.4229 2.35443 4.65795C2.05918 4.89467 1.91773 5.12397 1.91773 5.32058C1.91773 5.46035 1.98784 5.61842 2.13816 5.78592C2.28814 5.95304 2.51452 6.12552 2.81763 6.29293C3.41936 6.62525 4.31644 6.93366 5.49642 7.14091L9.35767 3.27967ZM17.096 4.90399C16.8528 4.66081 16.5283 4.539 16.2094 4.539C16.0659 4.539 15.9217 4.56633 15.781 4.6174C15.8994 4.83809 15.9641 5.07145 15.9641 5.3266C15.9641 5.7082 15.8138 6.07488 15.5183 6.41359C15.4407 6.50644 15.3362 6.55575 15.229 6.5684C15.2583 6.6065 15.2885 6.64295 15.3228 6.67721C15.7974 7.15181 16.6214 7.15181 17.096 6.67721C17.5827 6.19056 17.5827 5.39064 17.096 4.90399Z" fill="#211F1F" stroke="#211F1F" stroke-width="0.1"/>
</svg>
