<svg width="25" height="25" viewBox="0 0 25 25" fill="none" xmlns="http://www.w3.org/2000/svg">
<path d="M24 0H1C0.446875 0 0 0.446875 0 1V24C0 24.5531 0.446875 25 1 25H24C24.5531 25 25 24.5531 25 24V1C25 0.446875 24.5531 0 24 0ZM19.2281 9.05313C19.2375 9.2 19.2375 9.35313 19.2375 9.50313C19.2375 14.0906 15.7437 19.375 9.35938 19.375C7.39062 19.375 5.56562 18.8031 4.02812 17.8188C4.30937 17.85 4.57813 17.8625 4.86563 17.8625C6.49063 17.8625 7.98438 17.3125 9.175 16.3813C7.65 16.35 6.36875 15.35 5.93125 13.975C6.46562 14.0531 6.94687 14.0531 7.49687 13.9125C6.71164 13.753 6.00586 13.3265 5.49943 12.7056C4.99299 12.0846 4.71715 11.3075 4.71875 10.5063V10.4625C5.17812 10.7219 5.71875 10.8812 6.28438 10.9031C5.80888 10.5862 5.41893 10.1569 5.1491 9.65322C4.87926 9.14953 4.73789 8.58704 4.7375 8.01562C4.7375 7.36875 4.90625 6.77812 5.20938 6.26562C6.08095 7.33855 7.16853 8.21607 8.40145 8.84114C9.63437 9.46622 10.985 9.82485 12.3656 9.89375C11.875 7.53438 13.6375 5.625 15.7563 5.625C16.7563 5.625 17.6562 6.04375 18.2906 6.71875C19.075 6.57188 19.825 6.27812 20.4937 5.88437C20.2344 6.6875 19.6906 7.36562 18.9688 7.79375C19.6688 7.71875 20.3438 7.525 20.9688 7.25313C20.4969 7.94688 19.9062 8.5625 19.2281 9.05313Z" fill="#211F1F"/>
</svg>
