<svg width="25" height="25" viewBox="0 0 25 25" fill="none" xmlns="http://www.w3.org/2000/svg">
<path d="M12.5 5.06696C8.44308 5.06696 5.14509 8.36496 5.13951 12.4219C5.13951 13.8114 5.53013 15.1674 6.26674 16.3337L6.43973 16.6127L5.69754 19.3248L8.48214 18.5938L8.75 18.7556C9.87723 19.4252 11.1719 19.7824 12.4944 19.7824H12.5C16.5513 19.7824 19.9386 16.4844 19.9386 12.4275C19.9386 10.4632 19.0904 8.61607 17.7009 7.22656C16.3058 5.83147 14.4643 5.06696 12.5 5.06696ZM16.8248 15.5804C16.6406 16.0993 15.7589 16.5681 15.3348 16.6295C14.6317 16.7355 14.0848 16.6797 12.6842 16.077C10.4688 15.1172 9.01786 12.885 8.90625 12.74C8.79464 12.5949 8.00223 11.5402 8.00223 10.452C8.00223 9.36384 8.57143 8.82812 8.7779 8.60491C8.9788 8.3817 9.21875 8.32589 9.36942 8.32589C9.51451 8.32589 9.66518 8.32589 9.79353 8.33147C9.92745 8.33705 10.1116 8.28125 10.2902 8.71094C10.4743 9.15179 10.9152 10.24 10.971 10.3516C11.0268 10.4632 11.0658 10.5915 10.9877 10.7366C10.5636 11.5848 10.1116 11.5513 10.3404 11.942C11.1942 13.4096 12.048 13.9174 13.3482 14.5703C13.5714 14.6819 13.6998 14.6652 13.8281 14.5145C13.9565 14.3694 14.3806 13.8672 14.5257 13.6496C14.6708 13.4263 14.8214 13.4654 15.0223 13.5379C15.2232 13.6105 16.3114 14.1462 16.5346 14.2578C16.7578 14.3694 16.9029 14.4252 16.9587 14.5145C17.0089 14.6205 17.0089 15.067 16.8248 15.5804ZM22.3214 0H2.67857C1.19978 0 0 1.19978 0 2.67857V22.3214C0 23.8002 1.19978 25 2.67857 25H22.3214C23.8002 25 25 23.8002 25 22.3214V2.67857C25 1.19978 23.8002 0 22.3214 0ZM12.4944 21.2723C11.01 21.2723 9.55357 20.8984 8.26451 20.1953L3.57143 21.4286L4.82701 16.8415C4.05134 15.5022 3.64397 13.9788 3.64397 12.4163C3.64955 7.53906 7.61719 3.57143 12.4944 3.57143C14.8605 3.57143 17.0815 4.49219 18.7556 6.16629C20.4241 7.8404 21.4286 10.0614 21.4286 12.4275C21.4286 17.3047 17.3717 21.2723 12.4944 21.2723Z" fill="#211F1F"/>
</svg>
