<svg width="25" height="25" viewBox="0 0 25 25" fill="none" xmlns="http://www.w3.org/2000/svg">
<g clip-path="url(#clip0_116_376)">
<path d="M24.836 7.26514C24.836 5.06787 23.2198 3.30029 21.2227 3.30029C18.5176 3.17383 15.7588 3.125 12.9395 3.125H12.0606C9.2481 3.125 6.48443 3.17383 3.77935 3.30078C1.78716 3.30078 0.170951 5.07812 0.170951 7.27539C0.0488809 9.01318 -0.0028769 10.7515 5.27871e-05 12.4897C-0.00483003 14.228 0.0505085 15.9679 0.166068 17.7095C0.166068 19.9067 1.78228 21.689 3.77447 21.689C6.61626 21.8208 9.5313 21.8794 12.4952 21.8745C15.4639 21.8843 18.3708 21.8224 21.2159 21.689C23.2129 21.689 24.8292 19.9067 24.8292 17.7095C24.9463 15.9663 25.0001 14.228 24.9952 12.4849C25.0062 10.7466 24.9532 9.00667 24.836 7.26514ZM10.1075 17.2798V7.68506L17.1876 12.48L10.1075 17.2798Z" fill="#211F1F"/>
</g>
<defs>
<clipPath id="clip0_116_376">
<rect width="25" height="25" fill="white"/>
</clipPath>
</defs>
</svg>
