<svg width="19" height="19" viewBox="0 0 19 19" fill="none" xmlns="http://www.w3.org/2000/svg">
<path d="M6.24063 12.4044L6.56072 12.0844L6.27407 11.7342C5.30307 10.5477 4.72493 9.03721 4.72493 7.38725C4.72493 3.59156 7.81658 0.5 11.6125 0.5C15.4083 0.5 18.5 3.59156 18.5 7.38725C18.5 11.1829 15.4083 14.2745 11.6125 14.2745L11.6114 14.2745C10.0274 14.2779 8.49142 13.7307 7.26645 12.7264L6.91616 12.4393L6.59588 12.7596L1.06317 18.2928L0.707042 17.9364L6.24063 12.4044ZM10.8737 7.14852H11.3737V6.64852V4.93235H11.8512V6.64852V7.14852H12.3512H14.0675V7.62597H12.3512H11.8512V8.12597V9.84215H11.3737V8.12597V7.62597H10.8737H9.15745V7.14852H10.8737ZM18.0225 7.38725C18.0225 3.83854 15.1613 0.97745 11.6125 0.97745C8.06366 0.97745 5.20244 3.83854 5.20244 7.38725C5.20244 10.936 8.06366 13.797 11.6125 13.797C15.1613 13.797 18.0225 10.936 18.0225 7.38725Z" fill="#211F1F" stroke="black"/>
</svg>
